<svg width="155" height="155" viewBox="0 0 155 155" fill="none" xmlns="http://www.w3.org/2000/svg">
<circle cx="162.86" cy="77.6102" r="62.3682" transform="rotate(66.7138 162.86 77.6102)" fill="url(#paint0_linear_2260_219907)"/>
<g filter="url(#filter0_f_2260_219907)">
<circle cx="106.824" cy="122.3" r="83.7796" transform="rotate(-77.4173 106.824 122.3)" fill="url(#paint1_radial_2260_219907)"/>
</g>
<circle cx="107.632" cy="112.387" r="83.7796" transform="rotate(-77.4173 107.632 112.387)" fill="url(#paint2_linear_2260_219907)"/>
<path fill-rule="evenodd" clip-rule="evenodd" d="M41.561 86.0911C36.9047 86.2556 31.7969 87.0845 28.5422 89.3117C28.0055 91.1339 27.5259 92.9864 27.106 94.8676C26.6106 97.0872 26.2073 99.3059 25.8937 101.52C29.0756 99.2763 34.2546 98.1283 38.0221 97.597C53.7163 95.3836 59.251 106.38 67.1352 125.143L67.138 125.149C75.0723 144.03 84.9442 167.522 115.857 165.971C127.435 165.389 137.907 158.821 138.347 158.542C138.787 158.262 149.185 151.577 154.635 141.346C156.598 137.831 158.223 133.657 159.259 129.188L159.264 129.166C163.936 108.235 149.988 92.7508 138.421 79.911L138.4 79.887C124.77 64.7725 117.171 55.0871 125.848 41.8237C128.875 37.5862 130.74 35.4063 135.059 32.6711C132.761 31.9485 130.414 31.3175 128.02 30.7831C126.2 30.3769 124.381 30.0328 122.565 29.7491C118.771 32.657 116.058 35.9896 113.939 40.1284C110.722 46.8064 110.041 53.4803 111.87 60.2674C114.554 70.2822 122.414 78.9979 130.011 87.4227L130.027 87.4401C136.517 94.6362 143.23 102.082 146.603 110.092C150.189 118.604 149.581 126.851 144.686 136.043C140.664 143.605 132.378 148.974 132.306 149.019C132.225 149.071 123.805 154.279 115.297 154.706C104.896 155.228 97.1736 152.271 90.9941 145.407C85.1787 138.947 81.2939 129.705 77.541 120.771L77.5319 120.749C73.1373 110.29 68.5909 99.4708 60.6681 92.7828C55.3011 88.249 48.9713 86.0272 41.561 86.0911Z" fill="url(#paint3_linear_2260_219907)"/>
<path d="M25.1695 29.0305C28.597 29.7777 31.2071 32.5638 31.7293 36.0328L32.3193 39.9517C32.3795 40.3515 32.9558 40.3515 33.016 39.9517L33.606 36.0328C34.1283 32.5638 36.7384 29.7777 40.1659 29.0305L41.3301 28.7767C41.6997 28.6961 41.6998 28.169 41.3302 28.0883L40.1642 27.8338C36.7375 27.086 34.1284 24.3002 33.6062 20.832L33.016 16.9117C32.9558 16.5119 32.3795 16.5119 32.3193 16.9117L31.7291 20.832C31.207 24.3002 28.5978 27.086 25.1712 27.8339L24.0052 28.0883C23.6356 28.169 23.6357 28.6961 24.0053 28.7767L25.1695 29.0305Z" fill="#032395"/>
<defs>
<filter id="filter0_f_2260_219907" x="10.3917" y="25.8682" width="192.865" height="192.865" filterUnits="userSpaceOnUse" color-interpolation-filters="sRGB">
<feFlood flood-opacity="0" result="BackgroundImageFix"/>
<feBlend mode="normal" in="SourceGraphic" in2="BackgroundImageFix" result="shape"/>
<feGaussianBlur stdDeviation="6.31735" result="effect1_foregroundBlur_2260_219907"/>
</filter>
<linearGradient id="paint0_linear_2260_219907" x1="166.951" y1="-3.98617" x2="143.632" y2="135.719" gradientUnits="userSpaceOnUse">
<stop stop-color="#0044F4"/>
<stop offset="1" stop-color="#55ADFF" stop-opacity="0"/>
</linearGradient>
<radialGradient id="paint1_radial_2260_219907" cx="0" cy="0" r="1" gradientUnits="userSpaceOnUse" gradientTransform="translate(176.812 144.047) rotate(-165.15) scale(159.081)">
<stop stop-color="#2E9BFF"/>
<stop offset="0.510908" stop-color="#001066"/>
<stop offset="1" stop-color="#210261"/>
</radialGradient>
<linearGradient id="paint2_linear_2260_219907" x1="188.096" y1="141.607" x2="23.8524" y2="93.3629" gradientUnits="userSpaceOnUse">
<stop stop-color="#1930FF"/>
<stop offset="0.4078" stop-color="#01369C" stop-opacity="0.49"/>
<stop offset="0.926794" stop-color="#030E72" stop-opacity="0"/>
</linearGradient>
<linearGradient id="paint3_linear_2260_219907" x1="22.3954" y1="130.25" x2="104.726" y2="60.3131" gradientUnits="userSpaceOnUse">
<stop offset="0.0693598" stop-color="#000D7F" stop-opacity="0"/>
<stop offset="1" stop-color="#1454F7"/>
</linearGradient>
</defs>
</svg>
