<svg width="156" height="155" viewBox="0 0 156 155" fill="none" xmlns="http://www.w3.org/2000/svg">
<circle cx="-10.9473" cy="98.3158" r="47.0667" transform="rotate(-150 -10.9473 98.3158)" fill="url(#paint0_linear_2260_219892)"/>
<g filter="url(#filter0_f_2260_219892)">
<path d="M-25.4613 2.0977C-13.4352 -18.7321 13.1997 -25.8689 34.0294 -13.8428C54.8592 -1.81673 61.996 24.8182 49.9699 45.6479C37.9439 66.4777 11.309 73.6145 -9.52078 61.5884C-30.3505 49.5623 -37.4873 22.9274 -25.4613 2.0977Z" fill="url(#paint1_linear_2260_219892)"/>
</g>
<circle cx="12.6518" cy="17.252" r="43.5502" transform="rotate(-150 12.6518 17.252)" fill="url(#paint2_radial_2260_219892)"/>
<circle cx="164.39" cy="102.162" r="40.9398" transform="rotate(-150 164.39 102.162)" fill="url(#paint3_linear_2260_219892)"/>
<g filter="url(#filter1_f_2260_219892)">
<circle cx="39.0194" cy="158.139" r="68.0414" transform="rotate(-150 39.0194 158.139)" fill="url(#paint4_radial_2260_219892)"/>
</g>
<circle cx="31.3617" cy="153.717" r="68.0414" transform="rotate(-150 31.3617 153.717)" fill="url(#paint5_linear_2260_219892)"/>
<path d="M57.8448 54.2781C59.8535 54.716 61.3832 56.3488 61.6892 58.3818L62.035 60.6785C62.0703 60.9128 62.408 60.9128 62.4433 60.6785L62.7891 58.3818C63.0951 56.3488 64.6248 54.716 66.6335 54.2781L67.3158 54.1293C67.5324 54.0821 67.5325 53.7732 67.3159 53.7259L66.6325 53.5768C64.6243 53.1385 63.0952 51.5059 62.7892 49.4733L62.4433 47.1757C62.408 46.9414 62.0703 46.9414 62.035 47.1757L61.6891 49.4733C61.3831 51.5058 59.854 53.1385 57.8458 53.5768L57.1624 53.7259C56.9458 53.7732 56.9459 54.0821 57.1625 54.1293L57.8448 54.2781Z" fill="#F07402"/>
<circle cx="109.194" cy="18.9065" r="3.28884" transform="rotate(-150 109.194 18.9065)" fill="#D88200"/>
<circle cx="137.385" cy="87.6351" r="2.31244" transform="rotate(-150 137.385 87.6351)" fill="#FCB600"/>
<path fill-rule="evenodd" clip-rule="evenodd" d="M-4.90507 199.909C-5.90962 203.557 -6.50892 207.717 -5.57427 210.78C-4.29273 211.639 -2.97379 212.461 -1.61809 213.244C-0.0185489 214.167 1.6027 215.019 3.24194 215.8C2.27702 212.789 2.64646 208.497 3.15061 205.448C5.25072 192.749 15.1175 191.133 31.5736 189.585L31.5794 189.584C48.1391 188.026 68.743 186.087 75.0563 161.755C77.4199 152.642 74.8757 142.93 74.7662 142.521C74.6567 142.112 72.0041 132.43 65.4003 125.719C63.1545 123.343 60.3144 121.069 57.1037 119.18L57.0878 119.171C42.004 110.462 26.6139 117.507 13.8525 123.348L13.8286 123.359C-1.19702 130.246 -10.5497 133.781 -18.7183 123.832C-21.2661 120.457 -22.5019 118.481 -23.5715 114.47C-24.6901 116.075 -25.7497 117.74 -26.7458 119.466C-27.5029 120.777 -28.2118 122.103 -28.8731 123.441C-27.5421 127.088 -25.6191 130 -22.9272 132.649C-18.5342 136.765 -13.5281 138.915 -7.82409 139.148C0.588971 139.503 9.2535 135.531 17.6289 131.692L17.6462 131.684C24.8004 128.404 32.202 125.012 39.2294 124.345C46.6971 123.636 52.9395 126.112 58.8729 132.139C63.7545 137.094 65.9008 144.821 65.9187 144.887C65.9388 144.962 67.928 152.753 66.1909 159.45C64.0662 167.637 59.898 172.902 53.0763 176.022C46.6568 178.958 38.5511 179.722 30.7152 180.458L30.6962 180.46C21.5234 181.323 12.0339 182.216 4.92532 186.729C0.107282 189.786 -3.15323 194.151 -4.90507 199.909Z" fill="url(#paint6_linear_2260_219892)"/>
<defs>
<filter id="filter0_f_2260_219892" x="-43.9379" y="-32.3193" width="112.385" height="112.384" filterUnits="userSpaceOnUse" color-interpolation-filters="sRGB">
<feFlood flood-opacity="0" result="BackgroundImageFix"/>
<feBlend mode="normal" in="SourceGraphic" in2="BackgroundImageFix" result="shape"/>
<feGaussianBlur stdDeviation="6.31735" result="effect1_foregroundBlur_2260_219892"/>
</filter>
<filter id="filter1_f_2260_219892" x="-41.6679" y="77.4512" width="161.375" height="161.375" filterUnits="userSpaceOnUse" color-interpolation-filters="sRGB">
<feFlood flood-opacity="0" result="BackgroundImageFix"/>
<feBlend mode="normal" in="SourceGraphic" in2="BackgroundImageFix" result="shape"/>
<feGaussianBlur stdDeviation="6.31735" result="effect1_foregroundBlur_2260_219892"/>
</filter>
<linearGradient id="paint0_linear_2260_219892" x1="-7.85946" y1="36.7384" x2="-25.4578" y2="142.168" gradientUnits="userSpaceOnUse">
<stop stop-color="#F78319"/>
<stop offset="1" stop-color="#FFE715" stop-opacity="0"/>
</linearGradient>
<linearGradient id="paint1_linear_2260_219892" x1="-12.1208" y1="11.7416" x2="56.3247" y2="126.904" gradientUnits="userSpaceOnUse">
<stop stop-color="#D36601" stop-opacity="0.51"/>
<stop offset="1" stop-color="#9D1C00"/>
</linearGradient>
<radialGradient id="paint2_radial_2260_219892" cx="0" cy="0" r="1" gradientUnits="userSpaceOnUse" gradientTransform="translate(49.8168 36.4184) rotate(-151.29) scale(78.2202 75.8831)">
<stop stop-color="#FF8D24"/>
<stop offset="1" stop-color="#FFA31A" stop-opacity="0"/>
</radialGradient>
<linearGradient id="paint3_linear_2260_219892" x1="163.146" y1="67.0706" x2="154.041" y2="143.101" gradientUnits="userSpaceOnUse">
<stop stop-color="#FEB527" stop-opacity="0"/>
<stop offset="1" stop-color="#F66700"/>
</linearGradient>
<radialGradient id="paint4_radial_2260_219892" cx="0" cy="0" r="1" gradientUnits="userSpaceOnUse" gradientTransform="translate(95.8601 175.8) rotate(-165.15) scale(129.197)">
<stop stop-color="#FEA800"/>
<stop offset="0.510908" stop-color="#FFAB09"/>
<stop offset="1" stop-color="#FB0202"/>
</radialGradient>
<linearGradient id="paint5_linear_2260_219892" x1="96.7106" y1="177.448" x2="-36.6797" y2="138.267" gradientUnits="userSpaceOnUse">
<stop stop-color="#FFA319"/>
<stop offset="0.4078" stop-color="#FF4D15" stop-opacity="0.49"/>
<stop offset="0.926794" stop-color="#AD0101" stop-opacity="0"/>
</linearGradient>
<linearGradient id="paint6_linear_2260_219892" x1="24.6551" y1="225.496" x2="-9.5254" y2="144.695" gradientUnits="userSpaceOnUse">
<stop offset="0.0693598" stop-color="#FF3737" stop-opacity="0"/>
<stop offset="1" stop-color="#FF9C08"/>
</linearGradient>
</defs>
</svg>
