<svg width="123" height="90" viewBox="0 0 123 90" fill="none" xmlns="http://www.w3.org/2000/svg">
<circle cx="59" cy="35" r="35" fill="url(#paint0_linear_3815_293245)"/>
<path fill-rule="evenodd" clip-rule="evenodd" d="M63.8613 5.04801C63.375 3.18182 62.5795 1.19318 61.3863 0.0792151C60.6018 0.026687 59.8102 0 59.0124 0C58.0711 0 57.1385 0.037151 56.2159 0.110067C57.4091 1.19318 58.3398 3.18182 58.8942 4.65587C61.2034 10.7963 57.2602 14.0236 50.3916 18.9005L50.3892 18.9022C43.4774 23.8099 34.8776 29.9161 38.2913 42.2639C39.5704 46.8886 43.1681 50.5268 43.3206 50.6793C43.4731 50.8318 47.1113 54.4295 51.7361 55.7087C53.3326 56.1848 55.1657 56.4649 57.0642 56.4805H57.0735C65.9502 56.4805 70.9478 49.4494 75.0917 43.6193L75.0995 43.6084C79.9763 36.7397 83.2037 32.7965 89.3441 35.1058C91.3288 35.9465 92.3776 36.5034 93.872 38.0015C93.9567 37.0081 94 36.0029 94 34.9875C94 34.2159 93.975 33.4501 93.9258 32.6909C92.409 31.4204 90.8181 30.625 88.9551 30.1418C85.9673 29.4447 83.2099 29.7715 80.633 31.1222C76.8294 33.1095 74.0172 37.0704 71.2988 40.8991L71.2932 40.907C68.9715 44.1779 66.5689 47.5609 63.6372 49.6461C60.5219 51.862 57.1358 52.3599 52.981 51.2115C49.5637 50.2685 46.6476 47.4053 46.6227 47.3804C46.5947 47.3524 43.7314 44.4207 42.7916 41.0221C41.6431 36.8673 42.1411 33.4812 44.357 30.3659C46.4422 27.4342 49.8252 25.0315 53.0961 22.7098L53.104 22.7042C56.9327 19.9859 60.8936 17.1737 62.8809 13.3701C64.2285 10.7932 64.5553 8.03574 63.8613 5.04801ZM93.8192 38.5672C93.8192 38.5672 93.8192 38.5673 93.8192 38.5672Z" fill="url(#paint1_radial_3815_293245)"/>
<ellipse cx="75.9088" cy="59.1404" rx="14.1358" ry="9.33737" transform="rotate(-29.8948 75.9088 59.1404)" fill="url(#paint2_radial_3815_293245)"/>
<path d="M87 54.5C77.34 54.5 69.5 62.34 69.5 72C69.5 81.66 77.34 89.5 87 89.5C96.66 89.5 104.5 81.66 104.5 72C104.5 62.34 96.66 54.5 87 54.5ZM89.4675 82.6575V83.6725C89.4675 84.95 88.4175 86 87.14 86H87.1225C85.845 86 84.795 84.95 84.795 83.6725V82.6225C82.4675 82.1325 80.4025 80.855 79.5275 78.7025C79.125 77.74 79.8775 76.6725 80.9275 76.6725H81.3475C81.995 76.6725 82.52 77.11 82.765 77.7225C83.2725 79.035 84.6025 79.945 87.1575 79.945C90.5875 79.945 91.3575 78.23 91.3575 77.1625C91.3575 75.71 90.5875 74.345 86.685 73.4175C82.345 72.3675 79.37 70.5825 79.37 66.995C79.37 63.985 81.8025 62.025 84.8125 61.3775V60.3275C84.8125 59.05 85.8625 58 87.14 58H87.1575C88.435 58 89.485 59.05 89.485 60.3275V61.4125C91.9 62.0075 93.4225 63.5125 94.0875 65.3675C94.4375 66.33 93.7025 67.345 92.67 67.345H92.215C91.5675 67.345 91.0425 66.89 90.8675 66.26C90.465 64.93 89.3625 64.0725 87.1575 64.0725C84.5325 64.0725 82.9575 65.2625 82.9575 66.9425C82.9575 68.4125 84.095 69.375 87.63 70.285C91.165 71.195 94.945 72.7175 94.945 77.1275C94.91 80.33 92.5125 82.08 89.4675 82.6575V82.6575Z" fill="#92A3F5"/>
<rect x="115" y="54" width="8" height="8" rx="4" fill="#92A3F5"/>
<rect x="53" y="79" width="6" height="6" rx="3" fill="#92A3F5"/>
<rect y="48" width="6" height="6" rx="3" fill="#92A3F5"/>
<defs>
<linearGradient id="paint0_linear_3815_293245" x1="80.8398" y1="33.6485" x2="15.7247" y2="16.017" gradientUnits="userSpaceOnUse">
<stop stop-color="#FF702E"/>
<stop offset="0.453123" stop-color="#9B1D3B"/>
<stop offset="1" stop-color="#2E2D5B"/>
</linearGradient>
<radialGradient id="paint1_radial_3815_293245" cx="0" cy="0" r="1" gradientUnits="userSpaceOnUse" gradientTransform="translate(75.7011 39.185) rotate(-144.964) scale(31.7634)">
<stop stop-color="#FF702E"/>
<stop offset="1" stop-color="#9B1D3B"/>
</radialGradient>
<radialGradient id="paint2_radial_3815_293245" cx="0" cy="0" r="1" gradientUnits="userSpaceOnUse" gradientTransform="translate(76.8837 59.1404) rotate(90) scale(8.48852 12.8508)">
<stop stop-color="#431901" stop-opacity="0.53"/>
<stop offset="1" stop-color="#BC5F25" stop-opacity="0"/>
</radialGradient>
</defs>
</svg>
