<svg width="148" height="84" viewBox="0 0 148 84" fill="none" xmlns="http://www.w3.org/2000/svg">
<circle cx="74" cy="49" r="35" fill="url(#paint0_linear_3810_287960)"/>
<path fill-rule="evenodd" clip-rule="evenodd" d="M78.8613 19.048C78.375 17.1818 77.5795 15.1932 76.3863 14.0792C75.6018 14.0267 74.8102 14 74.0124 14C73.0711 14 72.1385 14.0372 71.2159 14.1101C72.4091 15.1932 73.3398 17.1818 73.8942 18.6559C76.2034 24.7963 72.2602 28.0236 65.3916 32.9005L65.3892 32.9022C58.4774 37.8099 49.8776 43.9161 53.2913 56.2639C54.5704 60.8886 58.1681 64.5268 58.3206 64.6793C58.4731 64.8318 62.1113 68.4295 66.7361 69.7087C68.3326 70.1848 70.1657 70.4649 72.0642 70.4805H72.0735C80.9502 70.4805 85.9478 63.4494 90.0917 57.6193L90.0995 57.6084C94.9763 50.7397 98.2037 46.7965 104.344 49.1058C106.329 49.9465 107.378 50.5034 108.872 52.0015C108.957 51.0081 109 50.0029 109 48.9875C109 48.2159 108.975 47.4501 108.926 46.6909C107.409 45.4204 105.818 44.625 103.955 44.1418C100.967 43.4447 98.2099 43.7715 95.633 45.1222C91.8294 47.1095 89.0172 51.0704 86.2988 54.8991L86.2932 54.907C83.9715 58.1779 81.5689 61.5609 78.6372 63.6461C75.5219 65.862 72.1358 66.3599 67.981 65.2115C64.5637 64.2685 61.6476 61.4053 61.6227 61.3804C61.5947 61.3524 58.7314 58.4207 57.7916 55.0221C56.6431 50.8673 57.1411 47.4812 59.357 44.3659C61.4422 41.4342 64.8252 39.0315 68.0961 36.7098L68.104 36.7042C71.9327 33.9859 75.8936 31.1737 77.8809 27.3701C79.2285 24.7932 79.5553 22.0357 78.8613 19.048ZM108.819 52.5672C108.819 52.5672 108.819 52.5673 108.819 52.5672Z" fill="url(#paint1_radial_3810_287960)"/>
<circle cx="4" cy="71" r="4" fill="#4D38AB"/>
<circle cx="21.5" cy="40.5" r="1.5" fill="#4D38AB"/>
<circle cx="129.5" cy="9.5" r="1.5" fill="#4D38AB"/>
<circle cx="22" cy="59" r="3" fill="#92A3F5"/>
<circle cx="93" cy="25" r="3" fill="#B8C5F8"/>
<circle cx="145" cy="3" r="3" fill="#4D38AB"/>
<circle cx="122" cy="25" r="6" fill="#92A3F5"/>
<circle cx="88" cy="37" r="2" fill="#B8C5F8"/>
<circle cx="140" cy="21" r="2" fill="#92A3F5"/>
<g filter="url(#filter0_d_3810_287960)">
<path d="M62.3426 22.5694C59.3857 22.1607 56.4664 21.5152 53.6129 20.639C50.8104 19.8154 48.0749 18.7786 45.4305 17.5377L44.6825 17.1945L44.0553 17.7212C41.7945 19.5709 39.3955 21.245 36.8793 22.7287C34.3216 24.2728 31.644 25.6087 28.8722 26.7235L27.9547 27.0811L29.262 37.6148C31.3611 54.5268 49.2353 58.7337 49.4073 58.7765L49.8556 58.8747L50.2662 58.6699C50.443 58.6479 66.7277 50.1502 64.6271 33.2255L63.3197 22.6918L62.3426 22.5694Z" fill="#92A3F5"/>
</g>
<defs>
<filter id="filter0_d_3810_287960" x="27.9546" y="16.1946" width="44.8594" height="49.6802" filterUnits="userSpaceOnUse" color-interpolation-filters="sRGB">
<feFlood flood-opacity="0" result="BackgroundImageFix"/>
<feColorMatrix in="SourceAlpha" type="matrix" values="0 0 0 0 0 0 0 0 0 0 0 0 0 0 0 0 0 0 127 0" result="hardAlpha"/>
<feOffset dx="4" dy="3"/>
<feGaussianBlur stdDeviation="2"/>
<feComposite in2="hardAlpha" operator="out"/>
<feColorMatrix type="matrix" values="0 0 0 0 0 0 0 0 0 0 0 0 0 0 0 0 0 0 0.2 0"/>
<feBlend mode="normal" in2="BackgroundImageFix" result="effect1_dropShadow_3810_287960"/>
<feBlend mode="normal" in="SourceGraphic" in2="effect1_dropShadow_3810_287960" result="shape"/>
</filter>
<linearGradient id="paint0_linear_3810_287960" x1="95.8398" y1="47.6485" x2="30.7247" y2="30.017" gradientUnits="userSpaceOnUse">
<stop stop-color="#FF702E"/>
<stop offset="0.453123" stop-color="#9B1D3B"/>
<stop offset="1" stop-color="#2E2D5B"/>
</linearGradient>
<radialGradient id="paint1_radial_3810_287960" cx="0" cy="0" r="1" gradientUnits="userSpaceOnUse" gradientTransform="translate(90.7011 53.185) rotate(-144.964) scale(31.7634)">
<stop stop-color="#FF702E"/>
<stop offset="1" stop-color="#9B1D3B"/>
</radialGradient>
</defs>
</svg>
