<svg width="92" height="96" viewBox="0 0 92 96" fill="none" xmlns="http://www.w3.org/2000/svg">
<circle cx="57" cy="61" r="35" fill="url(#paint0_linear_3810_287939)"/>
<path fill-rule="evenodd" clip-rule="evenodd" d="M61.8613 31.048C61.375 29.1818 60.5795 27.1932 59.3863 26.0792C58.6018 26.0267 57.8102 26 57.0124 26C56.0711 26 55.1385 26.0372 54.2159 26.1101C55.4091 27.1932 56.3398 29.1818 56.8942 30.6559C59.2034 36.7963 55.2602 40.0236 48.3916 44.9005L48.3892 44.9022C41.4774 49.8099 32.8776 55.9161 36.2913 68.2639C37.5704 72.8886 41.1681 76.5268 41.3206 76.6793C41.4731 76.8318 45.1113 80.4295 49.7361 81.7087C51.3326 82.1848 53.1657 82.4649 55.0642 82.4805H55.0735C63.9502 82.4805 68.9478 75.4494 73.0917 69.6193L73.0995 69.6084C77.9763 62.7397 81.2037 58.7965 87.3441 61.1058C89.3288 61.9465 90.3776 62.5034 91.872 64.0015C91.9567 63.0081 92 62.0029 92 60.9875C92 60.2159 91.975 59.4501 91.9258 58.6909C90.409 57.4204 88.8181 56.625 86.9551 56.1418C83.9673 55.4447 81.2099 55.7715 78.633 57.1222C74.8294 59.1095 72.0172 63.0704 69.2988 66.8991L69.2932 66.907C66.9715 70.1779 64.5689 73.5609 61.6372 75.6461C58.5219 77.862 55.1358 78.3599 50.981 77.2115C47.5637 76.2685 44.6476 73.4053 44.6227 73.3804C44.5947 73.3524 41.7314 70.4207 40.7916 67.0221C39.6431 62.8673 40.1411 59.4812 42.357 56.3659C44.4422 53.4342 47.8252 51.0315 51.0961 48.7098L51.104 48.7042C54.9327 45.9859 58.8936 43.1737 60.8809 39.3701C62.2285 36.7932 62.5553 34.0357 61.8613 31.048ZM91.8192 64.5672C91.8192 64.5672 91.8192 64.5673 91.8192 64.5672Z" fill="url(#paint1_radial_3810_287939)"/>
<ellipse cx="74.5" cy="42.5" rx="14.5" ry="5.5" fill="url(#paint2_radial_3810_287939)"/>
<path fill-rule="evenodd" clip-rule="evenodd" d="M62.1256 5.12563C68.9598 -1.70854 80.0402 -1.70854 86.8744 5.12563C93.7085 11.9598 93.7085 23.0402 86.8744 29.8744L74.5 42.2487L62.1256 29.8744C55.2915 23.0402 55.2915 11.9598 62.1256 5.12563ZM74.5 22.5C77.2614 22.5 79.5 20.2614 79.5 17.5C79.5 14.7386 77.2614 12.5 74.5 12.5C71.7386 12.5 69.5 14.7386 69.5 17.5C69.5 20.2614 71.7386 22.5 74.5 22.5Z" fill="#92A3F5"/>
<circle cx="4" cy="73" r="4" fill="#92A3F5"/>
<defs>
<linearGradient id="paint0_linear_3810_287939" x1="78.8398" y1="59.6485" x2="13.7247" y2="42.017" gradientUnits="userSpaceOnUse">
<stop stop-color="#FF702E"/>
<stop offset="0.453123" stop-color="#9B1D3B"/>
<stop offset="1" stop-color="#2E2D5B"/>
</linearGradient>
<radialGradient id="paint1_radial_3810_287939" cx="0" cy="0" r="1" gradientUnits="userSpaceOnUse" gradientTransform="translate(73.7011 65.185) rotate(-144.964) scale(31.7634)">
<stop stop-color="#FF702E"/>
<stop offset="1" stop-color="#9B1D3B"/>
</radialGradient>
<radialGradient id="paint2_radial_3810_287939" cx="0" cy="0" r="1" gradientUnits="userSpaceOnUse" gradientTransform="translate(75.5 42.5) rotate(90) scale(5 13.1818)">
<stop stop-color="#431901" stop-opacity="0.61"/>
<stop offset="1" stop-color="#CB723A" stop-opacity="0"/>
</radialGradient>
</defs>
</svg>
