<svg width="148" height="96" viewBox="0 0 148 96" fill="none" xmlns="http://www.w3.org/2000/svg">
<g clip-path="url(#clip0_3812_288132)">
<circle cx="77" cy="3" r="3" fill="#4D38AB"/>
<circle cx="73.9997" cy="60.9997" r="35" fill="url(#paint0_linear_3812_288132)"/>
<path fill-rule="evenodd" clip-rule="evenodd" d="M78.861 31.0478C78.3747 29.1816 77.5793 27.1929 76.3861 26.079C75.6016 26.0264 74.81 25.9998 74.0122 25.9998C73.0709 25.9998 72.1382 26.0369 71.2156 26.1098C72.4088 27.1929 73.3396 29.1816 73.8939 30.6556C76.2032 36.796 72.26 40.0234 65.3913 44.9002L65.3889 44.902C58.4771 49.8096 49.8773 55.9158 53.291 68.2636C54.5702 72.8884 58.1679 76.5266 58.3204 76.6791C58.4729 76.8316 62.1111 80.4293 66.7358 81.7084C68.3324 82.1846 70.1655 82.4647 72.0639 82.4802H72.0733C80.95 82.4802 85.9475 75.4492 90.0915 69.619L90.0992 69.6081C94.9761 62.7395 98.2034 58.7963 104.344 61.1056C106.329 61.9463 107.377 62.5032 108.872 64.0013C108.956 63.0079 109 62.0026 109 60.9873C109 60.2156 108.975 59.4498 108.926 58.6906C107.409 57.4202 105.818 56.6247 103.955 56.1416C100.967 55.4444 98.2097 55.7712 95.6327 57.1219C91.8291 59.1092 89.0169 63.0701 86.2986 66.8988L86.293 66.9067C83.9713 70.1777 81.5686 73.5606 78.6369 75.6458C75.5216 77.8617 72.1355 78.3597 67.9807 77.2113C64.5635 76.2683 61.6473 73.405 61.6224 73.3801C61.5944 73.3521 58.7312 70.4204 57.7913 67.0219C56.6429 62.8671 57.1409 59.481 59.3568 56.3656C61.4419 53.4339 64.8249 51.0313 68.0959 48.7096L68.1038 48.704C71.9325 45.9856 75.8933 43.1735 77.8807 39.3698C79.2283 36.7929 79.555 34.0355 78.861 31.0478ZM108.819 64.567C108.819 64.567 108.819 64.567 108.819 64.567V64.567Z" fill="url(#paint1_radial_3812_288132)"/>
<ellipse cx="56.0054" cy="59.9982" rx="19.4132" ry="6.7023" transform="rotate(-32.1191 56.0054 59.9982)" fill="url(#paint2_radial_3812_288132)"/>
<ellipse rx="12.7745" ry="3.66454" transform="matrix(-0.736577 -0.676353 -0.676353 0.736577 98.0061 45.5255)" fill="url(#paint3_radial_3812_288132)"/>
<path d="M115.093 9.99773C116.741 9.3965 118.414 10.7074 117.956 12.0829C117.6 13.1546 116.544 13.8285 115.693 14.0296C115.736 13.3527 115.093 9.99773 115.093 9.99773Z" fill="#4D38AB"/>
<path d="M115.098 9.99237C114.153 10.366 112.323 13.0538 114.166 13.7109C113.838 14.0905 113.013 14.0763 113.013 14.0763L108.264 15.7543L106.064 16.5689C106.064 16.5689 103.009 13.6667 103.505 12.7637C103.59 12.2818 102.464 11.0137 102.464 11.0137C102.223 11.1498 102.344 11.4544 102.442 11.7011C102.534 11.9298 102.605 12.1087 102.35 12.0577C100.766 12.1398 101.407 12.6897 101.962 13.1656C102.174 13.3476 102.374 13.5188 102.432 13.6489C102.47 13.7227 102.527 13.8404 102.601 13.9908C103.135 15.0797 104.669 17.6604 105.595 17.8574C106.674 18.0315 109.895 17.2774 109.895 17.2774C110.314 18.9463 112.751 26.8985 111.318 27.7714C109.377 28.9536 106.318 30.8171 103.321 33.1091C102.7 33.584 101.695 35.307 100.565 37.2437C99.6878 38.748 98.7351 40.3812 97.8288 41.6587C97.6672 41.8864 97.1038 41.6586 96.4508 41.3945C95.6183 41.0579 94.6404 40.6625 94.1638 41.0769L98.1463 43.3813L104.673 34.9165C104.673 34.9165 110.68 33.7574 113.086 32.4627C115.499 31.1644 115.602 26.9042 115.783 23.6274C115.893 21.6498 116.678 17.5284 115.83 15.4498C115.503 15.0158 115.65 14.5046 115.798 13.7775C116.158 12.0152 115.859 10.6445 115.098 9.99237Z" fill="#92A3F5"/>
<path d="M115.928 30.2216C116.11 32.6052 115.536 39.9332 115.536 39.9332L121.187 48.613C120.613 49.5115 118.749 53.0519 118.749 53.0519C117.756 52.0176 119.776 48.8807 119.352 48.2755C117.527 45.6724 114.614 42.7255 113.49 40.8114C111.705 37.7746 111.745 35.32 111.493 31.5246C111.452 27.7206 112.317 26.8681 112.317 26.8681L115.928 30.2216Z" fill="#92A3F5"/>
<path d="M111.371 26.7806C111.371 26.7806 110.515 20.6256 109.828 17.3286C109.563 17.4193 108.827 17.5078 108.827 17.5078C108.644 16.9147 108.545 16.4396 108.253 15.7587C109.226 15.3365 111.52 14.2211 113.014 14.076C113.014 14.076 113.069 15.3383 113.687 15.7488C114.305 16.1593 115.367 15.8629 115.817 15.4406C116.811 16.8506 117.322 17.8846 117.799 19.1978C117.54 19.5999 116.723 20.5902 116.205 20.7698C116.271 22.7899 115.827 25.9735 115.974 27.5582C116.074 28.6403 117.087 32.939 117.233 33.8254C112.223 34.8813 110.37 33.98 107.731 29.8897C109.342 28.8139 111.371 26.7806 111.371 26.7806Z" fill="#4D38AB"/>
<path d="M117.778 19.148L116.117 20.5553L116.982 22.6975L109.475 24.0377C109.662 24.437 110.827 24.9421 112.322 24.4575C113.429 24.0985 118.676 24.9908 118.91 23.8383C119.075 22.6535 118.075 19.8652 117.778 19.148Z" fill="#92A3F5"/>
<path fill-rule="evenodd" clip-rule="evenodd" d="M100.842 5.91136C100.914 5.01544 100.697 3.97797 100.092 3.0262C98.9664 1.2542 97.0191 0.475056 95.7431 1.28592C94.4671 2.09678 94.3456 4.19064 95.4717 5.96263C96.0263 6.83529 96.78 7.46717 97.5546 7.7869C98.7313 8.32947 100.339 9.48986 101.002 10.5646C101.33 11.1159 101.646 11.6786 101.96 12.2355C102.236 12.7267 102.51 13.2135 102.787 13.6842C102.795 13.7011 102.806 13.7115 102.818 13.7153C102.83 13.7189 102.843 13.717 102.859 13.7096L103.458 13.3442C103.491 13.3287 103.499 13.3049 103.484 13.2725C103.169 12.7385 102.84 12.2104 102.507 11.6781C102.207 11.1974 101.905 10.7133 101.61 10.2183C100.615 8.55032 100.769 6.80728 100.842 5.91136ZM99.6407 3.31343C100.602 4.8256 100.549 6.58028 99.522 7.23261C98.4955 7.88495 96.8843 7.18792 95.9234 5.67575C94.9624 4.16358 95.0155 2.40891 96.0421 1.75657C97.0686 1.10423 98.6798 1.80126 99.6407 3.31343Z" fill="#4D38AB"/>
<path d="M101.131 11.5308C101.297 11.0917 101.563 10.8166 101.816 11.03C102.273 11.415 102.546 11.7098 102.619 12.1367C102.682 12.5108 102.366 12.9963 102.147 13.0395C101.533 13.1608 100.941 12.0576 101.131 11.5308Z" fill="#92A3F5"/>
<path d="M118.604 10.8326C119.798 10.7983 120.619 11.9546 120.026 13.0288C119.104 14.6995 117.29 14.8939 117.29 14.8939C117.29 14.8939 119.073 12.269 118.053 11.6165C117.636 11.3498 117.41 10.8669 118.604 10.8326Z" fill="#4D38AB"/>
<path d="M34.8561 4.74105C32.7231 2.98561 29.5398 5.0469 29.6124 7.53526C29.669 9.47389 31.0433 9.99726 32.3397 11.0449C32.6016 9.91219 34.8561 4.74105 34.8561 4.74105Z" fill="#4D38AB"/>
<path d="M36.2828 10.811C38.35 8.5679 35.6651 5.33254 34.8511 4.74891C32.9453 5.89203 31.8513 9.10207 32.3117 11.0398C32.3117 11.0428 32.3117 11.0457 32.3117 11.0487L32.3138 11.0487C32.584 12.1933 32.338 12.6333 31.4307 13.1762C23.0534 18.5304 13.9739 29.5629 10.974 33.913C12.021 34.5755 15.6814 31.8621 16.0234 30.4457C16.2765 29.3974 25.2496 23.2733 28.1486 21.6206C28.1486 21.6206 26.4188 30.2496 26.0676 30.9325C26.0282 31.009 25.9736 31.1023 25.9096 31.2115C25.4027 32.0769 24.3067 33.9478 25.5332 36.4991C26.6661 38.8559 28.3656 39.1314 29.6393 39.3379C29.9186 39.3831 30.1773 39.4251 30.4052 39.4849C30.8496 39.6077 32.0534 40.0433 33.5332 40.5788C36.1805 41.5367 39.7112 42.8143 41.3599 43.1931C42.2003 44.0664 46.0133 47.818 49.5554 51.303C52.2503 53.9545 54.7884 56.4517 55.7411 57.4095L62.4645 52.5955C61.9564 51.5501 59.8626 52.3376 58.1672 52.9753C57.0744 53.3864 56.1471 53.7351 55.9166 53.4907C54.8838 52.3955 52.8687 49.5887 50.7549 46.6442C49.05 44.2694 47.2808 41.8051 45.9108 40.0769C44.0046 37.6723 39.8902 35.7867 36.9682 34.4475C36.6021 34.2797 36.2547 34.1205 35.9327 33.9699C32.3521 32.2722 32.7246 32.3592 32.7246 32.3592C32.7246 32.3592 35.4962 28.0287 37.1263 24.8761C38.7467 21.6957 40.2298 18.9846 40.2298 18.9846C40.2298 18.9846 44.2916 18.6804 45.6112 18.8081C49.2563 19.3928 52.9671 19.3405 56.2882 19.8016C56.6523 20.0758 57.1397 20.1269 57.4562 19.9718C57.8666 19.7707 58.6599 19.2431 59.0087 20.059C59.1821 20.4646 60.0266 21.0381 60.4689 20.6758C59.6734 19.4115 59.0307 18.738 57.4935 18.3211C51.0391 16.5705 45.083 14.8451 38.7993 12.8595C38.3936 12.7313 37.9393 12.6192 37.4912 12.5086C36.24 12.2 35.0383 11.9035 35.0842 11.3024C35.0871 11.2637 35.0897 11.2239 35.0919 11.1831C35.5931 11.1402 36.0343 11.0326 36.2828 10.811Z" fill="#92A3F5"/>
<path fill-rule="evenodd" clip-rule="evenodd" d="M66.7801 13.3963C67.6003 12.0329 69.146 10.8468 71.0199 10.2072C74.4361 9.04107 77.8666 10.1498 78.6822 12.6837C79.4978 15.2176 77.3896 18.217 73.9734 19.3831C72.1653 20.0003 70.7208 19.9643 68.8092 19.4844C66.7411 18.9653 63.7195 18.7601 61.6399 19.5026C60.6068 19.8904 59.5766 20.3063 58.5567 20.718C57.657 21.0811 56.7654 21.4411 55.8871 21.7756C55.8316 21.8025 55.7907 21.7874 55.7645 21.7302L55.3645 20.5611C55.3383 20.5039 55.353 20.4618 55.4085 20.4348C56.4049 20.0553 57.4155 19.7013 58.4342 19.3444C59.3537 19.0222 60.2799 18.6977 61.208 18.3502C65.1496 16.8744 66.3298 13.984 66.7801 13.3963ZM71.3086 11.1044C68.3933 12.0995 66.5619 14.5588 67.218 16.5972C67.8741 18.6357 70.7693 19.4815 73.6846 18.4864C76.5999 17.4912 78.4314 15.032 77.7752 12.9935C77.1191 10.9551 74.2239 10.1093 71.3086 11.1044Z" fill="#4D38AB"/>
<path d="M24.5811 32.2275C22.4019 37.7254 20.487 43.9637 17.7117 49.8167C17.7117 49.8167 4.20619 49.4166 0.986766 49.002L-0.381631 56.1646C1.51249 56.4691 2.40104 52.0373 3.25468 51.9228C4.56017 51.7477 17.173 56.7797 21.2261 52.6505C25.1865 48.6157 29.144 43.0563 31.5021 37.914L24.5811 32.2275Z" fill="#92A3F5"/>
<path d="M27.3134 22.1346L26.407 22.6817C25.9193 22.0017 24.8788 20.1959 23.9238 19.161C26.2874 16.9559 29.095 14.4867 31.4343 13.1676C32.3451 14.0783 35.7501 14.8565 36.5774 12.2555C39.2781 12.9077 41.9158 13.7757 44.224 14.5258C44.0797 15.1752 43.9232 17.3186 43.7485 18.8039C43.7485 18.8039 40.8565 18.9171 40.4038 19.0448C39.3246 21.0631 37.2847 26.7453 34.1775 32.8437C35.3498 33.4659 37.0059 34.4039 38.4526 35.1285C37.6966 36.3288 36.0533 39.1668 34.7364 41.0377C34.7364 41.0377 32.951 40.4055 30.7067 39.6099C29.6462 41.5768 28.7026 43.1546 28.1959 43.8887C26.6646 43.0533 23.1614 41.1403 21.5317 40.4135C23.6527 34.3233 25.4246 28.6141 27.3134 22.1346Z" fill="#4D38AB"/>
<path d="M57.3337 21.2963C56.8816 21.0195 56.655 20.6897 56.9921 20.5013C57.6001 20.1614 58.0387 19.9756 58.5605 20.019C59.0176 20.057 59.4711 20.4913 59.4444 20.7145C59.3697 21.3408 57.8792 21.6205 57.3337 21.2963Z" fill="#92A3F5"/>
</g>
<defs>
<linearGradient id="paint0_linear_3812_288132" x1="95.8395" y1="59.6483" x2="30.7245" y2="42.0167" gradientUnits="userSpaceOnUse">
<stop stop-color="#FF702E"/>
<stop offset="0.453123" stop-color="#9B1D3B"/>
<stop offset="1" stop-color="#2E2D5B"/>
</linearGradient>
<radialGradient id="paint1_radial_3812_288132" cx="0" cy="0" r="1" gradientUnits="userSpaceOnUse" gradientTransform="translate(90.7009 65.1848) rotate(-144.964) scale(31.7634)">
<stop stop-color="#FF702E"/>
<stop offset="1" stop-color="#9B1D3B"/>
</radialGradient>
<radialGradient id="paint2_radial_3812_288132" cx="0" cy="0" r="1" gradientUnits="userSpaceOnUse" gradientTransform="translate(57.3442 59.9982) rotate(90) scale(6.093 17.6483)">
<stop stop-color="#2E2D5B" stop-opacity="0.5"/>
<stop offset="1" stop-color="#9B1D3B" stop-opacity="0"/>
</radialGradient>
<radialGradient id="paint3_radial_3812_288132" cx="0" cy="0" r="1" gradientUnits="userSpaceOnUse" gradientTransform="translate(13.6555 3.66454) rotate(90) scale(3.3314 11.6131)">
<stop stop-color="#2E2D5B" stop-opacity="0.5"/>
<stop offset="1" stop-color="#9B1D3B" stop-opacity="0"/>
</radialGradient>
<clipPath id="clip0_3812_288132">
<rect width="148" height="96" fill="white"/>
</clipPath>
</defs>
</svg>
