<svg width="116" height="91" viewBox="0 0 116 91" fill="none" xmlns="http://www.w3.org/2000/svg">
<circle cx="57" cy="35" r="35" fill="url(#paint0_linear_3815_293236)"/>
<path fill-rule="evenodd" clip-rule="evenodd" d="M61.8613 5.04801C61.375 3.18182 60.5795 1.19318 59.3863 0.0792151C58.6018 0.026687 57.8102 0 57.0124 0C56.0711 0 55.1385 0.037151 54.2159 0.110067C55.4091 1.19318 56.3398 3.18182 56.8942 4.65587C59.2034 10.7963 55.2602 14.0236 48.3916 18.9005L48.3892 18.9022C41.4774 23.8099 32.8776 29.9161 36.2913 42.2639C37.5704 46.8886 41.1681 50.5268 41.3206 50.6793C41.4731 50.8318 45.1113 54.4295 49.7361 55.7087C51.3326 56.1848 53.1657 56.4649 55.0642 56.4805H55.0735C63.9502 56.4805 68.9478 49.4494 73.0917 43.6193L73.0995 43.6084C77.9763 36.7397 81.2037 32.7965 87.3441 35.1058C89.3288 35.9465 90.3776 36.5034 91.872 38.0015C91.9567 37.0081 92 36.0029 92 34.9875C92 34.2159 91.975 33.4501 91.9258 32.6909C90.409 31.4204 88.8181 30.625 86.9551 30.1418C83.9673 29.4447 81.2099 29.7715 78.633 31.1222C74.8294 33.1095 72.0172 37.0704 69.2988 40.8991L69.2932 40.907C66.9715 44.1779 64.5689 47.5609 61.6372 49.6461C58.5219 51.862 55.1358 52.3599 50.981 51.2115C47.5637 50.2685 44.6476 47.4053 44.6227 47.3804C44.5947 47.3524 41.7314 44.4207 40.7916 41.0221C39.6431 36.8673 40.1411 33.4812 42.357 30.3659C44.4422 27.4342 47.8252 25.0315 51.0961 22.7098L51.104 22.7042C54.9327 19.9859 58.8936 17.1737 60.8809 13.3701C62.2285 10.7932 62.5553 8.03574 61.8613 5.04801ZM91.8192 38.5672C91.8192 38.5672 91.8192 38.5673 91.8192 38.5672Z" fill="url(#paint1_radial_3815_293236)"/>
<ellipse cx="73.9088" cy="59.1404" rx="14.1358" ry="9.33737" transform="rotate(-29.8948 73.9088 59.1404)" fill="url(#paint2_radial_3815_293236)"/>
<path d="M94 74.4424H88.75C87.7875 74.4424 87 75.2299 87 76.1924V81.4424C87 82.4049 87.7875 83.1924 88.75 83.1924H94C94.9625 83.1924 95.75 82.4049 95.75 81.4424V76.1924C95.75 75.2299 94.9625 74.4424 94 74.4424ZM94 56.9424V58.6924H80V56.9424C80 55.9799 79.2125 55.1924 78.25 55.1924C77.2875 55.1924 76.5 55.9799 76.5 56.9424V58.6924H74.75C72.8075 58.6924 71.2675 60.2674 71.2675 62.1924L71.25 86.6924C71.25 88.6174 72.8075 90.1924 74.75 90.1924H99.25C101.175 90.1924 102.75 88.6174 102.75 86.6924V62.1924C102.75 60.2674 101.175 58.6924 99.25 58.6924H97.5V56.9424C97.5 55.9799 96.7125 55.1924 95.75 55.1924C94.7875 55.1924 94 55.9799 94 56.9424ZM97.5 86.6924H76.5C75.5375 86.6924 74.75 85.9049 74.75 84.9424V67.4424H99.25V84.9424C99.25 85.9049 98.4625 86.6924 97.5 86.6924Z" fill="#92A3F5"/>
<rect x="108" y="54.8572" width="8" height="8.43956" rx="1" fill="#92A3F5"/>
<rect x="105" y="37.978" width="6" height="6.32967" rx="1" fill="#92A3F5"/>
<rect y="48.5276" width="6" height="6.32967" rx="1" fill="#92A3F5"/>
<defs>
<linearGradient id="paint0_linear_3815_293236" x1="78.8398" y1="33.6485" x2="13.7247" y2="16.017" gradientUnits="userSpaceOnUse">
<stop stop-color="#FF702E"/>
<stop offset="0.453123" stop-color="#9B1D3B"/>
<stop offset="1" stop-color="#2E2D5B"/>
</linearGradient>
<radialGradient id="paint1_radial_3815_293236" cx="0" cy="0" r="1" gradientUnits="userSpaceOnUse" gradientTransform="translate(73.7011 39.185) rotate(-144.964) scale(31.7634)">
<stop stop-color="#FF702E"/>
<stop offset="1" stop-color="#9B1D3B"/>
</radialGradient>
<radialGradient id="paint2_radial_3815_293236" cx="0" cy="0" r="1" gradientUnits="userSpaceOnUse" gradientTransform="translate(74.8837 59.1404) rotate(90) scale(8.48852 12.8508)">
<stop stop-color="#431901" stop-opacity="0.53"/>
<stop offset="1" stop-color="#BC5F25" stop-opacity="0"/>
</radialGradient>
</defs>
</svg>
