<svg width="92" height="96" viewBox="0 0 92 96" fill="none" xmlns="http://www.w3.org/2000/svg">
<circle cx="35" cy="35" r="35" fill="url(#paint0_linear_3810_287951)"/>
<path fill-rule="evenodd" clip-rule="evenodd" d="M39.8613 5.04801C39.375 3.18182 38.5795 1.19318 37.3863 0.0792151C36.6018 0.026687 35.8102 0 35.0124 0C34.0711 0 33.1385 0.037151 32.2159 0.110067C33.4091 1.19318 34.3398 3.18182 34.8942 4.65587C37.2034 10.7963 33.2602 14.0236 26.3916 18.9005L26.3892 18.9022C19.4774 23.8099 10.8776 29.9161 14.2913 42.2639C15.5704 46.8886 19.1681 50.5268 19.3206 50.6793C19.4731 50.8318 23.1113 54.4295 27.7361 55.7087C29.3326 56.1848 31.1657 56.4649 33.0642 56.4805H33.0735C41.9502 56.4805 46.9478 49.4494 51.0917 43.6193L51.0995 43.6084C55.9763 36.7397 59.2037 32.7965 65.3441 35.1058C67.3288 35.9465 68.3776 36.5034 69.872 38.0015C69.9567 37.0081 70 36.0029 70 34.9875C70 34.2159 69.975 33.4501 69.9258 32.6909C68.409 31.4204 66.8181 30.625 64.9551 30.1418C61.9673 29.4447 59.2099 29.7715 56.633 31.1222C52.8294 33.1095 50.0172 37.0704 47.2988 40.8991L47.2932 40.907C44.9715 44.1779 42.5689 47.5609 39.6372 49.6461C36.5219 51.862 33.1358 52.3599 28.981 51.2115C25.5637 50.2685 22.6476 47.4053 22.6227 47.3804C22.5947 47.3524 19.7314 44.4207 18.7916 41.0221C17.6431 36.8673 18.1411 33.4812 20.357 30.3659C22.4422 27.4342 25.8252 25.0315 29.0961 22.7098L29.104 22.7042C32.9327 19.9859 36.8936 17.1737 38.8809 13.3701C40.2285 10.7932 40.5553 8.03574 39.8613 5.04801ZM69.8192 38.5672C69.8192 38.5672 69.8192 38.5673 69.8192 38.5672Z" fill="url(#paint1_radial_3810_287951)"/>
<ellipse cx="54.1727" cy="59.79" rx="14.1358" ry="9.33737" transform="rotate(-29.8948 54.1727 59.79)" fill="url(#paint2_radial_3810_287951)"/>
<path d="M80.4998 70.1019C80.4998 74.2237 78.8404 78.1767 75.8866 81.0913C72.9328 84.0058 68.9267 85.6432 64.7495 85.6432C60.5722 85.6432 56.5661 84.0058 53.6123 81.0913C50.6586 78.1767 48.9992 74.2237 48.9992 70.1019C48.9992 65.9801 50.6586 62.0271 53.6123 59.1126C56.5661 56.198 60.5722 54.5606 64.7495 54.5606C68.9267 54.5606 72.9328 56.198 75.8866 59.1126C78.8404 62.0271 80.4998 65.9801 80.4998 70.1019ZM64.3478 62.5955L62.4657 66.6181C62.4327 66.6881 62.382 66.7487 62.3186 66.794C62.2552 66.8394 62.1812 66.868 62.1034 66.8771L57.6461 67.4003C57.5589 67.4103 57.4764 67.4447 57.4084 67.4995C57.3405 67.5543 57.2898 67.6271 57.2625 67.7094C57.2351 67.7917 57.2322 67.88 57.2542 67.9638C57.2761 68.0477 57.3219 68.1236 57.3862 68.1826L60.6833 71.1898C60.7412 71.2425 60.7844 71.309 60.8088 71.383C60.8332 71.4569 60.8378 71.5358 60.8224 71.612L59.9456 75.9558C59.8669 76.3366 60.2764 76.6293 60.6203 76.4402L64.5368 74.2774C64.6054 74.2395 64.6827 74.2196 64.7613 74.2196C64.8399 74.2196 64.9171 74.2395 64.9857 74.2774L68.9023 76.4402C69.2435 76.6293 69.6557 76.3366 69.5795 75.9558L68.7028 71.612C68.6873 71.5358 68.692 71.4569 68.7164 71.383C68.7407 71.309 68.784 71.2425 68.8419 71.1898L72.139 68.1826C72.2032 68.1236 72.2491 68.0477 72.271 67.9638C72.2929 67.88 72.29 67.7917 72.2627 67.7094C72.2354 67.6271 72.1847 67.5543 72.1167 67.4995C72.0487 67.4447 71.9663 67.4103 71.8791 67.4003L67.4218 66.8771C67.344 66.868 67.2699 66.8394 67.2065 66.794C67.1431 66.7487 67.0925 66.6881 67.0595 66.6181L65.1773 62.5955C65.1403 62.5174 65.0815 62.4514 65.0078 62.4051C64.9341 62.3589 64.8486 62.3343 64.7613 62.3343C64.6739 62.3343 64.5884 62.3589 64.5147 62.4051C64.441 62.4514 64.3822 62.5174 64.3452 62.5955H64.3478ZM64.7495 88.2334C68.5047 88.2391 72.1708 87.1042 75.2497 84.9827V94.709C75.2495 94.9467 75.1831 95.1798 75.0576 95.3828C74.9321 95.5857 74.7524 95.7506 74.5382 95.8595C74.3241 95.9684 74.0837 96.017 73.8434 96C73.6031 95.983 73.3721 95.9011 73.1759 95.7632L64.7495 90.8237L56.323 95.7632C56.1268 95.9011 55.8959 95.983 55.6555 96C55.4152 96.017 55.1748 95.9684 54.9607 95.8595C54.7465 95.7506 54.5668 95.5857 54.4413 95.3828C54.3159 95.1798 54.2494 94.9467 54.2493 94.709V84.9827C57.3282 87.1042 60.9942 88.2391 64.7495 88.2334Z" fill="#92A3F5"/>
<circle cx="89" cy="13" r="3" fill="#92A3F5"/>
<defs>
<linearGradient id="paint0_linear_3810_287951" x1="56.8398" y1="33.6485" x2="-8.27529" y2="16.017" gradientUnits="userSpaceOnUse">
<stop stop-color="#FF702E"/>
<stop offset="0.453123" stop-color="#9B1D3B"/>
<stop offset="1" stop-color="#2E2D5B"/>
</linearGradient>
<radialGradient id="paint1_radial_3810_287951" cx="0" cy="0" r="1" gradientUnits="userSpaceOnUse" gradientTransform="translate(51.7011 39.185) rotate(-144.964) scale(31.7634)">
<stop stop-color="#FF702E"/>
<stop offset="1" stop-color="#9B1D3B"/>
</radialGradient>
<radialGradient id="paint2_radial_3810_287951" cx="0" cy="0" r="1" gradientUnits="userSpaceOnUse" gradientTransform="translate(55.1476 59.79) rotate(90) scale(8.48852 12.8508)">
<stop stop-color="#431901" stop-opacity="0.53"/>
<stop offset="1" stop-color="#BC5F25" stop-opacity="0"/>
</radialGradient>
</defs>
</svg>
