<svg width="24" height="24" viewBox="0 0 24 24" fill="none" xmlns="http://www.w3.org/2000/svg">
<g id="check">
<mask id="mask0_98_2688" style="mask-type:alpha" maskUnits="userSpaceOnUse" x="0" y="0" width="24" height="24">
<rect id="Bounding box" width="24" height="24" fill="#D9D9D9"/>
</mask>
<g mask="url(#mask0_98_2688)">
<path id="check_2" d="M9.55 17.7125C9.40071 17.7125 9.25877 17.6877 9.12417 17.6381C8.98957 17.5885 8.8663 17.5077 8.75435 17.3957L4.45435 13.0957C4.24311 12.8845 4.14166 12.6151 4.15 12.2875C4.15833 11.96 4.26811 11.6906 4.47935 11.4794C4.69058 11.2682 4.95779 11.1625 5.28097 11.1625C5.60415 11.1625 5.87136 11.2682 6.0826 11.4794L9.55 14.9468L17.9174 6.5794C18.1286 6.36817 18.398 6.26155 18.7255 6.25955C19.0531 6.25757 19.3245 6.36418 19.5397 6.5794C19.7509 6.79063 19.8565 7.06102 19.8565 7.39055C19.8565 7.72007 19.7509 7.99044 19.5397 8.20167L10.3456 17.3957C10.2337 17.5077 10.1104 17.5885 9.97582 17.6381C9.84122 17.6877 9.69928 17.7125 9.55 17.7125Z" fill="white"/>
</g>
</g>
</svg>
