<svg width="166" height="70" viewBox="0 0 166 70" fill="none" xmlns="http://www.w3.org/2000/svg">
<path d="M77.8345 18.2346C77.8345 18.6055 77.952 18.8692 78.1873 19.0259C78.4226 19.1831 78.7543 19.2612 79.182 19.2612C79.3958 19.2612 79.617 19.2438 79.845 19.2078C80.073 19.1725 80.2726 19.126 80.444 19.0689C80.5723 19.226 80.6825 19.4002 80.7757 19.5929C80.868 19.7853 80.9142 20.0174 80.9142 20.2879C80.9142 20.8302 80.7113 21.2721 80.3046 21.6139C79.8984 21.9565 79.182 22.1274 78.1553 22.1274C76.9006 22.1274 75.9343 21.8419 75.2571 21.2721C74.5795 20.7018 74.2414 19.7748 74.2414 18.4913V9.33707C74.3981 9.29414 74.6225 9.24837 74.9149 9.19815C75.2073 9.14833 75.5171 9.12322 75.8452 9.12322C76.4725 9.12322 76.9609 9.23379 77.3105 9.45452C77.6596 9.67605 77.8345 10.143 77.8345 10.8554V12.2247H80.6363C80.7218 12.3815 80.8036 12.5775 80.8822 12.8128C80.9607 13.0481 81 13.3085 81 13.5932C81 14.0926 80.8891 14.4527 80.6683 14.6738C80.4472 14.8945 80.1515 15.0051 79.781 15.0051H77.8345V18.2346Z" fill="#100F0D"/>
<path d="M92.4855 21.7857C92.3429 21.8286 92.1181 21.8711 91.8119 21.9136C91.5049 21.957 91.1878 21.978 90.8598 21.978C90.5463 21.978 90.2644 21.957 90.0154 21.9136C89.7655 21.8711 89.5553 21.7857 89.384 21.6573C89.213 21.5289 89.081 21.3547 88.9883 21.1336C88.8955 20.9125 88.8494 20.6237 88.8494 20.2669V15.5187C88.8494 14.9342 88.7031 14.524 88.4111 14.2891C88.1183 14.0538 87.7587 13.9359 87.331 13.9359C87.0455 13.9359 86.7749 13.972 86.5182 14.0432C86.2614 14.1145 86.0544 14.2 85.8981 14.2996V21.7857C85.7551 21.8286 85.5304 21.8711 85.2242 21.9136C84.9172 21.957 84.6001 21.978 84.2724 21.978C83.9586 21.978 83.6767 21.957 83.4272 21.9136C83.1777 21.8711 82.9675 21.7857 82.7966 21.6573C82.6253 21.5289 82.4933 21.3547 82.4009 21.1336C82.3078 20.9125 82.2616 20.6237 82.2616 20.2669V7.86169C82.4183 7.83334 82.65 7.79404 82.957 7.74423C83.2636 7.69441 83.5734 7.66932 83.8873 7.66932C84.2007 7.66932 84.4826 7.69038 84.7321 7.73331C84.9812 7.77624 85.1918 7.86169 85.3631 7.99008C85.5344 8.11846 85.666 8.29301 85.7588 8.51414C85.8515 8.73528 85.8981 9.02405 85.8981 9.38045V11.4763C86.0832 11.4051 86.3647 11.3232 86.7425 11.2305C87.1204 11.1377 87.5372 11.0916 87.994 11.0916C89.4054 11.0916 90.507 11.4443 91.2984 12.1502C92.0898 12.8558 92.4855 13.9076 92.4855 15.3048V21.7857Z" fill="#100F0D"/>
<path d="M99.0942 13.7431C98.752 13.7431 98.456 13.8002 98.2069 13.9144C97.957 14.0286 97.7537 14.1744 97.597 14.3526C97.4402 14.5312 97.3224 14.7305 97.2442 14.9516C97.1656 15.1728 97.1195 15.3975 97.1053 15.6252L100.763 15.0266C100.72 14.7414 100.563 14.4563 100.292 14.1708C100.021 13.8857 99.6216 13.7431 99.0942 13.7431ZM99.6932 22.1489C98.8517 22.1489 98.0712 22.0311 97.3511 21.7962C96.631 21.5605 96.0037 21.2077 95.4691 20.7371C94.9345 20.2665 94.5133 19.6752 94.2071 18.962C93.9001 18.2492 93.747 17.4149 93.747 16.4595C93.747 15.5182 93.9001 14.7094 94.2071 14.0319C94.5133 13.3547 94.9163 12.7986 95.4156 12.3633C95.9142 11.9287 96.4848 11.6079 97.1268 11.401C97.7683 11.1944 98.424 11.0912 99.0942 11.0912C99.85 11.0912 100.538 11.2054 101.159 11.4334C101.779 11.6614 102.313 11.9753 102.762 12.3742C103.212 12.7735 103.561 13.251 103.81 13.8075C104.06 14.3632 104.185 14.9699 104.185 15.6252C104.185 16.1103 104.049 16.4805 103.779 16.7373C103.508 16.9941 103.129 17.1581 102.645 17.2294L97.3621 18.0207C97.5184 18.4913 97.8391 18.8441 98.3243 19.0798C98.8087 19.3147 99.3648 19.4326 99.9925 19.4326C100.577 19.4326 101.129 19.3576 101.65 19.2078C102.171 19.0584 102.595 18.8838 102.923 18.6841C103.151 18.8267 103.344 19.026 103.5 19.2827C103.657 19.5395 103.736 19.8105 103.736 20.0956C103.736 20.7371 103.436 21.215 102.837 21.5285C102.381 21.7711 101.868 21.9347 101.297 22.0205C100.727 22.106 100.192 22.1489 99.6932 22.1489Z" fill="#100F0D"/>
<path d="M22.2267 40.2298C19.4431 40.2298 17.3032 41.0297 15.8087 42.627C14.3127 44.2256 13.566 46.6479 13.566 49.8956C13.566 53.0927 14.2621 55.502 15.6538 57.1257C17.0456 58.7497 19.0564 59.5618 21.6855 59.5618C22.6132 59.5618 23.4507 59.4204 24.1985 59.1365C24.9451 58.8534 25.5252 58.531 25.9383 58.1698V41.1581C24.9067 40.5388 23.6692 40.2298 22.2267 40.2298ZM0.265778 49.8956C0.265778 46.4936 0.780571 43.5427 1.81222 41.0418C2.84292 38.5422 4.27371 36.4673 6.10428 34.817C7.93327 33.1678 10.0731 31.9439 12.5223 31.144C14.97 30.3453 17.6126 29.9456 20.4481 29.9456C21.4788 29.9456 22.4841 30.0363 23.4638 30.2161C24.4425 30.3976 25.2427 30.6163 25.8611 30.8735V18.3463C26.3756 18.192 27.2009 18.0252 28.3357 17.8437C29.4686 17.6639 30.6286 17.5732 31.8154 17.5732C32.9483 17.5732 33.967 17.6505 34.8695 17.8053C35.7708 17.96 36.5323 18.269 37.1505 18.7331C37.7693 19.1968 38.2333 19.8291 38.5426 20.6273C38.8518 21.4276 39.0067 22.4713 39.0067 23.7596V60.4123C39.0067 62.8362 37.8721 64.7693 35.6042 66.2119C34.1082 67.1916 32.1752 68.0555 29.8047 68.8023C27.4327 69.5487 24.7012 69.9233 21.6081 69.9233C18.2564 69.9233 15.2538 69.4596 12.5995 68.5313C9.94374 67.6035 7.70137 66.2637 5.87189 64.5105C4.04147 62.7584 2.64975 60.6573 1.69657 58.2083C0.74197 55.7604 0.265778 52.989 0.265778 49.8956Z" fill="#100F0D"/>
<path d="M60.6576 68.6098C60.0898 68.7123 59.2526 68.8536 58.1446 69.035C57.0357 69.2149 55.9146 69.3052 54.781 69.3052C53.6466 69.3052 52.628 69.2282 51.7265 69.0735C50.8242 68.9188 50.0644 68.6098 49.4455 68.1457C48.8267 67.6815 48.3496 67.0509 48.0151 66.2511C47.6789 65.4524 47.5125 64.4083 47.5125 63.1192V31.6473C48.079 31.5444 48.9166 31.4031 50.0255 31.222C51.1336 31.0422 52.2546 30.9515 53.389 30.9515C54.5226 30.9515 55.5408 31.0288 56.4436 31.1836C57.3451 31.3383 58.1061 31.6473 58.7245 32.1114C59.3434 32.5751 59.8192 33.2069 60.1554 34.006C60.4899 34.8059 60.6576 35.8496 60.6576 37.1375V68.6098Z" fill="#100F0D"/>
<path d="M92.8256 44.8702C92.8256 43.2729 92.3736 42.0996 91.4725 41.3519C90.5698 40.6051 89.3459 40.2305 87.7992 40.2305C86.7676 40.2305 85.7498 40.3597 84.7446 40.6173C83.7394 40.8757 82.8759 41.2624 82.1546 41.7772V68.6098C81.6387 68.7641 80.8266 68.9188 79.7186 69.0735C78.6093 69.2282 77.4627 69.3052 76.2777 69.3052C75.1428 69.3052 74.1247 69.2282 73.2235 69.0735C72.3204 68.9188 71.5606 68.6098 70.9422 68.1457C70.3233 67.6815 69.8462 67.0509 69.5113 66.2511C69.1756 65.4524 69.0091 64.4083 69.0091 63.1192V39.9215C69.0091 38.5295 69.3052 37.3959 69.8981 36.5191C70.4902 35.643 71.3022 34.8444 72.3338 34.1218C74.0858 32.8846 76.2894 31.8794 78.9454 31.1062C81.5998 30.3331 84.5514 29.9463 87.7992 29.9463C93.6243 29.9463 98.1093 31.222 101.255 33.7735C104.398 36.3255 105.971 39.8704 105.971 44.4061V68.6098C105.455 68.7641 104.643 68.9188 103.535 69.0735C102.426 69.2282 101.28 69.3052 100.094 69.3052C98.9598 69.3052 97.9408 69.2282 97.0401 69.0735C96.1373 68.9188 95.3771 68.6098 94.7587 68.1457C94.1403 67.6815 93.6628 67.0509 93.3282 66.2511C92.9925 65.4524 92.8256 64.4083 92.8256 63.1192V44.8702Z" fill="#100F0D"/>
<path d="M150.82 61.8812C150.561 64.3047 149.854 66.1605 148.693 67.4488C147.534 68.7363 145.844 69.3818 143.629 69.3818C141.978 69.3818 140.509 68.9817 139.221 68.183C137.932 67.3848 136.54 66.0313 135.045 64.1233L127.39 54.5349V68.6087C126.822 68.7112 125.985 68.8525 124.877 69.0339C123.767 69.2138 122.646 69.3041 121.513 69.3041C120.379 69.3041 119.36 69.2271 118.459 69.0724C117.556 68.9177 116.796 68.6087 116.178 68.1446C115.559 67.6804 115.082 67.0498 114.747 66.25C114.411 65.4513 114.245 64.4072 114.245 63.1181V18.3459C114.811 18.1916 115.648 18.0248 116.758 17.8433C117.865 17.6635 118.987 17.5728 120.121 17.5728C121.254 17.5728 122.273 17.6501 123.176 17.8048C124.077 17.9595 124.838 18.2686 125.457 18.7327C126.075 19.1964 126.551 19.8286 126.887 20.6269C127.222 21.4272 127.39 22.4709 127.39 23.7592V44.1733L140.69 30.5636C143.37 30.5636 145.523 31.1565 147.147 32.3424C148.771 33.5286 149.583 35.0231 149.583 36.827C149.583 37.6001 149.453 38.3097 149.196 38.9536C148.937 39.5988 148.538 40.2561 147.997 40.9252C147.456 41.5959 146.76 42.3054 145.91 43.0518C145.059 43.7999 144.066 44.6638 142.932 45.6422L138.447 49.5088L150.82 61.8812Z" fill="#100F0D"/>
<path d="M154.23 64.4139C154.23 62.8174 154.724 61.4878 155.712 60.4234C156.701 59.3599 158.05 58.8269 159.761 58.8269C161.471 58.8269 162.819 59.3599 163.808 60.4234C164.795 61.4878 165.29 62.8174 165.29 64.4139C165.29 66.01 164.795 67.3408 163.808 68.4044C162.819 69.4679 161.471 70.0005 159.761 70.0005C158.05 70.0005 156.701 69.4679 155.712 68.4044C154.724 67.3408 154.23 66.01 154.23 64.4139Z" fill="#100F0D"/>
<mask id="mask0_169_2458" style="mask-type:luminance" maskUnits="userSpaceOnUse" x="56" y="2" width="4" height="4">
<path d="M58.3612 5.63368C57.7902 5.62517 57.3333 5.43482 56.9903 5.15212C57.045 4.9395 57.1458 4.75765 57.2924 4.62845C57.435 4.50209 57.6237 4.4458 57.838 4.4458C58.2786 4.4458 58.8282 4.68233 59.3126 5.03549C59.1947 5.34693 58.8926 5.58224 58.3612 5.63368ZM56.9049 2.34628C56.6898 2.34628 56.5011 2.40258 56.3585 2.52853C56.124 2.7363 56.0066 3.07893 56.0066 3.46692C56.0062 4.48226 56.8121 5.80862 58.4345 5.83252C59.2344 5.75516 59.5742 5.30886 59.575 4.78074C59.5754 4.5345 59.5017 4.26962 59.3669 4.0165C58.9084 3.15546 57.7193 2.34628 56.9049 2.34628Z" fill="white"/>
</mask>
<g mask="url(#mask0_169_2458)">
<path d="M58.3612 5.63368C57.7902 5.62517 57.3333 5.43482 56.9903 5.15212C57.045 4.9395 57.1458 4.75765 57.2924 4.62845C57.435 4.50209 57.6237 4.4458 57.838 4.4458C58.2786 4.4458 58.8282 4.68233 59.3126 5.03549C59.1947 5.34693 58.8926 5.58224 58.3612 5.63368ZM56.9049 2.34628C56.6898 2.34628 56.5011 2.40258 56.3585 2.52853C56.124 2.7363 56.0066 3.07893 56.0066 3.46692C56.0062 4.48226 56.8121 5.80862 58.4345 5.83252C59.2344 5.75516 59.5742 5.30886 59.575 4.78074C59.5754 4.5345 59.5017 4.26962 59.3669 4.0165C58.9084 3.15546 57.7193 2.34628 56.9049 2.34628Z" fill="url(#paint0_radial_169_2458)"/>
</g>
<mask id="mask1_169_2458" style="mask-type:luminance" maskUnits="userSpaceOnUse" x="41" y="0" width="27" height="26">
<path d="M66.6949 13.9268C66.6374 14.3731 66.5592 14.9684 66.4754 15.4107C66.439 15.5739 66.4061 15.7068 66.3742 15.8149C66.3494 15.5601 66.3381 15.239 66.3381 14.8858C66.3381 13.7097 66.4677 12.1723 66.6682 11.4903C66.6815 11.5879 66.6937 11.6989 66.705 11.8228L66.7403 12.5433C66.7326 12.9584 66.7253 13.5125 66.6949 13.9268ZM64.2005 21.0799C63.8785 21.4132 63.5193 21.7709 63.2078 22.0345C62.4225 22.6509 62.2431 22.7915 61.9422 22.983C62.6117 22.4132 63.2423 21.798 63.9223 21.2391C64.0956 21.0961 64.141 21.0742 64.1855 21.0528L64.2029 21.0751C64.2021 21.0767 64.2013 21.0783 64.2005 21.0799ZM61.0613 18.6297C61.5202 18.2449 62.0103 18.0525 62.4149 18.0525C62.9057 18.0525 63.2706 18.3352 63.303 18.8998C63.3148 19.0954 63.2803 19.3186 63.2062 19.5527C62.8389 19.8333 62.4136 20.054 61.958 20.1079C61.1812 20.1051 60.9192 19.434 61.0613 18.6297ZM61.7 10.4826C62.0184 10.1696 62.3739 10.0286 62.7235 10.0286C63.0066 10.0286 63.2852 10.121 63.5371 10.2895C63.5505 10.4178 63.5574 10.5491 63.557 10.6839C63.5561 11.536 63.184 13.0265 61.792 13.2059C61.5453 13.2043 61.3185 13.1573 61.1124 13.0739C60.8985 12.1549 61.0739 11.0983 61.7 10.4826ZM64.1191 5.6299C64.4305 6.01911 64.7015 6.43101 64.872 6.77931C64.8627 6.78498 64.8526 6.78942 64.842 6.79347C64.1434 6.7874 62.6449 4.81139 62.1682 3.86733C62.6457 4.12329 63.4375 4.77697 64.1191 5.6299ZM58.3612 5.63356C57.7901 5.62506 57.3333 5.4347 56.9903 5.15201C57.0449 4.93938 57.1458 4.75753 57.2924 4.62833C57.435 4.50197 57.6237 4.44569 57.8379 4.44569C58.2786 4.44569 58.8282 4.68221 59.3125 5.03537C59.1947 5.34682 58.8926 5.58212 58.3612 5.63356ZM56.5561 13.3626C56.5043 14.0892 56.0219 15.3228 54.5635 15.5468C54.071 14.5068 54.2354 13.1516 55.1653 12.3295C55.4727 12.0581 55.8081 11.8811 56.1507 11.7863C56.4386 12.2132 56.5998 12.7527 56.5561 13.3626ZM55.2143 22.3869C55.0365 22.7724 54.5108 23.3645 53.7899 23.4148C53.7446 23.4136 53.6996 23.4103 53.6551 23.4046C53.6656 23.1463 53.7733 22.8911 54.0086 22.6813C54.2938 22.4261 54.6797 22.3055 55.0556 22.3055C55.1187 22.3055 55.1819 22.3091 55.2439 22.316C55.2342 22.3403 55.2249 22.3642 55.2143 22.3869ZM52.0901 6.28319C51.9905 6.76838 51.573 7.62251 50.6649 7.95866C50.2786 7.19361 50.6261 6.02277 51.5778 5.18644C51.6888 5.08883 51.7989 5.00298 51.9075 4.92724C52.061 5.18361 52.1444 5.5161 52.1343 5.90045C52.1315 6.01588 52.1136 6.16978 52.0901 6.28319ZM50.2093 19.9783C49.2239 19.0416 48.8052 17.4855 49.6306 16.6099C50.1935 17.055 50.624 17.7553 50.6787 18.5624C50.682 18.6123 50.7314 19.4696 50.2093 19.9783ZM44.856 20.3323C45.3031 20.5388 46.1508 21.2525 47.1674 22.4112C47.5557 22.8542 47.7943 23.1479 47.9356 23.3423C46.8348 22.7631 45.0609 21.0285 44.856 20.3323ZM44.274 14.6845C43.5223 13.828 43.5175 11.6762 44.1063 10.5138C44.6004 10.8229 44.9601 11.8119 44.8698 12.9714C44.8297 13.4865 44.66 14.2565 44.274 14.6845ZM47.299 3.62757C47.35 3.59315 47.4553 3.52389 47.5813 3.45058C47.4954 3.75312 47.1722 4.32013 46.7826 4.84096C46.2877 5.50273 45.5259 6.27953 44.9625 6.36053C45.1764 5.62545 46.1573 4.39748 47.299 3.62757ZM67.3749 11.6361C67.3518 11.285 67.2818 10.8184 67.2024 10.4754C66.9169 9.24334 66.9169 9.24333 66.6483 8.49772C66.3993 7.80679 65.8144 6.43221 64.6946 4.99527C64.0879 4.21685 63.5323 3.6948 63.3496 3.52308C62.7692 2.97754 62.5436 2.81394 61.7972 2.27286C61.7903 2.26759 61.0974 1.76782 60.0711 1.27291C59.3502 0.925011 59.0064 0.811609 58.2518 0.562532C58.0076 0.481937 56.6991 0.0757122 54.9418 0.00848198C54.9134 0.00767326 54.8794 0.006464 54.8409 0.00565529C54.8401 0.00565529 54.8401 0.00565529 54.8397 0.00565529C54.7555 0.00322533 54.6494 0.000780106 54.523 0.000375748H54.4355C53.9487 0.00199509 53.2136 0.0327873 52.37 0.174538C51.8212 0.267282 51.5835 0.319925 51.4806 0.34787C50.963 0.488405 50.2725 0.685242 49.7719 0.880047C49.4192 1.01815 48.9583 1.22754 48.6181 1.39643C48.3394 1.53453 47.9733 1.73298 47.7121 1.90268C47.2127 2.22709 46.572 2.69851 46.1038 3.06544C45.8645 3.25295 45.5724 3.53564 45.3562 3.74907C44.1549 4.93654 43.4012 6.14629 42.9808 6.95264C42.8241 7.25316 42.4977 7.87847 42.183 8.80674C41.891 9.66939 41.8023 10.1408 41.6796 10.7937C41.5512 11.4765 41.4977 12.2857 41.4969 13.0066V13.0301C41.4973 13.5193 41.5224 13.9673 41.5654 14.3051C41.6735 15.1584 41.7185 15.512 41.9432 16.3511C42.1559 17.1433 42.294 17.473 42.6285 18.27C42.6317 18.2781 42.9703 19.078 43.5928 20.0342C44.0711 20.7689 44.4939 21.2666 44.8086 21.619C45.4023 22.2828 45.9147 22.7238 46.2484 22.9976C46.8093 23.4581 46.8296 23.4711 47.8822 24.1413C47.8887 24.1458 48.5606 24.571 49.667 25.021C50.3369 25.2924 50.7241 25.3952 51.4284 25.5823C51.4353 25.5844 52.1768 25.7686 52.9848 25.8581C53.4866 25.914 53.9876 25.9424 54.4776 25.9424H54.5003C54.555 25.9424 54.6097 25.9424 54.6643 25.9412C55.5497 25.9262 56.2961 25.8233 56.7655 25.7391C57.9169 25.5333 58.7816 25.2061 58.7897 25.2028C59.0623 25.0967 59.4292 24.9623 59.6965 24.8432C59.9865 24.7136 60.3741 24.5378 60.6474 24.3754C61.1593 24.0721 61.826 23.6403 62.3124 23.2981C62.5623 23.1215 62.8705 22.8526 63.0989 22.6489C64.3544 21.5279 65.1701 20.357 65.6334 19.5733C65.7909 19.3064 66.1595 18.6811 66.5232 17.7686C66.7767 17.132 66.8715 16.8408 67.1271 15.8222C67.1295 15.8133 67.3506 14.9203 67.4195 13.7624C67.4644 13.0038 67.4644 13.0038 67.3749 11.6361Z" fill="white"/>
</mask>
<g mask="url(#mask1_169_2458)">
<path d="M54.0905 25.9688V25.9282H53.3615V25.8877H52.8755V25.8472H52.5515V25.8067H52.3085V25.7662H52.0654V25.7257H51.8629V25.6852H51.6604V25.6447H51.4984V25.6042H51.3364V25.5637H51.1744V25.5232H51.0529V25.4827H50.8909V25.4422H50.7289V25.4017H50.6074V25.3612H50.4859V25.3207H50.3644V25.2802H50.2429V25.2397H50.1214V25.1992H49.9999V25.1587H49.8784V25.1182H49.7974V25.0777H49.6759V25.0372H49.5949V24.9967H49.4734V24.9562H49.3924V24.9157H49.3114V24.8752H49.1899V24.8347H49.1089V24.7942H49.0279V24.7537H48.9469V24.7132H48.8659V24.6727H48.7849V24.6322H48.7039V24.5917H48.6229V24.5512H48.5419V24.5107H48.4609V24.4702H48.3799V24.4297H48.2989V24.3892H48.2179V24.3487H48.1369V24.3082H48.0559V24.2677H48.0154V24.2272H47.9344V24.1867H47.8534V24.1462H47.8129V24.1057H47.7319V24.0652H47.6914V24.0247H47.6104V23.9842H47.5699V23.9437H47.4889V23.9032H47.4079V23.8627H47.3674V23.8222H47.2864V23.7817H47.2459V23.7412H47.1649V23.7007H47.1244V23.6602H47.0434V23.6197H47.0029V23.5792H46.9219V23.5387H46.8814V23.4982H46.8004V23.4577H46.7599V23.4172H46.7194V23.3767H46.6384V23.3362H46.5979V23.2957H46.5574V23.2552H46.4764V23.2147H46.4359V23.1742H46.3954V23.1337H46.3549V23.0932H46.3144V23.0527H46.2334V23.0122H46.1929V22.9717H46.1524V22.9312H46.1119V22.8907H46.0714V22.8502H45.9904V22.8097H45.9499V22.7692H45.9094V22.7287H45.8689V22.6882H45.8284V22.6477H45.7879V22.6072H45.7474V22.5667H45.6664V22.5262H45.6259V22.4857H45.5854V22.4452H45.5449V22.4047H45.5044V22.3642H45.4639V22.3237H45.4234V22.2832H45.3829V22.2427H45.3424V22.2022H45.3019V22.1617H45.2614V22.1212H45.2209V22.0807H45.1804V22.0402H45.1399V21.9997H45.0994V21.9592H45.0589V21.9187H45.0184V21.8782H44.9779V21.8377H44.9374V21.7972H44.8969V21.7567H44.8564V21.6757H44.8159V21.6352H44.7754V21.5947H44.7349V21.5542H44.6944V21.5137H44.6539V21.4732H44.6134V21.4327H44.5729V21.3517H44.5324V21.3112H44.4919V21.2707H44.4514V21.2302H44.4109V21.1897H44.3704V21.1087H44.3299V21.0682H44.2894V21.0277H44.2489V20.9872H44.2084V20.9062H44.1679V20.8657H44.1274V20.8252H44.0869V20.7442H44.0464V20.7037H44.0059V20.6632H43.9654V20.5822H43.9249V20.5417H43.8844V20.5012H43.8439V20.4202H43.8034V20.3797H43.7629V20.2987H43.7224V20.2582H43.6819V20.1772H43.6414V20.1367H43.6009V20.0557H43.5604V20.0152H43.5199V19.9342H43.4794V19.8937H43.4389V19.8127H43.3984V19.7317H43.3579V19.6912H43.3174V19.6102H43.2769V19.5292H43.2364V19.4887H43.1959V19.4077H43.1554V19.3267H43.1149V19.2457H43.0744V19.2052H43.0339V19.1242H42.9934V19.0432H42.9529V18.9622H42.9124V18.8812H42.8719V18.8002H42.8314V18.7192H42.7909V18.6382H42.7504V18.5572H42.7099V18.4762H42.6694V18.3952H42.6289V18.2737H42.5884V18.1927H42.5479V18.1117H42.5074V17.9902H42.4669V17.9092H42.4264V17.7877H42.3859V17.7067H42.3454V17.5852H42.3049V17.5042H42.2644V17.3827H42.2239V17.2612H42.1834V17.1802H42.1429V17.0587H42.1024V16.9372H42.0619V16.7752H42.0214V16.6537H41.9809V16.4917H41.9404V16.3702H41.8999V16.2082H41.8594V16.0462H41.8189V15.8842H41.7784V15.6817H41.7379V15.4792H41.6974V15.2767H41.6569V14.9932H41.6164V14.7097H41.5759V14.4262H41.5354V13.9807H41.4949V11.9557H41.5354V11.5507H41.5759V11.2267H41.6164V10.9027H41.6569V10.6597H41.6974V10.4572H41.7379V10.2547H41.7784V10.0927H41.8189V9.89017H41.8594V9.72817H41.8999V9.60667H41.9404V9.44467H41.9809V9.28267H42.0214V9.16117H42.0619V9.03967H42.1024V8.91817H42.1429V8.79667H42.1834V8.67517H42.2239V8.55367H42.2644V8.43217H42.3049V8.35117H42.3454V8.22967H42.3859V8.14867H42.4264V8.02717H42.4669V7.94617H42.5074V7.82467H42.5479V7.74366H42.5884V7.66266H42.6289V7.58166H42.6694V7.46016H42.7099V7.37916H42.7504V7.29816H42.7909V7.21716H42.8314V7.13616H42.8719V7.05516H42.9124V6.97416H42.9529V6.89316H42.9934V6.81216H43.0339V6.77166H43.0744V6.69066H43.1149V6.60966H43.1554V6.52866H43.1959V6.48816H43.2364V6.40716H43.2769V6.32616H43.3174V6.24516H43.3579V6.20466H43.3984V6.12366H43.4389V6.08316H43.4794V6.00216H43.5199V5.96166H43.5604V5.88066H43.6009V5.84015H43.6414V5.75916H43.6819V5.71865H43.7224V5.63766H43.7629V5.59715H43.8034V5.51615H43.8439V5.47565H43.8844V5.39465H43.9249V5.35415H43.9654V5.31365H44.0059V5.27315H44.0464V5.19215H44.0869V5.15165H44.1274V5.11115H44.1679V5.03015H44.2084V4.98965H44.2489V4.94915H44.2894V4.86815H44.3299V4.82765H44.3704V4.78715H44.4109V4.74665H44.4514V4.66565H44.4919V4.62515H44.5324V4.58465H44.5729V4.54415H44.6134V4.50365H44.6539V4.42265H44.6944V4.38215H44.7349V4.34165H44.7754V4.30115H44.8159V4.26065H44.8564V4.22015H44.8969V4.17965H44.9374V4.13915H44.9779V4.09865H45.0184V4.01765H45.0589V3.97715H45.0994V3.93665H45.1399V3.89615H45.1804V3.85565H45.2209V3.81515H45.2614V3.77465H45.3019V3.73415H45.3424V3.69365H45.3829V3.65314H45.4234V3.61264H45.4639V3.57215H45.5044V3.53164H45.5449V3.49114H45.5854V3.45064H45.6664V3.41014H45.7069V3.36964H45.7474V3.32914H45.7879V3.28864H45.8284V3.24814H45.8689V3.20764H45.9094V3.16714H45.9499V3.12664H45.9904V3.08614H46.0714V3.04564H46.1119V3.00514H46.1524V2.96464H46.2334V2.92414H46.2739V2.88364H46.3144V2.84314H46.3549V2.80264H46.4359V2.76214H46.4764V2.72164H46.5169V2.68114H46.5979V2.64064H46.6384V2.60014H46.6789V2.55964H46.7599V2.51914H46.8004V2.47864H46.8814V2.43814H46.9219V2.39764H46.9624V2.35714H47.0434V2.31664H47.0839V2.27614H47.1649V2.23564H47.2054V2.19514H47.2459V2.15464H47.3269V2.11414H47.3674V2.07364H47.4484V2.03314H47.4889V1.99264H47.5699V1.95214H47.6104V1.91164H47.6914V1.87114H47.7319V1.83064H47.8129V1.79014H47.8939V1.74964H47.9344V1.70914H48.0154V1.66864H48.0964V1.62814H48.1774V1.58764H48.2179V1.54714H48.2989V1.50664H48.3799V1.46614H48.4609V1.42563H48.5419V1.38513H48.6229V1.34464H48.7039V1.30413H48.7849V1.26363H48.8659V1.22313H48.9469V1.18263H49.0684V1.14213H49.1494V1.10163H49.2304V1.06113H49.3114V1.02063H49.4329V0.980133H49.5139V0.939632H49.5949V0.899132H49.7164V0.858633H49.7974V0.818132H49.9189V0.777632H50.0404V0.737131H50.1619V0.69663H50.2834V0.656132H50.4049V0.615631H50.5264V0.57513H50.6479V0.53463H50.8099V0.494131H50.9314V0.45363H51.0934V0.41313H51.2149V0.372629H51.3769V0.33213H51.5389V0.29163H51.7009V0.251129H51.9034V0.210629H52.1465V0.17013H52.3895V0.129629H52.6325V0.0891285H52.9565V0.0486279H53.3615V0.00812721H55.589V0.0486279H55.9535V0.0891285H56.318V0.129629H56.561V0.17013H56.804V0.210629H57.0065V0.251129H57.2495V0.29163H57.4115V0.33213H57.5735V0.372629H57.7355V0.41313H57.8975V0.45363H58.0595V0.494131H58.181V0.53463H58.3025V0.57513H58.424V0.615631H58.5455V0.656132H58.667V0.69663H58.7885V0.737131H58.91V0.777632H59.0315V0.818132H59.1125V0.858633H59.234V0.899132H59.3555V0.939632H59.4365V0.980133H59.5175V1.02063H59.639V1.06113H59.72V1.10163H59.801V1.14213H59.882V1.18263H60.0035V1.22313H60.0845V1.26363H60.1655V1.30413H60.2465V1.34464H60.3275V1.38513H60.4085V1.42563H60.4895V1.46614H60.53V1.50664H60.611V1.54714H60.692V1.58764H60.773V1.62814H60.854V1.66864H60.935V1.70914H60.9755V1.74964H61.0565V1.79014H61.1375V1.83064H61.178V1.87114H61.259V1.91164H61.34V1.95214H61.3805V1.99264H61.4615V2.03314H61.502V2.07364H61.583V2.11414H61.664V2.15464H61.7045V2.19514H61.745V2.23564H61.826V2.27614H61.8665V2.31664H61.9475V2.35714H61.988V2.39764H62.0285V2.43814H62.1095V2.47864H62.15V2.51914H62.1905V2.55964H62.2715V2.60014H62.312V2.64064H62.393V2.68114H62.4335V2.72164H62.474V2.76214H62.5145V2.80264H62.5955V2.84314H62.636V2.88364H62.6765V2.92414H62.7575V2.96464H62.798V3.00514H62.8385V3.04564H62.879V3.08614H62.9195V3.12664H62.96V3.16714H63.041V3.20764H63.0815V3.24814H63.122V3.28864H63.1625V3.32914H63.203V3.36964H63.2435V3.41014H63.284V3.45064H63.3245V3.49114H63.365V3.53164H63.4055V3.57215H63.446V3.61264H63.4865V3.65314H63.5675V3.69365H63.608V3.73415H63.6485V3.77465H63.689V3.85565H63.7295V3.89615H63.77V3.93665H63.8105V3.97715H63.851V4.01765H63.8915V4.05815H63.932V4.09865H63.9725V4.13915H64.013V4.17965H64.0535V4.22015H64.094V4.26065H64.1345V4.30115H64.175V4.34165H64.2155V4.38215H64.256V4.46315H64.2965V4.50365H64.337V4.54415H64.3775V4.58465H64.418V4.62515H64.4585V4.66565H64.499V4.74665H64.5395V4.78715H64.58V4.82765H64.6205V4.86815H64.661V4.94915H64.7015V4.98965H64.742V5.03015H64.7825V5.07065H64.823V5.15165H64.8635V5.19215H64.904V5.27315H64.9445V5.31365H64.985V5.35415H65.0255V5.43515H65.066V5.47565H65.1065V5.51615H65.147V5.59715H65.1875V5.63766H65.228V5.71865H65.2685V5.75916H65.309V5.84015H65.3495V5.88066H65.39V5.96166H65.4305V6.00216H65.471V6.08316H65.5115V6.16416H65.552V6.20466H65.5925V6.28566H65.633V6.36666H65.6735V6.40716H65.714V6.48816H65.7545V6.56916H65.795V6.65016H65.8355V6.69066H65.876V6.77166H65.9165V6.85266H65.957V6.93366H65.9975V7.01466H66.038V7.09566H66.0785V7.17666H66.119V7.25766H66.1595V7.33866H66.2V7.41966H66.2405V7.50066H66.281V7.58166H66.3215V7.66266H66.362V7.78416H66.4025V7.86517H66.443V7.94617H66.4835V8.06767H66.524V8.14867H66.5645V8.27017H66.605V8.35117H66.6455V8.47267H66.686V8.59417H66.7265V8.71567H66.767V8.79667H66.8075V8.91817H66.848V9.03967H66.8885V9.20167H66.929V9.32317H66.9695V9.48517H67.01V9.64717H67.0505V9.80917H67.091V9.97118H67.1315V10.1332H67.172V10.3357H67.2125V10.4977H67.253V10.7002H67.2935V10.9432H67.334V11.2267H67.3745V11.5912H67.415V12.2392H67.4555V13.8592H67.415V14.3047H67.3745V14.6692H67.334V14.9527H67.2935V15.1957H67.253V15.4387H67.2125V15.6412H67.172V15.8437H67.1315V15.9652H67.091V16.1272H67.0505V16.2892H67.01V16.4512H66.9695V16.6132H66.929V16.7347H66.8885V16.8967H66.848V17.0182H66.8075V17.1397H66.767V17.2612H66.7265V17.3827H66.686V17.4637H66.6455V17.5852H66.605V17.6662H66.5645V17.7877H66.524V17.8687H66.4835V17.9902H66.443V18.0712H66.4025V18.1522H66.362V18.2737H66.3215V18.3547H66.281V18.4357H66.2405V18.5167H66.2V18.5977H66.1595V18.6787H66.119V18.7597H66.0785V18.8407H66.038V18.9217H65.9975V19.0027H65.957V19.0837H65.9165V19.1647H65.876V19.2457H65.8355V19.3267H65.795V19.3672H65.7545V19.4482H65.714V19.5292H65.6735V19.6102H65.633V19.6507H65.5925V19.7317H65.552V19.8127H65.5115V19.8532H65.471V19.9342H65.4305V19.9747H65.39V20.0557H65.3495V20.0962H65.309V20.1772H65.2685V20.2177H65.228V20.2987H65.1875V20.3392H65.147V20.4202H65.1065V20.4607H65.066V20.5012H65.0255V20.5822H64.985V20.6227H64.9445V20.6632H64.904V20.7442H64.8635V20.7847H64.823V20.8252H64.7825V20.9062H64.742V20.9467H64.7015V21.0277H64.661V21.0682H64.6205V21.1087H64.58V21.1492H64.5395V21.1897H64.499V21.2302H64.4585V21.3112H64.418V21.3517H64.3775V21.3922H64.337V21.4327H64.2965V21.4732H64.256V21.5137H64.2155V21.5947H64.175V21.6352H64.1345V21.6757H64.094V21.7162H64.0535V21.7567H64.013V21.7972H63.9725V21.8377H63.932V21.8782H63.8915V21.9187H63.851V21.9592H63.8105V21.9997H63.77V22.0402H63.7295V22.0807H63.689V22.1212H63.6485V22.1617H63.608V22.2022H63.5675V22.2832H63.527V22.3237H63.4865V22.3642H63.446V22.4047H63.4055V22.4452H63.365V22.4857H63.284V22.5262H63.2435V22.5667H63.203V22.6072H63.1625V22.6477H63.122V22.6882H63.0815V22.7287H63.041V22.7692H63.0005V22.8097H62.9195V22.8502H62.879V22.8907H62.8385V22.9312H62.798V22.9717H62.7575V23.0122H62.717V23.0527H62.636V23.0932H62.5955V23.1337H62.555V23.1742H62.5145V23.2147H62.4335V23.2552H62.393V23.2957H62.3525V23.3362H62.2715V23.3767H62.231V23.4172H62.15V23.4577H62.1095V23.4982H62.0285V23.5387H61.988V23.5792H61.907V23.6197H61.8665V23.6602H61.7855V23.7007H61.745V23.7412H61.664V23.7817H61.6235V23.8222H61.5425V23.8627H61.502V23.9032H61.421V23.9437H61.3805V23.9842H61.2995V24.0247H61.2185V24.0652H61.178V24.1057H61.097V24.1462H61.0565V24.1867H60.9755V24.2272H60.8945V24.2677H60.854V24.3082H60.773V24.3487H60.7325V24.3892H60.6515V24.4297H60.5705V24.4702H60.4895V24.5107H60.4085V24.5512H60.3275V24.5917H60.2465V24.6322H60.1655V24.6727H60.0845V24.7132H60.0035V24.7537H59.9225V24.7942H59.8415V24.8347H59.72V24.8752H59.639V24.9157H59.558V24.9562H59.4365V24.9967H59.3555V25.0372H59.234V25.0777H59.153V25.1182H59.0315V25.1587H58.91V25.1992H58.829V25.2397H58.7075V25.2802H58.586V25.3207H58.4645V25.3612H58.343V25.4017H58.2215V25.4422H58.0595V25.4827H57.938V25.5232H57.776V25.5637H57.614V25.6042H57.452V25.6447H57.2495V25.6852H57.047V25.7257H56.8445V25.7662H56.642V25.8067H56.3585V25.8472H56.0345V25.8877H55.6295V25.9282H55.0625V25.9688H54.0905ZM53.6855 23.3362V23.3767H54.0095V23.3362H54.131V23.2957H54.2525V23.2552H54.3335V23.2147H54.4145V23.1742H54.4955V23.1337H54.536V23.0932H54.5765V23.0527H54.6575V23.0122H54.698V22.9717H54.7385V22.9312H54.779V22.8907H54.8195V22.8502H54.86V22.8097H54.9005V22.7692H54.941V22.7287H54.9815V22.6882H55.022V22.6072H55.0625V22.5667H55.103V22.4857H55.1435V22.4452H55.184V22.3237H54.86V22.3642H54.6575V22.4047H54.4955V22.4452H54.4145V22.4857H54.3335V22.5262H54.2525V22.5667H54.1715V22.6072H54.131V22.6477H54.05V22.6882H54.0095V22.7287H53.969V22.7692H53.9285V22.8502H53.888V22.8907H53.8475V22.9717H53.807V23.0122H53.7665V23.1337H53.726V23.2552H53.6855V23.3362ZM47.7319 23.1742V23.2147H47.7724V23.1337H47.7319V23.0932H47.6914V23.0527H47.6509V23.0122H47.6104V22.9312H47.5699V22.8907H47.5294V22.8502H47.4889V22.8097H47.4484V22.7692H47.4079V22.7287H47.3674V22.6477H47.3269V22.6072H47.2864V22.5667H47.2459V22.5262H47.2054V22.4857H47.1649V22.4452H47.1244V22.3642H47.0839V22.3237H47.0434V22.2832H47.0029V22.2427H46.9624V22.2022H46.9219V22.1617H46.8814V22.1212H46.8409V22.0807H46.8004V22.0402H46.7599V21.9997H46.7194V21.9592H46.6789V21.8782H46.6384V21.8377H46.5979V21.7972H46.5574V21.7567H46.5169V21.7162H46.4764V21.6757H46.4359V21.6352H46.3954V21.5947H46.3549V21.5542H46.3144V21.5137H46.2739V21.4732H46.2334V21.4327H46.1929V21.3922H46.1524V21.3517H46.1119V21.3112H46.0714V21.2707H46.0309V21.2302H45.9499V21.1897H45.9094V21.1492H45.8689V21.1087H45.8284V21.0682H45.7879V21.0277H45.7474V20.9872H45.7069V20.9467H45.6664V20.9062H45.5854V20.8657H45.5449V20.8252H45.5044V20.7847H45.4639V20.7442H45.3829V20.7037H45.3424V20.6632H45.3019V20.6227H45.2614V20.5822H45.1804V20.5417H45.1399V20.5012H45.0589V20.4607H44.9779V20.4202H44.9374V20.3797H44.8969V20.4202H44.9374V20.5012H44.9779V20.5822H45.0184V20.6227H45.0589V20.7037H45.0994V20.7442H45.1399V20.8252H45.1804V20.8657H45.2209V20.9467H45.2614V20.9872H45.3019V21.0277H45.3424V21.0682H45.3829V21.1087H45.4234V21.1897H45.4639V21.2302H45.5044V21.2707H45.5449V21.3112H45.5854V21.3517H45.6259V21.4327H45.6664V21.4732H45.7069V21.5137H45.7474V21.5542H45.7879V21.5947H45.8284V21.6352H45.8689V21.6757H45.9094V21.7162H45.9499V21.7567H45.9904V21.7972H46.0309V21.8377H46.0714V21.8782H46.1119V21.9187H46.1524V21.9592H46.1929V21.9997H46.2334V22.0402H46.3144V22.0807H46.3549V22.1212H46.3954V22.1617H46.4359V22.2022H46.4764V22.2427H46.5169V22.2832H46.5574V22.3237H46.5979V22.3642H46.6384V22.4047H46.7194V22.4452H46.7599V22.4857H46.8004V22.5262H46.8409V22.5667H46.8814V22.6072H46.9624V22.6477H47.0029V22.6882H47.0434V22.7287H47.0839V22.7692H47.1649V22.8097H47.2054V22.8502H47.2459V22.8907H47.3269V22.9312H47.3674V22.9717H47.4484V23.0122H47.4889V23.0527H47.5294V23.0932H47.6104V23.1337H47.6509V23.1742H47.7319ZM62.474 22.5262V22.5667H62.5145V22.5262H62.555V22.4857H62.5955V22.4452H62.555V22.4857H62.5145V22.5262H62.474ZM62.636 22.4047V22.4452H62.6765V22.4047H62.717V22.3642H62.7575V22.3237H62.8385V22.2832H62.879V22.2427H62.9195V22.2022H62.96V22.1617H63.041V22.1212H63.0815V22.0807H63.122V22.0402H63.1625V21.9997H63.2435V21.9592H63.284V21.9187H63.3245V21.8782H63.365V21.8377H63.4055V21.7972H63.446V21.7567H63.4865V21.7162H63.527V21.6757H63.5675V21.6352H63.608V21.5947H63.6485V21.5542H63.7295V21.5137H63.77V21.4732H63.8105V21.4327H63.851V21.3922H63.8915V21.3112H63.932V21.2707H63.8915V21.3112H63.851V21.3517H63.8105V21.3922H63.77V21.4327H63.7295V21.4732H63.6485V21.5137H63.608V21.5542H63.5675V21.5947H63.527V21.6352H63.4865V21.6757H63.446V21.7162H63.4055V21.7567H63.365V21.7972H63.284V21.8377H63.2435V21.8782H63.203V21.9187H63.1625V21.9592H63.122V21.9997H63.0815V22.0402H63.041V22.0807H62.96V22.1212H62.9195V22.1617H62.879V22.2022H62.8385V22.2427H62.798V22.2832H62.7575V22.3237H62.717V22.3642H62.6765V22.4047H62.636ZM61.826 20.0557V20.0962H62.0285V20.0557H62.1905V20.0152H62.3525V19.9747H62.4335V19.9342H62.555V19.8937H62.636V19.8532H62.717V19.8127H62.798V19.7722H62.879V19.7317H62.9195V19.6912H63.0005V19.6507H63.041V19.6102H63.122V19.5697H63.1625V19.5292H63.203V19.4077H63.2435V19.2052H63.284V18.7597H63.2435V18.6382H63.203V18.5167H63.1625V18.4762H63.122V18.3952H63.0815V18.3547H63.041V18.3142H63.0005V18.2737H62.96V18.2332H62.879V18.1927H62.798V18.1522H62.7575V18.1117H62.555V18.0712H62.231V18.1117H62.0285V18.1522H61.907V18.1927H61.7855V18.2332H61.7045V18.2737H61.6235V18.3142H61.5425V18.3547H61.4615V18.3952H61.421V18.4357H61.34V18.4762H61.2995V18.5167H61.2185V18.5572H61.178V18.5977H61.1375V18.6382H61.097V18.6787H61.0565V19.3267H61.097V19.4887H61.1375V19.5697H61.178V19.6507H61.2185V19.7317H61.259V19.7722H61.2995V19.8532H61.3805V19.8937H61.421V19.9342H61.4615V19.9747H61.5425V20.0152H61.664V20.0557H61.826ZM50.2024 19.8937V19.9342H50.2429V19.8937H50.2834V19.8127H50.3239V19.7722H50.3644V19.6912H50.4049V19.6507H50.4454V19.5697H50.4859V19.4482H50.5264V19.3672H50.5669V19.2052H50.6074V19.0432H50.6479V18.3547H50.6074V18.1522H50.5669V17.9902H50.5264V17.9092H50.4859V17.7877H50.4454V17.7067H50.4049V17.6257H50.3644V17.5042H50.3239V17.4232H50.2834V17.3827H50.2429V17.3422H50.2024V17.2612H50.1619V17.2207H50.1214V17.1397H50.0809V17.0992H50.0404V17.0182H49.9999V16.9777H49.9594V16.9372H49.9189V16.8967H49.8784V16.8562H49.8379V16.8157H49.7974V16.7752H49.7569V16.7347H49.7164V16.6942H49.6759V16.6537H49.5949V16.6942H49.5544V16.7752H49.5139V16.8562H49.4734V16.8967H49.4329V16.9777H49.3924V17.0587H49.3519V17.1802H49.3114V17.3017H49.2709V17.4232H49.2304V18.1522H49.2709V18.3547H49.3114V18.4762H49.3519V18.6382H49.3924V18.7597H49.4329V18.8407H49.4734V18.9217H49.5139V19.0027H49.5544V19.0837H49.5949V19.1647H49.6354V19.2457H49.6759V19.2862H49.7164V19.3672H49.7569V19.4077H49.7974V19.4887H49.8379V19.5292H49.8784V19.6102H49.9189V19.6507H49.9594V19.6912H49.9999V19.7317H50.0404V19.7722H50.0809V19.8127H50.1214V19.8937H50.2024ZM66.362 15.6007V15.6412H66.4025V15.5197H66.443V15.3577H66.4835V15.1147H66.524V14.8312H66.5645V14.5882H66.605V14.2642H66.6455V13.9807H66.686V13.2112H66.7265V12.2797H66.686V11.6722H66.6455V11.7532H66.605V11.9962H66.5645V12.2392H66.524V12.5227H66.4835V12.8872H66.443V13.3327H66.4025V13.9807H66.362V15.6007ZM54.5765 15.4792V15.5197H54.698V15.4792H54.8195V15.4387H54.9815V15.3982H55.103V15.3577H55.184V15.3172H55.265V15.2767H55.346V15.2362H55.427V15.1957H55.4675V15.1552H55.5485V15.1147H55.589V15.0742H55.6295V15.0337H55.7105V14.9932H55.751V14.9527H55.7915V14.9122H55.832V14.8717H55.8725V14.8312H55.913V14.7907H55.9535V14.7502H55.994V14.6692H56.0345V14.6287H56.075V14.5882H56.1155V14.5072H56.156V14.4262H56.1965V14.3857H56.237V14.3047H56.2775V14.2237H56.318V14.1427H56.3585V14.0212H56.399V13.8997H56.4395V13.7782H56.48V13.6162H56.5205V13.2922H56.561V13.1707H56.5205V12.7657H56.48V12.5227H56.4395V12.4012H56.399V12.3202H56.3585V12.1987H56.318V12.1177H56.2775V12.0367H56.237V11.9557H56.1965V11.8747H56.156V11.8342H56.0345V11.8747H55.9535V11.9152H55.832V11.9557H55.751V11.9962H55.67V12.0367H55.589V12.0772H55.5485V12.1177H55.4675V12.1582H55.427V12.1987H55.346V12.2392H55.3055V12.2797H55.2245V12.3202H55.184V12.3607H55.1435V12.4012H55.103V12.4417H55.0625V12.4822H55.022V12.5227H54.9815V12.5632H54.941V12.6442H54.9005V12.6847H54.86V12.7252H54.8195V12.8062H54.779V12.8467H54.7385V12.9277H54.698V12.9682H54.6575V13.0492H54.617V13.1302H54.5765V13.2112H54.536V13.3327H54.4955V13.4137H54.455V13.5352H54.4145V13.6972H54.374V13.8592H54.3335V14.7502H54.374V14.9527H54.4145V15.1552H54.455V15.2362H54.4955V15.3577H54.536V15.4792H54.5765ZM44.2489 14.5882V14.6287H44.2894V14.5882H44.3299V14.5477H44.3704V14.4667H44.4109V14.4262H44.4514V14.3452H44.4919V14.2642H44.5324V14.1832H44.5729V14.0617H44.6134V13.9807H44.6539V13.8592H44.6944V13.6972H44.7349V13.5352H44.7754V13.3732H44.8159V13.0897H44.8564V12.1582H44.8159V11.9152H44.7754V11.7127H44.7349V11.5507H44.6944V11.4292H44.6539V11.3077H44.6134V11.1862H44.5729V11.1052H44.5324V11.0242H44.4919V10.9837H44.4514V10.9027H44.4109V10.8217H44.3704V10.7812H44.3299V10.7407H44.2894V10.7002H44.2489V10.6597H44.2084V10.6192H44.1679V10.5787H44.0869V10.6597H44.0464V10.7812H44.0059V10.8622H43.9654V10.9837H43.9249V11.1457H43.8844V11.3077H43.8439V11.4697H43.8034V11.6722H43.7629V11.9962H43.7224V13.1302H43.7629V13.4137H43.8034V13.6162H43.8439V13.7782H43.8844V13.8997H43.9249V14.0212H43.9654V14.1427H44.0059V14.2237H44.0464V14.3047H44.0869V14.3857H44.1274V14.4667H44.1679V14.5072H44.2084V14.5882H44.2489ZM61.4615 13.1302V13.1707H61.9475V13.1302H62.1095V13.0897H62.231V13.0492H62.312V13.0087H62.393V12.9682H62.4335V12.9277H62.5145V12.8872H62.5955V12.8467H62.636V12.8062H62.6765V12.7657H62.717V12.7252H62.7575V12.6847H62.798V12.6442H62.8385V12.6037H62.879V12.5632H62.9195V12.5227H62.96V12.4822H63.0005V12.4012H63.041V12.3607H63.0815V12.2797H63.122V12.2392H63.1625V12.1582H63.203V12.0772H63.2435V11.9557H63.284V11.8747H63.3245V11.7937H63.365V11.6317H63.4055V11.5102H63.446V11.3482H63.4865V11.0647H63.527V10.2952H63.446V10.2547H63.365V10.2142H63.284V10.1737H63.203V10.1332H63.122V10.0927H62.9195V10.0522H62.5145V10.0927H62.393V10.1332H62.231V10.1737H62.15V10.2142H62.1095V10.2547H62.0285V10.2952H61.988V10.3357H61.907V10.3762H61.826V10.4167H61.7855V10.4572H61.745V10.4977H61.7045V10.5382H61.664V10.5787H61.6235V10.6192H61.583V10.7002H61.5425V10.7407H61.502V10.7812H61.4615V10.8622H61.421V10.9432H61.3805V10.9837H61.34V11.0647H61.2995V11.1862H61.259V11.2672H61.2185V11.3482H61.178V11.5102H61.1375V11.6722H61.097V11.9152H61.0565V12.7252H61.097V13.0087H61.1375V13.0492H61.178V13.0897H61.2995V13.1302H61.4615ZM50.6479 7.86517V7.90566H50.7694V7.86517H50.8504V7.82467H50.9314V7.78416H51.0124V7.74366H51.0529V7.70317H51.1339V7.66266H51.1744V7.62216H51.2554V7.58166H51.2959V7.54116H51.3364V7.50066H51.3769V7.46016H51.4174V7.41966H51.4579V7.37916H51.4984V7.33866H51.5389V7.29816H51.5794V7.21716H51.6199V7.17666H51.6604V7.13616H51.7009V7.05516H51.7414V7.01466H51.7819V6.93366H51.8224V6.85266H51.8629V6.77166H51.9034V6.69066H51.9439V6.60966H51.9844V6.48816H52.0249V6.36666H52.0654V6.16416H52.1059V5.55665H52.0654V5.35415H52.0249V5.23265H51.9844V5.11115H51.9439V4.98965H51.8629V5.03015H51.7819V5.07065H51.7414V5.11115H51.7009V5.15165H51.6199V5.19215H51.5794V5.23265H51.5389V5.27315H51.4984V5.31365H51.4579V5.35415H51.4174V5.39465H51.3769V5.43515H51.3364V5.47565H51.2959V5.51615H51.2554V5.59715H51.2149V5.63766H51.1744V5.67815H51.1339V5.71865H51.0934V5.79966H51.0529V5.84015H51.0124V5.88066H50.9719V5.96166H50.9314V6.04266H50.8909V6.12366H50.8504V6.16416H50.8099V6.24516H50.7694V6.36666H50.7289V6.44766H50.6884V6.56916H50.6479V6.69066H50.6074V6.85266H50.5669V7.09566H50.5264V7.41966H50.5669V7.66266H50.6074V7.78416H50.6479V7.86517ZM64.742 6.73116V6.77166H64.823V6.69066H64.7825V6.65016H64.742V6.56916H64.7015V6.48816H64.661V6.44766H64.6205V6.36666H64.58V6.28566H64.5395V6.24516H64.499V6.16416H64.4585V6.12366H64.418V6.04266H64.3775V6.00216H64.337V5.96166H64.2965V5.88066H64.256V5.84015H64.2155V5.75916H64.175V5.71865H64.1345V5.67815H64.094V5.63766H64.0535V5.55665H64.013V5.51615H63.9725V5.47565H63.932V5.43515H63.8915V5.39465H63.851V5.35415H63.8105V5.27315H63.77V5.23265H63.7295V5.19215H63.689V5.15165H63.6485V5.11115H63.608V5.07065H63.5675V5.03015H63.527V4.98965H63.4865V4.94915H63.446V4.90865H63.4055V4.86815H63.365V4.82765H63.3245V4.78715H63.284V4.74665H63.2435V4.70615H63.203V4.66565H63.1625V4.62515H63.122V4.58465H63.0815V4.54415H63.0005V4.50365H62.96V4.46315H62.9195V4.42265H62.879V4.38215H62.8385V4.34165H62.7575V4.30115H62.717V4.26065H62.6765V4.22015H62.636V4.17965H62.555V4.13915H62.5145V4.09865H62.4335V4.05815H62.393V4.01765H62.312V3.97715H62.2715V3.93665H62.231V3.97715H62.2715V4.05815H62.312V4.09865H62.3525V4.17965H62.393V4.26065H62.4335V4.30115H62.474V4.38215H62.5145V4.42265H62.555V4.50365H62.5955V4.54415H62.636V4.62515H62.6765V4.66565H62.717V4.74665H62.7575V4.78715H62.798V4.86815H62.8385V4.90865H62.879V4.94915H62.9195V5.03015H62.96V5.07065H63.0005V5.15165H63.041V5.19215H63.0815V5.23265H63.122V5.27315H63.1625V5.35415H63.203V5.39465H63.2435V5.43515H63.284V5.47565H63.3245V5.55665H63.365V5.59715H63.4055V5.63766H63.446V5.67815H63.4865V5.71865H63.527V5.75916H63.5675V5.84015H63.608V5.88066H63.6485V5.92116H63.689V5.96166H63.7295V6.00216H63.77V6.04266H63.8105V6.08316H63.851V6.12366H63.8915V6.16416H63.932V6.20466H63.9725V6.24516H64.013V6.28566H64.0535V6.32616H64.094V6.36666H64.1345V6.40716H64.2155V6.44766H64.256V6.48816H64.2965V6.52866H64.3775V6.56916H64.418V6.60966H64.499V6.65016H64.5395V6.69066H64.6205V6.73116H64.742ZM45.0184 6.28566V6.32616H45.0994V6.28566H45.1804V6.24516H45.2614V6.20466H45.3424V6.16416H45.4234V6.12366H45.4639V6.08316H45.5449V6.04266H45.5854V6.00216H45.6664V5.96166H45.7069V5.92116H45.7474V5.88066H45.7879V5.84015H45.8689V5.79966H45.9094V5.75916H45.9499V5.71865H45.9904V5.67815H46.0309V5.63766H46.0714V5.59715H46.1119V5.55665H46.1524V5.51615H46.1929V5.47565H46.2334V5.43515H46.2739V5.39465H46.3144V5.35415H46.3549V5.31365H46.3954V5.23265H46.4359V5.19215H46.4764V5.15165H46.5169V5.11115H46.5574V5.07065H46.5979V4.98965H46.6384V4.94915H46.6789V4.90865H46.7194V4.86815H46.7599V4.78715H46.8004V4.74665H46.8409V4.66565H46.8814V4.62515H46.9219V4.58465H46.9624V4.50365H47.0029V4.46315H47.0434V4.38215H47.0839V4.34165H47.1244V4.26065H47.1649V4.17965H47.2054V4.13915H47.2459V4.05815H47.2864V3.97715H47.3269V3.89615H47.3674V3.81515H47.4079V3.73415H47.4484V3.65314H47.4889V3.57215H47.5294V3.53164H47.4889V3.57215H47.4079V3.61264H47.3269V3.65314H47.2864V3.69365H47.2054V3.73415H47.1649V3.77465H47.1244V3.81515H47.0434V3.85565H47.0029V3.89615H46.9624V3.93665H46.8814V3.97715H46.8409V4.01765H46.8004V4.05815H46.7599V4.09865H46.7194V4.13915H46.6789V4.17965H46.5979V4.22015H46.5574V4.26065H46.5169V4.30115H46.4764V4.34165H46.4359V4.38215H46.3954V4.42265H46.3549V4.46315H46.3144V4.50365H46.2739V4.54415H46.2334V4.58465H46.1929V4.62515H46.1524V4.66565H46.1119V4.70615H46.0714V4.74665H46.0309V4.78715H45.9904V4.82765H45.9499V4.86815H45.9094V4.94915H45.8689V4.98965H45.8284V5.03015H45.7879V5.07065H45.7474V5.11115H45.7069V5.19215H45.6664V5.23265H45.6259V5.27315H45.5854V5.31365H45.5449V5.39465H45.5044V5.43515H45.4639V5.51615H45.4234V5.55665H45.3829V5.63766H45.3424V5.67815H45.3019V5.75916H45.2614V5.79966H45.2209V5.88066H45.1804V5.96166H45.1399V6.04266H45.0994V6.12366H45.0589V6.20466H45.0184V6.28566ZM57.9785 5.55665V5.59715H58.5455V5.55665H58.7075V5.51615H58.7885V5.47565H58.8695V5.43515H58.9505V5.39465H59.0315V5.35415H59.072V5.31365H59.1125V5.27315H59.153V5.23265H59.1935V5.15165H59.234V5.11115H59.2745V5.03015H59.234V4.98965H59.153V4.94915H59.1125V4.90865H59.0315V4.86815H58.991V4.82765H58.91V4.78715H58.829V4.74665H58.748V4.70615H58.667V4.66565H58.586V4.62515H58.4645V4.58465H58.343V4.54415H58.2215V4.50365H58.019V4.46315H57.695V4.50365H57.533V4.54415H57.452V4.58465H57.371V4.62515H57.3305V4.66565H57.29V4.70615H57.2495V4.74665H57.209V4.78715H57.1685V4.86815H57.128V4.90865H57.0875V5.03015H57.047V5.11115H57.0065V5.15165H57.047V5.19215H57.128V5.23265H57.1685V5.27315H57.2495V5.31365H57.29V5.35415H57.4115V5.39465H57.4925V5.43515H57.5735V5.47565H57.695V5.51615H57.8165V5.55665" fill="url(#paint1_radial_169_2458)"/>
</g>
<path d="M43.7791 10.4139C43.6471 10.4139 43.511 10.4613 43.3757 10.5642C42.3361 11.3535 42.2968 14.7863 43.654 14.9985C43.9047 14.9872 44.1088 14.8669 44.274 14.6843C43.5223 13.8277 43.5175 11.6759 44.1063 10.5136C44.0023 10.4488 43.8921 10.4139 43.7791 10.4139Z" fill="#CCE53F"/>
<path d="M54.2683 10.7627C53.7689 10.7627 53.2566 10.9385 52.8099 11.3334C51.3134 12.6569 51.9971 15.4996 54.3262 15.5737C54.408 15.5677 54.487 15.5588 54.5636 15.547C54.0711 14.507 54.2355 13.1518 55.1654 12.3297C55.4728 12.0583 55.8081 11.8813 56.1508 11.7866C55.7211 11.1499 55.0083 10.7627 54.2683 10.7627Z" fill="#CCE53F"/>
<path d="M63.5371 10.2894C63.5505 10.4178 63.5574 10.549 63.557 10.6839C63.5561 11.536 63.184 13.0264 61.792 13.2058C61.5453 13.2042 61.3185 13.1572 61.1124 13.0738C61.3343 14.0284 61.9762 14.8335 62.9673 14.8408C64.2366 14.6768 64.5759 13.3188 64.5768 12.5416C64.5776 11.5093 64.1317 10.6875 63.5371 10.2894Z" fill="#CCE53F"/>
<path d="M61.0613 18.6294C60.9653 18.7096 60.871 18.7983 60.779 18.8951C59.7208 20.0105 59.5393 21.8358 60.7604 21.8398C61.7644 21.7212 62.6109 20.7071 62.9183 20.187C63.0434 19.9756 63.1406 19.7602 63.2062 19.5524C62.8389 19.8331 62.4136 20.0538 61.958 20.1076C61.1812 20.1048 60.9192 19.4337 61.0613 18.6294Z" fill="#CCE53F"/>
<path d="M48.2912 16.0979C47.9239 16.0979 47.5711 16.2214 47.2816 16.4976C46.0767 17.6462 47.4282 20.237 49.29 20.3472C49.71 20.3253 50.004 20.1783 50.2093 19.9782C49.224 19.0414 48.8052 17.4854 49.6306 16.6098C49.2231 16.287 48.7456 16.0979 48.2912 16.0979Z" fill="#CCE53F"/>
<path d="M44.6369 20.2692C44.5992 20.2692 44.5701 20.2785 44.5494 20.298C44.5182 20.3279 44.5032 20.3697 44.5036 20.4223C44.5044 21.1023 47.0361 23.5222 48.0567 23.7275C48.0867 23.7259 48.1231 23.7243 48.1231 23.6818C48.1231 23.6356 48.0794 23.54 47.9356 23.342C46.8348 22.7628 45.0609 21.0282 44.856 20.332C44.7661 20.2903 44.6924 20.2692 44.6369 20.2692Z" fill="#CCE53F"/>
<path d="M50.9217 4.3619C50.5248 4.3619 50.0623 4.54578 49.5836 4.96576C48.2681 6.12164 48.2613 8.00166 49.9975 8.09521C50.2445 8.08104 50.4665 8.03243 50.6649 7.95912C50.2786 7.19407 50.6261 6.02322 51.5778 5.18689C51.6888 5.08929 51.7989 5.00343 51.9075 4.9277C51.6945 4.5717 51.3453 4.3619 50.9217 4.3619Z" fill="#CCE53F"/>
<path d="M57.0057 2.54512C56.8158 2.54512 56.6485 2.59495 56.5221 2.70673C55.9863 3.18098 56.139 4.45066 56.9903 5.15212C57.045 4.9395 57.1458 4.75765 57.2924 4.62845C57.435 4.50209 57.6237 4.4458 57.838 4.4458C58.2786 4.4458 58.8282 4.68233 59.3126 5.03549C59.4256 4.73741 59.3709 4.36926 59.187 4.02461C58.7808 3.26239 57.7274 2.54512 57.0057 2.54512ZM56.0066 3.46692C56.0062 4.48226 56.8121 5.80862 58.4345 5.83252C59.2344 5.75516 59.5742 5.30886 59.575 4.78074C59.5746 4.92168 59.5503 5.05654 59.4997 5.18007C59.3604 5.52067 59.0214 5.77582 58.4345 5.83252C57.8266 5.82401 57.3329 5.63164 56.9539 5.34207C56.3212 4.8585 56.0062 4.10196 56.0066 3.46692Z" fill="#CCE53F"/>
<path d="M62.1034 3.37047C62.0779 3.37047 62.0577 3.37574 62.0431 3.38627C61.9843 3.42961 62.0382 3.61022 62.1682 3.8678C62.6457 4.12377 63.4375 4.77744 64.1191 5.63037C64.4306 6.01958 64.7015 6.43148 64.872 6.77979C65.1478 6.61697 64.7197 5.77901 64.124 5.03462C63.3399 4.0537 62.3914 3.37047 62.1034 3.37047Z" fill="#CCE53F"/>
<path d="M66.8756 11.1408C66.8578 11.1408 66.8383 11.1497 66.8189 11.1683C66.765 11.2189 66.7148 11.3311 66.6682 11.4903C66.6816 11.5879 66.6937 11.6989 66.7051 11.8228L66.7403 12.5433C66.7326 12.9584 66.7253 13.5125 66.6949 13.9268C66.6374 14.3731 66.5593 14.9684 66.4754 15.4107C66.439 15.5739 66.4062 15.7068 66.3742 15.8149C66.3495 15.5601 66.3381 15.239 66.3381 14.8858C66.3381 15.74 66.4062 16.4042 66.5653 16.4106C66.6783 16.3377 66.7606 16.1255 66.8784 15.5974C66.9622 15.1556 67.0404 14.5598 67.0979 14.1135C67.1283 13.7 67.1352 13.1463 67.1433 12.7316L67.108 12.0111C67.0558 11.4324 66.978 11.1408 66.8756 11.1408Z" fill="#CCE53F"/>
<path d="M64.2029 21.0751C64.2021 21.0768 64.2013 21.0784 64.2005 21.08C63.8785 21.4133 63.5193 21.7709 63.2078 22.0346C62.4225 22.651 62.2431 22.7915 61.9422 22.9831C61.9122 23.0086 61.8827 23.0341 61.8523 23.0592C61.2262 23.5861 60.822 23.8725 60.4927 24.0993C60.3773 24.1787 60.3773 24.1787 60.3364 24.2188C60.3663 24.2066 60.3906 24.1965 60.5008 24.1369L61.0799 23.8028C61.6457 23.4549 61.6457 23.4549 62.6635 22.6563C63.0956 22.2905 63.6197 21.7434 64.0089 21.3323C64.1414 21.1764 64.1648 21.1452 64.2029 21.0751Z" fill="#CCE53F"/>
<path d="M47.4687 3.18225C47.2447 3.18225 46.8077 3.46655 46.6935 3.54351C45.3023 4.48149 44.1938 6.22301 44.8957 6.36719C44.9176 6.36597 44.9398 6.36394 44.9625 6.3607C45.1764 5.62562 46.1573 4.39766 47.299 3.62775C47.35 3.59332 47.4553 3.52406 47.5813 3.45076C47.591 3.41633 47.5975 3.38517 47.6007 3.35803C47.6165 3.22965 47.5602 3.18225 47.4687 3.18225Z" fill="#CCE53F"/>
<path d="M55.2439 22.3158C55.2342 22.3401 55.2248 22.364 55.2143 22.3867C55.0365 22.7722 54.5108 23.3643 53.7899 23.4146C53.7446 23.4133 53.6996 23.4101 53.6551 23.4044C53.6283 24.0516 54.2111 24.7174 54.9231 24.7349C55.5776 24.6891 56.0547 24.1521 56.2159 23.8021C56.2685 23.6871 56.3115 23.5344 56.322 23.4231C56.3832 22.7722 55.8546 22.3822 55.2439 22.3158Z" fill="#CAE544"/>
<path d="M54.3258 10.5539C53.7754 10.5539 53.2104 10.7483 52.7179 11.1837C52.125 11.7078 51.8423 12.4481 51.8431 13.1856C51.8443 14.5003 52.7446 15.8048 54.3894 15.8574C56.1819 15.7266 56.7748 14.2949 56.8461 13.4481V13.4477C56.8461 13.446 56.8465 13.4448 56.8469 13.4432V13.4428C56.8469 13.4416 56.8469 13.44 56.8469 13.4387C56.8469 13.4383 56.8469 13.4383 56.8469 13.4383C56.8469 13.4371 56.8473 13.4355 56.8473 13.4339C56.8473 13.4339 56.8473 13.4339 56.8473 13.4335C56.8473 13.4323 56.8477 13.4307 56.8477 13.429C56.8477 13.429 56.8477 13.429 56.8477 13.4286C56.8477 13.4274 56.8477 13.4262 56.8477 13.4246H56.8481C56.8481 13.4229 56.8481 13.4213 56.8481 13.4197C56.8481 13.4177 56.8485 13.4157 56.8489 13.4132C56.8489 13.4128 56.8489 13.4116 56.8489 13.4112C56.8489 13.4096 56.8489 13.408 56.8493 13.4059C56.8493 13.4047 56.8493 13.4039 56.8493 13.4023C56.8493 13.4011 56.8497 13.3999 56.8497 13.3991C56.8497 13.3978 56.8497 13.3966 56.8497 13.3954C56.8497 13.395 56.8497 13.3938 56.8497 13.3938C56.8501 13.3914 56.8506 13.3889 56.8506 13.3865C56.8506 13.3857 56.8506 13.3849 56.8506 13.3845C56.851 13.38 56.851 13.3756 56.8514 13.3715C56.8514 13.3711 56.8514 13.3707 56.8514 13.3699C56.8514 13.3671 56.8518 13.3642 56.8522 13.3614C56.8522 13.361 56.8522 13.361 56.8522 13.361C56.8522 13.3598 56.8522 13.3582 56.8522 13.3565C56.8522 13.3561 56.8522 13.3557 56.8522 13.3557C56.8522 13.3529 56.8526 13.3505 56.8526 13.3476C56.8526 13.3472 56.8526 13.3464 56.8526 13.346C56.8526 13.3444 56.853 13.3436 56.853 13.3424C56.853 13.3415 56.8534 13.3403 56.8534 13.3395C56.8534 13.3375 56.8534 13.3355 56.8534 13.3339C56.8534 13.3326 56.8534 13.3318 56.8534 13.331C56.8534 13.3298 56.8538 13.3286 56.8538 13.3274C56.8538 13.3257 56.8538 13.3237 56.8538 13.3221C56.8538 13.3213 56.8538 13.3205 56.8538 13.3197C56.8542 13.3181 56.8542 13.3164 56.8542 13.3148C56.8542 13.3144 56.8542 13.3136 56.8542 13.3132C56.8542 13.3108 56.8542 13.3087 56.8542 13.3063C56.8542 13.3063 56.8542 13.3059 56.8542 13.3055C56.8558 13.2707 56.8562 13.2362 56.8562 13.2022C56.8554 11.6438 55.6295 10.5539 54.3258 10.5539ZM54.3262 15.5735C51.997 15.4994 51.3134 12.6567 52.8098 11.3331C53.2566 10.9383 53.7689 10.7625 54.2683 10.7625C55.0082 10.7625 55.721 11.1497 56.1507 11.7863C56.4387 12.2132 56.5999 12.7527 56.5561 13.3626C56.5043 14.0892 56.0219 15.3228 54.5635 15.5468C54.487 15.5585 54.408 15.5674 54.3262 15.5735Z" fill="#C8E551"/>
<path d="M48.2488 15.9025C47.8478 15.9025 47.4627 16.0374 47.1463 16.3387C46.7993 16.6696 46.6466 17.1099 46.647 17.5813C46.6474 18.8975 47.8425 20.4544 49.3394 20.5435C50.7545 20.4681 50.859 19.1025 50.859 18.7011C50.859 18.6416 50.857 18.6035 50.8562 18.5934C50.7533 17.0742 49.4318 15.9025 48.2488 15.9025ZM49.29 20.3474C47.4282 20.2373 46.0767 17.6465 47.2816 16.4979C47.5712 16.2217 47.9239 16.0982 48.2913 16.0982C48.7457 16.0982 49.2232 16.2873 49.6306 16.6101C50.1936 17.0552 50.6241 17.7554 50.6788 18.5626C50.682 18.6124 50.7314 19.4698 50.2094 19.9785C50.004 20.1786 49.71 20.3256 49.29 20.3474Z" fill="#C8E551"/>
<path d="M43.784 10.064C43.6317 10.064 43.475 10.1187 43.3186 10.2373C42.7496 10.6695 42.441 11.7881 42.4402 12.8699C42.4398 14.0674 42.8172 15.2213 43.6394 15.3501C44.6053 15.3051 44.9755 13.8597 45.0411 13.0124C45.052 12.8731 45.0573 12.7362 45.0573 12.6022C45.0577 11.1753 44.4688 10.064 43.784 10.064ZM43.654 14.9994C42.2968 14.7871 42.3361 11.3544 43.3757 10.565C43.511 10.4621 43.6471 10.4147 43.7791 10.4147C43.8921 10.4147 44.0023 10.4496 44.1064 10.5144C44.6005 10.8234 44.9601 11.8124 44.8698 12.9719C44.8297 13.4871 44.66 14.257 44.274 14.6851C44.1088 14.8677 43.9047 14.988 43.654 14.9994Z" fill="#C8E551"/>
<path d="M50.9922 4.11342C50.5426 4.11342 50.0186 4.3224 49.4771 4.79787C48.7813 5.40943 48.4087 6.19918 48.4091 6.87837C48.4095 7.65436 48.8971 8.28656 49.9457 8.34326C51.5057 8.25133 52.1784 6.96018 52.3165 6.29031C52.3425 6.16233 52.3631 5.98776 52.3664 5.85695C52.3668 5.83467 52.3672 5.81239 52.3672 5.79052C52.368 4.78693 51.8006 4.11342 50.9922 4.11342ZM49.9975 8.095C48.2613 8.00144 48.2681 6.12142 49.5836 4.96555C50.0623 4.54556 50.5248 4.36169 50.9217 4.36169C51.3454 4.36169 51.6945 4.57148 51.9075 4.92748C52.061 5.18385 52.1444 5.51635 52.1343 5.90069C52.1315 6.01612 52.1136 6.17003 52.0901 6.28343C51.9905 6.76862 51.573 7.62275 50.665 7.95891C50.4665 8.03221 50.2446 8.08083 49.9975 8.095Z" fill="#C8E551"/>
<path d="M47.7097 2.89369C47.7044 2.89369 47.6996 2.89409 47.6943 2.89409C47.6927 2.89409 47.6907 2.8945 47.6886 2.8945C47.4311 2.90989 46.9702 3.20272 46.8142 3.3068C46.8086 3.31045 46.8033 3.31369 46.7988 3.31693C46.7984 3.31733 46.798 3.31733 46.7976 3.31774C46.7964 3.31895 46.7948 3.31976 46.7936 3.32057C45.5 4.19294 44.4134 5.65296 44.4138 6.31798C44.4138 6.4982 44.4936 6.61972 44.6702 6.65576C44.7495 6.65212 44.833 6.63591 44.9192 6.60796C45.562 6.40141 46.3627 5.57036 46.8993 4.8535C47.3116 4.30189 47.6607 3.70735 47.802 3.33231C47.8361 3.24119 47.8579 3.16261 47.8656 3.10145C47.866 3.09821 47.8664 3.09579 47.8664 3.09295C47.8664 3.09255 47.8668 3.09174 47.8668 3.09174C47.8668 3.09134 47.8668 3.09093 47.8668 3.09093C47.881 2.94716 47.8154 2.8941 47.7097 2.89369ZM44.8957 6.3674C44.1939 6.22321 45.3024 4.4817 46.6935 3.54371C46.8078 3.46676 47.2448 3.18245 47.4687 3.18245C47.5602 3.18245 47.6165 3.22985 47.6007 3.35824C47.5975 3.38537 47.591 3.41654 47.5813 3.45097C47.4954 3.7535 47.1723 4.32051 46.7826 4.84134C46.2877 5.50311 45.5259 6.27991 44.9626 6.36091C44.9399 6.36415 44.9176 6.36618 44.8957 6.3674Z" fill="#C8E551"/>
<path d="M56.9049 2.34628C56.6898 2.34628 56.5011 2.40258 56.3585 2.52853C56.124 2.7363 56.0066 3.07893 56.0066 3.46692C56.0062 4.10196 56.3212 4.8585 56.9539 5.34207C57.3329 5.63164 57.8266 5.82401 58.4345 5.83252C59.0214 5.77582 59.3604 5.52067 59.4997 5.18007C59.5503 5.05654 59.5746 4.92168 59.575 4.78074C59.5754 4.5345 59.5017 4.26962 59.3669 4.0165C58.9084 3.15546 57.7193 2.34628 56.9049 2.34628ZM56.9903 5.15212C56.139 4.45066 55.9863 3.18098 56.5221 2.70673C56.6485 2.59495 56.8158 2.54512 57.0057 2.54512C57.7274 2.54512 58.7808 3.26239 59.187 4.02461C59.3709 4.36926 59.4256 4.73741 59.3126 5.03549C59.1947 5.34693 58.8926 5.58224 58.3612 5.63368C57.7902 5.62517 57.3333 5.43482 56.9903 5.15212Z" fill="#C8E551"/>
<path d="M62.7158 9.79462C62.3327 9.79462 61.9423 9.94933 61.5931 10.2932C61.0914 10.7861 60.8536 11.5381 60.8532 12.3008C60.8528 13.6656 61.6138 15.0641 62.9835 15.0742C64.3759 14.8944 64.7481 13.4044 64.7489 12.5519C64.7489 12.5503 64.7489 12.5486 64.7489 12.547C64.7485 10.9371 63.7567 9.79462 62.7158 9.79462ZM61.1124 13.0735C60.8986 12.1546 61.0739 11.0979 61.7001 10.4823C62.0184 10.1692 62.374 10.0283 62.7235 10.0283C63.0066 10.0283 63.2852 10.1206 63.5372 10.2891C64.1317 10.6872 64.5776 11.509 64.5768 12.5413C64.576 13.3185 64.2366 14.6765 62.9673 14.8405C61.9763 14.8332 61.3344 14.0281 61.1124 13.0735Z" fill="#C8E551"/>
<path d="M62.4975 17.8587C61.9581 17.8587 61.2813 18.1681 60.6941 18.7878C60.0858 19.4293 59.7403 20.2826 59.7395 20.9545C59.7395 21.5705 60.0291 22.0326 60.6734 22.0347C61.7803 21.9034 62.7134 20.7852 63.0524 20.2117C63.3258 19.75 63.4793 19.2685 63.4793 18.8752C63.4793 18.8473 63.4784 18.8198 63.4768 18.7926C63.4412 18.1701 63.0386 17.8587 62.4975 17.8587ZM61.0614 18.6298C61.5203 18.2451 62.0103 18.0527 62.4149 18.0527C62.9058 18.0527 63.2707 18.3354 63.3031 18.9C63.3148 19.0956 63.2804 19.3187 63.2063 19.5528C63.1407 19.7606 63.0435 19.976 62.9183 20.1874C62.6109 20.7075 61.7645 21.7216 60.7605 21.8403C59.5394 21.8362 59.7208 20.0109 60.7791 18.8955C60.871 18.7987 60.9654 18.71 61.0614 18.6298Z" fill="#C8E551"/>
<path d="M55.0621 22.1811C54.6481 22.1811 54.2225 22.3139 53.9074 22.595C53.634 22.8396 53.517 23.1389 53.517 23.4398C53.5166 24.1385 54.1484 24.8407 54.9163 24.8594C55.638 24.8096 56.1641 24.217 56.3419 23.8311C56.4002 23.7039 56.4472 23.5362 56.4589 23.4131C56.4621 23.3742 56.4642 23.337 56.4642 23.2997C56.463 22.5808 55.7809 22.1807 55.0621 22.1811ZM53.6551 23.4046C53.6656 23.1462 53.7733 22.8911 54.0086 22.6813C54.2938 22.4261 54.6797 22.3054 55.0556 22.3054C55.1187 22.3054 55.1819 22.3091 55.2439 22.316C55.8546 22.3824 56.3832 22.7724 56.322 23.4232C56.3115 23.5346 56.2686 23.6873 56.2159 23.8023C56.0547 24.1522 55.5776 24.6893 54.9231 24.735C54.2111 24.7176 53.6283 24.0518 53.6551 23.4046Z" fill="#C8E551"/>
<path d="M61.9224 3.14763C61.894 3.14763 61.8709 3.15329 61.8547 3.16544C61.8365 3.17921 61.828 3.20392 61.828 3.23956C61.8284 3.34729 61.9098 3.55019 62.0479 3.80858C62.6246 4.88751 64.192 6.93156 64.9741 7.01377C64.9894 7.01539 65.0036 7.0166 65.0182 7.0166C65.1081 6.9838 65.1486 6.90321 65.1486 6.78738C65.1486 6.41721 64.7363 5.69024 64.2066 5.02806C63.3208 3.91957 62.2484 3.14763 61.9224 3.14763ZM62.1682 3.86771C62.0382 3.61013 61.9843 3.42951 62.0431 3.38618C62.0576 3.37565 62.0779 3.37038 62.1034 3.37038C62.3914 3.37038 63.3399 4.05361 64.124 5.03452C64.7197 5.77892 65.1478 6.61688 64.872 6.77969C64.8627 6.78536 64.8526 6.7898 64.842 6.79385C64.1434 6.78778 62.6449 4.81177 62.1682 3.86771Z" fill="#C8E551"/>
<defs>
<radialGradient id="paint0_radial_169_2458" cx="0" cy="0" r="1" gradientUnits="userSpaceOnUse" gradientTransform="translate(56.9352 4.42879) scale(2.8072 2.80719)">
<stop stop-color="#A3D71D"/>
<stop offset="0.00537634" stop-color="#A3D71D"/>
<stop offset="0.994624" stop-color="#D0E868"/>
<stop offset="1" stop-color="#D0E868"/>
</radialGradient>
<radialGradient id="paint1_radial_169_2458" cx="0" cy="0" r="1" gradientUnits="userSpaceOnUse" gradientTransform="translate(48.2503 15.495) scale(20.5197 20.5197)">
<stop stop-color="#A3D71D"/>
<stop offset="0.00537634" stop-color="#A3D71D"/>
<stop offset="0.994624" stop-color="#D0E868"/>
<stop offset="1" stop-color="#D0E868"/>
</radialGradient>
</defs>
</svg>
