<svg width="179" height="50" viewBox="0 0 179 50" fill="none" xmlns="http://www.w3.org/2000/svg">
<g clip-path="url(#clip0_169_2506)">
<path d="M0.986173 0.00146484H19.7306C24.4414 0.00447162 29.0359 1.4651 32.8837 4.18295C35.9131 6.17581 38.4527 8.82777 40.3127 11.9405C42.1726 15.0533 43.3048 18.5463 43.6244 22.1583C44.0764 26.7418 43.1166 31.354 40.8738 35.3768C38.6153 39.6526 35.143 43.1653 30.8936 45.4731C27.6884 47.3189 24.0671 48.321 20.3689 48.3854C14.0825 48.4447 7.79728 48.3854 1.48 48.3854H0.956543L0.986173 0.00146484ZM13.0751 38.3113C14.8207 38.3113 16.5121 38.4163 18.1825 38.3113C21.5036 38.1978 24.6601 36.8376 27.0235 34.5014C29.3868 32.1653 30.7836 29.0248 30.9356 25.7052C31.3059 20.1039 29.6738 15.3842 24.7257 12.1879C21.1615 9.88788 17.1701 9.89529 13.038 10.0891L13.0763 38.3175L13.0751 38.3113Z" fill="#080808"/>
<path d="M74.5343 0.00146484H85.9109C86.3714 0.00146484 86.5911 0.150848 86.5454 0.618749V0.890354C86.5454 10.5422 86.5302 20.1916 86.4998 29.8385C86.559 33.6784 85.7073 37.4777 84.0146 40.9249C83.0058 42.9023 81.568 44.6293 79.8063 45.9799C78.0445 47.3304 76.0034 48.2704 73.8319 48.7311C67.7538 50.354 61.338 50.201 55.3442 48.2904C49.4059 46.315 46.085 41.978 44.8652 36.0842C44.3332 33.4201 44.0599 30.7108 44.0491 27.9941C43.9504 18.9817 44.0491 9.95332 44.0491 0.928625C44.0446 0.644982 44.0573 0.361323 44.0874 0.0792426H56.1763V25.7299C56.1763 27.7546 56.2998 29.7866 56.464 31.8027C56.5935 33.5162 57.2209 35.1545 58.2689 36.5163C58.854 37.2757 59.5875 37.9082 60.4248 38.3751C61.2621 38.8421 62.1857 39.1337 63.1393 39.2323C65.1574 39.5863 67.2307 39.456 69.1887 38.8521C70.3633 38.4828 71.4154 37.8012 72.2324 36.88C73.0495 35.9588 73.6006 34.8328 73.8269 33.6225C74.2648 31.4971 74.4812 29.332 74.4726 27.162C74.5491 18.5039 74.4726 9.8385 74.4726 1.17184L74.5343 0.00146484Z" fill="#080808"/>
<path d="M99.1121 32.1124V48.3322H87.1072V0.0679779C87.3714 0.0679779 87.6356 0.016126 87.8627 0.016126H107.986C110.376 0.0134403 112.748 0.436077 114.99 1.26427C116.872 1.91924 118.576 3.00208 119.969 4.42755C121.361 5.85303 122.404 7.58225 123.015 9.47909C124.42 13.5488 124.487 17.9614 123.205 22.0717C121.618 27.2988 117.916 30.3433 112.627 31.5112C110.939 31.8424 109.225 32.025 107.505 32.0569C105.064 32.147 102.617 32.0569 100.169 32.0569L99.1121 32.1124ZM99.1578 9.62107V22.4421C101.424 22.4421 103.691 22.584 105.958 22.4038C107.31 22.3603 108.598 21.8184 109.574 20.8824C110.55 19.9463 111.146 18.6823 111.247 17.3334C111.92 13.1211 109.827 10.0754 105.716 9.62724C103.532 9.49875 101.343 9.48597 99.1578 9.58897V9.62107Z" fill="#080808"/>
<path d="M124.491 0.00147698H144.615C148.392 -0.132912 152.099 1.05562 155.094 3.36197C157.316 5.14855 158.898 7.6086 159.601 10.3718C160.523 13.6121 160.441 17.0556 159.367 20.2484C158.786 21.9923 157.798 23.5723 156.483 24.8568C155.169 26.1414 153.566 27.0934 151.81 27.6336C150.986 27.9249 150.148 28.1558 149.143 28.4706L164.563 48.357C164.11 48.357 163.853 48.4089 163.596 48.4089H150.45C150.186 48.4351 149.92 48.3833 149.685 48.26C149.45 48.1367 149.257 47.9473 149.128 47.7151C145.91 42.741 142.654 37.7904 139.42 32.8237C138.553 31.4386 137.618 30.0978 136.617 28.8064V48.3336C136.254 48.3336 135.99 48.4015 135.733 48.4015H125.399C124.696 48.4015 124.469 48.2299 124.469 47.5052V0.822465C124.444 0.548888 124.451 0.273294 124.491 0.00147698ZM136.579 21.9867C139.08 22.0311 141.527 22.2175 143.863 21.2768C144.869 20.9492 145.76 20.3394 146.43 19.52C147.1 18.7006 147.52 17.706 147.641 16.6546C147.912 14.3397 147.588 12.1743 145.563 10.6805C142.865 8.68666 139.715 9.04469 136.595 9.00642L136.579 21.9867Z" fill="#080808"/>
<path d="M168.047 7.75366V4.90696H169.877C170.111 4.90742 170.346 4.92468 170.578 4.95861C170.798 4.98728 171.012 5.05284 171.209 5.15233C171.393 5.24858 171.547 5.38985 171.656 5.56191C171.782 5.78037 171.841 6.02831 171.828 6.27773C171.845 6.5656 171.779 6.85235 171.637 7.1061C171.514 7.29968 171.333 7.45325 171.119 7.54704C170.885 7.6464 170.635 7.70511 170.379 7.72046C170.102 7.74137 169.807 7.75182 169.494 7.75182L168.047 7.75366ZM166.666 3.78156V12.7349H168.047V8.88459H169.512L171.931 12.7349H173.417L170.874 8.78313C171.488 8.73484 172.071 8.50191 172.541 8.11712C172.78 7.88718 172.964 7.60943 173.08 7.30342C173.196 6.99741 173.241 6.6706 173.212 6.34599C173.241 5.99057 173.187 5.63343 173.055 5.30056C172.923 4.9677 172.715 4.66748 172.447 4.42175C171.767 3.94736 170.935 3.72235 170.098 3.78709L166.666 3.78156ZM163.351 8.22228C163.344 7.34801 163.506 6.48012 163.829 5.66338C164.128 4.90205 164.577 4.20358 165.15 3.60629C165.713 3.02554 166.39 2.5589 167.141 2.23366C167.923 1.89641 168.77 1.72527 169.626 1.73184C170.474 1.72513 171.314 1.89635 172.086 2.23366C172.834 2.56068 173.508 3.02716 174.068 3.60629C174.642 4.20358 175.09 4.90205 175.389 5.66338C175.712 6.48012 175.874 7.34801 175.867 8.22228C175.876 9.11349 175.714 9.99864 175.389 10.8328C175.094 11.603 174.648 12.3113 174.076 12.9194C173.518 13.5034 172.844 13.9732 172.094 14.3013C171.321 14.6386 170.482 14.8098 169.634 14.8031C168.778 14.8096 167.931 14.6385 167.149 14.3013C166.393 13.976 165.712 13.5059 165.15 12.9194C164.576 12.3147 164.128 11.6095 163.829 10.8421C163.503 10.005 163.341 9.11659 163.351 8.22228ZM161.969 8.22228C161.958 9.27226 162.165 10.3138 162.579 11.2848C162.966 12.1914 163.528 13.0186 164.236 13.722C164.931 14.4089 165.761 14.9552 166.677 15.3289C167.612 15.7129 168.619 15.9081 169.636 15.9027C170.649 15.9084 171.652 15.7131 172.583 15.3289C173.493 14.9548 174.316 14.4084 175.003 13.722C175.705 13.0164 176.264 12.1897 176.651 11.2848C177.064 10.3138 177.272 9.27226 177.26 8.22228C177.27 7.1892 177.062 6.16497 176.651 5.21138C176.264 4.31273 175.705 3.49272 175.003 2.79454C174.312 2.11244 173.49 1.56666 172.583 1.18762C171.653 0.797232 170.65 0.598655 169.636 0.604623C168.618 0.599168 167.611 0.797691 166.677 1.18762C165.764 1.56626 164.935 2.11193 164.236 2.79454C163.529 3.49057 162.966 4.31097 162.579 5.21138C162.167 6.16497 161.96 7.1892 161.969 8.22228Z" fill="#080808"/>
</g>
<defs>
<clipPath id="clip0_169_2506">
<rect width="177.778" height="50" fill="white" transform="translate(0.956543)"/>
</clipPath>
</defs>
</svg>
