<svg width="18" height="18" viewBox="0 0 18 18" fill="none" xmlns="http://www.w3.org/2000/svg">
<mask id="mask0_287_2459" style="mask-type:alpha" maskUnits="userSpaceOnUse" x="0" y="0" width="18" height="18">
<rect width="18" height="18" fill="#D9D9D9"/>
</mask>
<g mask="url(#mask0_287_2459)">
<path d="M8.4375 14.25V11.6798C7.78654 11.5855 7.21322 11.331 6.71754 10.9161C6.22187 10.5012 5.88557 9.97977 5.70864 9.35188C4.84327 9.24899 4.11299 8.88169 3.5178 8.24996C2.9226 7.61824 2.625 6.86824 2.625 5.99998V5.48078C2.625 5.10794 2.75776 4.78877 3.02327 4.52327C3.28877 4.25776 3.60794 4.125 3.98078 4.125H5.49519V3.98078C5.49519 3.60794 5.62794 3.28877 5.89344 3.02327C6.15894 2.75776 6.47811 2.625 6.85095 2.625H11.149C11.5219 2.625 11.841 2.75776 12.1065 3.02327C12.372 3.28877 12.5048 3.60794 12.5048 3.98078V4.125H14.0192C14.392 4.125 14.7112 4.25776 14.9767 4.52327C15.2422 4.78877 15.375 5.10794 15.375 5.48078V5.99998C15.375 6.86824 15.0774 7.61824 14.4822 8.24996C13.887 8.88169 13.1567 9.24899 12.2913 9.35188C12.1144 9.97977 11.7781 10.5012 11.2824 10.9161C10.7867 11.331 10.2134 11.5855 9.56246 11.6798V14.25H11.6682C11.8276 14.25 11.9612 14.3039 12.069 14.4118C12.1768 14.5196 12.2307 14.6533 12.2307 14.8127C12.2307 14.9722 12.1768 15.1057 12.069 15.2134C11.9612 15.3211 11.8276 15.375 11.6682 15.375H6.33174C6.17237 15.375 6.03878 15.321 5.93096 15.2132C5.82315 15.1053 5.76924 14.9717 5.76924 14.8122C5.76924 14.6528 5.82315 14.5192 5.93096 14.4115C6.03878 14.3038 6.17237 14.25 6.33174 14.25H8.4375ZM5.49519 8.14326V5.24998H3.98078C3.91346 5.24998 3.85817 5.27162 3.81489 5.31489C3.77162 5.35817 3.74998 5.41346 3.74998 5.48078V5.99998C3.74998 6.51826 3.91392 6.97643 4.24181 7.37451C4.5697 7.77258 4.98749 8.02883 5.49519 8.14326ZM9.00169 10.601C9.65921 10.601 10.2175 10.371 10.6767 9.91105C11.1358 9.45111 11.3654 8.89261 11.3654 8.23556V3.98078C11.3654 3.91346 11.3437 3.85817 11.3005 3.81489C11.2572 3.77162 11.2019 3.74998 11.1346 3.74998H6.86537C6.79806 3.74998 6.74276 3.77162 6.69949 3.81489C6.65623 3.85817 6.63459 3.91346 6.63459 3.98078V8.23556C6.63459 8.89261 6.86473 9.45111 7.32499 9.91105C7.78525 10.371 8.34415 10.601 9.00169 10.601ZM12.5048 8.14326C13.0125 8.02883 13.4303 7.77258 13.7582 7.37451C14.086 6.97643 14.25 6.51826 14.25 5.99998V5.48078C14.25 5.41346 14.2283 5.35817 14.1851 5.31489C14.1418 5.27162 14.0865 5.24998 14.0192 5.24998H12.5048V8.14326Z" fill="#BCBCBC"/>
</g>
</svg>
