<svg width="19" height="18" viewBox="0 0 19 18" fill="none" xmlns="http://www.w3.org/2000/svg">
<mask id="mask0_530_341" style="mask-type:alpha" maskUnits="userSpaceOnUse" x="0" y="0" width="19" height="18">
<rect x="0.333008" width="18" height="18" fill="#D9D9D9"/>
</mask>
<g mask="url(#mask0_530_341)">
<path d="M4.08301 16.5C3.67051 16.5 3.31738 16.3531 3.02363 16.0594C2.72988 15.7656 2.58301 15.4125 2.58301 15V4.5C2.58301 4.0875 2.72988 3.73438 3.02363 3.44063C3.31738 3.14688 3.67051 3 4.08301 3H4.83301V2.25C4.83301 2.0375 4.90488 1.85938 5.04863 1.71562C5.19238 1.57187 5.37051 1.5 5.58301 1.5C5.79551 1.5 5.97363 1.57187 6.11738 1.71562C6.26113 1.85938 6.33301 2.0375 6.33301 2.25V3H12.333V2.25C12.333 2.0375 12.4049 1.85938 12.5486 1.71562C12.6924 1.57187 12.8705 1.5 13.083 1.5C13.2955 1.5 13.4736 1.57187 13.6174 1.71562C13.7611 1.85938 13.833 2.0375 13.833 2.25V3H14.583C14.9955 3 15.3486 3.14688 15.6424 3.44063C15.9361 3.73438 16.083 4.0875 16.083 4.5V15C16.083 15.4125 15.9361 15.7656 15.6424 16.0594C15.3486 16.3531 14.9955 16.5 14.583 16.5H4.08301ZM4.08301 15H14.583V7.5H4.08301V15ZM4.08301 6H14.583V4.5H4.08301V6ZM6.33301 10.5C6.12051 10.5 5.94238 10.4281 5.79863 10.2844C5.65488 10.1406 5.58301 9.9625 5.58301 9.75C5.58301 9.5375 5.65488 9.35938 5.79863 9.21563C5.94238 9.07188 6.12051 9 6.33301 9H12.333C12.5455 9 12.7236 9.07188 12.8674 9.21563C13.0111 9.35938 13.083 9.5375 13.083 9.75C13.083 9.9625 13.0111 10.1406 12.8674 10.2844C12.7236 10.4281 12.5455 10.5 12.333 10.5H6.33301ZM6.33301 13.5C6.12051 13.5 5.94238 13.4281 5.79863 13.2844C5.65488 13.1406 5.58301 12.9625 5.58301 12.75C5.58301 12.5375 5.65488 12.3594 5.79863 12.2156C5.94238 12.0719 6.12051 12 6.33301 12H10.083C10.2955 12 10.4736 12.0719 10.6174 12.2156C10.7611 12.3594 10.833 12.5375 10.833 12.75C10.833 12.9625 10.7611 13.1406 10.6174 13.2844C10.4736 13.4281 10.2955 13.5 10.083 13.5H6.33301Z" fill="#4D4D4D"/>
</g>
</svg>
