<svg width="19" height="18" viewBox="0 0 19 18" fill="none" xmlns="http://www.w3.org/2000/svg">
<g id="event_note">
<mask id="mask0_287_2488" style="mask-type:alpha" maskUnits="userSpaceOnUse" x="0" y="0" width="19" height="18">
<rect id="Bounding box" x="0.5" width="18" height="18" fill="#D9D9D9"/>
</mask>
<g mask="url(#mask0_287_2488)">
<path id="event_note_2" d="M4.25 16.5C3.8375 16.5 3.48438 16.3531 3.19063 16.0594C2.89688 15.7656 2.75 15.4125 2.75 15V4.5C2.75 4.0875 2.89688 3.73438 3.19063 3.44063C3.48438 3.14688 3.8375 3 4.25 3H5V2.25C5 2.0375 5.07188 1.85938 5.21563 1.71562C5.35938 1.57187 5.5375 1.5 5.75 1.5C5.9625 1.5 6.14062 1.57187 6.28438 1.71562C6.42813 1.85938 6.5 2.0375 6.5 2.25V3H12.5V2.25C12.5 2.0375 12.5719 1.85938 12.7156 1.71562C12.8594 1.57187 13.0375 1.5 13.25 1.5C13.4625 1.5 13.6406 1.57187 13.7844 1.71562C13.9281 1.85938 14 2.0375 14 2.25V3H14.75C15.1625 3 15.5156 3.14688 15.8094 3.44063C16.1031 3.73438 16.25 4.0875 16.25 4.5V15C16.25 15.4125 16.1031 15.7656 15.8094 16.0594C15.5156 16.3531 15.1625 16.5 14.75 16.5H4.25ZM4.25 15H14.75V7.5H4.25V15ZM4.25 6H14.75V4.5H4.25V6ZM6.5 10.5C6.2875 10.5 6.10938 10.4281 5.96562 10.2844C5.82187 10.1406 5.75 9.9625 5.75 9.75C5.75 9.5375 5.82187 9.35938 5.96562 9.21563C6.10938 9.07188 6.2875 9 6.5 9H12.5C12.7125 9 12.8906 9.07188 13.0344 9.21563C13.1781 9.35938 13.25 9.5375 13.25 9.75C13.25 9.9625 13.1781 10.1406 13.0344 10.2844C12.8906 10.4281 12.7125 10.5 12.5 10.5H6.5ZM6.5 13.5C6.2875 13.5 6.10938 13.4281 5.96562 13.2844C5.82187 13.1406 5.75 12.9625 5.75 12.75C5.75 12.5375 5.82187 12.3594 5.96562 12.2156C6.10938 12.0719 6.2875 12 6.5 12H10.25C10.4625 12 10.6406 12.0719 10.7844 12.2156C10.9281 12.3594 11 12.5375 11 12.75C11 12.9625 10.9281 13.1406 10.7844 13.2844C10.6406 13.4281 10.4625 13.5 10.25 13.5H6.5Z" fill="#BCBCBC"/>
</g>
</g>
</svg>
