<svg width="21" height="20" viewBox="0 0 21 20" fill="none" xmlns="http://www.w3.org/2000/svg">
<g id="Icon/expand_more">
<mask id="mask0_1153_2491" style="mask-type:alpha" maskUnits="userSpaceOnUse" x="0" y="0" width="21" height="20">
<rect id="Bounding box" x="0.5" width="20" height="20" fill="#D9D9D9"/>
</mask>
<g mask="url(#mask0_1153_2491)">
<path id="expand_more" d="M10.5 12.4583C10.3889 12.4583 10.2847 12.441 10.1875 12.4063C10.0902 12.3715 9.99997 12.3125 9.91663 12.2292L6.06246 8.37501C5.90969 8.22223 5.83677 8.03126 5.84371 7.80209C5.85066 7.57292 5.93052 7.38195 6.0833 7.22917C6.23608 7.07639 6.43052 7.00001 6.66663 7.00001C6.90274 7.00001 7.09719 7.07639 7.24996 7.22917L10.5 10.4792L13.7708 7.20834C13.9236 7.05556 14.1145 6.98264 14.3437 6.98959C14.5729 6.99653 14.7639 7.07639 14.9166 7.22917C15.0694 7.38195 15.1458 7.57639 15.1458 7.81251C15.1458 8.04862 15.0694 8.24306 14.9166 8.39584L11.0833 12.2292C11 12.3125 10.9097 12.3715 10.8125 12.4063C10.7152 12.441 10.6111 12.4583 10.5 12.4583Z" fill="#FF4229"/>
</g>
</g>
</svg>
