<svg width="19" height="18" viewBox="0 0 19 18" fill="none" xmlns="http://www.w3.org/2000/svg">
<g id="Icon/groups">
<mask id="mask0_530_347" style="mask-type:alpha" maskUnits="userSpaceOnUse" x="0" y="0" width="19" height="18">
<rect id="Bounding box" x="0.333008" width="18" height="18" fill="#D9D9D9"/>
</mask>
<g mask="url(#mask0_530_347)">
<path id="groups" d="M1.08301 13.5C0.870508 13.5 0.692383 13.4281 0.548633 13.2844C0.404883 13.1406 0.333008 12.9625 0.333008 12.75V12.3188C0.333008 11.7688 0.608008 11.3281 1.15801 10.9969C1.70801 10.6656 2.43301 10.5 3.33301 10.5C3.49551 10.5 3.64863 10.5063 3.79238 10.5188C3.93613 10.5313 4.07676 10.55 4.21426 10.575C4.03926 10.825 3.91113 11.0938 3.82988 11.3813C3.74863 11.6688 3.70801 11.975 3.70801 12.3V13.5H1.08301ZM5.58301 13.5C5.37051 13.5 5.19238 13.4281 5.04863 13.2844C4.90488 13.1406 4.83301 12.9625 4.83301 12.75V12.3C4.83301 11.4875 5.24863 10.8281 6.07988 10.3219C6.91113 9.81563 7.99551 9.5625 9.33301 9.5625C10.683 9.5625 11.7705 9.81563 12.5955 10.3219C13.4205 10.8281 13.833 11.4875 13.833 12.3V12.75C13.833 12.9625 13.7611 13.1406 13.6174 13.2844C13.4736 13.4281 13.2955 13.5 13.083 13.5H5.58301ZM14.958 13.5V12.3C14.958 11.975 14.9143 11.6688 14.8268 11.3813C14.7393 11.0938 14.6143 10.825 14.4518 10.575C14.5893 10.55 14.7299 10.5313 14.8736 10.5188C15.0174 10.5063 15.1705 10.5 15.333 10.5C16.233 10.5 16.958 10.6656 17.508 10.9969C18.058 11.3281 18.333 11.7688 18.333 12.3188V12.75C18.333 12.9625 18.2611 13.1406 18.1174 13.2844C17.9736 13.4281 17.7955 13.5 17.583 13.5H14.958ZM9.33301 11.0625C8.62051 11.0625 7.98301 11.1594 7.42051 11.3531C6.85801 11.5469 6.52676 11.7625 6.42676 12H12.2393C12.1268 11.75 11.7924 11.5312 11.2361 11.3438C10.6799 11.1562 10.0455 11.0625 9.33301 11.0625ZM3.33301 9.75C2.92051 9.75 2.56738 9.60313 2.27363 9.30937C1.97988 9.01562 1.83301 8.6625 1.83301 8.25C1.83301 7.8375 1.97988 7.48438 2.27363 7.19063C2.56738 6.89688 2.92051 6.75 3.33301 6.75C3.74551 6.75 4.09863 6.89688 4.39238 7.19063C4.68613 7.48438 4.83301 7.8375 4.83301 8.25C4.83301 8.6625 4.68613 9.01562 4.39238 9.30937C4.09863 9.60313 3.74551 9.75 3.33301 9.75ZM15.333 9.75C14.9205 9.75 14.5674 9.60313 14.2736 9.30937C13.9799 9.01562 13.833 8.6625 13.833 8.25C13.833 7.8375 13.9799 7.48438 14.2736 7.19063C14.5674 6.89688 14.9205 6.75 15.333 6.75C15.7455 6.75 16.0986 6.89688 16.3924 7.19063C16.6861 7.48438 16.833 7.8375 16.833 8.25C16.833 8.6625 16.6861 9.01562 16.3924 9.30937C16.0986 9.60313 15.7455 9.75 15.333 9.75ZM9.33301 9C8.70801 9 8.17676 8.78125 7.73926 8.34375C7.30176 7.90625 7.08301 7.375 7.08301 6.75C7.08301 6.125 7.30176 5.59375 7.73926 5.15625C8.17676 4.71875 8.70801 4.5 9.33301 4.5C9.95801 4.5 10.4893 4.71875 10.9268 5.15625C11.3643 5.59375 11.583 6.125 11.583 6.75C11.583 7.375 11.3643 7.90625 10.9268 8.34375C10.4893 8.78125 9.95801 9 9.33301 9ZM9.33301 6C9.12051 6 8.94238 6.07188 8.79863 6.21563C8.65488 6.35938 8.58301 6.5375 8.58301 6.75C8.58301 6.9625 8.65488 7.14062 8.79863 7.28438C8.94238 7.42813 9.12051 7.5 9.33301 7.5C9.54551 7.5 9.72363 7.42813 9.86738 7.28438C10.0111 7.14062 10.083 6.9625 10.083 6.75C10.083 6.5375 10.0111 6.35938 9.86738 6.21563C9.72363 6.07188 9.54551 6 9.33301 6Z" fill="#4D4D4D"/>
</g>
</g>
</svg>
