<svg width="19" height="18" viewBox="0 0 19 18" fill="none" xmlns="http://www.w3.org/2000/svg">
<g id="how_to_reg">
<mask id="mask0_287_2481" style="mask-type:alpha" maskUnits="userSpaceOnUse" x="0" y="0" width="19" height="18">
<rect id="Bounding box" x="0.5" width="18" height="18" fill="#D9D9D9"/>
</mask>
<g mask="url(#mask0_287_2481)">
<path id="how_to_reg_2" d="M2.75 15C2.5375 15 2.35938 14.9281 2.21562 14.7844C2.07187 14.6406 2 14.4625 2 14.25V12.9C2 12.4875 2.10625 12.1 2.31875 11.7375C2.53125 11.375 2.825 11.1 3.2 10.9125C3.8375 10.5875 4.55625 10.3125 5.35625 10.0875C6.15625 9.8625 7.0375 9.75 8 9.75C8.375 9.75 8.74063 9.76875 9.09688 9.80625C9.45313 9.84375 9.8 9.9 10.1375 9.975L8.825 11.2875C8.6875 11.2625 8.55312 11.25 8.42188 11.25H8C7.1125 11.25 6.31563 11.3562 5.60938 11.5688C4.90313 11.7812 4.325 12.0125 3.875 12.2625C3.7625 12.325 3.67188 12.4125 3.60313 12.525C3.53438 12.6375 3.5 12.7625 3.5 12.9V13.5H8.1875L9.6875 15H2.75ZM12.1625 14.9813C12.0625 14.9813 11.9688 14.9656 11.8813 14.9344C11.7937 14.9031 11.7125 14.85 11.6375 14.775L10.1 13.2375C9.9625 13.1 9.89375 12.925 9.89375 12.7125C9.89375 12.5 9.9625 12.325 10.1 12.1875C10.2375 12.05 10.4125 11.9813 10.625 11.9813C10.8375 11.9813 11.0125 12.05 11.15 12.1875L12.1625 13.2L15.425 9.9375C15.5625 9.8 15.7375 9.73125 15.95 9.73125C16.1625 9.73125 16.3375 9.8 16.475 9.9375C16.6125 10.075 16.6813 10.25 16.6813 10.4625C16.6813 10.675 16.6125 10.85 16.475 10.9875L12.6875 14.775C12.6125 14.85 12.5312 14.9031 12.4438 14.9344C12.3562 14.9656 12.2625 14.9813 12.1625 14.9813ZM8 9C7.175 9 6.46875 8.70625 5.88125 8.11875C5.29375 7.53125 5 6.825 5 6C5 5.175 5.29375 4.46875 5.88125 3.88125C6.46875 3.29375 7.175 3 8 3C8.825 3 9.53125 3.29375 10.1187 3.88125C10.7063 4.46875 11 5.175 11 6C11 6.825 10.7063 7.53125 10.1187 8.11875C9.53125 8.70625 8.825 9 8 9ZM8 7.5C8.4125 7.5 8.76563 7.35313 9.05938 7.05937C9.35313 6.76562 9.5 6.4125 9.5 6C9.5 5.5875 9.35313 5.23438 9.05938 4.94063C8.76563 4.64688 8.4125 4.5 8 4.5C7.5875 4.5 7.23438 4.64688 6.94063 4.94063C6.64687 5.23438 6.5 5.5875 6.5 6C6.5 6.4125 6.64687 6.76562 6.94063 7.05937C7.23438 7.35313 7.5875 7.5 8 7.5Z" fill="#BCBCBC"/>
</g>
</g>
</svg>
