<svg width="19" height="18" viewBox="0 0 19 18" fill="none" xmlns="http://www.w3.org/2000/svg">
<mask id="mask0_530_138" style="mask-type:alpha" maskUnits="userSpaceOnUse" x="0" y="0" width="19" height="18">
<rect x="0.666504" width="18" height="18" fill="#D9D9D9"/>
</mask>
<g mask="url(#mask0_530_138)">
<path d="M2.9165 15C2.704 15 2.52588 14.9281 2.38213 14.7844C2.23838 14.6406 2.1665 14.4625 2.1665 14.25V12.9C2.1665 12.4875 2.27275 12.1 2.48525 11.7375C2.69775 11.375 2.9915 11.1 3.3665 10.9125C4.004 10.5875 4.72275 10.3125 5.52275 10.0875C6.32275 9.8625 7.204 9.75 8.1665 9.75C8.5415 9.75 8.90713 9.76875 9.26338 9.80625C9.61963 9.84375 9.9665 9.9 10.304 9.975L8.9915 11.2875C8.854 11.2625 8.71963 11.25 8.58838 11.25H8.1665C7.279 11.25 6.48213 11.3562 5.77588 11.5688C5.06963 11.7812 4.4915 12.0125 4.0415 12.2625C3.929 12.325 3.83838 12.4125 3.76963 12.525C3.70088 12.6375 3.6665 12.7625 3.6665 12.9V13.5H8.354L9.854 15H2.9165ZM12.329 14.9813C12.229 14.9813 12.1353 14.9656 12.0478 14.9344C11.9603 14.9031 11.879 14.85 11.804 14.775L10.2665 13.2375C10.129 13.1 10.0603 12.925 10.0603 12.7125C10.0603 12.5 10.129 12.325 10.2665 12.1875C10.404 12.05 10.579 11.9813 10.7915 11.9813C11.004 11.9813 11.179 12.05 11.3165 12.1875L12.329 13.2L15.5915 9.9375C15.729 9.8 15.904 9.73125 16.1165 9.73125C16.329 9.73125 16.504 9.8 16.6415 9.9375C16.779 10.075 16.8478 10.25 16.8478 10.4625C16.8478 10.675 16.779 10.85 16.6415 10.9875L12.854 14.775C12.779 14.85 12.6978 14.9031 12.6103 14.9344C12.5228 14.9656 12.429 14.9813 12.329 14.9813ZM8.1665 9C7.3415 9 6.63525 8.70625 6.04775 8.11875C5.46025 7.53125 5.1665 6.825 5.1665 6C5.1665 5.175 5.46025 4.46875 6.04775 3.88125C6.63525 3.29375 7.3415 3 8.1665 3C8.9915 3 9.69775 3.29375 10.2853 3.88125C10.8728 4.46875 11.1665 5.175 11.1665 6C11.1665 6.825 10.8728 7.53125 10.2853 8.11875C9.69775 8.70625 8.9915 9 8.1665 9ZM8.1665 7.5C8.579 7.5 8.93213 7.35313 9.22588 7.05937C9.51963 6.76562 9.6665 6.4125 9.6665 6C9.6665 5.5875 9.51963 5.23438 9.22588 4.94063C8.93213 4.64688 8.579 4.5 8.1665 4.5C7.754 4.5 7.40088 4.64688 7.10713 4.94063C6.81338 5.23438 6.6665 5.5875 6.6665 6C6.6665 6.4125 6.81338 6.76562 7.10713 7.05937C7.40088 7.35313 7.754 7.5 8.1665 7.5Z" fill="#4D4D4D"/>
</g>
</svg>
