<svg width="19" height="18" viewBox="0 0 19 18" fill="none" xmlns="http://www.w3.org/2000/svg">
<g id="Icon/payments">
<mask id="mask0_844_341" style="mask-type:alpha" maskUnits="userSpaceOnUse" x="0" y="0" width="19" height="18">
<rect id="Bounding box" x="0.666748" width="18" height="18" fill="#D9D9D9"/>
</mask>
<g mask="url(#mask0_844_341)">
<path id="payments" d="M11.1667 9.75C10.5417 9.75 10.0105 9.53125 9.573 9.09375C9.1355 8.65625 8.91675 8.125 8.91675 7.5C8.91675 6.875 9.1355 6.34375 9.573 5.90625C10.0105 5.46875 10.5417 5.25 11.1667 5.25C11.7917 5.25 12.323 5.46875 12.7605 5.90625C13.198 6.34375 13.4167 6.875 13.4167 7.5C13.4167 8.125 13.198 8.65625 12.7605 9.09375C12.323 9.53125 11.7917 9.75 11.1667 9.75ZM5.91675 12C5.50425 12 5.15112 11.8531 4.85737 11.5594C4.56362 11.2656 4.41675 10.9125 4.41675 10.5V4.5C4.41675 4.0875 4.56362 3.73438 4.85737 3.44063C5.15112 3.14688 5.50425 3 5.91675 3H16.4167C16.8292 3 17.1824 3.14688 17.4761 3.44063C17.7699 3.73438 17.9167 4.0875 17.9167 4.5V10.5C17.9167 10.9125 17.7699 11.2656 17.4761 11.5594C17.1824 11.8531 16.8292 12 16.4167 12H5.91675ZM7.41675 10.5H14.9167C14.9167 10.0875 15.0636 9.73438 15.3574 9.44063C15.6511 9.14688 16.0042 9 16.4167 9V6C16.0042 6 15.6511 5.85313 15.3574 5.55938C15.0636 5.26562 14.9167 4.9125 14.9167 4.5H7.41675C7.41675 4.9125 7.26987 5.26562 6.97612 5.55938C6.68237 5.85313 6.32925 6 5.91675 6V9C6.32925 9 6.68237 9.14688 6.97612 9.44063C7.26987 9.73438 7.41675 10.0875 7.41675 10.5ZM2.91675 15C2.50425 15 2.15112 14.8531 1.85737 14.5594C1.56362 14.2656 1.41675 13.9125 1.41675 13.5V6C1.41675 5.7875 1.48862 5.60938 1.63237 5.46563C1.77612 5.32188 1.95425 5.25 2.16675 5.25C2.37925 5.25 2.55737 5.32188 2.70112 5.46563C2.84487 5.60938 2.91675 5.7875 2.91675 6V13.5H14.9167C15.1292 13.5 15.3074 13.5719 15.4511 13.7156C15.5949 13.8594 15.6667 14.0375 15.6667 14.25C15.6667 14.4625 15.5949 14.6406 15.4511 14.7844C15.3074 14.9281 15.1292 15 14.9167 15H2.91675Z" fill="#4D4D4D"/>
</g>
</g>
</svg>
