<svg width="19" height="19" viewBox="0 0 19 19" fill="none" xmlns="http://www.w3.org/2000/svg">
<mask id="mask0_37_8" style="mask-type:alpha" maskUnits="userSpaceOnUse" x="0" y="0" width="19" height="19">
<rect x="0.666656" y="0.95813" width="18" height="18" fill="#D9D9D9"/>
</mask>
<g mask="url(#mask0_37_8)">
<path d="M10.4167 9.65813V6.95813C10.4167 6.74563 10.3448 6.5675 10.201 6.42375C10.0573 6.28 9.87916 6.20813 9.66666 6.20813C9.45416 6.20813 9.27603 6.28 9.13228 6.42375C8.98853 6.5675 8.91666 6.74563 8.91666 6.95813V9.93938C8.91666 10.0394 8.93541 10.1363 8.97291 10.23C9.01041 10.3238 9.06666 10.4081 9.14166 10.4831L11.6167 12.9581C11.7542 13.0956 11.9292 13.1644 12.1417 13.1644C12.3542 13.1644 12.5292 13.0956 12.6667 12.9581C12.8042 12.8206 12.8729 12.6456 12.8729 12.4331C12.8729 12.2206 12.8042 12.0456 12.6667 11.9081L10.4167 9.65813ZM9.66666 17.4581C8.62916 17.4581 7.65416 17.2613 6.74166 16.8675C5.82916 16.4738 5.03541 15.9394 4.36041 15.2644C3.68541 14.5894 3.15103 13.7956 2.75728 12.8831C2.36353 11.9706 2.16666 10.9956 2.16666 9.95813C2.16666 8.92063 2.36353 7.94563 2.75728 7.03313C3.15103 6.12063 3.68541 5.32688 4.36041 4.65188C5.03541 3.97688 5.82916 3.4425 6.74166 3.04875C7.65416 2.655 8.62916 2.45813 9.66666 2.45813C10.7042 2.45813 11.6792 2.655 12.5917 3.04875C13.5042 3.4425 14.2979 3.97688 14.9729 4.65188C15.6479 5.32688 16.1823 6.12063 16.576 7.03313C16.9698 7.94563 17.1667 8.92063 17.1667 9.95813C17.1667 10.9956 16.9698 11.9706 16.576 12.8831C16.1823 13.7956 15.6479 14.5894 14.9729 15.2644C14.2979 15.9394 13.5042 16.4738 12.5917 16.8675C11.6792 17.2613 10.7042 17.4581 9.66666 17.4581ZM9.66666 15.9581C11.3292 15.9581 12.7448 15.3738 13.9135 14.205C15.0823 13.0363 15.6667 11.6206 15.6667 9.95813C15.6667 8.29563 15.0823 6.88 13.9135 5.71126C12.7448 4.54251 11.3292 3.95813 9.66666 3.95813C8.00416 3.95813 6.58853 4.54251 5.41978 5.71126C4.25103 6.88 3.66666 8.29563 3.66666 9.95813C3.66666 11.6206 4.25103 13.0363 5.41978 14.205C6.58853 15.3738 8.00416 15.9581 9.66666 15.9581Z" fill="#4D4D4D"/>
</g>
</svg>
