<svg width="88" height="88" viewBox="0 0 88 88" fill="none" xmlns="http://www.w3.org/2000/svg">
<circle cx="44" cy="44" r="44" fill="url(#paint0_linear_547_28528)"/>
<path fill-rule="evenodd" clip-rule="evenodd" d="M50.1113 6.34608C49.5 4 48.5 1.5 47 0.0995848C46.0138 0.0335494 45.0186 0 44.0157 0C42.8323 0 41.6598 0.0467041 40.5 0.13837C42 1.5 43.1701 4 43.867 5.8531C46.7701 13.5725 41.8129 17.6297 33.178 23.7606L33.175 23.7628C24.4858 29.9324 13.6747 37.6088 17.9662 53.1318C19.5742 58.9458 24.0971 63.5195 24.2888 63.7112C24.4805 63.9029 29.0542 68.4257 34.8682 70.0338C36.8753 70.6324 39.1798 70.9845 41.5664 71.0041H41.5782C52.7375 71.0041 59.0201 62.165 64.2296 54.8357L64.2394 54.822C70.3703 46.1871 74.4275 41.23 82.1469 44.133C84.642 45.19 85.9605 45.89 87.8392 47.7734C87.9457 46.5245 88 45.2608 88 43.9844C88 43.0142 87.9686 42.0516 87.9068 41.0971C86 39.5 84 38.5 81.6578 37.8926C77.9018 37.0162 74.4354 37.427 71.1958 39.125C66.4141 41.6234 62.8788 46.6028 59.4614 51.416L59.4544 51.4259C56.5357 55.538 53.5152 59.7909 49.8296 62.4122C45.9132 65.1979 41.6564 65.8239 36.4332 64.3802C32.1373 63.1947 28.4713 59.5952 28.44 59.5639C28.4048 59.5287 24.8053 55.8431 23.6237 51.5707C22.18 46.3475 22.806 42.0907 25.5917 38.1743C28.2131 34.4887 32.4659 31.4683 36.578 28.5495L36.5879 28.5425C41.4011 25.1251 46.3805 21.5898 48.8789 16.8081C50.573 13.5686 50.9838 10.1021 50.1113 6.34608ZM87.7727 48.4846C87.7727 48.4845 87.7727 48.4846 87.7727 48.4846V48.4846Z" fill="url(#paint1_radial_547_28528)"/>
<defs>
<linearGradient id="paint0_linear_547_28528" x1="63.9588" y1="1.33932e-06" x2="22.2268" y2="102.062" gradientUnits="userSpaceOnUse">
<stop stop-color="#33C496"/>
<stop offset="1" stop-color="#1A363E"/>
</linearGradient>
<radialGradient id="paint1_radial_547_28528" cx="0" cy="0" r="1" gradientUnits="userSpaceOnUse" gradientTransform="translate(46 32.5) rotate(101.793) scale(46.4812)">
<stop stop-color="white"/>
<stop offset="1" stop-color="white" stop-opacity="0"/>
</radialGradient>
</defs>
</svg>
