    <svg
      width="375"
      height="677"
      viewBox="0 0 375 677"
      fill="none"
      xmlns="http://www.w3.org/2000/svg"
    >
      <g filter="url(#filter0_f_3522_257462)">
        <circle cx="304.369" cy="137.27" r="83.4852" fill="url(#paint0_linear_3522_257462)" />
      </g>
      <g filter="url(#filter1_f_3522_257462)">
        <path
          d="M411.999 272.2C411.999 314.863 377.414 349.448 334.751 349.448C292.088 349.448 257.503 314.863 257.503 272.2C257.503 229.537 292.088 194.952 334.751 194.952C377.414 194.952 411.999 229.537 411.999 272.2Z"
          fill="url(#paint1_linear_3522_257462)"
        />
      </g>
      <g filter="url(#filter2_f_3522_257462)">
        <circle cx="340.012" cy="282.723" r="77.2478" fill="url(#paint2_radial_3522_257462)" />
      </g>
      <g filter="url(#filter3_f_3522_257462)">
        <circle cx="31.6176" cy="286.867" r="72.6176" fill="url(#paint3_linear_3522_257462)" />
      </g>
      <g filter="url(#filter4_f_3522_257462)">
        <circle cx="174.558" cy="89.6895" r="120.689" fill="url(#paint4_radial_3522_257462)" />
      </g>
      <g filter="url(#filter5_f_3522_257462)">
        <circle cx="190.243" cy="89.6895" r="120.689" fill="url(#paint5_linear_3522_257462)" />
      </g>
      <path
        d="M213.09 260.536C216.653 261.312 219.366 264.209 219.909 267.815L220.522 271.888C220.585 272.304 221.184 272.304 221.246 271.888L221.86 267.815C222.402 264.209 225.116 261.312 228.679 260.536L229.889 260.272C230.273 260.188 230.273 259.64 229.889 259.556L228.677 259.292C225.115 258.514 222.403 255.618 221.86 252.013L221.246 247.938C221.184 247.522 220.585 247.522 220.522 247.938L219.908 252.013C219.366 255.618 216.653 258.514 213.091 259.292L211.879 259.556C211.495 259.64 211.495 260.188 211.879 260.272L213.09 260.536Z"
        fill="#B3431C"
      />
      <path
        d="M80.2615 124.396C82.8782 124.967 84.8708 127.094 85.2695 129.742L85.7199 132.734C85.7659 133.039 86.2059 133.039 86.2518 132.734L86.7023 129.742C87.101 127.094 89.0936 124.967 91.7103 124.396L92.5991 124.203C92.8813 124.141 92.8814 123.739 92.5992 123.677L91.709 123.483C89.093 122.912 87.101 120.785 86.7024 118.137L86.2518 115.144C86.2059 114.839 85.7659 114.839 85.7199 115.144L85.2694 118.137C84.8708 120.785 82.8788 122.912 80.2628 123.483L79.3726 123.677C79.0904 123.739 79.0905 124.141 79.3727 124.203L80.2615 124.396Z"
        fill="#9D430C"
      />
      <path
        d="M78.1004 667.481C80.7172 668.051 82.7098 670.178 83.1085 672.827L83.5589 675.819C83.6049 676.124 84.0449 676.124 84.0908 675.819L84.5413 672.827C84.94 670.178 86.9326 668.051 89.5493 667.481L90.4381 667.287C90.7203 667.226 90.7204 666.823 90.4382 666.762L89.548 666.567C86.932 665.996 84.94 663.87 84.5414 661.222L84.0908 658.229C84.0449 657.924 83.6049 657.924 83.5589 658.229L83.1084 661.222C82.7097 663.87 80.7178 665.996 78.1018 666.567L77.2116 666.762C76.9294 666.823 76.9295 667.226 77.2117 667.287L78.1004 667.481Z"
        fill="#86175A"
      />
      <circle cx="27.516" cy="57.8869" r="4.10172" fill="#631521" />
      <circle cx="85.9861" cy="285.23" r="4.10172" fill="#203377" />
      <defs>
        <filter
          id="filter0_f_3522_257462"
          x="212.884"
          y="45.7852"
          width="182.97"
          height="182.97"
          filterUnits="userSpaceOnUse"
          color-interpolation-filters="sRGB"
        >
          <feFlood flood-opacity="0" result="BackgroundImageFix" />
          <feBlend mode="normal" in="SourceGraphic" in2="BackgroundImageFix" result="shape" />
          <feGaussianBlur stdDeviation="4" result="effect1_foregroundBlur_3522_257462" />
        </filter>
        <filter
          id="filter1_f_3522_257462"
          x="231.196"
          y="168.645"
          width="207.11"
          height="207.11"
          filterUnits="userSpaceOnUse"
          color-interpolation-filters="sRGB"
        >
          <feFlood flood-opacity="0" result="BackgroundImageFix" />
          <feBlend mode="normal" in="SourceGraphic" in2="BackgroundImageFix" result="shape" />
          <feGaussianBlur stdDeviation="13.1536" result="effect1_foregroundBlur_3522_257462" />
        </filter>
        <filter
          id="filter2_f_3522_257462"
          x="258.765"
          y="201.475"
          width="162.496"
          height="162.496"
          filterUnits="userSpaceOnUse"
          color-interpolation-filters="sRGB"
        >
          <feFlood flood-opacity="0" result="BackgroundImageFix" />
          <feBlend mode="normal" in="SourceGraphic" in2="BackgroundImageFix" result="shape" />
          <feGaussianBlur stdDeviation="2" result="effect1_foregroundBlur_3522_257462" />
        </filter>
        <filter
          id="filter3_f_3522_257462"
          x="-49"
          y="206.249"
          width="161.235"
          height="161.235"
          filterUnits="userSpaceOnUse"
          color-interpolation-filters="sRGB"
        >
          <feFlood flood-opacity="0" result="BackgroundImageFix" />
          <feBlend mode="normal" in="SourceGraphic" in2="BackgroundImageFix" result="shape" />
          <feGaussianBlur stdDeviation="4" result="effect1_foregroundBlur_3522_257462" />
        </filter>
        <filter
          id="filter4_f_3522_257462"
          x="27.5614"
          y="-57.3072"
          width="293.993"
          height="293.993"
          filterUnits="userSpaceOnUse"
          color-interpolation-filters="sRGB"
        >
          <feFlood flood-opacity="0" result="BackgroundImageFix" />
          <feBlend mode="normal" in="SourceGraphic" in2="BackgroundImageFix" result="shape" />
          <feGaussianBlur stdDeviation="13.1536" result="effect1_foregroundBlur_3522_257462" />
        </filter>
        <filter
          id="filter5_f_3522_257462"
          x="49.5538"
          y="-51"
          width="281.379"
          height="281.379"
          filterUnits="userSpaceOnUse"
          color-interpolation-filters="sRGB"
        >
          <feFlood flood-opacity="0" result="BackgroundImageFix" />
          <feBlend mode="normal" in="SourceGraphic" in2="BackgroundImageFix" result="shape" />
          <feGaussianBlur stdDeviation="10" result="effect1_foregroundBlur_3522_257462" />
        </filter>
        <linearGradient
          id="paint0_linear_3522_257462"
          x1="309.846"
          y1="28.0466"
          x2="278.631"
          y2="215.053"
          gradientUnits="userSpaceOnUse"
        >
          <stop stop-color="#F78319" />
          <stop offset="1" stop-color="#AABEF2" stop-opacity="0" />
        </linearGradient>
        <linearGradient
          id="paint1_linear_3522_257462"
          x1="382.953"
          y1="269.217"
          x2="175.677"
          y2="153.017"
          gradientUnits="userSpaceOnUse"
        >
          <stop stop-color="#E11313" stop-opacity="0.51" />
          <stop offset="1" stop-color="#5C0A27" />
        </linearGradient>
        <radialGradient
          id="paint2_radial_3522_257462"
          cx="0"
          cy="0"
          r="1"
          gradientUnits="userSpaceOnUse"
          gradientTransform="translate(405.934 316.72) rotate(-151.29) scale(138.744 134.599)"
        >
          <stop stop-color="#FF8D24" />
          <stop offset="1" stop-color="#B33A14" stop-opacity="0" />
        </radialGradient>
        <linearGradient
          id="paint3_linear_3522_257462"
          x1="29.4101"
          y1="224.623"
          x2="13.2594"
          y2="359.484"
          gradientUnits="userSpaceOnUse"
        >
          <stop stop-color="#A5EFF9" stop-opacity="0" />
          <stop offset="1" stop-color="#FF7C1D" />
        </linearGradient>
        <radialGradient
          id="paint4_radial_3522_257462"
          cx="0"
          cy="0"
          r="1"
          gradientUnits="userSpaceOnUse"
          gradientTransform="translate(275.38 121.017) rotate(-165.15) scale(229.166)"
        >
          <stop stop-color="#FF8719" />
          <stop offset="0.510908" stop-color="#CA380A" />
          <stop offset="1" stop-color="#2B0F47" />
        </radialGradient>
        <linearGradient
          id="paint5_linear_3522_257462"
          x1="306.157"
          y1="131.782"
          x2="69.5538"
          y2="62.2839"
          gradientUnits="userSpaceOnUse"
        >
          <stop stop-color="#FF8719" />
          <stop offset="0.4078" stop-color="#CA380A" stop-opacity="0.49" />
          <stop offset="0.926794" stop-color="#2B0F47" stop-opacity="0" />
        </linearGradient>
      </defs>
    </svg>