<svg viewBox="0 0 935 400" fill="none" xmlns="http://www.w3.org/2000/svg">
<g clip-path="url(#clip0_2876_244839)">
<rect width="934.286" height="400" fill="#C4F4DC"/>
<rect y="242.857" width="934.286" height="157.143" fill="url(#paint0_linear_2876_244839)"/>
<g opacity="0.7">
<g filter="url(#filter0_f_2876_244839)">
<path d="M713.609 96.9517C713.609 143.319 676.021 180.906 629.654 180.906C583.288 180.906 545.7 143.319 545.7 96.9517C545.7 50.5849 583.288 12.9971 629.654 12.9971C676.021 12.9971 713.609 50.5849 713.609 96.9517Z" fill="url(#paint1_linear_2876_244839)"/>
</g>
<circle cx="648.258" cy="112.454" r="83.9547" fill="url(#paint2_radial_2876_244839)"/>
<circle cx="648.258" cy="112.454" r="83.9547" fill="url(#paint3_radial_2876_244839)" fill-opacity="0.5"/>
<g filter="url(#filter1_f_2876_244839)">
<ellipse cx="282.253" cy="137.594" rx="84.4452" ry="84.4452" fill="url(#paint4_radial_2876_244839)"/>
</g>
</g>
<g opacity="0.7">
<g filter="url(#filter2_f_2876_244839)">
<path d="M584.902 131.022C584.902 160.779 560.779 184.902 531.022 184.902C501.265 184.902 477.143 160.779 477.143 131.022C477.143 101.265 501.265 77.1428 531.022 77.1428C560.779 77.1428 584.902 101.265 584.902 131.022Z" fill="url(#paint5_linear_2876_244839)"/>
</g>
<circle cx="534.692" cy="138.362" r="53.8794" fill="url(#paint6_radial_2876_244839)"/>
<circle cx="534.692" cy="138.362" r="53.8794" fill="url(#paint7_radial_2876_244839)" fill-opacity="0.5"/>
</g>
<g opacity="0.8" filter="url(#filter3_f_2876_244839)">
<g filter="url(#filter4_f_2876_244839)">
<path d="M923.62 136.247C923.62 174.177 892.872 204.925 854.942 204.925C817.012 204.925 786.264 174.177 786.264 136.247C786.264 98.3172 817.012 67.5688 854.942 67.5688C892.872 67.5688 923.62 98.3172 923.62 136.247Z" fill="url(#paint8_linear_2876_244839)"/>
</g>
<ellipse cx="859.62" cy="145.603" rx="68.6783" ry="68.6783" fill="url(#paint9_radial_2876_244839)"/>
<ellipse cx="771.696" cy="173.184" rx="54.6286" ry="54.6286" fill="url(#paint10_radial_2876_244839)"/>
</g>
<g opacity="0.8" filter="url(#filter5_f_2876_244839)">
<g filter="url(#filter6_f_2876_244839)">
<path d="M184.171 143.142C184.171 179.714 154.524 209.361 117.952 209.361C81.3807 209.361 51.7336 179.714 51.7336 143.142C51.7336 106.571 81.3807 76.9238 117.952 76.9238C154.524 76.9238 184.171 106.571 184.171 143.142Z" fill="url(#paint11_linear_2876_244839)"/>
</g>
<ellipse cx="122.463" cy="152.163" rx="66.2185" ry="66.2186" fill="url(#paint12_radial_2876_244839)"/>
<ellipse cx="37.6877" cy="178.757" rx="52.6721" ry="52.6721" fill="url(#paint13_radial_2876_244839)"/>
</g>
<g opacity="0.7" filter="url(#filter7_f_2876_244839)">
<g filter="url(#filter8_f_2876_244839)">
<path d="M233.794 153.908C233.794 186.729 207.187 213.335 174.367 213.335C141.546 213.335 114.94 186.729 114.94 153.908C114.94 121.088 141.546 94.4812 174.367 94.4812C207.187 94.4812 233.794 121.088 233.794 153.908Z" fill="url(#paint14_linear_2876_244839)"/>
</g>
<circle cx="178.415" cy="162.003" r="59.4269" fill="url(#paint15_radial_2876_244839)"/>
</g>
<g filter="url(#filter9_f_2876_244839)">
<path d="M165.714 175.286C165.714 174.733 166.162 174.286 166.714 174.286H168.192C168.724 174.286 169.164 174.703 169.19 175.236L172.805 247.521C172.833 248.093 172.378 248.571 171.806 248.571H166.714C166.162 248.571 165.714 248.124 165.714 247.571V175.286Z" fill="#04B595"/>
</g>
<g filter="url(#filter10_f_2876_244839)">
<path d="M857.162 175.305C857.152 174.745 857.602 174.286 858.162 174.286H859.638C860.164 174.286 860.6 174.692 860.636 175.217L865.64 247.502C865.68 248.08 865.222 248.571 864.643 248.571H859.552C859.008 248.571 858.563 248.135 858.553 247.591L857.162 175.305Z" fill="#04B595"/>
</g>
<g filter="url(#filter11_f_2876_244839)">
<path d="M119.98 178.162C119.991 177.602 119.54 177.143 118.981 177.143H117.505C116.979 177.143 116.543 177.55 116.507 178.074L111.503 250.359C111.463 250.938 111.921 251.429 112.5 251.429H117.59C118.135 251.429 118.58 250.992 118.59 250.448L119.98 178.162Z" fill="#04B595"/>
</g>
<g filter="url(#filter12_f_2876_244839)">
<path d="M785.714 192.428C785.714 191.876 786.162 191.428 786.714 191.428H787.058C787.587 191.428 788.025 191.841 788.056 192.369L791.365 247.511C791.4 248.086 790.943 248.571 790.367 248.571H786.714C786.162 248.571 785.714 248.124 785.714 247.571V192.428Z" fill="#04B595"/>
</g>
<g filter="url(#filter13_f_2876_244839)">
<path d="M51.4286 195.286C51.4286 194.733 51.8763 194.286 52.4286 194.286H52.7725C53.3015 194.286 53.739 194.698 53.7707 195.226L57.0793 250.369C57.1138 250.943 56.6569 251.428 56.0811 251.428H52.4286C51.8763 251.428 51.4286 250.981 51.4286 250.428V195.286Z" fill="#04B595"/>
</g>
<g filter="url(#filter14_f_2876_244839)">
<path d="M537.143 146.714C537.143 146.162 536.695 145.714 536.143 145.714H534.668C534.134 145.714 533.694 146.134 533.669 146.667L528.621 253.238C528.594 253.809 529.049 254.286 529.62 254.286H536.143C536.695 254.286 537.143 253.838 537.143 253.286V146.714Z" fill="#0DA78B"/>
</g>
<g filter="url(#filter15_f_2876_244839)">
<path d="M639.399 136.595C639.51 136.094 639.225 135.591 638.739 135.429L636.328 134.625C635.777 134.442 635.187 134.764 635.043 135.326L605.629 250.18C605.467 250.813 605.945 251.428 606.597 251.428H613.078C613.547 251.428 613.953 251.103 614.055 250.645L639.399 136.595Z" fill="#0DA78B"/>
</g>
<path d="M358.556 163.775C354.552 162.764 350.914 166.05 352.111 170.119C353.972 176.447 359.943 178.462 359.943 178.462C359.943 178.462 355.897 168.27 359.827 166.833C361.433 166.245 362.559 164.786 358.556 163.775Z" fill="#0E4141"/>
<path d="M370.984 164.3C366.057 160.495 359.99 162.403 359.562 167.292C359.229 171.101 362.18 173.642 364.498 175.979C365.275 173.818 370.984 164.3 370.984 164.3Z" fill="#0E4141"/>
<path fill-rule="evenodd" clip-rule="evenodd" d="M342.868 241.297C339.767 240.374 335.818 240.713 332.127 242.322C325.397 245.255 321.765 251.625 324.015 256.549C326.265 261.473 333.545 263.087 340.275 260.153C343.837 258.601 345.957 256.565 348.17 253.223C350.564 249.607 354.821 245.155 358.962 243.418C361.046 242.584 363.163 241.796 365.26 241.016C367.109 240.327 368.942 239.645 370.719 238.943C370.84 238.907 370.88 238.829 370.841 238.707L369.839 236.402C369.8 236.28 369.72 236.237 369.599 236.273C367.583 237.069 365.579 237.924 363.56 238.785C361.737 239.562 359.901 240.345 358.031 241.096C350.087 244.284 344.35 241.562 342.868 241.297ZM332.924 244.065C338.667 241.562 344.79 242.743 346.6 246.705C348.41 250.666 345.222 255.907 339.479 258.41C333.736 260.914 327.613 259.732 325.803 255.771C323.992 251.809 327.181 246.569 332.924 244.065Z" fill="#0E4141"/>
<path d="M360.756 241.599C361.261 243.555 361.955 242.608 362.902 242.924C363.848 243.239 363.848 242.608 364.605 242.798C365.425 242.987 365.425 242.293 365.993 242.293C366.498 242.356 366.624 239.833 366.435 238.949C366.245 238.066 365.425 238.255 365.173 238.445C364.92 238.634 364.605 237.814 363.911 238.255C363.217 238.697 362.965 237.94 362.208 238.445C361.514 238.886 361.198 238.886 360.946 239.643C360.693 240.4 360.693 241.221 360.756 241.599Z" fill="#0DA78B"/>
<path d="M372.244 177.385C375.152 173.861 374.621 167.433 370.975 164.313C365.738 166.293 364.397 172.618 364.507 176.27C364.6 179.349 364.841 180.119 361.813 183.967C358.785 187.753 357.795 189.927 357.795 189.927C357.795 189.927 363.468 217.751 361.953 222.609C360.074 232.807 356.076 255.75 356.076 255.75C356.076 255.75 344.913 288.515 341.984 295.126C339.99 298.804 334.016 303.872 339.656 303.872C343.075 303.872 345.175 300.349 346.206 296.18C347.237 292.011 364.972 264.672 367.948 257.203C370.327 251.235 373.067 246.826 374.596 239.613C377.389 243.017 388.1 255.75 388.1 255.75C388.1 255.75 388.198 293.158 387.481 298.832L402.104 299.933C401.582 295.629 392.681 295.461 392.681 293.285C392.681 289.723 397.33 256.212 396.463 251.492C394.643 241.596 381.103 219.335 381.103 219.335C380.945 211.182 381.106 196.094 380.394 188.894C382.784 189.083 390.663 191.184 395.872 193.426C401.944 196.04 408.438 199.161 409.342 200.666C411.594 204.413 417.649 206.084 418.465 204.771C418.465 204.771 407.485 194.841 402.405 191.465C393.15 185.313 390.076 183.509 381.699 181.044C377.846 179.91 371.734 179.871 371.734 179.871L370.31 178.09C370.31 178.09 371.809 177.912 372.244 177.385Z" fill="#0DA78B"/>
<path d="M374.016 179.907C374.205 180.672 373.48 185.024 372.048 186.331C368.579 189.642 363.627 185.977 362.655 182.869C356.755 190.032 354.203 192.67 356.5 205.373C356.5 205.373 363.622 217.259 362.395 220.943C360.47 228.493 359.402 236.064 358.164 243.761C373.856 247.684 377.684 242.355 392.214 236.237C390.358 232.066 383.799 222.256 381.406 217.746C380.999 212.623 381.22 195.609 380.813 189.029L384.522 189.702C385.071 187.327 385.907 185.125 386.656 182.627C380.737 180.569 379.003 180.235 374.016 179.907Z" fill="#0E4141"/>
<path d="M356.563 205.341C357.621 209.692 363.127 231.97 361.979 235.44C361.462 237.005 359.887 240.278 359.572 242.234C362.328 242.234 360.664 239.076 363.591 238.929C364.853 238.803 366.134 238.107 366.576 237.665C367.018 237.223 366.125 232.605 366.125 229.366C366.125 219.241 363.648 205.341 363.648 205.341C360.778 204.285 356.563 205.341 356.563 205.341Z" fill="#0DA78B"/>
<path d="M365.959 241.666C366.653 240.596 366.801 239.645 365.875 239.586C364.203 239.48 363.058 239.533 361.971 240.169C361.019 240.726 360.486 242.139 360.776 242.595C361.588 243.877 365.112 242.935 365.959 241.666Z" fill="#0DA78B"/>
<path d="M614.132 125.048C621.292 121.443 630.072 125.591 630.854 134.537C631.463 141.505 626.954 145.499 622.61 148.736C621.19 144.783 614.132 125.048 614.132 125.048Z" fill="#0E4141"/>
<path d="M608.429 273.288C608.429 273.288 637.517 343.838 639.839 349.661C640.933 352.405 626.681 364.163 630.402 369L651.243 354.287L636.209 302.147L630.402 259.649L608.429 273.288Z" fill="#0DA78B"/>
<path fill-rule="evenodd" clip-rule="evenodd" d="M641.054 283.09C636.265 285.929 631.794 290.734 629.144 297.197C624.211 309.229 627.236 321.862 635.9 325.414C644.564 328.966 655.586 322.091 660.519 310.06C662.948 304.134 663.447 298.063 662.294 293.003C660.829 285.113 660.946 272.832 664.011 265.638C665.626 262.008 667.338 258.394 669.034 254.817C670.529 251.663 672.01 248.536 673.4 245.452C673.456 245.351 673.472 245.261 673.446 245.184C673.422 245.112 673.364 245.051 673.272 244.999L669.28 243.275C669.086 243.167 668.935 243.209 668.827 243.403C667.251 246.902 665.76 250.459 664.257 254.043C662.9 257.281 661.534 260.541 660.086 263.803C655.207 274.795 645.842 280.251 641.054 283.09ZM632.212 298.454C636.422 288.186 645.484 282.179 652.454 285.037C659.424 287.895 661.662 298.534 657.453 308.802C653.243 319.07 644.18 325.076 637.21 322.219C630.24 319.361 628.003 308.721 632.212 298.454Z" fill="#0E4141"/>
<path d="M613.371 150.19C600.508 149.118 605.137 128.118 615.32 124.513C621.906 128.548 619.831 144.824 623.924 152.286C625.365 154.912 627.026 155.758 629.966 157.009C637.307 160.131 644.188 164.154 647.962 171.433C652.76 180.515 656.337 190.212 660.647 199.531C664.257 207.333 665.921 215.174 667.216 223.594C668.671 233.053 670.507 244.991 671.688 246.566C673.249 248.647 675.437 251.977 673.564 254.995C670.739 259.546 666.956 259.363 666.956 259.363C667.789 257.074 667.704 252.466 665.329 251.524L663.725 255.326C663.05 254.059 661.932 249.055 663.78 245.941C666.421 243.516 649.898 204.547 649.898 204.547L638.559 186.841C638.559 186.841 630.058 212.161 631.098 217.052C632.243 221.943 638.076 232.101 636.62 239.698C631.846 264.591 627.571 286.626 620.766 311.061L613.934 364.988L589.195 370.566C588.726 365.998 594.366 363.397 598.753 361.374C601.475 360.119 603.714 359.087 603.714 357.945C604.187 352.736 604.743 328.932 605.279 306.014C605.579 293.201 605.872 280.664 606.14 271.81C607.241 235.843 599.191 200.892 596.148 165.392C595.523 158.107 602.592 155.928 607.691 154.784C610.633 154.136 613 153.681 613.371 150.19Z" fill="#0DA78B"/>
<path d="M593.33 186.06L591.854 199.223C591.854 199.223 580.346 223.633 578.649 231.875C577.921 235.413 576.998 247.692 576.998 247.692C581.887 248.678 586.941 235.448 585.503 230.805C584.532 227.67 601.377 204.185 601.377 204.185L605.309 185.459L593.33 186.06Z" fill="#0DA78B"/>
<path d="M607.585 154.781C608.866 157.089 611.812 161.479 616.839 161.479C625.684 162.104 627.527 155.875 627.527 155.875C634.395 159.246 641.749 159.61 646.882 169.51C648.547 172.632 652.227 180.38 654.62 185.895C650.869 188.081 646.767 190.31 642.491 193.025L639.115 188.081L631.935 215.553C633.309 221.693 638.405 230.765 636.623 239.8C633.979 253.023 633.376 260.487 630.453 273.641C630.453 273.641 610.148 271.898 606.052 271.898C603.089 242.965 601.469 214.468 597.991 186.039C596.228 186.013 595.087 186.039 593.324 186.039C594.3 179.636 594.463 170.161 595.288 164.542C596.144 158.714 601.066 155.875 607.585 154.781Z" fill="#0E4141"/>
<path d="M809.716 174.039C804.258 168.868 795.446 171.175 794.905 177.365C794.484 182.187 797.488 186.635 800.493 188.875C801.476 186.139 809.716 174.039 809.716 174.039Z" fill="#0DA78B"/>
<path d="M809.71 174.01C812.786 177.087 815.409 190.775 807.042 190.221C807.684 192.272 810.953 193.621 810.953 193.621L826.775 208.308L834.038 215.257C834.038 215.257 850.996 209.044 850.583 204.649C851.069 202.608 857.659 199.539 857.659 199.539C858.373 200.484 857.378 201.476 856.572 202.279C855.824 203.023 855.24 203.606 856.33 203.839C862.418 206.859 858.961 207.93 855.968 208.857C854.823 209.211 853.747 209.544 853.298 209.958C853.023 210.184 852.596 210.548 852.049 211.014C848.093 214.387 837.67 221.926 833.689 221.123C829.15 219.971 817.767 211.52 817.767 211.52C813.275 217.37 790.152 244.496 794.301 250.37C799.921 258.323 808.78 270.862 816.665 284.98C818.298 287.904 819.317 296.392 820.463 305.933C821.353 313.343 822.319 321.389 823.708 327.956C823.956 329.127 826.559 329.19 829.577 329.264C833.424 329.357 837.944 329.467 839.112 331.908L819.526 334.191L808.27 289.786C808.27 289.786 786.62 274.999 779.361 265.81C772.081 256.595 778.931 239.666 783.796 226.468C786.731 218.504 790.66 200.958 797.538 194.228C799.56 193.076 799.854 190.816 800.508 187.704C802.094 180.16 805.603 175.278 809.71 174.01Z" fill="#096959"/>
<path d="M772 252.157C767.225 261.222 757.005 291.019 757.005 291.019L720 315.534C720.726 320.045 722.029 337.143 722.029 337.143C727.697 334.766 725.093 318.99 727.792 317.332C739.402 310.202 755.875 303.571 763.557 297.958C775.744 289.052 779.768 279.331 787.222 264.833C793.859 249.941 791.909 245.116 791.909 245.116L772 252.157Z" fill="#096959"/>
<path d="M795.781 246.383C795.781 246.383 809.625 223.632 817.941 211.835C818.831 212.644 821.572 214.244 821.572 214.244C823.304 212.224 824.501 210.524 826.81 208.343C823.702 205.026 816.579 196.733 810.951 193.619C810.951 193.619 808.586 198.49 805.456 199.052C802.325 199.614 798.654 196.64 797.602 194.212C791.294 198.066 787.52 201.262 783.412 205.616C783.745 207.637 785.27 212.923 787.001 214.511C783.304 222.345 779.627 235.62 776.354 241.604C774.118 245.69 762.812 260.871 760.73 264.108C778.635 276.791 787.457 276.402 804.801 264.808C800.296 257.834 795.781 246.383 795.781 246.383Z" fill="#0DA78B"/>
<path d="M783.577 205.455L787.714 213.818L780.665 220.771L807.905 238.823C806.493 240.076 801.049 240.078 795.995 235.627C792.251 232.329 770.098 226.905 771.14 221.975C772.508 217.034 781.19 207.77 783.577 205.455Z" fill="#096959"/>
<path fill-rule="evenodd" clip-rule="evenodd" d="M872.726 182.233C873.967 178.586 876.585 174.875 880.585 172.162C888.031 167.11 897.016 167.361 900.654 172.723C904.291 178.085 901.204 186.526 893.758 191.578C890.091 194.066 886.05 195.268 882.46 195.206C876.908 195.337 868.609 197.163 864.173 200.261C861.944 201.871 859.741 203.545 857.56 205.202C855.636 206.663 853.73 208.111 851.839 209.491C851.778 209.543 851.72 209.566 851.663 209.56C851.612 209.554 851.562 209.524 851.514 209.468L849.778 207.01C849.677 206.895 849.685 206.786 849.801 206.686C851.946 205.121 854.142 203.605 856.356 202.078C858.355 200.698 860.369 199.309 862.372 197.864C869.122 192.997 871.484 185.88 872.726 182.233ZM881.872 174.06C875.518 178.371 872.739 185.363 875.666 189.676C878.592 193.99 886.116 193.992 892.47 189.681C898.824 185.37 901.603 178.378 898.676 174.065C895.75 169.751 888.226 169.749 881.872 174.06Z" fill="#0DA78B"/>
<path d="M862.018 203.84C862.114 201.832 861.538 200.297 860.178 200.705C857.724 201.441 856.149 202.135 855.137 203.691C854.251 205.055 854.667 207.502 855.454 208.045C857.664 209.568 861.871 206.237 862.018 203.84Z" fill="#096959"/>
<path d="M794.488 171.344C789.85 169.175 784.651 172.324 785.155 177.559C785.939 185.701 792.739 189.553 792.739 189.553C792.739 189.553 790.198 176.194 795.32 175.364C797.413 175.025 799.126 173.512 794.488 171.344Z" fill="#0DA78B"/>
<path d="M145.968 176.868C152.205 172.05 159.731 176.091 160.273 182.28C160.694 187.103 158.197 189.463 155.191 191.704C154.209 188.968 145.968 176.868 145.968 176.868Z" fill="#0DA78B"/>
<path d="M145.969 176.867C142.892 179.944 137.561 193.741 148.235 193.741C147.593 195.792 144.725 196.478 144.725 196.478L126.516 211.714L121.641 217.702C121.641 217.702 104.682 211.901 105.095 207.506C104.609 205.465 98.0192 202.396 98.0192 202.396C97.3046 203.341 98.3 204.333 99.1062 205.136C99.8535 205.88 100.438 206.463 99.3481 206.696C93.2595 209.716 96.7174 210.787 99.7104 211.714C100.855 212.068 101.931 212.401 102.38 212.815C102.655 213.041 103.082 213.405 103.629 213.871C107.585 217.244 117.78 225.937 121.605 225.937C126.89 225.937 136.44 215.68 136.44 215.68C140.931 221.529 165.527 247.354 161.377 253.227C155.757 261.181 146.898 273.719 139.013 287.837C137.38 290.762 136.361 299.25 135.215 308.791C134.326 316.201 133.36 324.246 131.97 330.814C131.723 331.985 129.119 332.048 126.101 332.121C122.254 332.215 117.734 332.325 116.566 334.766L137.288 338.36L148.704 293.033C148.704 293.033 168.006 276.656 175.266 267.468C182.546 258.252 176.747 242.523 171.883 229.326C168.947 221.361 167.529 200.799 159.482 197.47C155.486 195.816 155.824 193.673 155.17 190.561C153.585 183.017 150.075 178.135 145.969 176.867Z" fill="#096959"/>
<path d="M183.679 255.013C188.454 264.078 198.587 291.814 198.587 291.814L236.891 316.862C236.165 321.373 233.65 340 233.65 340C227.982 337.623 230.585 321.846 227.886 320.189C216.276 313.058 200.445 308.307 192.766 301.908C181.17 292.245 175.91 282.187 168.456 267.689C161.819 252.797 163.769 247.972 163.769 247.972L183.679 255.013Z" fill="#096959"/>
<path d="M160.217 252.548C160.217 252.548 144.568 228.147 136.252 216.35C135.362 217.159 133.191 218.96 133.191 218.96C131.46 216.94 128.761 213.919 126.453 211.738C134.373 201.767 136.535 199.589 144.727 196.475C144.727 196.475 146.648 199.027 149.778 199.589C152.909 200.151 156.359 198.606 157.411 196.178C158.623 196.787 159.77 197.324 160.859 197.834C166.495 200.473 170.599 202.394 174.373 209.854C172.993 211.184 170.408 215.779 168.676 217.367C172.374 225.201 177.843 236.166 181.829 246.385C186.483 258.319 189.887 267.971 191.376 272.918C185.222 277.277 179.768 280.455 176.357 282.337C176.357 282.337 172.444 276.001 170.692 273.355L164.615 278.505C160.381 276.447 156.004 271.841 150.952 268.464C155.456 261.489 160.217 252.548 160.217 252.548Z" fill="#0DA78B"/>
<path d="M172.998 207.588L167.009 217.462L173.28 223.936L143.871 238.184C145.103 239.615 150.668 240.986 156.271 237.25C160.423 234.483 185.374 232.659 184.999 227.633C184.305 222.553 175.055 210.202 172.998 207.588Z" fill="#096959"/>
<path fill-rule="evenodd" clip-rule="evenodd" d="M82.952 185.09C81.7105 181.443 79.0921 177.732 75.0927 175.018C67.6467 169.967 58.6615 170.218 55.0238 175.58C51.386 180.941 54.4735 189.383 61.9196 194.435C65.5866 196.923 69.6269 198.125 73.2179 198.063C78.7694 198.194 87.0688 200.02 91.5047 203.118C93.7333 204.728 95.9367 206.402 98.1178 208.059C100.042 209.52 101.948 210.968 103.839 212.348C103.9 212.4 103.958 212.423 104.014 212.417C104.066 212.411 104.116 212.381 104.164 212.325L105.899 209.867C106 209.752 105.993 209.643 105.877 209.543C103.732 207.978 101.535 206.462 99.3214 204.935C97.3221 203.555 95.3088 202.166 93.3056 200.721C86.556 195.854 84.1934 188.737 82.952 185.09ZM73.8052 176.917C80.1595 181.228 82.9383 188.22 80.0118 192.533C77.0852 196.847 69.5617 196.849 63.2074 192.538C56.8531 188.227 54.0744 181.235 57.0009 176.922C59.9274 172.608 67.4509 172.606 73.8052 176.917Z" fill="#0DA78B"/>
<path d="M93.6592 206.697C93.5636 204.688 94.1397 203.154 95.4998 203.562C97.9531 204.298 99.529 204.992 100.54 206.548C101.426 207.911 101.011 210.359 100.223 210.902C98.0135 212.425 93.8065 209.094 93.6592 206.697Z" fill="#096959"/>
<path d="M286.946 166.063C281.698 163.421 274.746 164.145 274.173 170.701C273.726 175.809 277.548 181.053 280.732 183.426C281.773 180.528 286.946 166.063 286.946 166.063Z" fill="#0E4141"/>
<path d="M292.48 269.47C292.48 269.47 289.043 282.203 282.798 295.162C275.704 306.474 264.198 328.24 263.869 329.977C263.465 332.104 271.385 338.147 269.76 342.135L256.435 333.18L270.801 293.329L271.869 257.104L292.48 269.47Z" fill="#0DA78B"/>
<path fill-rule="evenodd" clip-rule="evenodd" d="M267.214 281.9C270.724 283.981 274.001 287.503 275.943 292.239C279.559 301.058 277.342 310.317 270.992 312.921C264.642 315.524 256.563 310.486 252.948 301.667C251.167 297.324 250.801 292.874 251.647 289.165C252.72 283.382 252.634 274.382 250.388 269.109C249.204 266.448 247.949 263.799 246.707 261.178C245.611 258.865 244.525 256.574 243.507 254.313C243.465 254.239 243.454 254.174 243.473 254.117C243.49 254.064 243.533 254.019 243.6 253.981L246.526 252.718C246.668 252.638 246.779 252.67 246.858 252.811C248.013 255.376 249.106 257.983 250.207 260.61C251.202 262.983 252.204 265.373 253.265 267.764C256.841 275.82 263.704 279.819 267.214 281.9ZM273.695 293.161C270.609 285.635 263.967 281.232 258.858 283.327C253.75 285.421 252.11 293.22 255.195 300.745C258.28 308.271 264.923 312.674 270.031 310.579C275.14 308.485 276.78 300.686 273.695 293.161Z" fill="#0E4141"/>
<path d="M286.558 184.776C295.185 184.561 292.093 168.182 286.936 166.1C281.26 174.096 281.807 180.82 279.769 186.028C278.97 188.072 277.496 188.573 275.341 189.49C265.768 195.846 261.322 206.029 255.646 218.297C254.041 221.766 251.833 228.634 250.28 234.464C248.391 241.553 245.905 253.604 244.761 255.13C243.617 256.655 242.013 259.096 243.386 261.308C245.457 264.644 248.229 264.51 248.229 264.51C247.619 262.832 247.681 259.454 249.422 258.764L250.598 261.55C251.092 260.622 251.911 256.954 250.558 254.672C248.621 252.894 260.732 224.332 260.732 224.332L269.043 211.355C270.816 217.14 278.123 230.567 276.159 236.561C273.025 246.127 267.946 250.43 269.796 260.34C271.972 271.842 282.824 300.399 282.824 300.399L287.965 341.139L303.706 345.242C302.933 339.759 293.621 338.25 293.621 336.063C293.274 332.246 293.363 302.355 293.363 294.75C293.143 285.358 293.001 280.122 292.804 273.633C292.541 265.051 293.165 259.135 293.774 253.36C294.327 248.114 294.867 242.983 294.72 236.075C294.582 229.524 295.178 221.31 295.937 214.844C297.021 205.591 301.351 193.733 292.093 189.116C290.117 188.131 286.83 187.335 286.558 184.776Z" fill="#0DA78B"/>
<path d="M301.988 208.893L303.431 220.15C303.431 220.15 311.71 238.321 312.954 244.361C313.488 246.955 314.164 255.954 314.164 255.954C310.58 256.677 306.876 246.98 307.93 243.577C308.641 241.28 300.388 231.165 297.257 222.594C295.502 217.788 294.41 209.982 294.41 209.982L301.988 208.893Z" fill="#0DA78B"/>
<path d="M292.096 189.104C291.158 190.795 288.647 192.765 284.963 192.765C278.48 193.223 277.129 188.658 277.129 188.658C272.095 191.128 267.527 192.156 263.765 199.412C262.544 201.7 260.559 207.393 258.805 211.436C261.554 213.037 263.028 213.896 266.161 215.887L268.636 212.263L275.155 233.797C267.954 246.44 266.351 253.809 264.27 261.93C264.27 261.93 281.686 276.834 299.772 268.043C297.542 248.282 294.407 231.603 296.956 210.766C297.716 210.577 300.673 209.414 302.014 208.892C300.851 201.262 300.435 192.52 292.096 189.104Z" fill="#0E4141"/>
<path d="M273.65 164.38C268.893 162.157 263.56 165.387 264.077 170.756C264.881 179.107 271.856 183.058 271.856 183.058C271.856 183.058 269.25 169.356 274.503 168.505C276.65 168.157 278.407 166.604 273.65 164.38Z" fill="#0E4141"/>
<path d="M465.252 153.139C456.335 153.619 452.023 158.99 454.226 165.16C458.584 177.36 468.457 174.068 468.457 174.068L467.999 159.037L465.252 153.139Z" fill="#0DA78B"/>
<path d="M451.166 161.619C444.828 162.333 441.354 169.062 445.296 174.295C451.427 182.435 461.157 182.102 461.157 182.102C461.157 182.102 449.765 169.563 454.666 165.349C456.669 163.627 457.504 160.904 451.166 161.619Z" fill="#0DA78B"/>
<path d="M465.286 153.167C474.144 152.078 484.674 162.589 477.166 171.149C477.508 172.783 481.255 174.367 484.116 171.579C494.59 160.728 498.579 153.743 503.781 144.372L511.372 90.7214C519.539 95.8532 512.214 103.803 512.498 110.731C513.06 124.445 511.67 137.777 510.13 145.387C507.952 156.145 497.562 179.333 497.562 179.333C497.562 179.333 506.582 199.481 510.93 209.355C516.753 222.578 531.646 271.647 512.715 291.493C505.097 299.48 481.318 323.98 477.03 329.387C475.258 331.621 485.986 343.657 482.384 348.571L466.166 332.324L502.34 279.59C502.34 279.59 499.308 254.117 496.229 238.015C493.526 223.878 473.395 208.88 473.395 208.88C473.395 208.88 453.937 222.981 449.801 222.981C445.665 222.981 437.666 213.026 432.194 204.508C428.987 198.891 425.609 195.104 423.056 192.71C423.419 190.264 424.418 187.342 425.505 186.98C426.55 186.631 425.909 186.139 424.897 185.363C423.574 184.348 421.619 182.847 421.972 180.548C421.972 180.548 426.046 182.903 427.767 183.99C430.172 185.594 428.717 189.931 430.05 192.152C434.501 197.492 451.534 211.598 451.534 211.598C459.161 202.31 464.492 195.7 470.547 185.363C471.875 183.095 468.42 174.092 468.42 174.092C468.42 174.092 461.745 158.217 465.286 153.167Z" fill="#096959"/>
<path d="M518.36 222.402C535.934 237.077 554.935 261.264 556.384 270.052C554.654 282.247 532.048 304.364 525.072 314.06C522.515 317.613 534.488 331.902 529.897 335.493C529.897 335.493 515.328 320.823 513.177 319.512L541.574 271.698C541.574 271.698 512.242 252.51 507.531 246.622C502.639 240.643 518.36 222.402 518.36 222.402Z" fill="#096959"/>
<path d="M518.823 218.79C508.87 204.235 501.904 188.409 498.009 179.258L502.053 168.797L493.613 160.521L483.716 171.893C483.716 171.893 485.277 178.572 481.218 182.836C477.965 186.254 470.547 185.095 470.547 185.095C470.547 185.095 463.743 195.175 458.032 203.407C459.391 205.853 467.514 213.034 467.514 213.034L473.511 208.998C473.511 208.998 491.836 225.622 494.067 232.702C496.298 239.781 497.647 270.316 497.647 270.316C497.647 270.316 504.964 274.052 518.823 265.93C527.364 260.925 541.864 243.772 541.864 243.772C538.421 240.859 526.374 229.831 518.823 218.79Z" fill="#0DA78B"/>
<path fill-rule="evenodd" clip-rule="evenodd" d="M442.644 161.359C446.457 158.445 449.801 153.879 451.417 148.079C454.426 137.28 450.561 126.77 442.785 124.603C435.01 122.436 426.267 129.434 423.258 140.233C421.776 145.551 421.961 150.799 423.46 155.015C425.51 161.622 426.649 172.148 424.751 178.616C423.735 181.887 422.633 185.154 421.543 188.387C420.581 191.239 419.628 194.065 418.75 196.846C418.712 196.938 418.707 197.016 418.737 197.08C418.765 197.139 418.821 197.186 418.905 197.221L422.497 198.294C422.673 198.367 422.798 198.315 422.871 198.139C423.868 194.984 424.785 191.788 425.71 188.568C426.545 185.659 427.386 182.73 428.296 179.791C431.364 169.888 438.831 164.272 442.644 161.359ZM448.663 147.313C446.095 156.528 438.943 162.585 432.687 160.842C426.431 159.099 423.442 150.215 426.01 141C428.577 131.785 435.73 125.728 441.986 127.471C448.241 129.214 451.231 138.097 448.663 147.313Z" fill="#0DA78B"/>
<path d="M419.611 190.422C420.99 192.031 422.54 192.79 423.287 191.494C424.635 189.158 425.341 187.487 424.991 185.564C424.685 183.88 422.598 182.305 421.602 182.458C418.809 182.888 417.993 188.48 419.611 190.422Z" fill="#096959"/>
<circle cx="80.2366" cy="114.405" r="10.9476" transform="rotate(-94.2369 80.2366 114.405)" fill="url(#paint16_radial_2876_244839)"/>
<path d="M85.6426 119.294C89.2727 115.302 85.8587 110.246 82.4873 109.116C79.878 108.241 77.411 106.72 80.2048 103.473C80.1455 103.472 80.0937 103.472 80.0464 103.471C79.8399 103.468 79.7212 103.466 79.4584 103.485C76.2267 107.199 79.8213 108.941 81.5358 109.772C84.8057 111.357 86.9193 115.351 84.3785 118.145C81.8381 120.937 77.6567 119.202 75.7754 116.107C74.7858 114.479 72.7111 111.066 69.3199 114.635C69.3255 114.898 69.3386 115.016 69.3614 115.222C69.3667 115.269 69.3724 115.32 69.3787 115.379C72.3499 112.293 73.8993 114.53 75.2109 117.072C77.1088 120.75 82.1223 123.165 85.6426 119.294Z" fill="#0DA78B"/>
<ellipse cx="858.38" cy="130.281" rx="10.9476" ry="10.9476" transform="rotate(-94.2369 858.38 130.281)" fill="url(#paint17_radial_2876_244839)"/>
<path d="M863.786 135.17C867.416 131.178 864.002 126.122 860.631 124.992C858.021 124.118 855.554 122.597 858.348 119.35C858.289 119.349 858.237 119.348 858.19 119.347C857.983 119.344 857.865 119.342 857.602 119.362C854.37 123.076 857.965 124.818 859.679 125.648C862.949 127.233 865.063 131.228 862.522 134.021C859.981 136.814 855.8 135.079 853.919 131.984C852.929 130.356 850.854 126.942 847.463 130.511C847.469 130.775 847.482 130.893 847.505 131.098C847.51 131.145 847.516 131.197 847.522 131.255C850.493 128.17 852.043 130.407 853.354 132.949C855.252 136.627 860.266 139.041 863.786 135.17Z" fill="#0DA78B"/>
<ellipse cx="504.98" cy="56.3016" rx="11.296" ry="11.296" fill="url(#paint18_radial_2876_244839)"/>
<path d="M499.538 61.4925C503.369 65.5323 508.832 62.4047 510.251 59.0216C511.35 56.4033 513.103 53.9806 516.232 57.1031C516.237 57.0421 516.242 56.9888 516.246 56.9402C516.265 56.728 516.276 56.606 516.276 56.3341C512.701 52.7256 510.634 56.2916 509.649 57.9925C507.769 61.2364 503.497 63.1068 500.817 60.2794C498.136 57.4524 500.241 53.282 503.569 51.5821C505.32 50.6879 508.99 48.8132 505.576 45.0516C505.305 45.0372 505.182 45.0417 504.969 45.0496C504.92 45.0514 504.867 45.0534 504.806 45.0553C507.755 48.348 505.335 49.7718 502.619 50.9277C498.689 52.6002 495.823 57.575 499.538 61.4925Z" fill="#0DA78B"/>
<ellipse cx="377.812" cy="88.3656" rx="8.93907" ry="8.93907" fill="url(#paint19_radial_2876_244839)"/>
<path d="M373.505 92.4732C376.536 95.6701 380.86 93.195 381.983 90.5179C382.853 88.4459 384.24 86.5287 386.716 88.9996C386.72 88.9514 386.724 88.9092 386.727 88.8708C386.742 88.7028 386.751 88.6063 386.751 88.3911C383.921 85.5355 382.286 88.3575 381.506 89.7035C380.019 92.2705 376.638 93.7506 374.517 91.5132C372.396 89.2761 374.061 85.9758 376.695 84.6306C378.08 83.923 380.985 82.4395 378.283 79.4628C378.068 79.4514 377.972 79.4549 377.803 79.4611C377.764 79.4626 377.722 79.4641 377.674 79.4657C380.007 82.0713 378.092 83.1981 375.943 84.1127C372.834 85.4363 370.565 89.3731 373.505 92.4732Z" fill="#0DA78B"/>
</g>
<defs>
<filter id="filter0_f_2876_244839" x="519.393" y="-13.3101" width="220.524" height="220.524" filterUnits="userSpaceOnUse" color-interpolation-filters="sRGB">
<feFlood flood-opacity="0" result="BackgroundImageFix"/>
<feBlend mode="normal" in="SourceGraphic" in2="BackgroundImageFix" result="shape"/>
<feGaussianBlur stdDeviation="13.1536" result="effect1_foregroundBlur_2876_244839"/>
</filter>
<filter id="filter1_f_2876_244839" x="193.808" y="49.1489" width="176.89" height="176.89" filterUnits="userSpaceOnUse" color-interpolation-filters="sRGB">
<feFlood flood-opacity="0" result="BackgroundImageFix"/>
<feBlend mode="normal" in="SourceGraphic" in2="BackgroundImageFix" result="shape"/>
<feGaussianBlur stdDeviation="2" result="effect1_foregroundBlur_2876_244839"/>
</filter>
<filter id="filter2_f_2876_244839" x="450.836" y="50.8356" width="160.373" height="160.373" filterUnits="userSpaceOnUse" color-interpolation-filters="sRGB">
<feFlood flood-opacity="0" result="BackgroundImageFix"/>
<feBlend mode="normal" in="SourceGraphic" in2="BackgroundImageFix" result="shape"/>
<feGaussianBlur stdDeviation="13.1536" result="effect1_foregroundBlur_2876_244839"/>
</filter>
<filter id="filter3_f_2876_244839" x="713.068" y="63.5688" width="219.231" height="168.244" filterUnits="userSpaceOnUse" color-interpolation-filters="sRGB">
<feFlood flood-opacity="0" result="BackgroundImageFix"/>
<feBlend mode="normal" in="SourceGraphic" in2="BackgroundImageFix" result="shape"/>
<feGaussianBlur stdDeviation="2" result="effect1_foregroundBlur_2876_244839"/>
</filter>
<filter id="filter4_f_2876_244839" x="759.957" y="41.2617" width="189.971" height="189.971" filterUnits="userSpaceOnUse" color-interpolation-filters="sRGB">
<feFlood flood-opacity="0" result="BackgroundImageFix"/>
<feBlend mode="normal" in="SourceGraphic" in2="BackgroundImageFix" result="shape"/>
<feGaussianBlur stdDeviation="13.1536" result="effect1_foregroundBlur_2876_244839"/>
</filter>
<filter id="filter5_f_2876_244839" x="-18.9844" y="72.9238" width="211.665" height="162.505" filterUnits="userSpaceOnUse" color-interpolation-filters="sRGB">
<feFlood flood-opacity="0" result="BackgroundImageFix"/>
<feBlend mode="normal" in="SourceGraphic" in2="BackgroundImageFix" result="shape"/>
<feGaussianBlur stdDeviation="2" result="effect1_foregroundBlur_2876_244839"/>
</filter>
<filter id="filter6_f_2876_244839" x="25.4265" y="50.6166" width="185.051" height="185.051" filterUnits="userSpaceOnUse" color-interpolation-filters="sRGB">
<feFlood flood-opacity="0" result="BackgroundImageFix"/>
<feBlend mode="normal" in="SourceGraphic" in2="BackgroundImageFix" result="shape"/>
<feGaussianBlur stdDeviation="13.1536" result="effect1_foregroundBlur_2876_244839"/>
</filter>
<filter id="filter7_f_2876_244839" x="110.94" y="90.4812" width="130.901" height="134.948" filterUnits="userSpaceOnUse" color-interpolation-filters="sRGB">
<feFlood flood-opacity="0" result="BackgroundImageFix"/>
<feBlend mode="normal" in="SourceGraphic" in2="BackgroundImageFix" result="shape"/>
<feGaussianBlur stdDeviation="2" result="effect1_foregroundBlur_2876_244839"/>
</filter>
<filter id="filter8_f_2876_244839" x="88.6329" y="68.174" width="171.468" height="171.468" filterUnits="userSpaceOnUse" color-interpolation-filters="sRGB">
<feFlood flood-opacity="0" result="BackgroundImageFix"/>
<feBlend mode="normal" in="SourceGraphic" in2="BackgroundImageFix" result="shape"/>
<feGaussianBlur stdDeviation="13.1536" result="effect1_foregroundBlur_2876_244839"/>
</filter>
<filter id="filter9_f_2876_244839" x="162.714" y="171.286" width="13.0917" height="80.2856" filterUnits="userSpaceOnUse" color-interpolation-filters="sRGB">
<feFlood flood-opacity="0" result="BackgroundImageFix"/>
<feBlend mode="normal" in="SourceGraphic" in2="BackgroundImageFix" result="shape"/>
<feGaussianBlur stdDeviation="1.5" result="effect1_foregroundBlur_2876_244839"/>
</filter>
<filter id="filter10_f_2876_244839" x="854.162" y="171.286" width="14.4805" height="80.2856" filterUnits="userSpaceOnUse" color-interpolation-filters="sRGB">
<feFlood flood-opacity="0" result="BackgroundImageFix"/>
<feBlend mode="normal" in="SourceGraphic" in2="BackgroundImageFix" result="shape"/>
<feGaussianBlur stdDeviation="1.5" result="effect1_foregroundBlur_2876_244839"/>
</filter>
<filter id="filter11_f_2876_244839" x="108.5" y="174.143" width="14.4805" height="80.2856" filterUnits="userSpaceOnUse" color-interpolation-filters="sRGB">
<feFlood flood-opacity="0" result="BackgroundImageFix"/>
<feBlend mode="normal" in="SourceGraphic" in2="BackgroundImageFix" result="shape"/>
<feGaussianBlur stdDeviation="1.5" result="effect1_foregroundBlur_2876_244839"/>
</filter>
<filter id="filter12_f_2876_244839" x="782.714" y="188.428" width="11.6525" height="63.1428" filterUnits="userSpaceOnUse" color-interpolation-filters="sRGB">
<feFlood flood-opacity="0" result="BackgroundImageFix"/>
<feBlend mode="normal" in="SourceGraphic" in2="BackgroundImageFix" result="shape"/>
<feGaussianBlur stdDeviation="1.5" result="effect1_foregroundBlur_2876_244839"/>
</filter>
<filter id="filter13_f_2876_244839" x="48.4286" y="191.286" width="11.6525" height="63.1428" filterUnits="userSpaceOnUse" color-interpolation-filters="sRGB">
<feFlood flood-opacity="0" result="BackgroundImageFix"/>
<feBlend mode="normal" in="SourceGraphic" in2="BackgroundImageFix" result="shape"/>
<feGaussianBlur stdDeviation="1.5" result="effect1_foregroundBlur_2876_244839"/>
</filter>
<filter id="filter14_f_2876_244839" x="525.62" y="142.714" width="14.5229" height="114.572" filterUnits="userSpaceOnUse" color-interpolation-filters="sRGB">
<feFlood flood-opacity="0" result="BackgroundImageFix"/>
<feBlend mode="normal" in="SourceGraphic" in2="BackgroundImageFix" result="shape"/>
<feGaussianBlur stdDeviation="1.5" result="effect1_foregroundBlur_2876_244839"/>
</filter>
<filter id="filter15_f_2876_244839" x="602.597" y="131.573" width="39.8262" height="122.855" filterUnits="userSpaceOnUse" color-interpolation-filters="sRGB">
<feFlood flood-opacity="0" result="BackgroundImageFix"/>
<feBlend mode="normal" in="SourceGraphic" in2="BackgroundImageFix" result="shape"/>
<feGaussianBlur stdDeviation="1.5" result="effect1_foregroundBlur_2876_244839"/>
</filter>
<linearGradient id="paint0_linear_2876_244839" x1="531.882" y1="242.857" x2="546.906" y2="415.322" gradientUnits="userSpaceOnUse">
<stop stop-color="#93E6CD"/>
<stop offset="0.489583" stop-color="#C0FFF0" stop-opacity="0"/>
<stop offset="1" stop-color="#93E6CD"/>
</linearGradient>
<linearGradient id="paint1_linear_2876_244839" x1="682.042" y1="93.71" x2="456.769" y2="-32.5797" gradientUnits="userSpaceOnUse">
<stop stop-color="#13D4E1" stop-opacity="0.51"/>
<stop offset="1" stop-color="#0A5C3E"/>
</linearGradient>
<radialGradient id="paint2_radial_2876_244839" cx="0" cy="0" r="1" gradientUnits="userSpaceOnUse" gradientTransform="translate(719.903 149.403) rotate(-151.29) scale(150.79 146.285)">
<stop stop-color="#24FFB0"/>
<stop offset="1" stop-color="#14AAB3" stop-opacity="0"/>
</radialGradient>
<radialGradient id="paint3_radial_2876_244839" cx="0" cy="0" r="1" gradientUnits="userSpaceOnUse" gradientTransform="translate(698.873 122.765) rotate(-162.719) scale(110.119)">
<stop stop-color="#27FECA"/>
<stop offset="1" stop-color="#1AEDFA" stop-opacity="0"/>
</radialGradient>
<radialGradient id="paint4_radial_2876_244839" cx="0" cy="0" r="1" gradientUnits="userSpaceOnUse" gradientTransform="translate(354.318 174.758) rotate(-151.29) scale(151.671 147.14)">
<stop stop-color="#24FFCA"/>
<stop offset="1" stop-color="#14B3AA" stop-opacity="0"/>
</radialGradient>
<linearGradient id="paint5_linear_2876_244839" x1="564.643" y1="128.942" x2="420.07" y2="47.8931" gradientUnits="userSpaceOnUse">
<stop stop-color="#13E1AF" stop-opacity="0.51"/>
<stop offset="1" stop-color="#0A5C48"/>
</linearGradient>
<radialGradient id="paint6_radial_2876_244839" cx="0" cy="0" r="1" gradientUnits="userSpaceOnUse" gradientTransform="translate(580.672 162.074) rotate(-151.29) scale(96.7723 93.8808)">
<stop stop-color="#24FFBD"/>
<stop offset="1" stop-color="#14B3AA" stop-opacity="0"/>
</radialGradient>
<radialGradient id="paint7_radial_2876_244839" cx="0" cy="0" r="1" gradientUnits="userSpaceOnUse" gradientTransform="translate(567.176 144.979) rotate(-162.719) scale(70.6709)">
<stop stop-color="#27FEFE"/>
<stop offset="1" stop-color="#1AFA8E" stop-opacity="0"/>
</radialGradient>
<linearGradient id="paint8_linear_2876_244839" x1="897.797" y1="133.595" x2="713.515" y2="30.2852" gradientUnits="userSpaceOnUse">
<stop stop-color="#13E1A3" stop-opacity="0.51"/>
<stop offset="1" stop-color="#0A5C4D"/>
</linearGradient>
<radialGradient id="paint9_radial_2876_244839" cx="0" cy="0" r="1" gradientUnits="userSpaceOnUse" gradientTransform="translate(918.229 175.828) rotate(-151.29) scale(123.352 119.667)">
<stop stop-color="#20F1CC"/>
<stop offset="1" stop-color="#14B3B3" stop-opacity="0"/>
</radialGradient>
<radialGradient id="paint10_radial_2876_244839" cx="0" cy="0" r="1" gradientUnits="userSpaceOnUse" gradientTransform="translate(818.315 197.226) rotate(-151.29) scale(98.118 95.1863)">
<stop stop-color="#20F1CC"/>
<stop offset="1" stop-color="#14B3B3" stop-opacity="0"/>
</radialGradient>
<linearGradient id="paint11_linear_2876_244839" x1="159.272" y1="140.585" x2="-18.4098" y2="40.9755" gradientUnits="userSpaceOnUse">
<stop stop-color="#13E1C8" stop-opacity="0.51"/>
<stop offset="1" stop-color="#0A5C57"/>
</linearGradient>
<radialGradient id="paint12_radial_2876_244839" cx="0" cy="0" r="1" gradientUnits="userSpaceOnUse" gradientTransform="translate(178.972 181.306) rotate(-151.29) scale(118.935 115.381)">
<stop stop-color="#24FFCA"/>
<stop offset="1" stop-color="#3FFDCF" stop-opacity="0"/>
</radialGradient>
<radialGradient id="paint13_radial_2876_244839" cx="0" cy="0" r="1" gradientUnits="userSpaceOnUse" gradientTransform="translate(82.6372 201.938) rotate(-151.29) scale(94.6039 91.7772)">
<stop stop-color="#24FFB0"/>
<stop offset="1" stop-color="#14B396" stop-opacity="0"/>
</radialGradient>
<linearGradient id="paint14_linear_2876_244839" x1="211.449" y1="151.613" x2="51.9909" y2="62.2199" gradientUnits="userSpaceOnUse">
<stop stop-color="#13E1BC" stop-opacity="0.51"/>
<stop offset="1" stop-color="#0A5C57"/>
</linearGradient>
<radialGradient id="paint15_radial_2876_244839" cx="0" cy="0" r="1" gradientUnits="userSpaceOnUse" gradientTransform="translate(229.129 188.157) rotate(-151.29) scale(106.736 103.547)">
<stop stop-color="#24FFD8"/>
<stop offset="1" stop-color="#14B3AA" stop-opacity="0"/>
</radialGradient>
<radialGradient id="paint16_radial_2876_244839" cx="0" cy="0" r="1" gradientUnits="userSpaceOnUse" gradientTransform="translate(83.6129 117.15) rotate(-112.751) scale(14.8486 9.96033)">
<stop stop-color="#0DA78B"/>
<stop offset="1" stop-color="#0E4141"/>
</radialGradient>
<radialGradient id="paint17_radial_2876_244839" cx="0" cy="0" r="1" gradientUnits="userSpaceOnUse" gradientTransform="translate(861.756 133.026) rotate(-112.751) scale(14.8486 9.96033)">
<stop stop-color="#0DA78B"/>
<stop offset="1" stop-color="#0E4141"/>
</radialGradient>
<radialGradient id="paint18_radial_2876_244839" cx="0" cy="0" r="1" gradientUnits="userSpaceOnUse" gradientTransform="translate(510.106 52.7313) rotate(159.222) scale(18.2513 12.2429)">
<stop stop-color="#0DA78B"/>
<stop offset="1" stop-color="#0E4141"/>
</radialGradient>
<radialGradient id="paint19_radial_2876_244839" cx="0" cy="0" r="1" gradientUnits="userSpaceOnUse" gradientTransform="translate(381.868 85.5402) rotate(159.222) scale(14.4431 9.68834)">
<stop stop-color="#0DA78B"/>
<stop offset="1" stop-color="#0E4141"/>
</radialGradient>
<clipPath id="clip0_2876_244839">
<rect width="934.286" height="400" fill="white"/>
</clipPath>
</defs>
</svg>
