<svg viewBox="0 0 88 88" fill="none" xmlns="http://www.w3.org/2000/svg">
<g clip-path="url(#clip0_2137_223690)">
<g clip-path="url(#clip1_2137_223690)">
<rect width="205.543" height="88" transform="translate(-69)" fill="#C4F4DC"/>
<rect x="-69" y="53.4287" width="205.543" height="34.5714" fill="url(#paint0_linear_2137_223690)"/>
<g opacity="0.7">
<g filter="url(#filter0_f_2137_223690)">
<path d="M87.994 21.3294C87.994 31.5301 79.7247 39.7994 69.524 39.7994C59.3233 39.7994 51.054 31.5301 51.054 21.3294C51.054 11.1287 59.3233 2.85938 69.524 2.85938C79.7247 2.85938 87.994 11.1287 87.994 21.3294Z" fill="url(#paint1_linear_2137_223690)"/>
</g>
<ellipse cx="73.6166" cy="24.74" rx="18.47" ry="18.47" fill="url(#paint2_radial_2137_223690)"/>
<ellipse cx="73.6166" cy="24.74" rx="18.47" ry="18.47" fill="url(#paint3_radial_2137_223690)" fill-opacity="0.5"/>
<g filter="url(#filter1_f_2137_223690)">
<ellipse cx="-6.90426" cy="30.2708" rx="18.5779" ry="18.578" fill="url(#paint4_radial_2137_223690)"/>
</g>
</g>
<g opacity="0.7">
<g filter="url(#filter2_f_2137_223690)">
<path d="M59.6784 28.8251C59.6784 35.3716 54.3714 40.6786 47.8249 40.6786C41.2784 40.6786 35.9714 35.3716 35.9714 28.8251C35.9714 22.2787 41.2784 16.9717 47.8249 16.9717C54.3714 16.9717 59.6784 22.2787 59.6784 28.8251Z" fill="url(#paint5_linear_2137_223690)"/>
</g>
<ellipse cx="48.6323" cy="30.4399" rx="11.8535" ry="11.8535" fill="url(#paint6_radial_2137_223690)"/>
<ellipse cx="48.6323" cy="30.4399" rx="11.8535" ry="11.8535" fill="url(#paint7_radial_2137_223690)" fill-opacity="0.5"/>
</g>
<g opacity="0.8" filter="url(#filter3_f_2137_223690)">
<g filter="url(#filter4_f_2137_223690)">
<path d="M134.196 29.9745C134.196 38.319 127.432 45.0837 119.087 45.0837C110.743 45.0837 103.978 38.319 103.978 29.9745C103.978 21.6299 110.743 14.8652 119.087 14.8652C127.432 14.8652 134.196 21.6299 134.196 29.9745Z" fill="url(#paint8_linear_2137_223690)"/>
</g>
</g>
<g opacity="0.8">
</g>
<g opacity="0.7">
<g filter="url(#filter7_f_2137_223690)">
<path d="M-17.5654 33.86C-17.5654 41.0806 -23.4188 46.934 -30.6393 46.934C-37.8598 46.934 -43.7132 41.0806 -43.7132 33.86C-43.7132 26.6395 -37.8598 20.7861 -30.6393 20.7861C-23.4188 20.7861 -17.5654 26.6395 -17.5654 33.86Z" fill="url(#paint9_linear_2137_223690)"/>
</g>
</g>
<g filter="url(#filter8_f_2137_223690)">
<path d="M49.1714 32.4432C49.1714 32.23 48.9986 32.0571 48.7854 32.0571C48.5793 32.0571 48.4095 32.219 48.3997 32.4249L47.3314 54.9787C47.3065 55.5037 47.7254 55.9428 48.2509 55.9428C48.7593 55.9428 49.1714 55.5307 49.1714 55.0223V32.4432Z" fill="#0DA78B"/>
</g>
<g filter="url(#filter9_f_2137_223690)">
<path d="M71.6124 30.3002C71.6683 30.0485 71.525 29.7953 71.2804 29.7138C71.0035 29.6215 70.7064 29.7835 70.634 30.0662L64.4563 54.1886C64.3102 54.7591 64.7412 55.3144 65.3301 55.3144C65.7529 55.3144 66.119 55.0208 66.2107 54.608L71.6124 30.3002Z" fill="#0DA78B"/>
</g>
<path d="M9.88224 36.0305C9.00153 35.8081 8.20118 36.531 8.46439 37.4261C8.87378 38.8184 10.1876 39.2617 10.1876 39.2617C10.1876 39.2617 9.29738 37.0193 10.1619 36.7032C10.5152 36.574 10.763 36.2528 9.88224 36.0305Z" fill="#0E4141"/>
<path d="M12.6164 36.1462C11.5325 35.3091 10.1977 35.7287 10.1037 36.8044C10.0304 37.6425 10.6796 38.2014 11.1896 38.7156C11.3604 38.2402 12.6164 36.1462 12.6164 36.1462Z" fill="#0E4141"/>
<path fill-rule="evenodd" clip-rule="evenodd" d="M6.431 53.0853C5.74867 52.8822 4.88008 52.9567 4.06796 53.3107C2.58737 53.9561 1.7884 55.3575 2.28341 56.4408C2.77841 57.5241 4.37995 57.879 5.86054 57.2336C6.64414 56.892 7.11056 56.4443 7.59741 55.709C8.1241 54.9135 9.06056 53.9341 9.97169 53.552C10.43 53.3685 10.8959 53.195 11.3571 53.0234C11.764 52.8719 12.1671 52.7218 12.5583 52.5674C12.5847 52.5595 12.5937 52.5422 12.5851 52.5154L12.3645 52.0084C12.3559 51.9816 12.3384 51.9721 12.3119 51.98C11.8682 52.1552 11.4274 52.3431 10.9832 52.5325C10.5821 52.7035 10.1782 52.8757 9.76673 53.0409C8.0191 53.7425 6.75709 53.1436 6.431 53.0853ZM4.24326 53.6943C5.50675 53.1435 6.85383 53.4035 7.25206 54.275C7.65029 55.1465 6.94886 56.2995 5.68537 56.8502C4.42188 57.401 3.0748 57.141 2.67657 56.2695C2.27834 55.398 2.97977 54.245 4.24326 53.6943Z" fill="#0E4141"/>
<path d="M10.3664 53.152C10.4775 53.5823 10.6302 53.3741 10.8384 53.4435C11.0466 53.5129 11.0466 53.3741 11.2131 53.4157C11.3935 53.4573 11.3935 53.3047 11.5185 53.3047C11.6295 53.3185 11.6573 52.7633 11.6156 52.569C11.574 52.3747 11.3935 52.4164 11.338 52.458C11.2825 52.4996 11.2131 52.3192 11.0604 52.4163C10.9078 52.5135 10.8522 52.347 10.6857 52.458C10.533 52.5551 10.4636 52.5551 10.4081 52.7217C10.3526 52.8883 10.3526 53.0687 10.3664 53.152Z" fill="#0DA78B"/>
<path d="M12.8936 39.0247C13.5333 38.2494 13.4166 36.8353 12.6146 36.1489C11.4624 36.5843 11.1673 37.9759 11.1915 38.7794C11.2119 39.4568 11.2651 39.6261 10.5989 40.4728C9.93263 41.3056 9.71489 41.7839 9.71489 41.7839C9.71489 41.7839 10.9629 47.9052 10.6297 48.9739C10.2163 51.2176 9.33665 56.2649 9.33665 56.2649C9.33665 56.2649 6.88091 63.4733 6.23644 64.9276C5.79781 65.7369 4.48358 66.8518 5.72442 66.8518C6.47647 66.8518 6.93848 66.0768 7.16531 65.1596C7.39215 64.2424 11.2938 58.2277 11.9486 56.5847C12.4719 55.2716 13.0746 54.3017 13.4111 52.7147C14.0255 53.4638 16.3819 56.2649 16.3819 56.2649C16.3819 56.2649 16.4036 64.4948 16.2458 65.7429L19.4629 65.9853C19.3481 65.0384 17.3898 65.0015 17.3898 64.5226C17.3898 63.739 18.4127 56.3666 18.2218 55.3281C17.8216 53.151 14.8426 48.2536 14.8426 48.2536C14.808 46.4601 14.8434 43.1406 14.6866 41.5565C15.2126 41.5983 16.9458 42.0604 18.0918 42.5537C19.4278 43.1288 20.8563 43.8154 21.0552 44.1464C21.5506 44.9709 22.8829 45.3385 23.0624 45.0496C23.0624 45.0496 20.6466 42.865 19.5292 42.1222C17.4931 40.7688 16.8166 40.3719 14.9738 39.8296C14.1262 39.5802 12.7814 39.5717 12.7814 39.5717L12.4682 39.1798C12.4682 39.1798 12.7979 39.1407 12.8936 39.0247Z" fill="#0DA78B"/>
<path d="M13.2835 39.5796C13.3251 39.7477 13.1656 40.7052 12.8507 40.9927C12.0873 41.7213 10.9979 40.9148 10.7842 40.231C9.48603 41.807 8.92464 42.3874 9.42998 45.1819C9.42998 45.1819 10.997 47.797 10.7269 48.6074C10.3035 50.2685 10.0685 51.9341 9.79619 53.6275C13.2483 54.4905 14.0905 53.318 17.287 51.9721C16.8788 51.0545 15.4358 48.8962 14.9093 47.9041C14.8199 46.7771 14.8683 43.0339 14.7789 41.5864L15.5949 41.7345C15.7157 41.212 15.8995 40.7274 16.0644 40.1779C14.7621 39.7251 14.3807 39.6517 13.2835 39.5796Z" fill="#0E4141"/>
<path d="M9.44385 45.175C9.67661 46.1322 10.8879 51.0334 10.6355 51.7968C10.5217 52.141 10.1752 52.8612 10.1058 53.2915C10.7121 53.2915 10.3461 52.5965 10.99 52.5644C11.2676 52.5366 11.5496 52.3834 11.6467 52.2862C11.7439 52.189 11.5474 51.1729 11.5474 50.4605C11.5474 48.2329 11.0025 45.175 11.0025 45.175C10.3713 44.9426 9.44385 45.175 9.44385 45.175Z" fill="#0DA78B"/>
<path d="M11.511 53.1666C11.6636 52.9312 11.6963 52.722 11.4924 52.7091C11.1246 52.6858 10.8728 52.6973 10.6337 52.8373C10.4242 52.9599 10.307 53.2707 10.3707 53.3712C10.5495 53.653 11.3247 53.446 11.511 53.1666Z" fill="#0DA78B"/>
<path d="M66.109 27.5107C67.6842 26.7177 69.6159 27.6303 69.7879 29.5982C69.922 31.1314 68.9298 32.0099 67.9743 32.7222C67.6617 31.8525 66.109 27.5107 66.109 27.5107Z" fill="#0E4141"/>
<path d="M64.8543 60.1233C64.8543 60.1233 71.2537 75.6444 71.7646 76.9255C72.0052 77.529 68.8699 80.1158 69.6884 81.1799L74.2734 77.9431L70.9659 66.4723L69.6884 57.1227L64.8543 60.1233Z" fill="#0DA78B"/>
<path fill-rule="evenodd" clip-rule="evenodd" d="M72.0319 62.2797C70.9784 62.9043 69.9946 63.9615 69.4118 65.3833C68.3265 68.0302 68.9919 70.8095 70.898 71.591C72.804 72.3725 75.2289 70.8601 76.3141 68.2131C76.8485 66.9095 76.9584 65.5739 76.7046 64.4606C76.3824 62.7247 76.4082 60.0231 77.0824 58.4403C77.4377 57.6417 77.8144 56.8467 78.1874 56.0598C78.5163 55.3657 78.8423 54.678 79.148 53.9994C79.1604 53.9771 79.1638 53.9575 79.1581 53.9403C79.1529 53.9247 79.1402 53.9111 79.1198 53.8997L78.2416 53.5204C78.199 53.4966 78.1658 53.506 78.142 53.5486C77.7952 54.3184 77.4672 55.1009 77.1367 55.8895C76.8381 56.6017 76.5374 57.319 76.2189 58.0366C75.1455 60.4549 73.0854 61.6551 72.0319 62.2797ZM70.0867 65.6598C71.0128 63.4009 73.0066 62.0794 74.54 62.7081C76.0734 63.3368 76.5657 65.6775 75.6396 67.9364C74.7135 70.1953 72.7197 71.5168 71.1863 70.8881C69.6529 70.2594 69.1606 67.9186 70.0867 65.6598Z" fill="#0E4141"/>
<path d="M65.9416 33.0419C63.1118 32.8061 64.1301 28.1862 66.3704 27.393C67.8192 28.2807 67.3628 31.8616 68.2633 33.5032C68.5802 34.0808 68.9457 34.267 69.5926 34.5422C71.2074 35.229 72.7213 36.1141 73.5517 37.7156C74.6072 39.7136 75.3941 41.847 76.3424 43.897C77.1365 45.6135 77.5027 47.3385 77.7876 49.1908C78.1077 51.2719 78.5116 53.8983 78.7714 54.2447C79.1148 54.7026 79.5962 55.4352 79.1842 56.0991C78.5626 57.1004 77.7304 57.0602 77.7304 57.0602C77.9136 56.5565 77.895 55.5427 77.3724 55.3356L77.0195 56.1719C76.8711 55.8931 76.6251 54.7924 77.0315 54.1073C77.6127 53.5737 73.9776 45.0005 73.9776 45.0005L71.483 41.1053C71.483 41.1053 69.6127 46.6756 69.8416 47.7516C70.0935 48.8276 71.3768 51.0625 71.0563 52.7337C70.0061 58.2102 69.0657 63.0579 67.5686 68.4336L66.0655 80.2975L60.6228 81.5248C60.5198 80.5198 61.7606 79.9476 62.7257 79.5026C63.3245 79.2265 63.8172 78.9993 63.8172 78.748C63.9211 77.6022 64.0435 72.3653 64.1614 67.3233C64.2273 64.5044 64.2918 61.7464 64.3508 59.7985C64.593 51.8858 62.822 44.1966 62.1525 36.3864C62.0152 34.7838 63.5701 34.3045 64.6919 34.0526C65.3392 33.9102 65.86 33.81 65.9416 33.0419Z" fill="#0DA78B"/>
<path d="M61.5327 40.9334L61.2078 43.8293C61.2078 43.8293 58.6761 49.1995 58.3028 51.0127C58.1425 51.7911 57.9395 54.4924 57.9395 54.4924C59.0152 54.7094 60.1271 51.7987 59.8107 50.7772C59.5971 50.0877 63.303 44.9209 63.303 44.9209L64.168 40.8013L61.5327 40.9334Z" fill="#0DA78B"/>
<path d="M64.6688 34.0518C64.9505 34.5595 65.5987 35.5255 66.7046 35.5255C68.6505 35.6628 69.0561 34.2925 69.0561 34.2925C70.567 35.034 72.1848 35.1143 73.3142 37.2923C73.6805 37.9791 74.4899 39.6836 75.0164 40.897C74.1912 41.3777 73.2887 41.8681 72.3481 42.4655L71.6053 41.3777L70.0256 47.4216C70.328 48.7725 71.4491 50.7682 71.0571 52.756C70.4753 55.665 70.3427 57.3071 69.6998 60.201C69.6998 60.201 65.2326 59.8175 64.3315 59.8175C63.6796 53.4522 63.3233 47.1828 62.5581 40.9285C62.1702 40.9229 61.9192 40.9285 61.5313 40.9285C61.746 39.5199 61.7818 37.4354 61.9634 36.1992C62.1518 34.9171 63.2345 34.2925 64.6688 34.0518Z" fill="#0E4141"/>
<path d="M-2.56252 45.9565L-2.24512 48.433C-2.24512 48.433 -0.423798 52.4306 -0.150188 53.7595C-0.0327311 54.33 0.116028 56.31 0.116028 56.31C-0.672392 56.469 -1.48731 54.3356 -1.25542 53.5869C-1.09889 53.0816 -2.91462 50.8564 -3.60334 48.9706C-3.98945 47.9135 -4.22968 46.1961 -4.22968 46.1961L-2.56252 45.9565Z" fill="#0DA78B"/>
<path d="M33.3555 33.6904C31.3937 33.796 30.445 34.9775 30.9298 36.3349C31.8884 39.0191 34.0605 38.2948 34.0605 38.2948L33.9599 34.9878L33.3555 33.6904Z" fill="#0DA78B"/>
<path d="M30.2565 35.5557C28.8621 35.713 28.0978 37.1933 28.965 38.3446C30.3139 40.1353 32.4546 40.0621 32.4546 40.0621C32.4546 40.0621 29.9484 37.3036 31.0265 36.3764C31.4672 35.9975 31.6509 35.3985 30.2565 35.5557Z" fill="#0DA78B"/>
<path d="M33.363 33.6964C35.3117 33.4569 37.6282 35.7694 35.9765 37.6525C36.0518 38.012 36.876 38.3606 37.5055 37.7473C39.8097 35.3599 40.6873 33.8232 41.8319 31.7616L43.5019 19.9585C45.2986 21.0875 43.687 22.8364 43.7494 24.3606C43.8731 27.3777 43.5673 30.3108 43.2285 31.9849C42.7495 34.3516 40.4636 39.4531 40.4636 39.4531C40.4636 39.4531 42.448 43.8856 43.4046 46.0579C44.6857 48.9669 47.9621 59.7622 43.7973 64.1283C42.1213 65.8854 36.89 71.2753 35.9466 72.4649C35.5567 72.9565 37.9169 75.6042 37.1244 76.6854L33.5566 73.1111L41.5148 61.5096C41.5148 61.5096 40.8477 55.9054 40.1703 52.363C39.5756 49.253 35.1468 45.9534 35.1468 45.9534C35.1468 45.9534 30.866 49.0556 29.9562 49.0556C29.0463 49.0556 27.2865 46.8655 26.0827 44.9915C25.3771 43.7558 24.634 42.9227 24.0724 42.396C24.1521 41.8579 24.3719 41.215 24.6111 41.1353C24.841 41.0587 24.6999 40.9504 24.4773 40.7796C24.1863 40.5563 23.7562 40.2262 23.8338 39.7203C23.8338 39.7203 24.7301 40.2384 25.1087 40.4775C25.6379 40.8304 25.3178 41.7845 25.611 42.2732C26.5902 43.448 30.3374 46.5513 30.3374 46.5513C32.0153 44.5079 33.1882 43.0538 34.5202 40.7796C34.8125 40.2806 34.0524 38.3001 34.0524 38.3001C34.0524 38.3001 32.5839 34.8075 33.363 33.6964Z" fill="#096959"/>
<path d="M45.0392 48.9282C48.9055 52.1568 53.0856 57.478 53.4045 59.4112C53.0238 62.094 48.0505 66.96 46.5158 69.093C45.9533 69.8748 48.5874 73.0182 47.5773 73.8084C47.5773 73.8084 44.3721 70.5808 43.899 70.2924L50.1463 59.7734C50.1463 59.7734 43.6932 55.552 42.6568 54.2565C41.5806 52.9412 45.0392 48.9282 45.0392 48.9282Z" fill="#096959"/>
<path d="M45.1411 48.1337C42.9515 44.9317 41.419 41.4498 40.5619 39.4367L41.4516 37.1352L39.5949 35.3145L37.4175 37.8164C37.4175 37.8164 37.7609 39.2858 36.868 40.2238C36.1523 40.9758 34.5204 40.7208 34.5204 40.7208C34.5204 40.7208 33.0235 42.9384 31.767 44.7495C32.066 45.2876 33.8531 46.8673 33.8531 46.8673L35.1723 45.9795C35.1723 45.9795 39.204 49.6369 39.6948 51.1943C40.1856 52.7517 40.4823 59.4695 40.4823 59.4695C40.4823 59.4695 42.092 60.2913 45.1411 58.5046C47.0201 57.4035 50.2101 53.6298 50.2101 53.6298C49.4526 52.9889 46.8022 50.5629 45.1411 48.1337Z" fill="#0DA78B"/>
<path fill-rule="evenodd" clip-rule="evenodd" d="M28.3817 35.4987C29.2206 34.8576 29.9561 33.8532 30.3116 32.5772C30.9736 30.2015 30.1235 27.8892 28.4128 27.4125C26.7021 26.9358 24.7787 28.4753 24.1167 30.851C23.7907 32.021 23.8315 33.1756 24.1611 34.1031C24.6121 35.5567 24.8627 37.8723 24.4452 39.2954C24.2216 40.015 23.9793 40.7336 23.7394 41.445C23.5278 42.0723 23.3182 42.6941 23.125 43.3059C23.1165 43.3262 23.1156 43.3434 23.1222 43.3575C23.1283 43.3703 23.1406 43.3807 23.1591 43.3883L23.9492 43.6245C23.9881 43.6406 24.0156 43.6292 24.0317 43.5903C24.2509 42.8963 24.4527 42.1932 24.6562 41.4847C24.8399 40.8448 25.0249 40.2004 25.2252 39.5539C25.9001 37.3752 27.5428 36.1397 28.3817 35.4987ZM29.7059 32.4086C29.141 34.4359 27.5674 35.7685 26.1912 35.385C24.8149 35.0015 24.1572 33.0472 24.7221 31.0198C25.287 28.9925 26.8606 27.6599 28.2369 28.0434C29.6131 28.4269 30.2708 30.3812 29.7059 32.4086Z" fill="#0DA78B"/>
<path d="M23.3145 41.8925C23.6177 42.2463 23.9587 42.4133 24.1232 42.1284C24.4197 41.6144 24.5749 41.2469 24.498 40.8238C24.4306 40.4532 23.9715 40.1068 23.7525 40.1405C23.1379 40.235 22.9584 41.4652 23.3145 41.8925Z" fill="#096959"/>
<ellipse cx="42.0956" cy="12.3865" rx="2.48512" ry="2.48512" fill="url(#paint10_radial_2137_223690)"/>
<path d="M40.8983 13.5282C41.7411 14.417 42.943 13.7289 43.2553 12.9846C43.497 12.4086 43.8827 11.8756 44.571 12.5626C44.5721 12.5492 44.5732 12.5374 44.5741 12.5267C44.5784 12.4801 44.5808 12.4532 44.5808 12.3934C43.7942 11.5995 43.3395 12.384 43.1227 12.7582C42.7092 13.4719 41.7693 13.8834 41.1796 13.2614C40.59 12.6394 41.0529 11.7219 41.7852 11.3479C42.1703 11.1512 42.9778 10.7388 42.2267 9.91125C42.167 9.90808 42.1401 9.90907 42.0932 9.9108C42.0825 9.91119 42.0707 9.91163 42.0573 9.91206C42.706 10.6364 42.1736 10.9497 41.5762 11.204C40.7117 11.5719 40.081 12.6664 40.8983 13.5282Z" fill="#0DA78B"/>
<ellipse cx="14.1185" cy="19.4402" rx="1.96659" ry="1.9666" fill="url(#paint11_radial_2137_223690)"/>
<path d="M13.1711 20.3439C13.838 21.0472 14.7891 20.5027 15.0363 19.9137C15.2276 19.4579 15.5328 19.0361 16.0775 19.5797C16.0784 19.5691 16.0792 19.5598 16.08 19.5514C16.0833 19.5144 16.0852 19.4932 16.0852 19.4458C15.4627 18.8176 15.103 19.4385 14.9314 19.7346C14.6041 20.2993 13.8604 20.625 13.3937 20.1327C12.9271 19.6405 13.2935 18.9145 13.8729 18.6185C14.1777 18.4629 14.8167 18.1365 14.2223 17.4816C14.1751 17.4791 14.1537 17.4799 14.1167 17.4813C14.1082 17.4816 14.0989 17.4819 14.0882 17.4823C14.6016 18.0555 14.1803 18.3034 13.7075 18.5046C13.0234 18.7958 12.5243 19.6619 13.1711 20.3439Z" fill="#0DA78B"/>
</g>
</g>
<defs>
<filter id="filter0_f_2137_223690" x="24.7468" y="-23.4478" width="89.5544" height="89.5543" filterUnits="userSpaceOnUse" color-interpolation-filters="sRGB">
<feFlood flood-opacity="0" result="BackgroundImageFix"/>
<feBlend mode="normal" in="SourceGraphic" in2="BackgroundImageFix" result="shape"/>
<feGaussianBlur stdDeviation="13.1536" result="effect1_foregroundBlur_2137_223690"/>
</filter>
<filter id="filter1_f_2137_223690" x="-29.4822" y="7.69287" width="45.1559" height="45.1558" filterUnits="userSpaceOnUse" color-interpolation-filters="sRGB">
<feFlood flood-opacity="0" result="BackgroundImageFix"/>
<feBlend mode="normal" in="SourceGraphic" in2="BackgroundImageFix" result="shape"/>
<feGaussianBlur stdDeviation="2" result="effect1_foregroundBlur_2137_223690"/>
</filter>
<filter id="filter2_f_2137_223690" x="9.66426" y="-9.3355" width="76.3213" height="76.3214" filterUnits="userSpaceOnUse" color-interpolation-filters="sRGB">
<feFlood flood-opacity="0" result="BackgroundImageFix"/>
<feBlend mode="normal" in="SourceGraphic" in2="BackgroundImageFix" result="shape"/>
<feGaussianBlur stdDeviation="13.1536" result="effect1_foregroundBlur_2137_223690"/>
</filter>
<filter id="filter3_f_2137_223690" x="84.7548" y="10.8652" width="54.4708" height="43.2539" filterUnits="userSpaceOnUse" color-interpolation-filters="sRGB">
<feFlood flood-opacity="0" result="BackgroundImageFix"/>
<feBlend mode="normal" in="SourceGraphic" in2="BackgroundImageFix" result="shape"/>
<feGaussianBlur stdDeviation="2" result="effect1_foregroundBlur_2137_223690"/>
</filter>
<filter id="filter4_f_2137_223690" x="77.6708" y="-11.4419" width="82.8328" height="82.8326" filterUnits="userSpaceOnUse" color-interpolation-filters="sRGB">
<feFlood flood-opacity="0" result="BackgroundImageFix"/>
<feBlend mode="normal" in="SourceGraphic" in2="BackgroundImageFix" result="shape"/>
<feGaussianBlur stdDeviation="13.1536" result="effect1_foregroundBlur_2137_223690"/>
</filter>
<filter id="filter7_f_2137_223690" x="-70.0204" y="-5.52105" width="78.7622" height="78.7623" filterUnits="userSpaceOnUse" color-interpolation-filters="sRGB">
<feFlood flood-opacity="0" result="BackgroundImageFix"/>
<feBlend mode="normal" in="SourceGraphic" in2="BackgroundImageFix" result="shape"/>
<feGaussianBlur stdDeviation="13.1536" result="effect1_foregroundBlur_2137_223690"/>
</filter>
<filter id="filter8_f_2137_223690" x="44.3304" y="29.0571" width="7.84109" height="29.8857" filterUnits="userSpaceOnUse" color-interpolation-filters="sRGB">
<feFlood flood-opacity="0" result="BackgroundImageFix"/>
<feBlend mode="normal" in="SourceGraphic" in2="BackgroundImageFix" result="shape"/>
<feGaussianBlur stdDeviation="1.5" result="effect1_foregroundBlur_2137_223690"/>
</filter>
<filter id="filter9_f_2137_223690" x="61.4276" y="26.688" width="13.1968" height="31.6265" filterUnits="userSpaceOnUse" color-interpolation-filters="sRGB">
<feFlood flood-opacity="0" result="BackgroundImageFix"/>
<feBlend mode="normal" in="SourceGraphic" in2="BackgroundImageFix" result="shape"/>
<feGaussianBlur stdDeviation="1.5" result="effect1_foregroundBlur_2137_223690"/>
</filter>
<linearGradient id="paint0_linear_2137_223690" x1="48.0141" y1="53.4287" x2="51.3193" y2="91.3711" gradientUnits="userSpaceOnUse">
<stop stop-color="#93E6CD"/>
<stop offset="0.489583" stop-color="#C0FFF0" stop-opacity="0"/>
<stop offset="1" stop-color="#93E6CD"/>
</linearGradient>
<linearGradient id="paint1_linear_2137_223690" x1="81.0492" y1="20.6162" x2="31.4892" y2="-7.16753" gradientUnits="userSpaceOnUse">
<stop stop-color="#13D4E1" stop-opacity="0.51"/>
<stop offset="1" stop-color="#0A5C3E"/>
</linearGradient>
<radialGradient id="paint2_radial_2137_223690" cx="0" cy="0" r="1" gradientUnits="userSpaceOnUse" gradientTransform="translate(89.3786 32.8687) rotate(-151.29) scale(33.1739 32.1827)">
<stop stop-color="#24FFB0"/>
<stop offset="1" stop-color="#14AAB3" stop-opacity="0"/>
</radialGradient>
<radialGradient id="paint3_radial_2137_223690" cx="0" cy="0" r="1" gradientUnits="userSpaceOnUse" gradientTransform="translate(84.7521 27.0085) rotate(-162.718) scale(24.2262 24.2262)">
<stop stop-color="#27FECA"/>
<stop offset="1" stop-color="#1AEDFA" stop-opacity="0"/>
</radialGradient>
<radialGradient id="paint4_radial_2137_223690" cx="0" cy="0" r="1" gradientUnits="userSpaceOnUse" gradientTransform="translate(8.94985 38.447) rotate(-151.29) scale(33.3677 32.3707)">
<stop stop-color="#24FFCA"/>
<stop offset="1" stop-color="#14B3AA" stop-opacity="0"/>
</radialGradient>
<linearGradient id="paint5_linear_2137_223690" x1="55.2214" y1="28.3674" x2="23.4154" y2="10.5367" gradientUnits="userSpaceOnUse">
<stop stop-color="#13E1AF" stop-opacity="0.51"/>
<stop offset="1" stop-color="#0A5C48"/>
</linearGradient>
<radialGradient id="paint6_radial_2137_223690" cx="0" cy="0" r="1" gradientUnits="userSpaceOnUse" gradientTransform="translate(58.7478 35.6566) rotate(-151.29) scale(21.2899 20.6538)">
<stop stop-color="#24FFBD"/>
<stop offset="1" stop-color="#14B3AA" stop-opacity="0"/>
</radialGradient>
<radialGradient id="paint7_radial_2137_223690" cx="0" cy="0" r="1" gradientUnits="userSpaceOnUse" gradientTransform="translate(55.7787 31.8957) rotate(-162.719) scale(15.5476 15.5476)">
<stop stop-color="#27FEFE"/>
<stop offset="1" stop-color="#1AFA8E" stop-opacity="0"/>
</radialGradient>
<linearGradient id="paint8_linear_2137_223690" x1="128.515" y1="29.391" x2="87.9732" y2="6.66282" gradientUnits="userSpaceOnUse">
<stop stop-color="#13E1A3" stop-opacity="0.51"/>
<stop offset="1" stop-color="#0A5C4D"/>
</linearGradient>
<linearGradient id="paint9_linear_2137_223690" x1="-22.4812" y1="33.3552" x2="-57.562" y2="13.6886" gradientUnits="userSpaceOnUse">
<stop stop-color="#13E1BC" stop-opacity="0.51"/>
<stop offset="1" stop-color="#0A5C57"/>
</linearGradient>
<radialGradient id="paint10_radial_2137_223690" cx="0" cy="0" r="1" gradientUnits="userSpaceOnUse" gradientTransform="translate(43.2232 11.601) rotate(159.222) scale(4.01529 2.69343)">
<stop stop-color="#0DA78B"/>
<stop offset="1" stop-color="#0E4141"/>
</radialGradient>
<radialGradient id="paint11_radial_2137_223690" cx="0" cy="0" r="1" gradientUnits="userSpaceOnUse" gradientTransform="translate(15.0109 18.8186) rotate(159.222) scale(3.17749 2.13144)">
<stop stop-color="#0DA78B"/>
<stop offset="1" stop-color="#0E4141"/>
</radialGradient>
<clipPath id="clip0_2137_223690">
<rect width="88" height="88" fill="white"/>
</clipPath>
<clipPath id="clip1_2137_223690">
<rect width="205.543" height="88" fill="white" transform="translate(-69)"/>
</clipPath>
</defs>
</svg>
