<svg viewBox="0 0 88 88" fill="none" xmlns="http://www.w3.org/2000/svg">
<g clip-path="url(#clip0_2137_223689)">
<g clip-path="url(#clip1_2137_223689)">
<rect width="205.543" height="88" transform="translate(-41)" fill="#FFC15D"/>
<rect x="-41" y="39.6001" width="205.543" height="48.4" fill="url(#paint0_linear_2137_223689)"/>
<ellipse rx="2.12178" ry="2.12178" transform="matrix(-0.636921 -0.770929 -0.770929 0.636921 59.2129 20.1053)" fill="url(#paint1_radial_2137_223689)"/>
<path d="M59.1124 21.5145C58.0691 21.443 57.8684 20.2778 58.1884 19.6674C58.4361 19.1951 58.5772 18.6514 57.7508 18.5719C57.759 18.5639 57.7661 18.5568 57.7726 18.5504C57.8011 18.5222 57.8174 18.506 57.8568 18.4735C58.8071 18.5595 58.5379 19.2854 58.4096 19.6316C58.1647 20.2919 58.4049 21.1343 59.135 21.1842C59.865 21.2341 60.2172 20.4304 60.0652 19.7451C59.9852 19.3846 59.8176 18.6288 60.7707 18.6732C60.8053 18.7108 60.8193 18.729 60.8436 18.7608C60.8492 18.7681 60.8553 18.7761 60.8623 18.7851C60.0327 18.752 60.1161 19.2728 60.2736 19.8043C60.5015 20.5735 60.1241 21.5838 59.1124 21.5145Z" fill="#9B1D3B"/>
<path fill-rule="evenodd" clip-rule="evenodd" d="M-10.603 49.4135V79.1752L18.5882 51.1477V41.1794L-10.603 49.4135ZM20.2807 52.1369C20.4042 52.0184 20.4739 51.8546 20.4739 51.6835V39.5186C20.4739 39.1019 20.0758 38.8005 19.6747 38.9136L-12.0308 47.8569C-12.3016 47.9333 -12.4887 48.1804 -12.4887 48.4619V82.125C-12.4887 82.6788 -11.8243 82.962 -11.4248 82.5784L20.2807 52.1369Z" fill="#FFC15D"/>
<path d="M18.8424 40.5068L-10.831 49.0318V80.007L18.8424 51.9405V40.5068ZM18.2377 49.4106L17.0918 50.3397V48.6708L18.2377 47.8896V49.4106ZM1.46893 54.9085L3.92408 53.5532V56.9413L1.46893 58.6161V54.9085ZM0.86421 59.0304L-1.99006 60.9774V56.8082L0.86421 55.2339V59.0304ZM4.52879 53.2188L6.92649 51.8932V54.8848L4.53786 56.5122L4.52879 53.2188ZM7.53121 51.5588L9.61447 50.4078V53.0709L7.53121 54.4942V51.5588ZM10.2192 50.0793L12.2178 48.9756V51.2836L10.2192 52.6478V50.0793ZM12.8225 48.6412L14.4371 47.7535V49.7686L12.8225 50.8723V48.6412ZM15.0418 47.4162L16.4871 46.6172V48.369L15.0418 49.3543V47.4162ZM15.0418 46.7356V44.7974L16.4871 44.1908V45.9367L15.0418 46.7356ZM14.4371 47.07L12.8225 47.9577V45.7295L14.4371 45.049V47.07ZM12.2178 48.295L10.2192 49.3987V46.8273L12.2178 45.987V48.295ZM9.61447 49.7331L7.53121 50.8842V47.9577L9.61447 47.07V49.7331ZM6.92649 51.2126L4.52879 52.5383V49.2094L6.92649 48.2003V51.2126ZM3.92408 52.8726L1.46893 54.2279V50.4965L3.92408 49.4638V52.8726ZM0.86421 54.5622L-1.99006 56.1394V51.9494L0.86421 50.751V54.5622ZM-2.59477 56.4738L-5.77256 58.2285V53.5532L-2.59477 52.2157V56.4738ZM-2.59477 57.1514V61.3917L-5.77256 63.5636V58.9031L-2.59477 57.1514ZM-2.59477 62.1137V66.3244L-5.77256 68.9047V64.2797L-2.59477 62.1137ZM-1.99006 61.6994L0.86421 59.7524V63.5163L-1.99006 65.8332V61.6994ZM1.46893 59.3322L3.92408 57.6574V61.0277L1.478 63.0221L1.46893 59.3322ZM4.52879 57.2431L6.92649 55.6068V58.5836L4.52879 60.5306V57.2431ZM7.53121 55.1955L9.61447 53.7692V56.4057L7.53121 58.0983V55.1955ZM10.2192 53.3579L12.2178 51.9938V54.29L10.2283 55.9204L10.2192 53.3579ZM12.8225 51.5825L14.4371 50.4788V52.4909L12.8225 53.8018V51.5825ZM15.0418 50.0675L16.4871 49.0792V50.8279L15.0418 52.0116V50.0675ZM18.2377 47.1617L17.1009 47.9311V46.2592L18.2468 45.626L18.2377 47.1617ZM18.2377 44.9602L17.0918 45.5905V43.9245L18.2377 43.4422V44.9602ZM18.2377 41.2969V42.8001L17.0918 43.2794V41.6254L18.2377 41.2969ZM16.4871 41.7999V43.5339L15.0418 44.1435V42.2142L16.4871 41.7999ZM14.4371 42.3917V44.4009L12.8225 45.0785V42.8563L14.4371 42.3917ZM12.2178 43.0279V45.333L10.2192 46.1734V43.6049L12.2178 43.0279ZM9.62354 43.7884V46.4515L7.54028 47.3392V44.3802L9.62354 43.7884ZM6.93556 44.5607V47.57L4.53786 48.5791V45.2354L6.93556 44.5607ZM3.93315 45.4247V48.8188L1.478 49.8515V46.1142L3.93315 45.4247ZM0.873281 46.3125V50.1296L-1.98098 51.328V47.1084L0.873281 46.3125ZM-2.5857 47.3067V51.5825L-5.76349 52.92V48.1974L-2.5857 47.3067ZM-10.2172 49.4993L-6.36821 48.3927V53.1745L-10.2172 54.7931V49.4993ZM-10.2172 55.4381L-6.36821 53.8195V58.5806L-10.2172 60.7082V55.4381ZM-10.2172 61.3858L-6.36821 59.2612V63.9956L-10.2172 66.6262V61.3858ZM-10.2172 67.3423L-6.36821 64.7147V69.4136L-10.2172 72.5384V67.3423ZM-10.2172 78.4624V73.284L-6.36821 70.1593V74.8198L-10.2172 78.4624ZM-5.76349 74.2665V69.6681L-2.5857 67.0878V71.263L-5.76349 74.2665ZM-1.98098 70.7156V66.5966L0.873281 64.2797V68.014L-1.98098 70.7156ZM1.478 67.4607V63.7885L3.93315 61.7971V65.1408L1.478 67.4607ZM4.53786 64.5875V61.3325L6.93556 59.3855V62.3445L4.53786 64.5875ZM7.54028 61.7645V58.8795L9.62354 57.1869V59.8027L7.54028 61.7645ZM10.2283 59.2375V56.6987L12.2268 55.0742V57.3585L10.2283 59.2375ZM12.8316 56.7904V54.583L14.4461 53.2721V55.2754L12.8316 56.7904ZM15.0509 54.7191V52.7927L16.4961 51.6091V53.349L15.0509 54.7191ZM17.1009 52.7927V51.1298L18.2468 50.2006V51.7157L17.1009 52.7927Z" fill="#FFC15D"/>
<path d="M32.2904 36.5371L23.6379 39.0229V48.0549L32.2904 39.871V36.5371ZM32.114 39.1333L31.7799 39.4043V38.9176L32.114 38.6898V39.1333ZM27.2245 40.7364L27.9403 40.3413V41.3292L27.2245 41.8176V40.7364ZM27.0481 41.9384L26.2159 42.5061V41.2904L27.0481 40.8314V41.9384ZM28.1167 40.2438L28.8158 39.8572V40.7295L28.1193 41.2041L28.1167 40.2438ZM28.9921 39.7597L29.5996 39.4241V40.2006L28.9921 40.6157V39.7597ZM29.7759 39.3283L30.3587 39.0065V39.6795L29.7759 40.0773V39.3283ZM30.535 38.909L31.0058 38.6502V39.2377L30.535 39.5596V38.909ZM31.1821 38.5518L31.6036 38.3188V38.8296L31.1821 39.1169V38.5518ZM31.1821 38.3533V37.7882L31.6036 37.6113V38.1204L31.1821 38.3533ZM31.0058 38.4508L30.535 38.7097V38.06L31.0058 37.8615V38.4508ZM30.3587 38.808L29.7759 39.1299V38.3801L30.3587 38.135V38.808ZM29.5996 39.2274L28.9921 39.563V38.7097L29.5996 38.4508V39.2274ZM28.8158 39.6588L28.1167 40.0453V39.0747L28.8158 38.7804V39.6588ZM27.9403 40.1428L27.2245 40.538V39.45L27.9403 39.1489V40.1428ZM27.0481 40.6355L26.2159 41.0954V39.8736L27.0481 39.5242V40.6355ZM26.0395 41.1929L25.1129 41.7045V40.3413L26.0395 39.9513V41.1929ZM26.0395 41.3905V42.6269L25.1129 43.2602V41.9013L26.0395 41.3905ZM26.0395 42.8374V44.0652L25.1129 44.8176V43.469L26.0395 42.8374ZM26.2159 42.7166L27.0481 42.1489V43.2464L26.2159 43.922V42.7166ZM27.2245 42.0264L27.9403 41.538V42.5208L27.2271 43.1023L27.2245 42.0264ZM28.1167 41.4172L28.8158 40.9401V41.8081L28.1167 42.3758V41.4172ZM28.9921 40.8201L29.5996 40.4043V41.173L28.9921 41.6666V40.8201ZM29.7759 40.2843L30.3587 39.8866V40.5561L29.7786 41.0315L29.7759 40.2843ZM30.535 39.7666L31.0058 39.4448V40.0315L30.535 40.4138V39.7666ZM31.1821 39.3249L31.6036 39.0367V39.5466L31.1821 39.8917V39.3249ZM32.114 38.4776L31.7825 38.7019V38.2144L32.1167 38.0298L32.114 38.4776ZM32.114 37.8357L31.7799 38.0194V37.5337L32.114 37.393V37.8357ZM32.114 36.7675V37.2058L31.7799 37.3456V36.8633L32.114 36.7675ZM31.6036 36.9142V37.4198L31.1821 37.5975V37.035L31.6036 36.9142ZM31.0058 37.0867V37.6726L30.535 37.8702V37.2222L31.0058 37.0867ZM30.3587 37.2722V37.9444L29.7759 38.1894V37.4405L30.3587 37.2722ZM29.6022 37.494V38.2705L28.9948 38.5294V37.6665L29.6022 37.494ZM28.8185 37.7192V38.5967L28.1193 38.8909V37.9159L28.8185 37.7192ZM27.943 37.9711V38.9608L27.2271 39.2619V38.1722L27.943 37.9711ZM27.0508 38.23V39.343L26.2185 39.6924V38.4621L27.0508 38.23ZM26.0422 38.5199V39.7666L25.1156 40.1566V38.7796L26.0422 38.5199ZM23.8169 39.1592L24.9392 38.8365V40.2308L23.8169 40.7028V39.1592ZM23.8169 40.8909L24.9392 40.4189V41.8072L23.8169 42.4276V40.8909ZM23.8169 42.6252L24.9392 42.0057V43.3862L23.8169 44.1532V42.6252ZM23.8169 44.362L24.9392 43.5958V44.966L23.8169 45.8771V44.362ZM23.8169 47.6045V46.0946L24.9392 45.1834V46.5424L23.8169 47.6045ZM25.1156 46.381V45.0402L26.0422 44.2878V45.5052L25.1156 46.381ZM26.2185 45.3456V44.1446L27.0508 43.469V44.5579L26.2185 45.3456ZM27.2271 44.3965V43.3258L27.943 42.7451V43.7201L27.2271 44.3965ZM28.1193 43.5587V42.6096L28.8185 42.0419V42.9047L28.1193 43.5587ZM28.9948 42.7356V41.8944L29.6022 41.4008V42.1636L28.9948 42.7356ZM29.7786 41.9988V41.2585L30.3613 40.7848V41.4509L29.7786 41.9988ZM30.5377 41.2852V40.6415L31.0085 40.2593V40.8434L30.5377 41.2852ZM31.1848 40.6812V40.1195L31.6062 39.7744V40.2817L31.1848 40.6812ZM31.7825 40.1195V39.6346L32.1167 39.3637V39.8055L31.7825 40.1195Z" fill="#FFC15D"/>
<path fill-rule="evenodd" clip-rule="evenodd" d="M32.0637 36.2521L23.8646 38.8087V47.7582L32.0637 40.0243V36.2521ZM23.6775 38.2086C23.4148 38.2905 23.236 38.5336 23.236 38.8087V47.7582C23.236 48.3094 23.8949 48.5937 24.2959 48.2155L32.495 40.4816C32.6209 40.3628 32.6923 40.1974 32.6923 40.0243V36.2521C32.6923 35.8282 32.2813 35.5258 31.8766 35.652L23.6775 38.2086Z" fill="#FFC15D"/>
<path d="M76.3063 44.6284H29.3113C29.1377 44.6284 28.997 44.7691 28.997 44.9427C28.997 45.1163 29.1377 45.257 29.3113 45.257H75.9711L76.3063 44.6284Z" fill="#FFC15D"/>
<path d="M66.0827 64.7427H10.1399C9.79273 64.7427 9.51131 65.0241 9.51131 65.3712C9.51131 65.7184 9.79273 65.9998 10.1399 65.9998H65.7056L66.0827 64.7427Z" fill="#FFC15D"/>
<path d="M71.9103 53.8295C72.02 53.6082 71.8591 53.3486 71.6121 53.3486C71.4884 53.3486 71.3749 53.4172 71.3174 53.5267L58.6597 77.6214C58.4328 78.0533 58.7461 78.5717 59.234 78.5717C59.4804 78.5717 59.7055 78.4321 59.8151 78.2113L71.9103 53.8295Z" fill="#FFC15D"/>
<path d="M78.3828 40.8334C78.4173 40.7575 78.3618 40.6714 78.2784 40.6714C78.2365 40.6714 78.1979 40.6943 78.1778 40.7311L74.4025 47.6413C74.2552 47.911 74.4504 48.24 74.7577 48.24C74.9164 48.24 75.0605 48.1472 75.1261 48.0027L78.3828 40.8334Z" fill="#FFC15D"/>
<path d="M94.8922 52.7907C95.223 51.5235 94.2667 50.2856 92.9571 50.2856H25.5453C25.2346 50.2856 25.0613 50.6443 25.2542 50.8878C25.3246 50.9767 25.4319 51.0285 25.5453 51.0285H92.7341C93.3963 51.0285 93.8756 51.6605 93.697 52.2982L85.9311 80.0251C85.6892 80.8887 84.902 81.4856 84.0052 81.4856H-4.83157C-5.24184 81.4856 -5.57443 81.8182 -5.57443 82.2285C-5.57443 82.6388 -5.24184 82.9714 -4.83157 82.9714H85.4704C86.3804 82.9714 87.1757 82.357 87.4056 81.4764L94.8922 52.7907Z" fill="#FFC15D"/>
<path d="M97.4522 42.7446C97.7914 41.4748 96.8344 40.2285 95.52 40.2285H32.3692C32.3537 40.2285 32.3383 40.2319 32.3242 40.2385C32.22 40.2867 32.2544 40.4428 32.3692 40.4428H96.3727C97.0383 40.4428 97.5181 41.0809 97.3334 41.7204L95.6394 47.5836C95.3922 48.4394 94.6088 49.0285 93.718 49.0285H25.3558C25.2724 49.0285 25.1925 49.0616 25.1335 49.1206C24.9355 49.3186 25.0758 49.6571 25.3558 49.6571H94.07C94.9758 49.6571 95.7685 49.0483 96.0022 48.1732L97.4522 42.7446Z" fill="#FFC15D"/>
<path d="M75.3252 27.0784C76.3345 26.5703 77.6716 26.7095 77.7818 27.9704C77.8677 28.9527 77.1326 29.9612 76.5203 30.4176C76.3201 29.8604 75.3252 27.0784 75.3252 27.0784Z" fill="#8F0C2C"/>
<path d="M74.2608 46.9662C74.2608 46.9662 74.922 49.4151 76.123 51.9072C77.4873 54.0828 79.7001 58.269 79.7635 58.6031C79.8411 59.0121 78.3178 60.1742 78.6304 60.9414L81.1931 59.219L78.4303 51.5548L78.2248 44.5878L74.2608 46.9662Z" fill="#ED4F2F"/>
<path fill-rule="evenodd" clip-rule="evenodd" d="M79.1201 49.3565C78.445 49.7567 77.8147 50.4341 77.4413 51.3451C76.7459 53.0411 77.1723 54.8219 78.3935 55.3226C79.6148 55.8233 81.1685 54.8543 81.8638 53.1583C82.2063 52.323 82.2766 51.4672 82.114 50.7539C81.9076 49.6417 81.9241 47.9106 82.3561 46.8965C82.5837 46.3848 82.8251 45.8754 83.0641 45.3712C83.2749 44.9265 83.4837 44.4859 83.6796 44.0511C83.6875 44.0368 83.6897 44.0242 83.6861 44.0132C83.6827 44.0032 83.6746 43.9945 83.6615 43.9872L83.0988 43.7442C83.0715 43.7289 83.0503 43.735 83.035 43.7622C82.8128 44.2555 82.6027 44.7568 82.3909 45.2621C82.1996 45.7185 82.0069 46.178 81.8028 46.6379C81.1151 48.1873 79.7951 48.9563 79.1201 49.3565ZM77.8737 51.5223C78.4671 50.0749 79.7446 49.2282 80.7271 49.631C81.7096 50.0338 82.025 51.5336 81.4316 52.981C80.8383 54.4283 79.5608 55.275 78.5783 54.8722C77.5958 54.4694 77.2804 52.9696 77.8737 51.5223Z" fill="#8F0C2C"/>
<path d="M75.3998 30.6773C73.7407 30.6359 74.3353 27.4858 75.3271 27.0854C76.4186 28.6233 76.3135 29.9164 76.7054 30.9181C76.8592 31.3113 77.1426 31.4075 77.5572 31.5838C79.3982 32.8062 80.2533 34.7646 81.3448 37.1241C81.6535 37.7913 82.0782 39.1122 82.3769 40.2334C82.7402 41.5968 83.2183 43.9145 83.4383 44.2079C83.6583 44.5012 83.9668 44.9706 83.7028 45.396C83.3045 46.0376 82.7713 46.0118 82.7713 46.0118C82.8886 45.6891 82.8767 45.0396 82.5419 44.9068L82.3158 45.4427C82.2207 45.2641 82.0631 44.5588 82.3235 44.1199C82.6959 43.7779 80.3667 38.2848 80.3667 38.2848L78.7684 35.789C78.4273 36.9017 77.022 39.4839 77.3997 40.6366C78.0026 42.4763 78.9793 43.304 78.6236 45.2099C78.205 47.422 76.1179 52.9141 76.1179 52.9141L75.1292 60.7494L72.1018 61.5384C72.2506 60.484 74.0415 60.1937 74.0415 59.7732C74.1081 59.039 74.0911 53.2903 74.0911 51.8277C74.1334 50.0215 74.1607 49.0144 74.1986 47.7664C74.2491 46.1159 74.1292 44.9782 74.0121 43.8676C73.9058 42.8586 73.8018 41.8719 73.83 40.5431C73.8565 39.2833 73.7419 37.7035 73.5961 36.4601C73.3875 34.6806 72.5548 32.3999 74.3353 31.512C74.7153 31.3224 75.3475 31.1695 75.3998 30.6773Z" fill="#ED4F2F"/>
<path d="M72.4322 35.3154L72.1547 37.4803C72.1547 37.4803 70.5625 40.975 70.3233 42.1367C70.2207 42.6355 70.0906 44.3663 70.0906 44.3663C70.7798 44.5053 71.4922 42.6403 71.2895 41.9859C71.1527 41.544 72.74 39.5988 73.3421 37.9503C73.6796 37.0261 73.8896 35.5249 73.8896 35.5249L72.4322 35.3154Z" fill="#ED4F2F"/>
<path d="M74.3347 31.5096C74.5152 31.8349 74.998 32.2138 75.7065 32.2138C76.9534 32.3018 77.2132 31.4238 77.2132 31.4238C78.1813 31.8989 79.0599 32.0966 79.7835 33.4921C80.0182 33.9322 80.3999 35.0271 80.7373 35.8045C80.2086 36.1126 79.9252 36.2778 79.3226 36.6605L78.8466 35.9635L77.5928 40.1051C78.9777 42.5367 79.286 43.9538 79.6862 45.5158C79.6862 45.5158 76.3368 48.3821 72.8585 46.6913C73.2873 42.891 73.8904 39.6831 73.4 35.6757C73.2538 35.6394 72.6852 35.4158 72.4273 35.3153C72.651 33.8479 72.7309 32.1666 74.3347 31.5096Z" fill="#8F0C2C"/>
<path d="M77.8823 26.7549C78.7972 26.3272 79.8229 26.9484 79.7234 27.981C79.5688 29.5872 78.2274 30.347 78.2274 30.347C78.2274 30.347 78.7285 27.7118 77.7182 27.5481C77.3053 27.4812 76.9674 27.1826 77.8823 26.7549Z" fill="#8F0C2C"/>
<path d="M39.0133 26.1933C37.9311 25.3574 36.625 26.0585 36.5311 27.1326C36.458 27.9694 36.8913 28.379 37.4128 28.7677C37.5834 28.2931 39.0133 26.1933 39.0133 26.1933Z" fill="#ED4F2F"/>
<path d="M39.0132 26.1929C39.5472 26.7268 40.4721 29.1208 38.62 29.1208C38.7314 29.4768 39.2291 29.5959 39.2291 29.5959L42.3887 32.2396L43.2347 33.2788C43.2347 33.2788 46.1776 32.2722 46.106 31.5094C46.1903 31.1554 47.3337 30.6228 47.3337 30.6228C47.4577 30.7868 47.285 30.9589 47.1451 31.0982C47.0154 31.2274 46.9139 31.3285 47.1031 31.369C48.1596 31.8929 47.5596 32.0788 47.0402 32.2396C46.8417 32.3011 46.6549 32.359 46.577 32.4307C46.5293 32.4699 46.4551 32.5331 46.3603 32.614C45.6739 33.1992 43.9047 34.7078 43.241 34.7078C42.3239 34.7078 40.6668 32.9279 40.6668 32.9279C39.8874 33.9429 35.6194 38.4241 36.3395 39.4432C37.3147 40.8234 38.852 42.9992 40.2202 45.449C40.5036 45.9565 40.6805 47.4294 40.8792 49.085C41.0336 50.3708 41.2012 51.7669 41.4423 52.9066C41.4853 53.1097 41.9372 53.1207 42.4608 53.1335C43.1284 53.1497 43.9126 53.1688 44.1154 53.5924L40.5195 54.216L38.5386 46.3507C38.5386 46.3507 35.1891 43.5089 33.9295 41.9144C32.6662 40.3153 33.6723 37.5858 34.5165 35.2958C35.0259 33.9137 35.272 30.3457 36.6683 29.7679C37.3618 29.481 37.3031 29.1092 37.4166 28.5691C37.6917 27.26 38.3007 26.4128 39.0132 26.1929Z" fill="#8F0C2C"/>
<path d="M32.4696 39.7536C31.641 41.3265 29.8825 46.1395 29.8825 46.1395L23.236 50.486C23.3619 51.2686 23.7983 54.501 23.7983 54.501C24.7819 54.0885 24.3301 51.3508 24.7984 51.0632C26.813 49.8259 29.5602 49.0014 30.8927 47.891C32.9049 46.2142 33.8177 44.4689 35.1111 41.9532C36.2627 39.369 35.9245 38.5317 35.9245 38.5317L32.4696 39.7536Z" fill="#8F0C2C"/>
<path d="M36.5408 39.3261C36.5408 39.3261 39.2563 35.0919 40.6993 33.0447C40.8538 33.1852 41.2305 33.4977 41.2305 33.4977C41.531 33.1471 41.9992 32.6229 42.3998 32.2445C41.0254 30.5141 40.6503 30.1363 39.2288 29.5959C39.2288 29.5959 38.8954 30.0388 38.3522 30.1363C37.8089 30.2338 37.2103 29.9658 37.0277 29.5444C36.8173 29.6501 36.6184 29.7432 36.4295 29.8317C35.4514 30.2896 34.7393 30.6231 34.0843 31.9175C34.3239 32.1483 34.7725 32.9456 35.0729 33.2212C34.4313 34.5806 33.4823 36.4833 32.7907 38.2567C31.983 40.3275 31.3922 42.0023 31.1339 42.8608C32.2018 43.6172 33.1482 44.1685 33.7401 44.4951C33.7401 44.4951 34.4191 43.3957 34.7231 42.9365L35.7776 43.8302C36.5124 43.4731 37.2719 42.6738 38.1486 42.0878C37.367 40.8776 36.5408 39.3261 36.5408 39.3261Z" fill="#ED4F2F"/>
<path d="M34.3229 31.5239L35.3622 33.2373L34.274 34.3606L39.3773 36.8331C39.1634 37.0814 38.1979 37.3193 37.2255 36.6711C36.5051 36.1908 32.1755 35.8743 32.2404 35.0022C32.361 34.1208 33.9661 31.9776 34.3229 31.5239Z" fill="#8F0C2C"/>
<path fill-rule="evenodd" clip-rule="evenodd" d="M49.9483 27.6202C50.1637 26.9874 50.6181 26.3433 51.3121 25.8725C52.6041 24.9959 54.1633 25.0395 54.7945 25.9699C55.4258 26.9003 54.89 28.3652 53.5979 29.2418C52.9616 29.6735 52.2605 29.882 51.6374 29.8714C50.6741 29.894 49.2339 30.2109 48.4642 30.7485C48.0774 31.0279 47.6951 31.3184 47.3166 31.6059C46.9828 31.8594 46.652 32.1107 46.3238 32.3501C46.3133 32.3592 46.3032 32.3632 46.2934 32.3621C46.2845 32.3611 46.2758 32.3558 46.2675 32.3462L45.9663 31.9197C45.9488 31.8996 45.9501 31.8808 45.9702 31.8633C46.3425 31.5918 46.7236 31.3288 47.1078 31.0637C47.4547 30.8244 47.8041 30.5833 48.1516 30.3326C49.3229 29.488 49.7329 28.253 49.9483 27.6202ZM51.5355 26.202C50.4328 26.9501 49.9507 28.1633 50.4585 28.9118C50.9663 29.6603 52.2718 29.6606 53.3745 28.9126C54.4771 28.1645 54.9593 26.9513 54.4515 26.2028C53.9436 25.4543 52.6381 25.4539 51.5355 26.202Z" fill="#ED4F2F"/>
<path d="M48.0903 31.3694C48.1069 31.0208 48.0069 30.7545 47.7709 30.8253C47.3452 30.9529 47.0717 31.0734 46.8962 31.3435C46.7425 31.58 46.8146 32.0047 46.9512 32.0989C47.3347 32.3632 48.0647 31.7852 48.0903 31.3694Z" fill="#8F0C2C"/>
<path d="M15.5343 28.7271C14.1796 28.3851 12.9485 29.497 13.3534 30.874C13.9831 33.0156 16.004 33.6974 16.004 33.6974C16.004 33.6974 14.6347 30.2482 15.9645 29.7619C16.508 29.5631 16.8891 29.0691 15.5343 28.7271Z" fill="#550832"/>
<path d="M19.7401 28.9045C18.0729 27.6168 16.0196 28.2624 15.8749 29.917C15.7622 31.2061 16.7609 32.0659 17.5454 32.8568C17.8081 32.1256 19.7401 28.9045 19.7401 28.9045Z" fill="#550832"/>
<path fill-rule="evenodd" clip-rule="evenodd" d="M10.2255 54.9616C9.17593 54.6492 7.83984 54.7638 6.59061 55.3083C4.31312 56.3011 3.08412 58.4568 3.84555 60.1231C4.60699 61.7894 7.07052 62.3355 9.34801 61.3427C10.5534 60.8173 11.2708 60.1286 12.0197 58.9975C12.8299 57.7739 14.2704 56.2673 15.6719 55.6795C16.3769 55.3972 17.0936 55.1304 17.803 54.8663C18.4288 54.6334 19.049 54.4025 19.6507 54.1649C19.6914 54.1529 19.7052 54.1262 19.6919 54.085L19.3526 53.3051C19.3394 53.2639 19.3124 53.2493 19.2717 53.2613C18.5891 53.5309 17.9112 53.82 17.2278 54.1113C16.6109 54.3744 15.9896 54.6393 15.3566 54.8934C12.6684 55.9726 10.7271 55.0513 10.2255 54.9616ZM6.86026 55.8983C8.8038 55.0511 10.8759 55.4511 11.4885 56.7916C12.1011 58.1322 11.0221 59.9057 9.07856 60.7529C7.13502 61.6001 5.06289 61.2002 4.45033 59.8596C3.83776 58.5191 4.91672 56.7455 6.86026 55.8983Z" fill="#550832"/>
<path d="M16.2791 55.0636C16.4499 55.7255 16.6848 55.4052 17.005 55.512C17.3253 55.6187 17.3253 55.4052 17.5815 55.4693C17.8591 55.5333 17.8591 55.2985 18.0512 55.2985C18.222 55.3198 18.2647 54.4658 18.2007 54.1669C18.1366 53.868 17.8591 53.932 17.7737 53.9961C17.6883 54.0601 17.5815 53.7826 17.3467 53.932C17.1118 54.0815 17.0264 53.8253 16.7702 53.9961C16.5353 54.1455 16.4286 54.1455 16.3432 54.4017C16.2578 54.6579 16.2578 54.9355 16.2791 55.0636Z" fill="#8F0C2C"/>
<path d="M20.1665 33.3328C21.1506 32.1402 20.971 29.9649 19.7373 28.9092C17.9649 29.5789 17.5111 31.7195 17.5483 32.9554C17.5797 33.9974 17.6615 34.2579 16.6367 35.5602C15.6118 36.8413 15.2769 37.5771 15.2769 37.5771C15.2769 37.5771 17.1966 46.993 16.6842 48.6369C16.0482 52.0883 14.6951 59.8521 14.6951 59.8521C14.6951 59.8521 10.9176 70.9404 9.92624 73.1775C9.25153 74.4224 7.22994 76.1374 9.13863 76.1374C10.2955 76.1374 11.0061 74.9452 11.3551 73.5343C11.704 72.1234 17.7057 62.8715 18.7129 60.3441C19.5178 58.3242 20.445 56.8323 20.9625 54.3912C21.9076 55.5434 25.5323 59.8521 25.5323 59.8521C25.5323 59.8521 25.5657 72.5117 25.3229 74.4316L30.2716 74.8044C30.0951 73.3479 27.0826 73.2911 27.0826 72.5545C27.0826 71.3491 28.6561 60.0087 28.3624 58.4112C27.7468 55.0623 23.1646 47.529 23.1646 47.529C23.1112 44.7701 23.1657 39.664 22.9245 37.2273C23.7336 37.2916 26.3997 38.0023 28.1626 38.7612C30.2176 39.6458 32.4151 40.7019 32.721 41.2112C33.4829 42.4794 35.5323 43.0449 35.8084 42.6005C35.8084 42.6005 32.0925 39.24 30.3735 38.0974C27.2416 36.0155 26.201 35.4051 23.3663 34.5709C22.0626 34.1873 19.9939 34.1742 19.9939 34.1742L19.5121 33.5713C19.5121 33.5713 20.0193 33.5112 20.1665 33.3328Z" fill="#8F0C2C"/>
<path d="M20.7662 34.1865C20.8302 34.4451 20.5848 35.9179 20.1004 36.3603C18.9262 37.4809 17.2504 36.2404 16.9216 35.1886C14.9248 37.6128 14.0613 38.5056 14.8386 42.8042C14.8386 42.8042 17.249 46.8268 16.8335 48.0734C16.1822 50.6285 15.8208 53.1906 15.4019 55.7954C20.712 57.1229 22.0076 55.3193 26.9246 53.249C26.2966 51.8376 24.0769 48.5176 23.267 46.9915C23.1295 45.2579 23.204 39.5 23.0665 37.2734L24.3217 37.5012C24.5075 36.6975 24.7903 35.9522 25.0439 35.1068C23.0407 34.4104 22.454 34.2975 20.7662 34.1865Z" fill="#550832"/>
<path d="M14.8599 42.7936C15.218 44.266 17.0813 51.8051 16.693 52.9794C16.5179 53.5088 15.985 54.6167 15.8782 55.2785C16.8108 55.2785 16.2478 54.2096 17.2382 54.1601C17.6652 54.1174 18.099 53.8817 18.2485 53.7322C18.3979 53.5828 18.0957 52.0198 18.0957 50.9238C18.0957 47.4974 17.2575 42.7936 17.2575 42.7936C16.2865 42.436 14.8599 42.7936 14.8599 42.7936Z" fill="#8F0C2C"/>
<path d="M18.0397 55.0858C18.2744 54.7237 18.3248 54.402 18.0111 54.3821C17.4453 54.3462 17.058 54.364 16.6902 54.5792C16.368 54.7678 16.1877 55.246 16.2857 55.4005C16.5607 55.834 17.7532 55.5155 18.0397 55.0858Z" fill="#8F0C2C"/>
<path d="M61.2565 38.341C62.5193 37.555 63.9957 38.7295 63.7392 40.052C63.3577 42.018 62.087 43.1804 62.087 43.1804C62.087 43.1804 62.4929 39.8403 61.2836 39.2891C60.7894 39.0638 59.9937 39.1269 61.2565 38.341Z" fill="#550832"/>
<path d="M67.4714 56.5906L75.2489 67.6271L84.0796 75.7147C84.9099 76.7525 87.1092 78.1811 85.346 78.4985C84.2773 78.6909 83.4927 77.5777 82.9358 76.3324C82.9358 76.3324 75.5866 71.8185 72.1349 68.8661C68.8972 66.0968 65.2087 62.0277 65.2087 62.0277L57.7486 66.4347L52.7144 79.5002L48.6142 79.5002C48.8358 78.3267 51.3293 78.4883 51.7409 77.9327C52.5427 76.8507 53.8226 67.2926 54.9678 65.1852C56.5021 62.3617 61.3084 57.7456 61.3084 57.7456L67.4714 56.5906Z" fill="#ED4F2F"/>
<path d="M56.8342 38.5551C58.0107 36.8553 60.7849 37.0893 61.2414 38.8955C61.597 40.3027 60.5853 41.5873 59.8661 42.6065C59.4461 41.8446 56.8342 38.5551 56.8342 38.5551Z" fill="#550832"/>
<path fill-rule="evenodd" clip-rule="evenodd" d="M36.6665 52.8026C35.862 52.003 34.5868 51.4524 33.18 51.3368C30.6152 51.1259 28.4369 52.4901 28.3146 54.3839C28.1923 56.2776 30.1723 57.9838 32.7371 58.1946C34.0945 58.3062 35.0868 58.0296 36.3247 57.3648C37.6639 56.6456 39.7169 55.9773 41.2839 56.1282C42.0656 56.2163 42.8503 56.3243 43.6271 56.4312C44.3123 56.5255 44.9914 56.6189 45.6568 56.6971C45.6999 56.7061 45.7255 56.6885 45.7337 56.6444L45.8065 55.7665C45.8146 55.7224 45.7972 55.6958 45.7541 55.6869C44.9991 55.5981 44.2388 55.5295 43.4725 55.4603C42.7806 55.3978 42.0839 55.3348 41.3817 55.2563C38.3998 54.9229 37.0802 53.1304 36.6665 52.8026ZM33.1367 52.0073C35.3254 52.1873 37.02 53.5682 36.9216 55.0917C36.8232 56.6152 34.9691 57.7044 32.7804 57.5244C30.5917 57.3444 28.8972 55.9635 28.9955 54.44C29.0939 52.9165 30.948 51.8273 33.1367 52.0073Z" fill="#550832"/>
<path d="M43.2176 56.4953C43.4819 56.2251 43.5811 55.9576 43.3152 55.8861C42.8357 55.7571 42.5001 55.7051 42.147 55.826C41.8376 55.9319 41.5998 56.3112 41.6571 56.4608C41.8178 56.8807 42.8969 56.8144 43.2176 56.4953Z" fill="#ED4F2F"/>
<path d="M56.8597 38.5229C56.4151 39.0817 55.5224 41.7593 56.8597 42.8564C57.2905 43.2099 57.9694 43.0467 57.9694 43.0467C58.311 43.9007 56.9151 44.528 56.0318 45.0682L57.9694 48.1976L61.7542 46.9319L63.4234 44.4372C62.2565 44.1237 61.4805 43.8946 60.2804 43.747C59.3664 41.0752 58.7961 39.2783 56.8597 38.5229Z" fill="#ED4F2F"/>
<path d="M55.5786 49.921L53.4125 47.1814C52.3467 48.1802 49.319 50.8143 48.5514 51.1964C46.7493 52.0935 44.3654 53.4686 42.5895 54.4661C41.5995 55.0222 41.2726 55.5997 40.943 56.6123C41.3119 56.7857 41.7958 56.2421 41.845 55.9315C41.9338 55.3707 42.4588 55.4958 42.7958 55.5761C42.8343 55.5852 42.8703 55.5938 42.903 55.6007C43.1488 55.6528 43.4768 55.5325 43.6807 55.2795C45.8962 54.3821 47.4818 54.0934 49.8997 53.0541C50.7087 52.7648 55.1416 49.9983 55.5786 49.921Z" fill="#ED4F2F"/>
<path d="M64.1271 47.6103L65.5413 48.3193C65.8336 47.802 66.4489 47.0232 66.902 46.1642C64.8796 44.8014 63.4909 44.3067 61.0085 43.8467C60.8003 45.5288 57.3801 46.5277 56.3062 44.9051C54.5811 45.8784 53.4254 47.1314 52.1271 48.31C52.3525 48.7272 53.5949 50.0412 54.1719 50.6784C54.1719 50.6784 56.0611 49.6026 56.3964 49.602C57.5296 50.7759 59.6758 54.4675 61.3094 57.5136C60.6267 58.1686 58.9061 60.2075 58.9061 60.2075C63.2788 64.1368 66.3785 64.3372 70.9745 60.4956C69.7039 58.6848 66.902 55.2631 66.902 55.2631C66.902 55.2631 64.5881 49.1404 64.1271 47.6103Z" fill="#550832"/>
<path d="M65.5295 48.3078C66.3937 48.9459 68.6122 50.4927 68.6122 50.4927C68.6122 50.4927 69.1426 56.899 68.8875 57.433C68.2316 58.806 68.7219 61.1388 69.3976 61.2357C69.4312 61.0012 69.4951 60.6201 69.5761 60.1364C70.0182 57.4978 70.7677 50.8152 70.2245 49.8063C69.5341 48.5242 68.0178 47.0448 66.8708 46.1503L65.5295 48.3078Z" fill="#ED4F2F"/>
<ellipse cx="43.972" cy="40.8948" rx="2.56129" ry="2.56129" fill="url(#paint2_radial_2137_223689)"/>
<path d="M42.738 42.0718C43.6066 42.9878 44.8453 42.2786 45.1673 41.5115C45.4164 40.9178 45.8139 40.3685 46.5233 41.0765C46.5244 41.0627 46.5255 41.0506 46.5265 41.0396C46.5309 40.9915 46.5333 40.9638 46.5333 40.9021C45.7226 40.0839 45.2541 40.8925 45.0306 41.2782C44.6044 42.0137 43.6358 42.4378 43.028 41.7967C42.4203 41.1557 42.8974 40.2101 43.652 39.8247C44.049 39.6219 44.8813 39.1968 44.1072 38.3439C44.0456 38.3407 44.0178 38.3417 43.9695 38.3435C43.9585 38.3439 43.9464 38.3443 43.9325 38.3448C44.6011 39.0914 44.0524 39.4142 43.4367 39.6763C42.5456 40.0555 41.8956 41.1835 42.738 42.0718Z" fill="#9B1D3B"/>
<g opacity="0.8">
<g filter="url(#filter1_f_2137_223689)">
<path d="M-7.32166 18.9224C-7.32166 26.2231 -13.2401 32.1416 -20.5409 32.1416C-27.8417 32.1416 -33.7601 26.2231 -33.7601 18.9224C-33.7601 11.6216 -27.8417 5.70312 -20.5409 5.70312C-13.2401 5.70312 -7.32166 11.6216 -7.32166 18.9224Z" fill="url(#paint3_linear_2137_223689)"/>
</g>
</g>
<g opacity="0.7" filter="url(#filter2_f_2137_223689)">
<g filter="url(#filter3_f_2137_223689)">
<path d="M2.58464 21.0714C2.58464 27.6234 -2.72679 32.9348 -9.27877 32.9348C-15.8308 32.9348 -21.1422 27.6234 -21.1422 21.0714C-21.1422 14.5194 -15.8308 9.20801 -9.27877 9.20801C-2.72679 9.20801 2.58464 14.5194 2.58464 21.0714Z" fill="url(#paint4_linear_2137_223689)"/>
</g>
<circle cx="-8.47073" cy="22.6876" r="11.8634" fill="url(#paint5_radial_2137_223689)"/>
</g>
<path d="M48.0206 15.513C47.6879 16.5003 46.4177 16.9628 45.1847 16.5474C43.9517 16.1319 43.2204 14.995 43.5531 14.0077C43.8857 13.0204 45.1559 12.5579 46.3889 12.9734C47.622 13.3888 48.3532 14.5257 48.0206 15.513Z" fill="#ED4F2F"/>
<path fill-rule="evenodd" clip-rule="evenodd" d="M51.0312 6.57792L48.0205 15.5129L47.127 15.2119L50.1377 6.27686L51.0312 6.57792Z" fill="#ED4F2F"/>
<path d="M50.1919 6.11607C50.2616 5.90963 50.4006 5.7337 50.5853 5.6182C50.7701 5.50269 50.9892 5.45474 51.2053 5.4825L54.0664 5.84958C54.2047 5.86734 54.3374 5.91556 54.4548 5.99076C54.5722 6.06596 54.6715 6.16626 54.7455 6.28445C54.8195 6.40264 54.8663 6.53577 54.8827 6.67425C54.899 6.81273 54.8844 6.95311 54.84 7.08528L54.3041 8.67571L49.5355 8.0639L50.1919 6.11607Z" fill="#ED4F2F"/>
<path d="M16.6815 16.8337C16.8641 17.617 16.218 18.4366 15.2397 18.6646C14.2614 18.8927 13.3195 18.4432 13.1369 17.6599C12.9545 16.8772 13.6004 16.057 14.5788 15.829C15.5571 15.6009 16.4991 16.051 16.6815 16.8337ZM22.7313 13.9287C22.9139 14.7121 22.2678 15.5316 21.2895 15.7596C20.3112 15.9877 19.3693 15.5382 19.1867 14.7549C19.0041 13.9715 19.6502 13.152 20.6285 12.924C21.6068 12.6959 22.5487 13.1453 22.7313 13.9287Z" fill="#F79049"/>
<path fill-rule="evenodd" clip-rule="evenodd" d="M22.0224 14.0943L20.5352 7.71402L21.2441 7.54878L22.7313 13.929L22.0224 14.0943ZM15.0291 9.74485L16.6815 16.834L15.9726 16.9993L14.3202 9.91009L15.0291 9.74485Z" fill="#F79049"/>
<path d="M14.3045 9.84247C14.2635 9.66672 14.2893 9.48203 14.3768 9.32421C14.4643 9.16639 14.6074 9.04671 14.7781 8.98838L20.3173 7.09933C20.4135 7.06644 20.5156 7.0541 20.617 7.0631C20.7183 7.0721 20.8166 7.10224 20.9056 7.15158C20.9946 7.20091 21.0722 7.26835 21.1335 7.34954C21.1948 7.43072 21.2384 7.52386 21.2615 7.62294L21.4094 8.25742L14.4855 10.6187L14.3045 9.84247Z" fill="#F79049"/>
<path d="M70.8924 17.9978C70.6827 18.5598 69.9432 18.8025 69.2414 18.5406C68.5395 18.2788 68.1397 17.611 68.3494 17.049C68.5589 16.4876 69.2985 16.2444 70.0004 16.5062C70.7023 16.7681 71.1019 17.4364 70.8924 17.9978ZM75.8493 18.6885C75.6396 19.2505 74.9001 19.4932 74.1983 19.2313C73.4964 18.9694 73.0966 18.3017 73.3063 17.7397C73.516 17.1777 74.2555 16.935 74.9573 17.1969C75.6592 17.4588 76.059 18.1265 75.8493 18.6885Z" fill="#F79049"/>
<path fill-rule="evenodd" clip-rule="evenodd" d="M75.3407 18.4991L77.0486 13.9217L77.5572 14.1115L75.8493 18.6889L75.3407 18.4991ZM72.79 12.9122L70.8924 17.9982L70.3838 17.8085L72.2814 12.7225L72.79 12.9122Z" fill="#F79049"/>
<path d="M72.2994 12.6738C72.3465 12.5477 72.4387 12.4436 72.5581 12.3816C72.6776 12.3197 72.8158 12.3043 72.946 12.3385L77.1666 13.4497C77.2399 13.469 77.3085 13.5034 77.3677 13.5508C77.427 13.5982 77.4756 13.6575 77.5105 13.7249C77.5455 13.7922 77.5659 13.8661 77.5705 13.9419C77.5751 14.0176 77.5637 14.0934 77.5372 14.1645L77.3674 14.6197L72.0916 13.2307L72.2994 12.6738Z" fill="#F79049"/>
</g>
</g>
<defs>
<filter id="filter1_f_2137_223689" x="-60.0673" y="-20.6041" width="79.0528" height="79.0528" filterUnits="userSpaceOnUse" color-interpolation-filters="sRGB">
<feFlood flood-opacity="0" result="BackgroundImageFix"/>
<feBlend mode="normal" in="SourceGraphic" in2="BackgroundImageFix" result="shape"/>
<feGaussianBlur stdDeviation="13.1536" result="effect1_foregroundBlur_2137_223689"/>
</filter>
<filter id="filter2_f_2137_223689" x="-25.1422" y="5.20801" width="32.5349" height="33.3433" filterUnits="userSpaceOnUse" color-interpolation-filters="sRGB">
<feFlood flood-opacity="0" result="BackgroundImageFix"/>
<feBlend mode="normal" in="SourceGraphic" in2="BackgroundImageFix" result="shape"/>
<feGaussianBlur stdDeviation="2" result="effect1_foregroundBlur_2137_223689"/>
</filter>
<filter id="filter3_f_2137_223689" x="-47.4494" y="-17.0992" width="76.3412" height="76.3414" filterUnits="userSpaceOnUse" color-interpolation-filters="sRGB">
<feFlood flood-opacity="0" result="BackgroundImageFix"/>
<feBlend mode="normal" in="SourceGraphic" in2="BackgroundImageFix" result="shape"/>
<feGaussianBlur stdDeviation="13.1536" result="effect1_foregroundBlur_2137_223689"/>
</filter>
<linearGradient id="paint0_linear_2137_223689" x1="78.6323" y1="20.2572" x2="46.4516" y2="112.885" gradientUnits="userSpaceOnUse">
<stop stop-color="#ED4F2F"/>
<stop offset="0.23244" stop-color="#FF9345" stop-opacity="0.19"/>
<stop offset="0.547809" stop-color="#FF9345"/>
<stop offset="1" stop-color="#ED4F2F"/>
</linearGradient>
<radialGradient id="paint1_radial_2137_223689" cx="0" cy="0" r="1" gradientUnits="userSpaceOnUse" gradientTransform="translate(3.28068 2.08254) rotate(-168.833) scale(3.95094 2.65026)">
<stop stop-color="#FF702E"/>
<stop offset="1" stop-color="#9B1D3B"/>
</radialGradient>
<radialGradient id="paint2_radial_2137_223689" cx="0" cy="0" r="1" gradientUnits="userSpaceOnUse" gradientTransform="translate(45.1342 40.0852) rotate(159.222) scale(4.13836 2.77598)">
<stop stop-color="#FF702E"/>
<stop offset="1" stop-color="#9B1D3B"/>
</radialGradient>
<linearGradient id="paint3_linear_2137_223689" x1="-12.2922" y1="18.4119" x2="-47.7629" y2="-1.47326" gradientUnits="userSpaceOnUse">
<stop stop-color="#E11313" stop-opacity="0.51"/>
<stop offset="1" stop-color="#FAF7F8" stop-opacity="0.15"/>
</linearGradient>
<linearGradient id="paint4_linear_2137_223689" x1="-1.87606" y1="20.6133" x2="-33.7088" y2="2.76767" gradientUnits="userSpaceOnUse">
<stop stop-color="#E11313" stop-opacity="0.51"/>
<stop offset="1" stop-color="#5C0A27"/>
</linearGradient>
<radialGradient id="paint5_radial_2137_223689" cx="0" cy="0" r="1" gradientUnits="userSpaceOnUse" gradientTransform="translate(1.65331 27.9087) rotate(-151.29) scale(21.3078 20.6711)">
<stop stop-color="#FF8D24"/>
<stop offset="1" stop-color="#B33A14" stop-opacity="0"/>
</radialGradient>
<clipPath id="clip0_2137_223689">
<rect width="88" height="88" fill="white"/>
</clipPath>
<clipPath id="clip1_2137_223689">
<rect width="205.543" height="88" fill="white" transform="translate(-41)"/>
</clipPath>
</defs>
</svg>
