<svg viewBox="0 0 327 140" fill="none" xmlns="http://www.w3.org/2000/svg">
<g clip-path="url(#clip0_2120_201898)">
<rect width="327" height="140" fill="#FFC15D"/>
<rect y="63" width="327" height="77" fill="url(#paint0_linear_2120_201898)"/>
<path d="M-46 103H37C37.5523 103 38 103.448 38 104C38 104.552 37.5523 105 37 105H-47L-46 103Z" fill="#FFC15D"/>
<circle r="3.37556" transform="matrix(-0.636921 -0.770929 -0.770929 0.636921 159.43 31.9851)" fill="url(#paint1_radial_2120_201898)"/>
<path d="M159.27 34.227C157.61 34.1133 157.291 32.2595 157.8 31.2885C158.194 30.5371 158.418 29.6721 157.103 29.5456C157.117 29.5328 157.128 29.5216 157.138 29.5113C157.184 29.4665 157.21 29.4408 157.272 29.389C158.784 29.5259 158.356 30.6807 158.152 31.2315C157.762 32.282 158.144 33.6221 159.306 33.7015C160.467 33.7808 161.027 32.5023 160.786 31.412C160.658 30.8385 160.392 29.6361 161.908 29.7067C161.963 29.7665 161.985 29.7956 162.024 29.8461C162.033 29.8577 162.043 29.8704 162.054 29.8849C160.734 29.8322 160.866 30.6607 161.117 31.5063C161.48 32.7299 160.879 34.3372 159.27 34.227Z" fill="#9B1D3B"/>
<circle r="2.33708" transform="matrix(-0.636921 -0.770929 -0.770929 0.636921 281.855 33.9783)" fill="url(#paint2_radial_2120_201898)"/>
<path d="M281.745 35.5306C280.595 35.4519 280.374 34.1684 280.727 33.4962C281 32.9759 281.155 32.377 280.245 32.2895C280.254 32.2806 280.262 32.2728 280.269 32.2657C280.3 32.2347 280.318 32.2169 280.362 32.181C281.408 32.2758 281.112 33.0753 280.97 33.4567C280.701 34.184 280.965 35.1118 281.77 35.1668C282.574 35.2217 282.961 34.3365 282.794 33.5817C282.706 33.1846 282.521 32.3521 283.571 32.401C283.609 32.4424 283.625 32.4625 283.651 32.4975C283.658 32.5055 283.664 32.5143 283.672 32.5243C282.758 32.4879 282.85 33.0615 283.024 33.647C283.275 34.4941 282.859 35.6069 281.745 35.5306Z" fill="#9B1D3B"/>
<circle r="3.37556" transform="matrix(-1 0 0 1 24.9594 120.786)" fill="url(#paint3_linear_2120_201898)"/>
<path d="M26.5857 122.337C25.4409 123.544 23.8084 122.61 23.3841 121.599C23.0558 120.816 22.5319 120.092 21.597 121.025C21.5955 121.007 21.594 120.991 21.5927 120.977C21.587 120.913 21.5837 120.877 21.5837 120.796C22.6522 119.717 23.2697 120.783 23.5642 121.291C24.126 122.261 25.4025 122.82 26.2035 121.975C27.0044 121.13 26.3756 119.884 25.381 119.376C24.8579 119.108 23.761 118.548 24.7812 117.424C24.8624 117.42 24.899 117.421 24.9626 117.424C24.9772 117.424 24.9932 117.425 25.0114 117.425C24.1302 118.409 24.8534 118.835 25.6649 119.18C26.8392 119.68 27.6958 121.167 26.5857 122.337Z" fill="#9B1D3B"/>
<circle r="3.37556" transform="matrix(-0.636921 -0.770929 -0.770929 0.636921 11.1358 117.411)" fill="url(#paint4_radial_2120_201898)"/>
<path d="M10.9759 119.653C9.31608 119.539 8.99682 117.685 9.50597 116.714C9.90002 115.963 10.1245 115.098 8.80972 114.971C8.82276 114.959 8.83413 114.947 8.8445 114.937C8.88974 114.892 8.91576 114.867 8.97841 114.815C10.4902 114.952 10.062 116.106 9.85776 116.657C9.46823 117.708 9.8504 119.048 11.0119 119.127C12.1733 119.207 12.7336 117.928 12.4917 116.838C12.3645 116.264 12.0978 115.062 13.6142 115.132C13.6692 115.192 13.6914 115.221 13.7301 115.272C13.739 115.283 13.7487 115.296 13.7599 115.311C12.4401 115.258 12.5727 116.086 12.8233 116.932C13.1859 118.156 12.5854 119.763 10.9759 119.653Z" fill="#9B1D3B"/>
<circle r="3.37556" transform="matrix(-1 0 0 1 15.5108 120.786)" fill="url(#paint5_linear_2120_201898)"/>
<path d="M17.1371 122.337C15.9923 123.544 14.3598 122.61 13.9355 121.599C13.6072 120.816 13.0833 120.092 12.1484 121.025C12.1469 121.007 12.1455 120.991 12.1441 120.977C12.1384 120.913 12.1351 120.877 12.1351 120.796C13.2036 119.717 13.8211 120.783 14.1156 121.291C14.6774 122.261 15.9539 122.82 16.7549 121.975C17.5558 121.13 16.927 119.884 15.9325 119.376C15.4093 119.108 14.3124 118.548 15.3327 117.424C15.4138 117.42 15.4504 117.421 15.514 117.424C15.5286 117.424 15.5446 117.425 15.5628 117.425C14.6816 118.409 15.4048 118.835 16.2163 119.18C17.3906 119.68 18.2472 121.167 17.1371 122.337Z" fill="#9B1D3B"/>
<circle r="3.37556" transform="matrix(-0.374902 0.927064 0.927064 0.374902 20.9133 112.791)" fill="url(#paint6_radial_2120_201898)"/>
<path d="M22.9608 111.866C23.6508 113.379 22.1723 114.542 21.0761 114.557C20.2276 114.568 19.36 114.782 19.8746 115.999C19.8571 115.993 19.8418 115.989 19.8278 115.984C19.7669 115.966 19.7319 115.955 19.6565 115.925C19.0574 114.53 20.2769 114.357 20.8585 114.275C21.9677 114.117 22.9645 113.143 22.4815 112.084C21.9986 111.025 20.6075 111.14 19.7637 111.872C19.3199 112.257 18.3893 113.064 17.7297 111.696C17.7561 111.62 17.7711 111.586 17.7971 111.528C17.8031 111.515 17.8096 111.5 17.817 111.484C18.3988 112.669 19.0644 112.158 19.6888 111.536C20.5924 110.634 22.2918 110.397 22.9608 111.866Z" fill="#9B1D3B"/>
<circle r="3.37556" transform="matrix(0.642146 0.766582 0.766582 -0.642146 35.2612 120.786)" fill="url(#paint7_radial_2120_201898)"/>
<path d="M35.4058 118.543C37.0664 118.645 37.3982 120.497 36.8957 121.471C36.5067 122.225 36.2882 123.092 37.6038 123.209C37.5908 123.222 37.5795 123.234 37.5692 123.244C37.5243 123.289 37.4984 123.315 37.4361 123.367C35.9234 123.241 36.3438 122.083 36.5443 121.531C36.9267 120.478 36.5354 119.14 35.3733 119.069C34.2115 118.997 33.6599 120.28 33.9092 121.368C34.0403 121.941 34.3152 123.141 32.7983 123.081C32.7429 123.022 32.7205 122.993 32.6814 122.942C32.6725 122.931 32.6627 122.918 32.6514 122.904C33.9715 122.948 33.8333 122.12 33.577 121.276C33.206 120.055 33.7956 118.444 35.4058 118.543Z" fill="#9B1D3B"/>
<circle r="3.37556" transform="matrix(-1 0 0 1 29.3853 114.669)" fill="url(#paint8_linear_2120_201898)"/>
<path d="M31.0116 116.22C29.8668 117.427 28.2343 116.492 27.81 115.481C27.4817 114.699 26.9578 113.975 26.0229 114.908C26.0214 114.89 26.0199 114.874 26.0186 114.859C26.0129 114.796 26.0096 114.759 26.0096 114.678C27.0781 113.6 27.6956 114.665 27.9901 115.174C28.5518 116.143 29.8284 116.702 30.6294 115.857C31.4303 115.012 30.8015 113.766 29.8069 113.258C29.2838 112.991 28.1869 112.431 29.2071 111.307C29.2883 111.302 29.3249 111.304 29.3885 111.306C29.4031 111.306 29.419 111.307 29.4373 111.308C28.5561 112.292 29.2793 112.717 30.0908 113.062C31.2651 113.562 32.1217 115.049 31.0116 116.22Z" fill="#9B1D3B"/>
<circle r="3.37556" transform="matrix(-1 0 0 1 1.3591 121.75)" fill="url(#paint9_linear_2120_201898)"/>
<path d="M2.98538 123.301C1.84059 124.508 0.208071 123.574 -0.216182 122.563C-0.544531 121.78 -1.06839 121.056 -2.00328 121.989C-2.00483 121.971 -2.00627 121.955 -2.00757 121.941C-2.01329 121.877 -2.01657 121.841 -2.01657 121.76C-0.948124 120.681 -0.330607 121.747 -0.0360696 122.255C0.525656 123.225 1.80221 123.783 2.60322 122.939C3.40411 122.094 2.77531 120.848 1.78073 120.34C1.25757 120.072 0.160722 119.512 1.18094 118.388C1.26209 118.384 1.29868 118.385 1.3623 118.387C1.37687 118.388 1.39286 118.389 1.41112 118.389C0.529919 119.373 1.25309 119.799 2.06459 120.144C3.23888 120.644 4.09552 122.13 2.98538 123.301Z" fill="#9B1D3B"/>
<path d="M267.5 101H350C350.552 101 351 101.448 351 102C351 102.552 350.552 103 350 103H266.5L267.5 101Z" fill="#FFC15D"/>
<path d="M-41.6411 103H41.3589C41.9112 103 42.3589 103.448 42.3589 104C42.3589 104.552 41.9112 105 41.3589 105H-42.6411L-41.6411 103Z" fill="#FFC15D"/>
<path fill-rule="evenodd" clip-rule="evenodd" d="M48.3589 78.6126V125.961L94.7994 81.3716V65.5129L48.3589 78.6126ZM97.492 82.9453C97.6884 82.7567 97.7994 82.4962 97.7994 82.224V62.8707C97.7994 62.2077 97.166 61.7283 96.5279 61.9083L46.0874 76.1362C45.6565 76.2578 45.3589 76.6509 45.3589 77.0987V130.654C45.3589 131.535 46.4158 131.985 47.0514 131.375L97.492 82.9453Z" fill="#FFC15D"/>
<path d="M95.2039 64.4424L47.9961 78.0048V127.284L95.2039 82.6324V64.4424ZM94.2418 78.6074L92.4187 80.0856V77.4305L94.2418 76.1877V78.6074ZM67.5642 87.354L71.4701 85.198V90.5881L67.5642 93.2526V87.354ZM66.6021 93.9117L62.0613 97.0092V90.3763L66.6021 87.8719V93.9117ZM72.4322 84.666L76.2467 82.557V87.3164L72.4466 89.9055L72.4322 84.666ZM77.2087 82.0251L80.523 80.1939V84.4307L77.2087 86.695V82.0251ZM81.4851 79.6713L84.6646 77.9154V81.5873L81.4851 83.7575V79.6713ZM85.6267 77.3834L88.1953 75.9712V79.177L85.6267 80.9329V77.3834ZM89.1574 75.4345L91.4567 74.1635V76.9503L89.1574 78.518V75.4345ZM89.1574 74.3518V71.2683L91.4567 70.3033V73.0807L89.1574 74.3518ZM88.1953 74.8837L85.6267 76.296V72.7512L88.1953 71.6685V74.8837ZM84.6646 76.8327L81.4851 78.5886V74.4977L84.6646 73.1608V76.8327ZM80.523 79.1205L77.2087 80.9518V76.296L80.523 74.8837V79.1205ZM76.2467 81.4743L72.4322 83.5833V78.2873L76.2467 76.682V81.4743ZM71.4701 84.1152L67.5642 86.2713V80.3351L71.4701 78.6921V84.1152ZM66.6021 86.8033L62.0613 89.3124V82.6465L66.6021 80.7399V86.8033ZM61.0992 89.8443L56.0436 92.6359V85.198L61.0992 83.0702V89.8443ZM61.0992 90.9224V97.6683L56.0436 101.124V93.7092L61.0992 90.9224ZM61.0992 98.8169V105.516L56.0436 109.621V102.263L61.0992 98.8169ZM62.0613 98.1579L66.6021 95.0603V101.048L62.0613 104.734V98.1579ZM67.5642 94.3918L71.4701 91.7274V97.0893L67.5786 100.262L67.5642 94.3918ZM72.4322 91.0683L76.2467 88.465V93.2008L72.4322 96.2984V91.0683ZM77.2087 87.8107L80.523 85.5416V89.7361L77.2087 92.4288V87.8107ZM81.4851 84.8873L84.6646 82.7171V86.3702L81.4995 88.964L81.4851 84.8873ZM85.6267 82.0628L88.1953 80.3068V83.508L85.6267 85.5934V82.0628ZM89.1574 79.6525L91.4567 78.0802V80.8623L89.1574 82.7453V79.6525ZM94.2418 75.0297L92.4332 76.2536V73.5939L94.2563 72.5865L94.2418 75.0297ZM94.2418 71.5273L92.4187 72.53V69.8796L94.2418 69.1123V71.5273ZM94.2418 65.6993V68.0907L92.4187 68.8534V66.2218L94.2418 65.6993ZM91.4567 66.4996V69.2582L89.1574 70.228V67.1586L91.4567 66.4996ZM88.1953 67.4411V70.6375L85.6267 71.7156V68.1802L88.1953 67.4411ZM84.6646 68.4532V72.1204L81.4851 73.4573V69.3712L84.6646 68.4532ZM80.5374 69.6631V73.8999L77.2232 75.3121V70.6046L80.5374 69.6631ZM76.2611 70.8917V75.6793L72.4466 77.2846V71.9651L76.2611 70.8917ZM71.4845 72.2663V77.6659L67.5786 79.3088V73.3632L71.4845 72.2663ZM66.6166 73.6786V79.7513L62.0757 81.6579V74.9449L66.6166 73.6786ZM61.1137 75.2603V82.0628L56.0581 84.1906V76.6773L61.1137 75.2603ZM48.9726 78.7486L55.096 76.988V84.5954L48.9726 87.1705V78.7486ZM48.9726 88.1967L55.096 85.6217V93.1961L48.9726 96.5808V88.1967ZM48.9726 97.6589L55.096 94.2789V101.811L48.9726 105.996V97.6589ZM48.9726 107.135L55.096 102.955V110.43L48.9726 115.402V107.135ZM48.9726 124.826V116.588L55.096 111.617V119.031L48.9726 124.826ZM56.0581 118.151V110.835L61.1137 106.73V113.373L56.0581 118.151ZM62.0757 112.502V105.949L66.6166 102.263V108.204L62.0757 112.502ZM67.5786 107.323V101.481L71.4845 98.3132V103.633L67.5786 107.323ZM72.4466 102.752V97.5741L76.2611 94.4766V99.1841L72.4466 102.752ZM77.2232 98.2614V93.6716L80.5374 90.9789V95.1403L77.2232 98.2614ZM81.4995 94.2412V90.2021L84.6791 87.6177V91.2519L81.4995 94.2412ZM85.6411 90.3481V86.8362L88.2098 84.7508V87.9378L85.6411 90.3481ZM89.1718 87.0528V83.9881L91.4711 82.1051V84.8732L89.1718 87.0528ZM92.4332 83.9881V81.3425L94.2563 79.8643V82.2746L92.4332 83.9881Z" fill="#FFC15D"/>
<path d="M116.598 58.127L102.833 62.0816V76.4507L116.598 63.4309V58.127ZM116.318 62.2573L115.786 62.6883V61.9141L116.318 61.5518V62.2573ZM108.539 64.8077L109.678 64.179V65.7507L108.539 66.5277V64.8077ZM108.258 66.7198L106.934 67.6231V65.689L108.258 64.9587V66.7198ZM109.958 64.0239L111.071 63.409V64.7967L109.963 65.5517L109.958 64.0239ZM111.351 63.2539L112.318 62.7199V63.9553L111.351 64.6155V63.2539ZM112.598 62.5675L113.525 62.0555V63.1262L112.598 63.759V62.5675ZM113.806 61.9004L114.555 61.4886V62.4234L113.806 62.9354V61.9004ZM114.835 61.3321L115.506 60.9615V61.7741L114.835 62.2312V61.3321ZM114.835 61.0164V60.1173L115.506 59.8359V60.6458L114.835 61.0164ZM114.555 61.1715L113.806 61.5833V60.5497L114.555 60.234V61.1715ZM113.525 61.7398L112.598 62.2518V61.059L113.525 60.6691V61.7398ZM112.318 62.4069L111.351 62.9409V61.5833L112.318 61.1715V62.4069ZM111.071 63.0933L109.958 63.7082V62.164L111.071 61.6959V63.0933ZM109.678 63.8633L108.539 64.492V62.7611L109.678 62.282V63.8633ZM108.258 64.6471L106.934 65.3787V63.4351L108.258 62.8791V64.6471ZM106.654 65.5339L105.18 66.3479V64.179L106.654 63.5586V65.5339ZM106.654 65.8482V67.8152L105.18 68.8228V66.6608L106.654 65.8482ZM106.654 68.1502V70.1035L105.18 71.3004V69.155L106.654 68.1502ZM106.934 67.958L108.258 67.0548V68.8008L106.934 69.8756V67.958ZM108.539 66.8599L109.678 66.0829V67.6464L108.543 68.5716L108.539 66.8599ZM109.958 65.8908L111.071 65.1317V66.5126L109.958 67.4158V65.8908ZM111.351 64.9409L112.318 64.2792V65.5023L111.351 66.2875V64.9409ZM112.598 64.0884L113.525 63.4556V64.5208L112.602 65.2772L112.598 64.0884ZM113.806 63.2648L114.555 62.7528V63.6863L113.806 64.2943V63.2648ZM114.835 62.562L115.506 62.1036V62.9148L114.835 63.4639V62.562ZM116.318 61.2141L115.79 61.571V60.7954L116.322 60.5017L116.318 61.2141ZM116.318 60.1928L115.786 60.4852V59.7124L116.318 59.4886V60.1928ZM116.318 58.4935V59.1908L115.786 59.4131V58.6458L116.318 58.4935ZM115.506 58.7268V59.5312L114.835 59.814V58.919L115.506 58.7268ZM114.555 59.0013V59.9334L113.806 60.2477V59.2169L114.555 59.0013ZM113.525 59.2965V60.3658L112.598 60.7556V59.5641L113.525 59.2965ZM112.322 59.6492V60.8846L111.355 61.2964V59.9238L112.322 59.6492ZM111.075 60.0075V61.4035L109.963 61.8716V60.3205L111.075 60.0075ZM109.682 60.4083V61.9828L108.543 62.4618V60.7282L109.682 60.4083ZM108.263 60.8201V62.5909L106.938 63.1468V61.1894L108.263 60.8201ZM106.658 61.2813V63.2648L105.184 63.8853V61.6945L106.658 61.2813ZM103.118 62.2985L104.903 61.7851V64.0033L103.118 64.7542V62.2985ZM103.118 65.0534L104.903 64.3026V66.5112L103.118 67.4981V65.0534ZM103.118 67.8125L104.903 66.8269V69.0232L103.118 70.2435V67.8125ZM103.118 70.5757L104.903 69.3567V71.5365L103.118 72.9861V70.5757ZM103.118 75.7341V73.332L104.903 71.8824V74.0444L103.118 75.7341ZM105.184 73.7877V71.6546L106.658 70.4576V72.3944L105.184 73.7877ZM106.938 72.1405V70.2298L108.263 69.155V70.8873L106.938 72.1405ZM108.543 70.6306V68.9271L109.682 68.0033V69.5544L108.543 70.6306ZM109.963 69.2977V67.7878L111.075 66.8846V68.2572L109.963 69.2977ZM111.355 67.9882V66.6498L112.322 65.8647V67.0781L111.355 67.9882ZM112.602 66.8159V65.6382L113.529 64.8846V65.9443L112.602 66.8159ZM113.81 65.6807V64.6567L114.559 64.0486V64.9779L113.81 65.6807ZM114.839 64.7199V63.8263L115.51 63.2772V64.0843L114.839 64.7199ZM115.79 63.8263V63.0548L116.322 62.6238V63.3266L115.79 63.8263Z" fill="#FFC15D"/>
<path fill-rule="evenodd" clip-rule="evenodd" d="M116.238 57.6735L103.194 61.7409V75.9788L116.238 63.6749V57.6735ZM102.896 60.7863C102.478 60.9165 102.194 61.3033 102.194 61.7409V75.9788C102.194 76.8557 103.242 77.3079 103.88 76.7062L116.924 64.4024C117.124 64.2134 117.238 63.9503 117.238 63.6749V57.6735C117.238 56.9992 116.584 56.5181 115.94 56.7189L102.896 60.7863Z" fill="#FFC15D"/>
<path d="M-70.1715 81.6757C-69.7919 81.246 -69.2462 81 -68.6728 81H25.7571C26.0772 81 26.3366 81.2595 26.3366 81.5795C26.3366 81.8996 26.0772 82.1591 25.7571 82.1591H-67.4948C-68.0811 82.1591 -68.6379 82.4164 -69.0179 82.8629L-107.461 128.034C-108.013 128.683 -107.552 129.682 -106.699 129.682H40.1998C40.8399 129.682 41.3589 130.201 41.3589 130.841C41.3589 131.481 40.8399 132 40.1998 132H-110.205C-111.928 132 -112.844 129.967 -111.704 128.676L-70.1715 81.6757Z" fill="#FFC15D"/>
<path d="M278.272 101H372.619C373.171 101 373.619 101.448 373.619 102C373.619 102.552 373.171 103 372.619 103H278.272V101Z" fill="#FFC15D"/>
<path d="M276.793 84.5009C276.752 84.2136 276.506 84 276.216 84C275.869 84 275.599 84.3019 275.638 84.6469L279.859 122.441C279.915 122.947 280.343 123.33 280.853 123.33H281.121C281.729 123.33 282.196 122.792 282.111 122.19L276.793 84.5009Z" fill="#FFC15D"/>
<path d="M186.624 71H111.859C111.583 71 111.359 71.2239 111.359 71.5C111.359 71.7761 111.583 72 111.859 72H186.09L186.624 71Z" fill="#FFC15D"/>
<path d="M170.359 103H81.3589C80.8066 103 80.3589 103.448 80.3589 104C80.3589 104.552 80.8066 105 81.3589 105H169.759L170.359 103Z" fill="#FFC15D"/>
<path d="M179.63 85.638C179.805 85.286 179.549 84.873 179.156 84.873C178.959 84.873 178.778 84.9821 178.687 85.1563L158.525 123.536C158.175 124.201 158.658 125.001 159.41 125.001H159.483C159.863 125.001 160.21 124.785 160.379 124.445L179.63 85.638Z" fill="#FFC15D"/>
<path d="M189.927 64.9619C189.982 64.8411 189.894 64.7041 189.761 64.7041C189.694 64.7041 189.633 64.7405 189.601 64.799L183.595 75.7926C183.361 76.2217 183.671 76.7451 184.16 76.7451C184.412 76.7451 184.642 76.5975 184.746 76.3676L189.927 64.9619Z" fill="#FFC15D"/>
<path d="M273.566 65.2077C273.543 65.087 273.437 65 273.314 65C273.16 65 273.041 65.1338 273.058 65.2865L274.318 76.3692C274.359 76.7286 274.663 77.0001 275.024 77.0001C275.472 77.0001 275.809 76.5909 275.722 76.1514L273.566 65.2077Z" fill="#FFC15D"/>
<path d="M216.579 82.5051C216.909 81.2378 215.953 80 214.643 80H105.868C105.373 80 105.097 80.5706 105.404 80.9579C105.516 81.0993 105.687 81.1818 105.868 81.1818H213.538C214.2 81.1818 214.679 81.8139 214.501 82.4515L201.694 128.176C201.452 129.039 200.665 129.636 199.768 129.636H57.5407C56.888 129.636 56.3589 130.165 56.3589 130.818C56.3589 131.471 56.888 132 57.5407 132H202.116C203.026 132 203.821 131.386 204.051 130.505L216.579 82.5051Z" fill="#FFC15D"/>
<path d="M220.662 66.5161C221.001 65.2462 220.044 64 218.73 64H116.724C116.699 64 116.675 64.0054 116.652 64.0158C116.486 64.0926 116.541 64.3409 116.724 64.3409H219.333C219.999 64.3409 220.479 64.979 220.294 65.6185L217.134 76.5551C216.887 77.4109 216.104 78 215.213 78H105.566C105.433 78 105.306 78.0527 105.212 78.1464C104.897 78.4614 105.121 79 105.566 79H215.792C216.697 79 217.49 78.3912 217.724 77.5161L220.662 66.5161Z" fill="#FFC15D"/>
<path d="M233.898 81.7149C234.04 80.7306 234.884 80 235.878 80H330.097C330.591 80 330.867 80.5706 330.56 80.9579C330.448 81.0993 330.278 81.1818 330.097 81.1818H237.345C236.311 81.1818 235.448 81.9686 235.353 82.9973L231.133 128.544C231.079 129.13 231.54 129.636 232.129 129.636H373.776C374.429 129.636 374.958 130.165 374.958 130.818C374.958 131.471 374.429 132 373.776 132H228.965C227.747 132 226.812 130.92 226.985 129.715L233.898 81.7149Z" fill="#FFC15D"/>
<path d="M235.942 65.7442C236.071 64.7468 236.92 64 237.926 64H328.251C328.393 64 328.472 64.1632 328.385 64.2751C328.353 64.3166 328.303 64.3409 328.251 64.3409H238.5C237.418 64.3409 236.532 65.202 236.501 66.2839L236.196 76.9715C236.18 77.5347 236.632 78 237.196 78H328.458C328.734 78 328.958 78.2239 328.958 78.5C328.958 78.7761 328.734 79 328.458 79H236.507C235.301 79 234.369 77.9404 234.523 76.7442L235.942 65.7442Z" fill="#FFC15D"/>
<path d="M328.088 71H274.939C274.663 71 274.439 71.2239 274.439 71.5C274.439 71.7761 274.663 72 274.939 72H328.335L328.088 71Z" fill="#FFC15D"/>
<path d="M44.3589 71H-23.1411C-23.4173 71 -23.6411 71.2239 -23.6411 71.5C-23.6411 71.7761 -23.4173 72 -23.1411 72H43.9055L44.3589 71Z" fill="#FFC15D"/>
<path d="M185.063 43.0792C186.669 42.2709 188.796 42.4923 188.971 44.4983C189.108 46.0611 187.938 47.6655 186.964 48.3916C186.646 47.5051 185.063 43.0792 185.063 43.0792Z" fill="#8F0C2C"/>
<path d="M183.37 74.7182C183.37 74.7182 184.421 78.6143 186.332 82.579C188.503 86.0401 192.023 92.6999 192.124 93.2315C192.247 93.8822 189.824 95.731 190.321 96.9514L194.398 94.2114L190.003 82.0183L189.676 70.9345L183.37 74.7182Z" fill="#ED4F2F"/>
<path fill-rule="evenodd" clip-rule="evenodd" d="M191.1 78.5214C190.026 79.158 189.023 80.2357 188.429 81.685C187.323 84.3832 188.001 87.2162 189.944 88.0128C191.887 88.8094 194.359 87.2677 195.465 84.5696C196.01 83.2408 196.122 81.8793 195.863 80.7444C195.535 78.975 195.561 76.2211 196.248 74.6077C196.61 73.7936 196.995 72.9833 197.375 72.1811C197.71 71.4736 198.042 70.7726 198.354 70.0809C198.367 70.0582 198.37 70.0381 198.364 70.0207C198.359 70.0047 198.346 69.9909 198.325 69.9793L197.43 69.5926C197.387 69.5683 197.353 69.5779 197.328 69.6213C196.975 70.406 196.641 71.2037 196.304 72.0075C195.999 72.7335 195.693 73.4646 195.368 74.1962C194.274 76.6612 192.174 77.8847 191.1 78.5214ZM189.117 81.9668C190.061 79.6643 192.094 78.3172 193.657 78.958C195.22 79.5989 195.722 81.9849 194.778 84.2875C193.834 86.59 191.801 87.9371 190.238 87.2963C188.675 86.6555 188.173 84.2694 189.117 81.9668Z" fill="#8F0C2C"/>
<path d="M185.182 48.8047C182.542 48.7389 183.488 43.7273 185.066 43.0903C186.802 45.537 186.635 47.5942 187.259 49.1878C187.503 49.8132 187.954 49.9664 188.614 50.2469C191.543 52.1916 192.903 55.3072 194.64 59.0609C195.131 60.1224 195.806 62.2238 196.281 64.0076C196.859 66.1766 197.62 69.8638 197.97 70.3305C198.32 70.7973 198.811 71.544 198.391 72.2208C197.757 73.2415 196.909 73.2005 196.909 73.2005C197.096 72.6871 197.077 71.6537 196.544 71.4425L196.184 72.2951C196.033 72.0108 195.782 70.8888 196.197 70.1905C196.789 69.6465 193.083 60.9075 193.083 60.9075L190.541 56.9369C189.998 58.707 187.762 62.8152 188.363 64.649C189.322 67.5758 190.876 68.8926 190.31 71.9247C189.644 75.444 186.324 84.1814 186.324 84.1814L184.751 96.6466L179.935 97.9018C180.171 96.2244 183.021 95.7626 183.021 95.0935C183.127 93.9256 183.1 84.7799 183.1 82.4529C183.167 79.5794 183.21 77.9773 183.27 75.9918C183.351 73.366 183.16 71.5561 182.974 69.7892C182.805 68.184 182.639 66.6142 182.684 64.5003C182.726 62.4959 182.544 59.9827 182.312 58.0045C181.98 55.1735 180.655 51.5452 183.488 50.1325C184.093 49.831 185.098 49.5876 185.182 48.8047Z" fill="#ED4F2F"/>
<path d="M180.46 56.1836L180.019 59.6277C180.019 59.6277 177.486 65.1874 177.105 67.0356C176.942 67.8291 176.735 70.5827 176.735 70.5827C177.832 70.8039 178.965 67.8369 178.642 66.7956C178.425 66.0928 180.95 62.9981 181.908 60.3755C182.445 58.9052 182.779 56.5168 182.779 56.5168L180.46 56.1836Z" fill="#ED4F2F"/>
<path d="M183.487 50.1287C183.774 50.6462 184.542 51.249 185.67 51.249C187.653 51.389 188.067 49.9922 188.067 49.9922C189.607 50.748 191.004 51.0625 192.156 53.2826C192.529 53.9827 193.136 55.7246 193.673 56.9615C192.832 57.4515 192.381 57.7144 191.422 58.3233L190.665 57.2145L188.67 63.8034C190.874 67.6718 191.364 69.9262 192.001 72.4112C192.001 72.4112 186.672 76.9713 181.139 74.2813C181.821 68.2354 182.78 63.1319 182 56.7565C181.767 56.6987 180.863 56.3431 180.452 56.1832C180.808 53.8486 180.936 51.1738 183.487 50.1287Z" fill="#8F0C2C"/>
<path d="M189.131 42.5642C190.587 41.8838 192.218 42.8721 192.06 44.5149C191.814 47.0701 189.68 48.279 189.68 48.279C189.68 48.279 190.477 44.0865 188.87 43.8261C188.213 43.7197 187.675 43.2447 189.131 42.5642Z" fill="#8F0C2C"/>
<path d="M295.488 41.3235C296.354 40.8878 297.415 41.3892 297.51 42.4704C297.583 43.3127 297.038 43.7954 296.513 44.1867C296.342 43.7089 295.488 41.3235 295.488 41.3235Z" fill="#550832"/>
<path d="M294.799 59.2419C294.799 59.2419 298.315 67.7695 298.596 68.4733C298.728 68.8049 297.005 70.2262 297.455 70.8108L299.974 69.0324L298.157 62.7302L297.455 57.5933L294.799 59.2419Z" fill="#8F0C2C"/>
<path fill-rule="evenodd" clip-rule="evenodd" d="M298.743 60.4264C298.164 60.7696 297.623 61.3504 297.303 62.1316C296.707 63.5859 297.072 65.1128 298.12 65.5422C299.167 65.9715 300.499 65.1406 301.095 63.6863C301.389 62.9701 301.449 62.2363 301.31 61.6246C301.133 60.6709 301.147 59.1866 301.517 58.317C301.713 57.8782 301.92 57.4414 302.125 57.0091C302.305 56.6278 302.484 56.2499 302.652 55.8771C302.659 55.8648 302.661 55.854 302.658 55.8446C302.655 55.836 302.648 55.8286 302.637 55.8223L302.154 55.6139C302.131 55.6008 302.113 55.606 302.1 55.6294C301.909 56.0523 301.729 56.4822 301.547 56.9155C301.383 57.3068 301.218 57.7009 301.043 58.0952C300.453 59.4238 299.321 60.0832 298.743 60.4264ZM297.674 62.2835C298.183 61.0424 299.278 60.3164 300.121 60.6618C300.963 61.0072 301.234 62.2932 300.725 63.5343C300.216 64.7753 299.12 65.5014 298.278 65.156C297.436 64.8106 297.165 63.5245 297.674 62.2835Z" fill="#550832"/>
<path d="M295.396 44.3629C293.842 44.2333 294.401 41.695 295.632 41.2592C296.428 41.747 296.177 43.7144 296.672 44.6163C296.846 44.9337 297.047 45.036 297.402 45.1871C298.29 45.5645 299.121 46.0508 299.578 46.9306C300.157 48.0284 300.59 49.2005 301.111 50.3268C301.547 51.2699 301.748 52.2176 301.905 53.2353C302.081 54.3787 302.303 55.8217 302.445 56.012C302.634 56.2636 302.899 56.6661 302.672 57.0309C302.331 57.581 301.873 57.5589 301.873 57.5589C301.974 57.2822 301.964 56.7252 301.677 56.6114L301.483 57.0709C301.401 56.9177 301.266 56.3129 301.489 55.9366C301.809 55.6433 299.812 50.9331 299.812 50.9331L298.441 48.793C298.441 48.793 297.413 51.8534 297.539 52.4446C297.678 53.0358 298.383 54.2637 298.207 55.1819C297.63 58.1907 297.113 60.8541 296.29 63.8077L295.465 70.3259L292.474 71.0002C292.418 70.448 293.099 70.1337 293.63 69.8891C293.959 69.7374 294.229 69.6126 294.229 69.4746C294.286 68.8451 294.354 65.9678 294.418 63.1977C294.455 61.6489 294.49 60.1336 294.522 59.0634C294.656 54.716 293.682 50.4914 293.315 46.2003C293.239 45.3199 294.094 45.0565 294.71 44.9181C295.065 44.8399 295.352 44.7848 295.396 44.3629Z" fill="#8F0C2C"/>
<path d="M292.974 48.6986L292.796 50.2896C292.796 50.2896 291.405 53.2401 291.2 54.2363C291.112 54.664 291 56.1481 291 56.1481C291.591 56.2673 292.202 54.6682 292.028 54.1069C291.911 53.7281 293.947 50.8894 293.947 50.8894L294.422 48.626L292.974 48.6986Z" fill="#8F0C2C"/>
<path d="M294.697 44.9175C294.852 45.1964 295.208 45.7272 295.816 45.7272C296.885 45.8026 297.108 45.0498 297.108 45.0498C297.938 45.4571 298.827 45.5012 299.447 46.6979C299.648 47.0752 300.093 48.0117 300.382 48.6784C299.929 48.9425 299.433 49.2119 298.916 49.5402L298.508 48.9425L297.64 52.2631C297.806 53.0053 298.422 54.1018 298.207 55.1939C297.887 56.7922 297.814 57.6943 297.461 59.2843C297.461 59.2843 295.007 59.0736 294.512 59.0736C294.154 55.5764 293.958 52.1319 293.537 48.6957C293.324 48.6926 293.186 48.6957 292.973 48.6957C293.091 47.9218 293.111 46.7765 293.211 46.0973C293.314 45.3929 293.909 45.0498 294.697 44.9175Z" fill="#550832"/>
<path d="M127.294 41.6707C125.572 40.3409 123.494 41.4563 123.345 43.165C123.229 44.4963 123.918 45.148 124.748 45.7665C125.019 45.0113 127.294 41.6707 127.294 41.6707Z" fill="#ED4F2F"/>
<path d="M127.294 41.6704C128.143 42.5198 129.615 46.3286 126.668 46.3286C126.846 46.8948 127.637 47.0843 127.637 47.0843L132.664 51.2903L134.01 52.9434C134.01 52.9434 138.692 51.3421 138.578 50.1286C138.712 49.5653 140.531 48.718 140.531 48.718C140.728 48.9789 140.453 49.2527 140.231 49.4743C140.025 49.6798 139.863 49.8407 140.164 49.9051C141.845 50.7387 140.89 51.0343 140.064 51.2903C139.748 51.3881 139.451 51.4801 139.327 51.5942C139.251 51.6566 139.133 51.7572 138.982 51.8858C137.89 52.8169 135.076 55.2168 134.02 55.2168C132.561 55.2168 129.924 52.3852 129.924 52.3852C128.685 54 121.895 61.1292 123.04 62.7506C124.592 64.9463 127.037 68.4077 129.214 72.3052C129.665 73.1126 129.946 75.4557 130.262 78.0896C130.508 80.1353 130.775 82.3564 131.158 84.1695C131.227 84.4927 131.945 84.5102 132.779 84.5304C133.841 84.5563 135.088 84.5866 135.411 85.2606L129.69 86.2527L126.539 73.7396C126.539 73.7396 121.21 69.2186 119.206 66.6819C117.196 64.1379 118.797 59.7955 120.14 56.1523C120.95 53.9536 121.342 48.2772 123.563 47.358C124.666 46.9015 124.573 46.31 124.754 45.4507C125.191 43.3681 126.16 42.0203 127.294 41.6704Z" fill="#8F0C2C"/>
<path d="M116.883 63.2436C115.565 65.7461 112.768 73.403 112.768 73.403L102.194 80.3179C102.394 81.563 103.088 86.7054 103.088 86.7054C104.653 86.0492 103.934 81.6938 104.679 81.2362C107.884 79.2677 112.255 77.9562 114.375 76.1896C117.576 73.5219 119.028 70.7453 121.086 66.743C122.918 62.6319 122.38 61.2998 122.38 61.2998L116.883 63.2436Z" fill="#8F0C2C"/>
<path d="M123.36 62.5636C123.36 62.5636 127.681 55.8274 129.976 52.5706C130.222 52.794 130.821 53.2912 130.821 53.2912C131.299 52.7335 132.044 51.8995 132.681 51.2975C130.495 48.5447 129.898 47.9436 127.637 47.0838C127.637 47.0838 127.106 47.7884 126.242 47.9436C125.378 48.0987 124.425 47.6722 124.135 47.002C123.8 47.17 123.484 47.3182 123.183 47.4589C121.627 48.1875 120.494 48.7179 119.452 50.7774C119.834 51.1445 120.547 52.4129 121.025 52.8514C120.004 55.014 118.495 58.0411 117.394 60.8623C116.109 64.1568 115.169 66.8213 114.758 68.187C116.457 69.3905 117.963 70.2676 118.905 70.7871C118.905 70.7871 119.985 69.038 120.469 68.3075L122.146 69.7294C123.315 69.1612 124.523 67.8896 125.918 66.9573C124.675 65.0319 123.36 62.5636 123.36 62.5636Z" fill="#ED4F2F"/>
<path d="M119.832 50.1514L121.485 52.8772L119.754 54.6643L127.873 58.5978C127.533 58.9928 125.997 59.3713 124.45 58.34C123.304 57.5759 116.416 57.0725 116.519 55.685C116.711 54.2827 119.264 50.873 119.832 50.1514Z" fill="#8F0C2C"/>
<path fill-rule="evenodd" clip-rule="evenodd" d="M144.69 43.9409C145.033 42.9342 145.756 41.9095 146.86 41.1605C148.916 39.7659 151.396 39.8352 152.4 41.3154C153.405 42.7956 152.552 45.1261 150.497 46.5207C149.484 47.2075 148.369 47.5393 147.378 47.5223C145.845 47.5583 143.554 48.0624 142.329 48.9178C141.714 49.3623 141.106 49.8244 140.504 50.2817C139.973 50.6851 139.446 51.0849 138.924 51.4657C138.908 51.4803 138.891 51.4867 138.876 51.4849C138.862 51.4833 138.848 51.4748 138.835 51.4596L138.356 50.781C138.328 50.7491 138.33 50.7192 138.362 50.6914C138.954 50.2593 139.56 49.8409 140.171 49.4193C140.723 49.0384 141.279 48.6549 141.832 48.2561C143.696 46.9124 144.348 44.9476 144.69 43.9409ZM147.216 41.6847C145.461 42.8748 144.694 44.8049 145.502 45.9957C146.31 47.1865 148.387 47.1871 150.141 45.9969C151.895 44.8068 152.662 42.8767 151.855 41.6859C151.047 40.4951 148.97 40.4946 147.216 41.6847Z" fill="#ED4F2F"/>
<path d="M141.735 49.9052C141.761 49.3506 141.602 48.9271 141.226 49.0396C140.549 49.2427 140.114 49.4344 139.835 49.864C139.59 50.2404 139.705 50.916 139.922 51.0658C140.532 51.4863 141.694 50.5668 141.735 49.9052Z" fill="#8F0C2C"/>
<path d="M89.941 45.7023C87.7858 45.1582 85.8271 46.9272 86.4713 49.1178C87.4731 52.5249 90.6882 53.6097 90.6882 53.6097C90.6882 53.6097 88.5097 48.1222 90.6253 47.3485C91.49 47.0323 92.0963 46.2465 89.941 45.7023Z" fill="#550832"/>
<path d="M96.632 45.9851C93.9796 43.9364 90.713 44.9634 90.4829 47.5958C90.3036 49.6467 91.8923 51.0146 93.1403 52.2728C93.5584 51.1095 96.632 45.9851 96.632 45.9851Z" fill="#550832"/>
<path fill-rule="evenodd" clip-rule="evenodd" d="M81.4952 87.4387C79.8254 86.9418 77.6998 87.1241 75.7124 87.9904C72.0891 89.5698 70.1338 92.9992 71.3452 95.6503C72.5566 98.3013 76.4759 99.17 80.0991 97.5905C82.0168 96.7546 83.1582 95.6589 84.3496 93.8595C85.6385 91.9129 87.9302 89.516 90.1599 88.5809C91.2815 88.1317 92.4216 87.7073 93.5502 87.2872C94.5459 86.9166 95.5326 86.5493 96.4897 86.1713C96.5545 86.1521 96.5764 86.1098 96.5554 86.0442L96.0156 84.8035C95.9945 84.7379 95.9516 84.7147 95.8868 84.7338C94.8009 85.1627 93.7223 85.6226 92.6352 86.0861C91.6538 86.5045 90.6654 86.926 89.6583 87.3303C85.3815 89.0471 82.2932 87.5815 81.4952 87.4387ZM76.1413 88.929C79.2333 87.5812 82.5299 88.2175 83.5044 90.3502C84.479 92.4829 82.7624 95.3044 79.6705 96.6523C76.5785 98.0001 73.2819 97.3638 72.3074 95.2311C71.3328 93.0984 73.0494 90.2769 76.1413 88.929Z" fill="#550832"/>
<path d="M91.1259 87.601C91.3977 88.654 91.7713 88.1445 92.2808 88.3143C92.7903 88.4842 92.7903 88.1445 93.1979 88.2464C93.6394 88.3483 93.6394 87.9747 93.9451 87.9747C94.2169 88.0086 94.2848 86.65 94.1829 86.1744C94.081 85.6989 93.6394 85.8008 93.5036 85.9027C93.3677 86.0046 93.1979 85.563 92.8242 85.8008C92.4506 86.0386 92.3148 85.631 91.9072 85.9027C91.5335 86.1405 91.3637 86.1405 91.2278 86.5481C91.092 86.9557 91.092 87.3972 91.1259 87.601Z" fill="#8F0C2C"/>
<path d="M97.3105 53.0297C98.876 51.1325 98.5902 47.6718 96.6276 45.9922C93.8078 47.0577 93.0859 50.4631 93.1451 52.4293C93.195 54.0871 93.3251 54.5015 91.6947 56.5734C90.0643 58.6114 89.5315 59.7821 89.5315 59.7821C89.5315 59.7821 92.5855 74.7619 91.7703 77.3772C90.7585 82.8681 88.6059 95.2196 88.6059 95.2196C88.6059 95.2196 82.5962 112.86 81.0191 116.419C79.9457 118.4 76.7295 121.128 79.766 121.128C81.6065 121.128 82.7371 119.231 83.2922 116.987C83.8473 114.742 93.3954 100.023 94.9978 96.0023C96.2784 92.7889 97.7534 90.4154 98.5768 86.5318C100.08 88.3649 105.847 95.2196 105.847 95.2196C105.847 95.2196 105.9 115.36 105.514 118.414L113.387 119.007C113.106 116.69 108.313 116.6 108.313 115.428C108.313 113.51 110.817 95.4687 110.349 92.9273C109.37 87.5995 102.08 75.6146 102.08 75.6146C101.995 71.2255 102.082 63.1021 101.698 59.2256C102.985 59.3279 107.227 60.4586 110.031 61.6659C113.301 63.0732 116.797 64.7534 117.283 65.5635C118.496 67.5812 121.756 68.4808 122.195 67.7739C122.195 67.7739 116.284 62.4276 113.549 60.6098C108.566 57.2978 106.911 56.3266 102.401 54.9995C100.327 54.3892 97.0357 54.3683 97.0357 54.3683L96.2694 53.4092C96.2694 53.4092 97.0762 53.3136 97.3105 53.0297Z" fill="#8F0C2C"/>
<path d="M98.2644 54.3882C98.3663 54.7996 97.9759 57.1427 97.2053 57.8464C95.3372 59.6292 92.6711 57.6558 92.1481 55.9824C88.9713 59.839 87.5975 61.2594 88.8342 68.0982C88.8342 68.0982 92.6688 74.4978 92.0079 76.481C90.9718 80.5458 90.3968 84.622 89.7303 88.766C98.1782 90.8779 100.239 88.0085 108.062 84.7149C107.063 82.4694 103.531 77.1876 102.243 74.7598C102.024 72.0018 102.143 62.8415 101.924 59.2991L103.921 59.6616C104.217 58.383 104.666 57.1971 105.07 55.8523C101.883 54.7444 100.95 54.5647 98.2644 54.3882Z" fill="#550832"/>
<path d="M88.8681 68.0807C89.4377 70.4232 92.4021 82.4173 91.7843 84.2855C91.5057 85.1277 90.6579 86.8903 90.4881 87.9432C91.9717 87.9432 91.0761 86.2426 92.6518 86.1639C93.3311 86.0959 94.0212 85.7209 94.259 85.4832C94.4967 85.2454 94.0159 82.7588 94.0159 81.0152C94.0159 75.5641 92.6825 68.0808 92.6825 68.0808C91.1377 67.512 88.8681 68.0807 88.8681 68.0807Z" fill="#8F0C2C"/>
<path d="M93.9269 87.637C94.3002 87.0609 94.3804 86.549 93.8814 86.5174C92.9812 86.4603 92.365 86.4886 91.7799 86.831C91.2673 87.131 90.9805 87.8917 91.1364 88.1375C91.5738 88.8272 93.471 88.3205 93.9269 87.637Z" fill="#8F0C2C"/>
<path d="M162.681 60.9966C164.69 59.7463 167.039 61.6148 166.63 63.7187C166.024 66.8465 164.002 68.6958 164.002 68.6958C164.002 68.6958 164.648 63.382 162.724 62.505C161.938 62.1466 160.672 62.2469 162.681 60.9966Z" fill="#550832"/>
<path d="M172.568 90.0303L184.942 107.588L198.99 120.455C200.311 122.106 203.81 124.379 201.005 124.884C199.305 125.19 198.057 123.419 197.171 121.438C197.171 121.438 185.479 114.257 179.987 109.56C174.836 105.154 168.968 98.6803 168.968 98.6803L157.1 105.692L149.091 126.478L142.568 126.477C142.921 124.61 146.888 124.868 147.542 123.984C148.818 122.262 150.854 107.056 152.676 103.704C155.117 99.2116 162.763 91.8679 162.763 91.8679L172.568 90.0303Z" fill="#ED4F2F"/>
<path d="M155.645 61.3378C157.517 58.6336 161.931 59.0059 162.657 61.8794C163.223 64.1181 161.613 66.1617 160.469 67.7833C159.801 66.5712 155.645 61.3378 155.645 61.3378Z" fill="#550832"/>
<path fill-rule="evenodd" clip-rule="evenodd" d="M123.56 84.0044C122.281 82.7323 120.252 81.8564 118.014 81.6724C113.933 81.3369 110.468 83.5073 110.273 86.52C110.079 89.5328 113.229 92.2471 117.309 92.5826C119.469 92.7602 121.047 92.3201 123.017 91.2625C125.147 90.1183 128.413 89.055 130.906 89.2951C132.15 89.4352 133.398 89.607 134.634 89.7771C135.724 89.9271 136.804 90.0758 137.863 90.2002C137.932 90.2145 137.972 90.1865 137.985 90.1164L138.101 88.7196C138.114 88.6495 138.086 88.6073 138.018 88.593C136.817 88.4518 135.607 88.3426 134.388 88.2325C133.287 88.1331 132.179 88.033 131.062 87.908C126.318 87.3775 124.219 84.5259 123.56 84.0044ZM117.945 82.7391C121.427 83.0254 124.123 85.2224 123.966 87.6461C123.81 90.0699 120.86 91.8026 117.378 91.5163C113.896 91.2301 111.2 89.0331 111.357 86.6094C111.513 84.1856 114.463 82.4528 117.945 82.7391Z" fill="#550832"/>
<path d="M133.983 89.8781C134.403 89.4483 134.561 89.0227 134.138 88.9089C133.375 88.7037 132.841 88.6209 132.279 88.8133C131.787 88.9818 131.409 89.5852 131.5 89.8232C131.756 90.4913 133.472 90.3857 133.983 89.8781Z" fill="#ED4F2F"/>
<path d="M155.686 61.2861C154.979 62.1751 153.558 66.4349 155.686 68.1803C156.371 68.7426 157.451 68.483 157.451 68.483C157.995 69.8416 155.774 70.8396 154.369 71.699L157.451 76.6776L163.473 74.664L166.128 70.6951C164.272 70.1964 163.037 69.832 161.128 69.5972C159.674 65.3465 158.766 62.4878 155.686 61.2861Z" fill="#ED4F2F"/>
<path d="M153.648 79.419L150.202 75.0604C148.506 76.6494 143.689 80.8401 142.468 81.448C139.601 82.8752 135.809 85.0629 132.983 86.6498C131.408 87.5344 130.888 88.4532 130.364 90.0642C130.951 90.3401 131.721 89.4752 131.799 88.9811C131.94 88.0889 132.775 88.2879 133.312 88.4157C133.373 88.4302 133.43 88.4439 133.482 88.4549C133.873 88.5377 134.395 88.3463 134.719 87.9438C138.244 86.5161 140.767 86.0568 144.613 84.4034C145.9 83.9431 152.953 79.5418 153.648 79.419Z" fill="#ED4F2F"/>
<path d="M167.248 75.7434L169.498 76.8714C169.962 76.0485 170.941 74.8095 171.662 73.4428C168.445 71.2748 166.235 70.4877 162.286 69.7559C161.955 72.432 156.514 74.0212 154.805 71.4398C152.061 72.9882 150.222 74.9816 148.157 76.8566C148.515 77.5204 150.492 79.6108 151.41 80.6245C151.41 80.6245 154.415 78.9131 154.949 78.9121C156.752 80.7797 160.166 86.6527 162.765 91.4987C161.679 92.5407 158.941 95.7845 158.941 95.7845C165.898 102.036 170.829 102.354 178.141 96.2429C176.12 93.362 171.662 87.9184 171.662 87.9184C171.662 87.9184 167.981 78.1777 167.248 75.7434Z" fill="#550832"/>
<path d="M169.479 76.8529C170.854 77.8681 174.383 80.3288 174.383 80.3288C174.383 80.3288 175.227 90.5207 174.821 91.3703C173.778 93.5546 174.558 97.2658 175.633 97.4199C175.686 97.047 175.788 96.4407 175.917 95.6711C176.62 91.4734 177.812 80.8419 176.948 79.2368C175.85 77.1971 173.437 74.8436 171.613 73.4206L169.479 76.8529Z" fill="#ED4F2F"/>
<circle cx="135.183" cy="65.0596" r="4.07478" fill="url(#paint10_radial_2120_201898)"/>
<path d="M133.219 66.9321C134.601 68.3894 136.572 67.2611 137.084 66.0408C137.481 65.0963 138.113 64.2224 139.242 65.3487C139.243 65.3267 139.245 65.3075 139.247 65.29C139.254 65.2134 139.258 65.1694 139.258 65.0713C137.968 63.7696 137.222 65.056 136.867 65.6696C136.189 66.8397 134.648 67.5144 133.681 66.4945C132.714 65.4747 133.473 63.9703 134.674 63.3571C135.305 63.0346 136.629 62.3583 135.398 61.0014C135.3 60.9962 135.256 60.9979 135.179 61.0007C135.161 61.0013 135.142 61.0021 135.12 61.0028C136.184 62.1905 135.311 62.7041 134.331 63.1211C132.913 63.7244 131.879 65.519 133.219 66.9321Z" fill="#9B1D3B"/>
<path d="M257.718 42.5844C256.679 41.7824 255.476 42.4402 255.386 43.4707C255.316 44.2735 255.862 44.5532 256.351 45.0458C256.515 44.5904 257.718 42.5844 257.718 42.5844Z" fill="#550832"/>
<path fill-rule="evenodd" clip-rule="evenodd" d="M251.792 58.8119C251.139 58.6174 250.307 58.6887 249.529 59.0278C248.11 59.6461 247.345 60.9886 247.819 62.0264C248.293 63.0642 249.827 63.4042 251.246 62.7859C251.997 62.4587 252.443 62.0298 252.91 61.3254C253.414 60.5633 254.311 59.6251 255.184 59.259C255.623 59.0832 256.07 58.917 256.511 58.7526C256.901 58.6075 257.287 58.4637 257.662 58.3157C257.688 58.3082 257.696 58.2916 257.688 58.266L257.477 57.7803C257.468 57.7546 257.452 57.7455 257.426 57.753C257.001 57.9209 256.579 58.1009 256.153 58.2824C255.769 58.4462 255.382 58.6112 254.988 58.7694C253.314 59.4415 252.105 58.8678 251.792 58.8119ZM249.697 59.3953C250.907 58.8677 252.197 59.1167 252.579 59.9516C252.96 60.7865 252.288 61.891 251.078 62.4187C249.868 62.9463 248.577 62.6972 248.196 61.8623C247.814 61.0274 248.486 59.9229 249.697 59.3953Z" fill="#550832"/>
<path d="M255.562 58.8757C255.668 59.2879 255.815 59.0885 256.014 59.1549C256.213 59.2214 256.213 59.0885 256.373 59.1283C256.546 59.1682 256.546 59.022 256.666 59.022C256.772 59.0353 256.799 58.5034 256.759 58.3172C256.719 58.1311 256.546 58.171 256.493 58.2109C256.439 58.2508 256.373 58.0779 256.227 58.171C256.08 58.2641 256.027 58.1045 255.868 58.2109C255.721 58.304 255.655 58.304 255.602 58.4635C255.549 58.6231 255.549 58.7959 255.562 58.8757Z" fill="#ED4F2F"/>
<path d="M257.944 45.4904C258.527 45.3084 258.484 43.2444 257.716 42.5869C256.348 42.8983 256.2 44.2482 256.386 45.2216C256.508 45.8592 256.386 46.0882 255.671 46.6936C255.032 47.4914 254.938 47.9852 254.938 47.9852C254.938 47.9852 256.133 53.8492 255.814 54.873C255.418 57.0225 254.575 61.8577 254.575 61.8577C254.575 61.8577 252.223 68.7633 251.605 70.1565C251.185 70.9318 249.926 71.9998 251.115 71.9998C251.835 71.9998 252.337 71.4963 252.554 70.6177C252.772 69.739 256.46 63.9905 257.087 62.4165C257.588 61.1586 257.883 59.8059 258.205 58.2856C258.794 59.0032 261.176 61.75 261.176 61.75C261.176 61.75 261.115 69.7678 260.964 70.9635L264.276 71.1697C264.166 70.2626 262.29 70.2272 262.29 69.7685C262.29 69.0178 263.249 62.3361 263.067 61.3413C262.683 59.2556 260.135 54.9245 260.135 54.9245C260.102 53.2063 260.294 49.5026 260.143 47.9852C261.232 48.0717 265.273 49.7073 265.58 50.3238C265.995 51.1585 267.352 51.6298 267.524 51.3531C267.524 51.3531 265.41 49.0208 264.34 48.3092C262.389 47.0126 261.742 46.4858 260.05 45.8659C259.224 45.6984 258.555 45.6686 257.894 45.7692L257.705 45.5197C257.812 45.5167 257.896 45.5055 257.944 45.4904Z" fill="#ED4F2F"/>
<path d="M258.285 45.7232C258.325 45.8843 258.167 46.4447 257.866 46.7201C257.134 47.4181 256.3 46.96 256.096 46.3049C253.887 47.9156 254.332 49.2844 254.817 51.9615C254.817 51.9615 256.166 53.7459 255.907 54.5223C255.501 56.1135 255.276 57.7092 255.015 59.3314C255.702 59.503 257.125 59.7533 257.843 59.9067C257.985 59.5149 258.335 58.5468 258.335 58.5468C258.335 58.5468 259.005 59.2322 259.355 59.6382C259.846 59.3228 261.305 58.1215 261.749 57.9342C261.358 57.0552 260.678 55.8627 260.174 54.9123C260.088 53.8326 260.273 49.3721 260.188 47.9854L261.121 48.208C261.236 47.7074 261.467 47.0891 261.625 46.5627C260.554 45.9378 259.595 45.5523 258.285 45.7232Z" fill="#550832"/>
<path d="M254.819 51.9546C255.042 52.8715 256.062 56.8465 255.82 57.5778C255.711 57.9075 255.379 58.5975 255.312 59.0097C255.893 59.0097 255.543 58.344 256.159 58.3132C256.425 58.2866 256.696 58.1398 256.789 58.0467C256.882 57.9536 256.789 56.987 256.789 56.3045C256.789 54.1706 256.341 51.7252 256.341 51.7252C255.737 51.5026 254.819 51.9546 254.819 51.9546Z" fill="#ED4F2F"/>
<path d="M256.658 58.8898C256.805 58.6643 256.836 58.4639 256.641 58.4515C256.288 58.4292 256.047 58.4402 255.818 58.5743C255.617 58.6917 255.505 58.9895 255.566 59.0857C255.737 59.3557 256.48 59.1574 256.658 58.8898Z" fill="#ED4F2F"/>
<path d="M273.7 46.4569C272.745 45.552 271.203 45.9557 271.108 47.0389C271.035 47.8828 271.56 48.6611 272.086 49.0532C272.258 48.5745 273.7 46.4569 273.7 46.4569Z" fill="#ED4F2F"/>
<path d="M273.699 46.4517C274.238 46.9901 274.697 49.3855 273.232 49.2886C273.345 49.6475 273.917 49.8836 273.917 49.8836L276.686 52.4537L277.957 53.6698C277.957 53.6698 280.924 52.5826 280.852 51.8134C280.937 51.4563 282.09 50.9192 282.09 50.9192C282.215 51.0846 282.041 51.2581 281.9 51.3987C281.769 51.5289 281.667 51.6309 281.858 51.6717C282.923 52.2001 282.318 52.3875 281.794 52.5498C281.594 52.6118 281.406 52.6701 281.327 52.7424C281.279 52.782 281.204 52.8458 281.109 52.9273C280.416 53.5175 278.592 54.8369 277.896 54.6964C277.101 54.4947 275.109 53.0159 275.109 53.0159C274.323 54.0396 270.277 58.7867 271.003 59.8146C271.986 61.2065 273.537 63.4007 274.916 65.8713C275.202 66.3831 275.381 67.8685 275.581 69.5381C275.737 70.8349 275.906 72.2429 276.149 73.3922C276.192 73.5971 276.648 73.6082 277.176 73.621C277.849 73.6374 278.64 73.6566 278.845 74.0838L275.417 74.4832L273.447 66.7124C273.447 66.7124 269.658 64.1247 268.388 62.5167C267.114 60.904 268.313 57.9413 269.164 55.6318C269.678 54.2381 270.366 51.1674 271.569 49.9897C271.923 49.7882 271.974 49.3927 272.089 48.848C272.366 47.5278 272.981 46.6735 273.699 46.4517Z" fill="#8F0C2C"/>
<path d="M267.1 60.1272C266.264 61.7135 264.476 66.9282 264.476 66.9282L258 71.2183C258.127 72.0076 258.355 74.9998 258.355 74.9998C259.347 74.5839 258.891 71.823 259.364 71.5329C261.395 70.285 264.278 69.1246 265.622 68.1424C267.755 66.5839 268.459 64.8826 269.764 62.3455C270.925 59.7394 270.584 58.895 270.584 58.895L267.1 60.1272Z" fill="#8F0C2C"/>
<path d="M271.262 59.1171C271.262 59.1171 273.684 55.1356 275.14 53.0711C275.295 53.2128 275.775 53.4928 275.775 53.4928C276.078 53.1392 276.288 52.8417 276.692 52.4601C276.148 51.8795 274.901 50.4283 273.916 49.8833C273.916 49.8833 273.503 50.7358 272.955 50.8341C272.407 50.9324 271.764 50.4121 271.58 49.9872C270.476 50.6616 269.816 51.2208 269.097 51.9828C269.155 52.3365 269.422 53.2615 269.725 53.5394C269.078 54.9103 268.435 57.2336 267.862 58.2807C267.471 58.9957 265.492 61.6524 265.128 62.219C268.261 64.4384 269.805 64.3703 272.84 62.3415C272.052 61.1209 271.262 59.1171 271.262 59.1171Z" fill="#ED4F2F"/>
<path d="M269.126 51.9546L269.85 53.4182L268.616 54.6349L273.383 57.794C273.136 58.0133 272.184 58.0137 271.299 57.2348C270.644 56.6577 266.767 55.7085 266.95 54.8456C267.189 53.9809 268.708 52.3598 269.126 51.9546Z" fill="#8F0C2C"/>
<path fill-rule="evenodd" clip-rule="evenodd" d="M284.727 47.8908C284.944 47.2527 285.402 46.6032 286.102 46.1283C287.405 45.2443 288.978 45.2882 289.614 46.2265C290.251 47.1649 289.711 48.6422 288.408 49.5262C287.766 49.9616 287.059 50.1719 286.43 50.1612C285.459 50.184 284.007 50.5035 283.23 51.0458C282.84 51.3275 282.455 51.6204 282.073 51.9104C281.736 52.1661 281.403 52.4195 281.072 52.6609C281.061 52.6701 281.051 52.6742 281.041 52.6731C281.032 52.672 281.023 52.6667 281.015 52.657L280.711 52.2269C280.694 52.2066 280.695 52.1877 280.715 52.17C281.091 51.8961 281.475 51.6309 281.862 51.3636C282.212 51.1222 282.565 50.8791 282.915 50.6263C284.096 49.7745 284.51 48.529 284.727 47.8908ZM286.328 46.4606C285.216 47.215 284.729 48.4386 285.241 49.1934C285.754 49.9483 287.07 49.9486 288.182 49.1942C289.294 48.4398 289.781 47.2163 289.268 46.4614C288.756 45.7065 287.44 45.7062 286.328 46.4606Z" fill="#ED4F2F"/>
<path d="M282.853 51.672C282.87 51.3204 282.769 51.0519 282.531 51.1233C282.102 51.252 281.826 51.3735 281.649 51.6459C281.494 51.8844 281.567 52.3127 281.704 52.4077C282.091 52.6742 282.827 52.0913 282.853 51.672Z" fill="#8F0C2C"/>
<path d="M271.035 45.985C270.224 45.6056 269.314 46.1567 269.402 47.0727C269.539 48.4976 270.729 49.1716 270.729 49.1716C270.729 49.1716 270.285 46.8339 271.181 46.6886C271.547 46.6293 271.847 46.3644 271.035 45.985Z" fill="#ED4F2F"/>
<g opacity="0.8" filter="url(#filter0_f_2120_201898)">
<g filter="url(#filter1_f_2120_201898)">
<path d="M53.5792 30.1038C53.5792 41.7187 44.1635 51.1344 32.5486 51.1344C20.9337 51.1344 11.518 41.7187 11.518 30.1038C11.518 18.489 20.9337 9.07324 32.5486 9.07324C44.1635 9.07324 53.5792 18.489 53.5792 30.1038Z" fill="url(#paint11_linear_2120_201898)"/>
</g>
<circle cx="33.9811" cy="32.9686" r="21.0306" fill="url(#paint12_radial_2120_201898)"/>
<circle cx="7.05708" cy="41.4148" r="16.7283" fill="url(#paint13_radial_2120_201898)"/>
</g>
<g opacity="0.7" filter="url(#filter2_f_2120_201898)">
<g filter="url(#filter3_f_2120_201898)">
<path d="M69.3392 33.523C69.3392 43.9466 60.8892 52.3966 50.4656 52.3966C40.042 52.3966 31.592 43.9466 31.592 33.523C31.592 23.0994 40.042 14.6494 50.4656 14.6494C60.8892 14.6494 69.3392 23.0994 69.3392 33.523Z" fill="url(#paint14_linear_2120_201898)"/>
</g>
<circle cx="51.7511" cy="36.0943" r="18.8736" fill="url(#paint15_radial_2120_201898)"/>
</g>
<g filter="url(#filter4_f_2120_201898)">
<path d="M52.9893 47.1929C52.9962 47.0687 53.0486 46.9514 53.1366 46.8634C53.4552 46.5448 54 46.7704 54 47.221V64.0278C54 64.5647 53.5647 65 53.0278 65C52.4696 65 52.026 64.5311 52.057 63.9738L52.9893 47.1929Z" fill="#ED8D46"/>
</g>
<g filter="url(#filter5_f_2120_201898)">
<path d="M37.9937 44.4139C37.9972 44.1863 37.8137 44 37.5861 44C37.3695 44 37.1908 44.1693 37.179 44.3855L36.047 65.1389C36.0215 65.6067 36.3939 66 36.8624 66C37.3085 66 37.6721 65.6419 37.6789 65.1958L37.9937 44.4139Z" fill="#ED8D46"/>
</g>
<g filter="url(#filter6_f_2120_201898)">
<path d="M9.71205 49.8681C9.71205 49.7557 9.80317 49.6646 9.91558 49.6646C10.0252 49.6646 10.1151 49.7514 10.119 49.8609L10.6941 66.156C10.7039 66.4339 10.4813 66.6646 10.2032 66.6646C9.93196 66.6646 9.71205 66.4446 9.71205 66.1734V49.8681Z" fill="#ED8D46"/>
</g>
<path d="M141.624 24.6801C141.094 26.2509 139.074 26.9867 137.112 26.3257C135.15 25.6647 133.987 23.8561 134.516 22.2853C135.045 20.7146 137.066 19.9788 139.028 20.6398C140.989 21.3008 142.153 23.1094 141.624 24.6801Z" fill="#ED4F2F"/>
<path fill-rule="evenodd" clip-rule="evenodd" d="M146.413 10.4653L141.624 24.6801L140.202 24.2011L144.992 9.98633L146.413 10.4653Z" fill="#ED4F2F"/>
<path d="M145.078 9.73054C145.189 9.40211 145.41 9.12222 145.704 8.93847C145.998 8.75471 146.346 8.67842 146.69 8.72257L151.242 9.30657C151.462 9.33483 151.673 9.41154 151.86 9.53117C152.047 9.65081 152.205 9.81039 152.322 9.99842C152.44 10.1864 152.515 10.3982 152.541 10.6186C152.567 10.8389 152.543 11.0622 152.473 11.2725L151.62 13.8027L144.034 12.8294L145.078 9.73054Z" fill="#ED4F2F"/>
<path d="M91.7661 26.7814C92.0566 28.0276 91.0287 29.3314 89.4723 29.6942C87.9159 30.057 86.4174 29.342 86.127 28.0958C85.8367 26.8506 86.8644 25.5457 88.4208 25.1829C89.9772 24.8201 91.4759 25.5362 91.7661 26.7814ZM101.391 22.1598C101.681 23.406 100.653 24.7099 99.0969 25.0726C97.5405 25.4354 96.0421 24.7204 95.7516 23.4742C95.4611 22.2279 96.489 20.9241 98.0454 20.5613C99.6018 20.1986 101.1 20.9135 101.391 22.1598Z" fill="#F79049"/>
<path fill-rule="evenodd" clip-rule="evenodd" d="M100.263 22.4227L97.897 12.2723L99.0248 12.0094L101.391 22.1598L100.263 22.4227ZM89.1373 15.5031L91.7661 26.7813L90.6382 27.0442L88.0094 15.766L89.1373 15.5031Z" fill="#F79049"/>
<path d="M87.9845 15.6585C87.9193 15.3789 87.9603 15.0851 88.0995 14.834C88.2387 14.5829 88.4663 14.3925 88.7379 14.2997L97.5502 11.2944C97.7034 11.2421 97.8658 11.2225 98.027 11.2368C98.1882 11.2511 98.3446 11.2991 98.4862 11.3776C98.6277 11.456 98.7512 11.5633 98.8488 11.6925C98.9463 11.8217 99.0156 11.9698 99.0524 12.1274L99.2877 13.1368L88.2723 16.8935L87.9845 15.6585Z" fill="#F79049"/>
<path d="M178.011 28.6332C177.677 29.5273 176.501 29.9134 175.384 29.4967C174.267 29.0801 173.631 28.0178 173.965 27.1237C174.298 26.2305 175.475 25.8436 176.592 26.2602C177.708 26.6768 178.344 27.7399 178.011 28.6332ZM185.897 29.732C185.563 30.626 184.387 31.0121 183.27 30.5955C182.153 30.1789 181.517 29.1166 181.851 28.2225C182.185 27.3284 183.361 26.9423 184.478 27.359C185.594 27.7756 186.23 28.8379 185.897 29.732Z" fill="#F79049"/>
<path fill-rule="evenodd" clip-rule="evenodd" d="M185.088 29.4299L187.805 22.1477L188.614 22.4496L185.897 29.7318L185.088 29.4299ZM181.03 20.5417L178.011 28.633L177.202 28.3312L180.22 20.2398L181.03 20.5417Z" fill="#F79049"/>
<path d="M180.249 20.163C180.324 19.9624 180.471 19.7968 180.661 19.6982C180.851 19.5996 181.071 19.5752 181.278 19.6296L187.992 21.3974C188.109 21.4281 188.218 21.4829 188.312 21.5583C188.407 21.6337 188.484 21.728 188.54 21.8351C188.595 21.9423 188.628 22.0599 188.635 22.1804C188.642 22.3008 188.624 22.4215 188.582 22.5346L188.312 23.2588L179.919 21.049L180.249 20.163Z" fill="#F79049"/>
<path d="M254.666 90.3628C254.825 90.0861 254.625 89.7407 254.306 89.7407C254.159 89.7407 254.023 89.8182 253.949 89.9445L235.278 121.498C235.025 121.927 235.334 122.469 235.832 122.469C236.062 122.469 236.275 122.346 236.389 122.146L254.666 90.3628Z" fill="#8F0C2C"/>
<path d="M262.718 90.6167C262.85 90.3282 262.639 90 262.322 90C262.153 90 262 90.0974 261.928 90.2499L246.927 122.095C246.728 122.516 247.035 123 247.501 123C247.749 123 247.975 122.855 248.078 122.629L262.718 90.6167Z" fill="#8F0C2C"/>
<rect x="238.587" y="117" width="11" height="1" fill="#8F0C2C"/>
<path d="M242.651 109.999H253V110.999H242.651V109.999Z" fill="#8F0C2C"/>
<rect x="246" y="103.665" width="10" height="1" fill="#8F0C2C"/>
<rect x="249.109" y="98.3325" width="9.46869" height="0.946869" fill="#8F0C2C"/>
<rect x="251.728" y="94.0181" width="9.04081" height="0.713936" fill="#8F0C2C"/>
<path d="M282.738 50.9874C280.559 49.8903 277.886 51.1529 277.648 53.8754C277.463 55.9965 278.835 57.2119 280.157 58.1973C280.59 56.9941 282.738 50.9874 282.738 50.9874Z" fill="#ED4F2F"/>
<path d="M284.474 96.1065C284.474 96.1065 275.62 117.579 274.914 119.352C274.581 120.187 278.918 123.765 277.786 125.238L271.443 120.76L276.019 104.89L277.786 91.9553L284.474 96.1065Z" fill="#8F0C2C"/>
<path fill-rule="evenodd" clip-rule="evenodd" d="M274.544 99.0897C276.001 99.9537 277.362 101.416 278.169 103.383C279.67 107.045 278.75 110.89 276.113 111.971C273.476 113.053 270.121 110.96 268.62 107.298C267.88 105.495 267.728 103.647 268.079 102.107C268.525 99.7053 268.489 95.9677 267.557 93.7781C267.065 92.6732 266.544 91.5733 266.028 90.4847C265.573 89.5245 265.122 88.5729 264.699 87.6342C264.682 87.6034 264.677 87.5762 264.685 87.5525C264.692 87.5308 264.71 87.5121 264.738 87.4963L265.953 86.9715C266.012 86.9386 266.058 86.9516 266.091 87.0105C266.57 88.0755 267.024 89.158 267.482 90.2491C267.895 91.2344 268.311 92.2267 268.751 93.2195C270.236 96.5651 273.086 98.2256 274.544 99.0897ZM277.235 103.766C275.954 100.641 273.195 98.8126 271.074 99.6823C268.953 100.552 268.272 103.79 269.553 106.915C270.834 110.041 273.592 111.869 275.714 110.999C277.835 110.129 278.516 106.891 277.235 103.766Z" fill="#ED4F2F"/>
<path d="M282.969 58.6397C286.884 58.3134 285.476 51.922 282.376 50.8246C280.372 52.0528 281.003 57.0067 279.757 59.2778C279.319 60.077 278.813 60.3346 277.918 60.7152C275.684 61.6654 273.59 62.89 272.441 65.1055C270.981 67.8697 269.892 70.8211 268.58 73.6572C267.482 76.032 266.975 78.4184 266.581 80.9811C266.138 83.8602 265.579 87.4937 265.22 87.9729C264.745 88.6063 264.079 89.6199 264.649 90.5384C265.509 91.9237 266.66 91.868 266.66 91.868C266.407 91.1712 266.432 89.7687 267.155 89.4821L267.644 90.6392C267.849 90.2534 268.189 88.7306 267.627 87.7829C266.823 87.0445 271.852 75.184 271.852 75.184L275.303 69.795C275.303 69.795 277.891 77.5014 277.574 78.99C277.226 80.4786 275.45 83.5705 275.893 85.8825C277.346 93.459 278.647 100.166 280.719 107.603L282.798 124.016L290.328 125.714C290.47 124.323 288.754 123.532 287.419 122.916C286.59 122.534 285.909 122.22 285.909 121.872C285.765 120.287 285.595 113.042 285.432 106.067C285.341 102.167 285.252 98.3512 285.17 95.6564C284.835 84.7094 287.285 74.0717 288.212 63.2666C288.402 61.0495 286.25 60.3863 284.698 60.0379C283.803 59.8409 283.082 59.7023 282.969 58.6397Z" fill="#8F0C2C"/>
<path d="M289.069 69.5578L289.519 73.5641C289.519 73.5641 293.021 80.9936 293.538 83.5021C293.759 84.579 294.04 88.3162 294.04 88.3162C292.552 88.6164 291.014 84.5895 291.451 83.1764C291.747 82.2224 286.62 75.0743 286.62 75.0743L285.423 69.375L289.069 69.5578Z" fill="#8F0C2C"/>
<path d="M284.73 60.0371C284.341 60.7395 283.444 62.0759 281.914 62.0759C279.222 62.266 278.661 60.3702 278.661 60.3702C276.57 61.396 274.332 61.507 272.77 64.5202C272.263 65.4704 271.143 67.8285 270.415 69.5072C271.557 70.1723 272.805 70.8508 274.106 71.6773L275.134 70.1723L277.319 78.5338C276.901 80.4027 275.35 83.1637 275.892 85.9137C276.697 89.9383 276.881 92.2099 277.77 96.2135C277.77 96.2135 283.95 95.6831 285.197 95.6831C286.099 86.8769 286.592 78.2035 287.651 69.5508C288.187 69.5431 288.534 69.5508 289.071 69.5508C288.774 67.6021 288.724 64.7183 288.473 63.008C288.213 61.2343 286.715 60.3702 284.73 60.0371Z" fill="#ED4F2F"/>
</g>
<defs>
<filter id="filter0_f_2120_201898" x="-13.6712" y="5.07324" width="72.6829" height="57.0698" filterUnits="userSpaceOnUse" color-interpolation-filters="sRGB">
<feFlood flood-opacity="0" result="BackgroundImageFix"/>
<feBlend mode="normal" in="SourceGraphic" in2="BackgroundImageFix" result="shape"/>
<feGaussianBlur stdDeviation="2" result="effect1_foregroundBlur_2120_201898"/>
</filter>
<filter id="filter1_f_2120_201898" x="-14.7892" y="-17.2339" width="94.6756" height="94.6754" filterUnits="userSpaceOnUse" color-interpolation-filters="sRGB">
<feFlood flood-opacity="0" result="BackgroundImageFix"/>
<feBlend mode="normal" in="SourceGraphic" in2="BackgroundImageFix" result="shape"/>
<feGaussianBlur stdDeviation="13.1536" result="effect1_foregroundBlur_2120_201898"/>
</filter>
<filter id="filter2_f_2120_201898" x="27.592" y="10.6494" width="47.0327" height="48.3184" filterUnits="userSpaceOnUse" color-interpolation-filters="sRGB">
<feFlood flood-opacity="0" result="BackgroundImageFix"/>
<feBlend mode="normal" in="SourceGraphic" in2="BackgroundImageFix" result="shape"/>
<feGaussianBlur stdDeviation="2" result="effect1_foregroundBlur_2120_201898"/>
</filter>
<filter id="filter3_f_2120_201898" x="5.28479" y="-11.6578" width="90.3616" height="90.3614" filterUnits="userSpaceOnUse" color-interpolation-filters="sRGB">
<feFlood flood-opacity="0" result="BackgroundImageFix"/>
<feBlend mode="normal" in="SourceGraphic" in2="BackgroundImageFix" result="shape"/>
<feGaussianBlur stdDeviation="13.1536" result="effect1_foregroundBlur_2120_201898"/>
</filter>
<filter id="filter4_f_2120_201898" x="51.0555" y="45.7144" width="3.94452" height="20.2856" filterUnits="userSpaceOnUse" color-interpolation-filters="sRGB">
<feFlood flood-opacity="0" result="BackgroundImageFix"/>
<feBlend mode="normal" in="SourceGraphic" in2="BackgroundImageFix" result="shape"/>
<feGaussianBlur stdDeviation="0.5" result="effect1_foregroundBlur_2120_201898"/>
</filter>
<filter id="filter5_f_2120_201898" x="35.0457" y="43" width="3.94804" height="24" filterUnits="userSpaceOnUse" color-interpolation-filters="sRGB">
<feFlood flood-opacity="0" result="BackgroundImageFix"/>
<feBlend mode="normal" in="SourceGraphic" in2="BackgroundImageFix" result="shape"/>
<feGaussianBlur stdDeviation="0.5" result="effect1_foregroundBlur_2120_201898"/>
</filter>
<filter id="filter6_f_2120_201898" x="8.71205" y="48.6646" width="2.98236" height="19" filterUnits="userSpaceOnUse" color-interpolation-filters="sRGB">
<feFlood flood-opacity="0" result="BackgroundImageFix"/>
<feBlend mode="normal" in="SourceGraphic" in2="BackgroundImageFix" result="shape"/>
<feGaussianBlur stdDeviation="0.5" result="effect1_foregroundBlur_2120_201898"/>
</filter>
<linearGradient id="paint0_linear_2120_201898" x1="190.324" y1="32.2271" x2="139.128" y2="179.59" gradientUnits="userSpaceOnUse">
<stop stop-color="#ED4F2F"/>
<stop offset="0.23244" stop-color="#FF9345" stop-opacity="0.19"/>
<stop offset="0.547809" stop-color="#FF9345"/>
<stop offset="1" stop-color="#ED4F2F"/>
</linearGradient>
<radialGradient id="paint1_radial_2120_201898" cx="0" cy="0" r="1" gradientUnits="userSpaceOnUse" gradientTransform="translate(5.21926 3.31313) rotate(-168.833) scale(6.28558 4.21632)">
<stop stop-color="#FF702E"/>
<stop offset="1" stop-color="#9B1D3B"/>
</radialGradient>
<radialGradient id="paint2_radial_2120_201898" cx="0" cy="0" r="1" gradientUnits="userSpaceOnUse" gradientTransform="translate(3.61357 2.29385) rotate(-168.833) scale(4.35184 2.91918)">
<stop stop-color="#FF702E"/>
<stop offset="1" stop-color="#9B1D3B"/>
</radialGradient>
<linearGradient id="paint3_linear_2120_201898" x1="5.4819" y1="3.24522" x2="-0.798108" y2="1.54475" gradientUnits="userSpaceOnUse">
<stop stop-color="#FF702E"/>
<stop offset="1" stop-color="#9B1D3B"/>
</linearGradient>
<radialGradient id="paint4_radial_2120_201898" cx="0" cy="0" r="1" gradientUnits="userSpaceOnUse" gradientTransform="translate(5.21926 3.31313) rotate(-168.833) scale(6.28558 4.21632)">
<stop stop-color="#FF702E"/>
<stop offset="1" stop-color="#9B1D3B"/>
</radialGradient>
<linearGradient id="paint5_linear_2120_201898" x1="5.4819" y1="3.24522" x2="-0.798108" y2="1.54475" gradientUnits="userSpaceOnUse">
<stop stop-color="#FF702E"/>
<stop offset="1" stop-color="#9B1D3B"/>
</linearGradient>
<radialGradient id="paint6_radial_2120_201898" cx="0" cy="0" r="1" gradientUnits="userSpaceOnUse" gradientTransform="translate(3.49496 2.09506) rotate(90.1207) scale(6.06418 4.06781)">
<stop stop-color="#FF702E"/>
<stop offset="1" stop-color="#9B1D3B"/>
</radialGradient>
<radialGradient id="paint7_radial_2120_201898" cx="0" cy="0" r="1" gradientUnits="userSpaceOnUse" gradientTransform="translate(1.74012 3.43479) rotate(14.7242) scale(7.35728 4.93521)">
<stop stop-color="#FF702E"/>
<stop offset="1" stop-color="#9B1D3B"/>
</radialGradient>
<linearGradient id="paint8_linear_2120_201898" x1="5.4819" y1="3.24522" x2="-0.798108" y2="1.54475" gradientUnits="userSpaceOnUse">
<stop stop-color="#FF702E"/>
<stop offset="1" stop-color="#9B1D3B"/>
</linearGradient>
<linearGradient id="paint9_linear_2120_201898" x1="5.4819" y1="3.24522" x2="-0.798108" y2="1.54475" gradientUnits="userSpaceOnUse">
<stop stop-color="#FF702E"/>
<stop offset="1" stop-color="#9B1D3B"/>
</linearGradient>
<radialGradient id="paint10_radial_2120_201898" cx="0" cy="0" r="1" gradientUnits="userSpaceOnUse" gradientTransform="translate(137.032 63.7717) rotate(159.222) scale(6.58375 4.41633)">
<stop stop-color="#FF702E"/>
<stop offset="1" stop-color="#9B1D3B"/>
</radialGradient>
<linearGradient id="paint11_linear_2120_201898" x1="45.6716" y1="29.2918" x2="-10.7591" y2="-2.34373" gradientUnits="userSpaceOnUse">
<stop stop-color="#E11313" stop-opacity="0.51"/>
<stop offset="1" stop-color="#FAF7F8" stop-opacity="0.15"/>
</linearGradient>
<radialGradient id="paint12_radial_2120_201898" cx="0" cy="0" r="1" gradientUnits="userSpaceOnUse" gradientTransform="translate(51.9282 42.2242) rotate(-151.29) scale(37.7729 36.6443)">
<stop stop-color="#FF8D24"/>
<stop offset="1" stop-color="#B33A14" stop-opacity="0"/>
</radialGradient>
<radialGradient id="paint13_radial_2120_201898" cx="0" cy="0" r="1" gradientUnits="userSpaceOnUse" gradientTransform="translate(21.3327 48.777) rotate(-151.29) scale(30.0456 29.1479)">
<stop stop-color="#FF8D24"/>
<stop offset="1" stop-color="#B33A14" stop-opacity="0"/>
</radialGradient>
<linearGradient id="paint14_linear_2120_201898" x1="62.2426" y1="32.7942" x2="11.5997" y2="4.40342" gradientUnits="userSpaceOnUse">
<stop stop-color="#E11313" stop-opacity="0.51"/>
<stop offset="1" stop-color="#5C0A27"/>
</linearGradient>
<radialGradient id="paint15_radial_2120_201898" cx="0" cy="0" r="1" gradientUnits="userSpaceOnUse" gradientTransform="translate(67.8575 44.4006) rotate(-151.29) scale(33.8987 32.8859)">
<stop stop-color="#FF8D24"/>
<stop offset="1" stop-color="#B33A14" stop-opacity="0"/>
</radialGradient>
<clipPath id="clip0_2120_201898">
<rect width="327" height="140" fill="white"/>
</clipPath>
</defs>
</svg>
