<svg viewBox="0 0 88 88" fill="none" xmlns="http://www.w3.org/2000/svg">
<g clip-path="url(#clip0_2137_223688)">
<g clip-path="url(#clip1_2137_223688)">
<rect width="205.543" height="88" transform="translate(-7)" fill="#D2ECFF"/>
<rect x="-47.8571" y="39.6001" width="246.4" height="48.4" fill="url(#paint0_linear_2137_223688)"/>
<rect x="198.543" y="39.6001" width="214.692" height="39.6" transform="rotate(-180 198.543 39.6001)" fill="url(#paint1_linear_2137_223688)"/>
<path d="M-20.8286 64.7427H31.3428C31.69 64.7427 31.9714 65.0241 31.9714 65.3712C31.9714 65.7184 31.69 65.9998 31.3428 65.9998H-21.4572L-20.8286 64.7427Z" fill="#83B0F3"/>
<path fill-rule="evenodd" clip-rule="evenodd" d="M35.7429 49.4135V79.1752L64.9341 51.1477V41.1794L35.7429 49.4135ZM66.6266 52.1369C66.75 52.0184 66.8198 51.8546 66.8198 51.6835V39.5186C66.8198 39.1019 66.4216 38.8005 66.0206 38.9136L34.3151 47.8569C34.0442 47.9333 33.8571 48.1804 33.8571 48.4619V82.125C33.8571 82.6788 34.5215 82.962 34.9211 82.5784L66.6266 52.1369Z" fill="#83B0F3"/>
<path d="M65.1883 40.5068L35.5148 49.0318V80.007L65.1883 51.9405V40.5068ZM64.5836 49.4106L63.4376 50.3397V48.6708L64.5836 47.8896V49.4106ZM47.8148 54.9085L50.2699 53.5532V56.9413L47.8148 58.6161V54.9085ZM47.2101 59.0304L44.3558 60.9774V56.8082L47.2101 55.2339V59.0304ZM50.8747 53.2188L53.2724 51.8932V54.8848L50.8837 56.5123L50.8747 53.2188ZM53.8771 51.5588L55.9603 50.4078V53.0709L53.8771 54.4942V51.5588ZM56.565 50.0793L58.5636 48.9756V51.2836L56.565 52.6478V50.0793ZM59.1683 48.6412L60.7829 47.7535V49.7686L59.1683 50.8723V48.6412ZM61.3877 47.4162L62.8329 46.6172V48.369L61.3877 49.3543V47.4162ZM61.3877 46.7356V44.7974L62.8329 44.1908V45.9367L61.3877 46.7356ZM60.7829 47.07L59.1683 47.9577V45.7295L60.7829 45.049V47.07ZM58.5636 48.295L56.565 49.3987V46.8273L58.5636 45.987V48.295ZM55.9603 49.7331L53.8771 50.8842V47.9577L55.9603 47.07V49.7331ZM53.2724 51.2126L50.8747 52.5383V49.2094L53.2724 48.2003V51.2126ZM50.2699 52.8726L47.8148 54.2279V50.4965L50.2699 49.4638V52.8726ZM47.2101 54.5622L44.3558 56.1394V51.9494L47.2101 50.751V54.5622ZM43.7511 56.4738L40.5733 58.2285V53.5532L43.7511 52.2157V56.4738ZM43.7511 57.1514V61.3917L40.5733 63.5636V58.9032L43.7511 57.1514ZM43.7511 62.1137V66.3244L40.5733 68.9047V64.2797L43.7511 62.1137ZM44.3558 61.6994L47.2101 59.7524V63.5163L44.3558 65.8332V61.6994ZM47.8148 59.3322L50.2699 57.6574V61.0277L47.8239 63.0221L47.8148 59.3322ZM50.8747 57.2431L53.2724 55.6068V58.5836L50.8747 60.5306V57.2431ZM53.8771 55.1955L55.9603 53.7692V56.4057L53.8771 58.0983V55.1955ZM56.565 53.3579L58.5636 51.9938V54.29L56.5741 55.9204L56.565 53.3579ZM59.1683 51.5825L60.7829 50.4788V52.4909L59.1683 53.8018V51.5825ZM61.3877 50.0675L62.8329 49.0792V50.8279L61.3877 52.0116V50.0675ZM64.5836 47.1617L63.4467 47.9311V46.2592L64.5927 45.626L64.5836 47.1617ZM64.5836 44.9602L63.4376 45.5905V43.9245L64.5836 43.4422V44.9602ZM64.5836 41.2969V42.8001L63.4376 43.2794V41.6254L64.5836 41.2969ZM62.8329 41.7999V43.5339L61.3877 44.1435V42.2142L62.8329 41.7999ZM60.7829 42.3917V44.4009L59.1683 45.0785V42.8563L60.7829 42.3917ZM58.5636 43.0279V45.333L56.565 46.1734V43.6049L58.5636 43.0279ZM55.9694 43.7884V46.4515L53.8861 47.3392V44.3802L55.9694 43.7884ZM53.2814 44.5607V47.57L50.8837 48.5791V45.2354L53.2814 44.5607ZM50.279 45.4247V48.8188L47.8239 49.8515V46.1142L50.279 45.4247ZM47.2191 46.3125V50.1296L44.3649 51.328V47.1084L47.2191 46.3125ZM43.7602 47.3067V51.5825L40.5824 52.92V48.1974L43.7602 47.3067ZM36.1286 49.4993L39.9776 48.3927V53.1745L36.1286 54.7931V49.4993ZM36.1286 55.4381L39.9776 53.8195V58.5806L36.1286 60.7082V55.4381ZM36.1286 61.3858L39.9776 59.2612V63.9956L36.1286 66.6262V61.3858ZM36.1286 67.3423L39.9776 64.7147V69.4136L36.1286 72.5384V67.3423ZM36.1286 78.4624V73.2841L39.9776 70.1593V74.8198L36.1286 78.4624ZM40.5824 74.2665V69.6681L43.7602 67.0878V71.263L40.5824 74.2665ZM44.3649 70.7156V66.5966L47.2191 64.2797V68.014L44.3649 70.7156ZM47.8239 67.4607V63.7885L50.279 61.7971V65.1408L47.8239 67.4607ZM50.8837 64.5875V61.3325L53.2814 59.3855V62.3445L50.8837 64.5875ZM53.8861 61.7645V58.8795L55.9694 57.1869V59.8027L53.8861 61.7645ZM56.5741 59.2375V56.6987L58.5727 55.0742V57.3585L56.5741 59.2375ZM59.1774 56.7904V54.583L60.792 53.2721V55.2754L59.1774 56.7904ZM61.3967 54.7191V52.7927L62.842 51.6091V53.349L61.3967 54.7191ZM63.4467 52.7927V51.1298L64.5927 50.2006V51.7157L63.4467 52.7927Z" fill="#83B0F3"/>
<path d="M78.6442 36.187L69.9422 38.7667V48.1397L78.6442 39.6468V36.187ZM78.4669 38.8813L78.1308 39.1624V38.6574L78.4669 38.421V38.8813ZM73.5493 40.5449L74.2693 40.1348V41.1601L73.5493 41.6669V40.5449ZM73.3719 41.7922L72.5349 42.3814V41.1198L73.3719 40.6434V41.7922ZM74.4466 40.0337L75.1498 39.6325V40.5378L74.4493 41.0302L74.4466 40.0337ZM75.3271 39.5313L75.938 39.183V39.9889L75.3271 40.4196V39.5313ZM76.1154 39.0836L76.7015 38.7497V39.4481L76.1154 39.8608V39.0836ZM76.8788 38.6485L77.3523 38.3798V38.9896L76.8788 39.3236V38.6485ZM77.5297 38.2778L77.9535 38.036V38.5661L77.5297 38.8643V38.2778ZM77.5297 38.0718V37.4853L77.9535 37.3018V37.8301L77.5297 38.0718ZM77.3523 38.173L76.8788 38.4416V37.7674L77.3523 37.5615V38.173ZM76.7015 38.5437L76.1154 38.8777V38.0996L76.7015 37.8453V38.5437ZM75.938 38.9789L75.3271 39.3272V38.4416L75.938 38.173V38.9789ZM75.1498 39.4266L74.4466 39.8277V38.8204L75.1498 38.5151V39.4266ZM74.2693 39.9289L73.5493 40.339V39.2099L74.2693 38.8974V39.9289ZM73.3719 40.4402L72.5349 40.9174V39.6495L73.3719 39.2869V40.4402ZM72.3575 41.0186L71.4256 41.5496V40.1348L72.3575 39.7301V41.0186ZM72.3575 41.2236V42.5068L71.4256 43.164V41.7537L72.3575 41.2236ZM72.3575 42.7252V43.9994L71.4256 44.7802V43.3807L72.3575 42.7252ZM72.5349 42.5999L73.3719 42.0107V43.1497L72.5349 43.8508V42.5999ZM73.5493 41.8836L74.2693 41.3768V42.3966L73.5519 43.0001L73.5493 41.8836ZM74.4466 41.2514L75.1498 40.7562V41.657L74.4466 42.2462V41.2514ZM75.3271 40.6318L75.938 40.2002V40.998L75.3271 41.5102V40.6318ZM76.1154 40.0757L76.7015 39.663V40.3578L76.118 40.8512L76.1154 40.0757ZM76.8788 39.5385L77.3523 39.2045V39.8134L76.8788 40.2101V39.5385ZM77.5297 39.0801L77.9535 38.781V39.3102L77.5297 39.6683V39.0801ZM78.4669 38.2008L78.1335 38.4336V37.9277L78.4696 37.7361L78.4669 38.2008ZM78.4669 37.5346L78.1308 37.7253V37.2212L78.4669 37.0753V37.5346ZM78.4669 36.4261V36.8809L78.1308 37.026V36.5255L78.4669 36.4261ZM77.9535 36.5783V37.103L77.5297 37.2875V36.7037L77.9535 36.5783ZM77.3523 36.7574V37.3654L76.8788 37.5704V36.898L77.3523 36.7574ZM76.7015 36.9499V37.6474L76.1154 37.9017V37.1245L76.7015 36.9499ZM75.9407 37.18V37.9859L75.3298 38.2545V37.3591L75.9407 37.18ZM75.1524 37.4137V38.3243L74.4493 38.6297V37.6179L75.1524 37.4137ZM74.2719 37.6752V38.7022L73.5519 39.0147V37.8838L74.2719 37.6752ZM73.3746 37.9438V39.0989L72.5375 39.4615V38.1847L73.3746 37.9438ZM72.3602 38.2446V39.5385L71.4283 39.9432V38.5142L72.3602 38.2446ZM70.1222 38.9081L71.2509 38.5733V40.0202L70.1222 40.51V38.9081ZM70.1222 40.7052L71.2509 40.2154V41.6561L70.1222 42.2999V40.7052ZM70.1222 42.505L71.2509 41.8621V43.2947L70.1222 44.0907V42.505ZM70.1222 44.3074L71.2509 43.5123V44.9342L70.1222 45.8797V44.3074ZM70.1222 47.6723V46.1054L71.2509 45.1598V46.5701L70.1222 47.6723ZM71.4283 46.4026V45.0112L72.3602 44.2304V45.4938L71.4283 46.4026ZM72.5375 45.3282V44.0818L73.3746 43.3807V44.5107L72.5375 45.3282ZM73.5519 44.3432V43.232L74.2719 42.6294V43.6412L73.5519 44.3432ZM74.4493 43.4738V42.4888L75.1524 41.8997V42.7951L74.4493 43.4738ZM75.3298 42.6196V41.7466L75.9407 41.2344V42.0259L75.3298 42.6196ZM76.118 41.8549V41.0867L76.7041 40.5951V41.2863L76.118 41.8549ZM76.8815 41.1144V40.4464L77.355 40.0498V40.656L76.8815 41.1144ZM77.5323 40.4876V39.9047L77.9562 39.5466V40.0731L77.5323 40.4876ZM78.1335 39.9047V39.4015L78.4696 39.1203V39.5788L78.1335 39.9047Z" fill="#83B0F3"/>
<path fill-rule="evenodd" clip-rule="evenodd" d="M78.4096 36.4405L70.2104 38.8184V47.7188L78.4096 39.6819L78.4096 36.4405ZM70.0353 38.2147C69.7667 38.2926 69.5818 38.5387 69.5818 38.8184V47.7188C69.5818 48.2758 70.2527 48.5576 70.6504 48.1677L78.8496 40.1308C78.9702 40.0126 79.0382 39.8508 79.0382 39.6819V36.4405C79.0382 36.0218 78.6366 35.7202 78.2345 35.8368L70.0353 38.2147Z" fill="#83B0F3"/>
<path d="M-38.9837 51.5897C-38.6041 51.1601 -38.0583 50.9141 -37.485 50.9141H21.536C21.7372 50.9141 21.9003 51.0772 21.9003 51.2783C21.9003 51.4795 21.7372 51.6426 21.536 51.6426H-36.7362C-37.3225 51.6426 -37.8793 51.8999 -38.2593 52.3464L-61.6799 79.8659C-62.2326 80.5153 -61.7711 81.5141 -60.9184 81.5141H30.6143C31.0167 81.5141 31.3428 81.8403 31.3428 82.2426C31.3428 82.645 31.0167 82.9712 30.6143 82.9712H-62.278C-64.0009 82.9712 -64.9176 80.9379 -63.7767 79.6469L-38.9837 51.5897Z" fill="#83B0F3"/>
<ellipse cx="76.7834" cy="18.0577" rx="1.64053" ry="1.64053" transform="rotate(60.6537 76.7834 18.0577)" fill="url(#paint2_radial_2137_223688)"/>
<path d="M75.7391 17.7385C75.5003 18.511 76.2851 18.98 76.8144 18.9189C77.2241 18.8717 77.6555 18.9211 77.4829 19.5394C77.491 19.5358 77.4981 19.5326 77.5046 19.5297C77.5328 19.517 77.549 19.5097 77.5835 19.4903C77.7858 18.7809 77.1873 18.7731 76.9018 18.7694C76.3573 18.7623 75.8165 18.3546 75.9837 17.814C76.1508 17.2735 76.8285 17.2431 77.2806 17.5434C77.5184 17.7014 78.017 18.0327 78.2502 17.3327C78.2326 17.2973 78.2234 17.2821 78.2072 17.2557C78.2035 17.2497 78.1995 17.2431 78.1949 17.2355C77.9879 17.8431 77.6354 17.6381 77.2958 17.3766C76.8044 16.9982 75.9706 16.9894 75.7391 17.7385Z" fill="#316BDA"/>
<circle cx="47.005" cy="15.952" r="2.98046" transform="rotate(-94.2369 47.005 15.952)" fill="url(#paint3_radial_2137_223688)"/>
<path d="M48.4768 17.2828C49.4651 16.196 48.5356 14.8195 47.6177 14.5118C46.9074 14.2738 46.2357 13.8597 46.9963 12.9756C46.9802 12.9754 46.9661 12.9752 46.9532 12.975C46.897 12.9741 46.8647 12.9736 46.7931 12.9789C45.9133 13.9901 46.8919 14.4643 47.3587 14.6905C48.2489 15.1219 48.8243 16.2095 48.1326 16.9699C47.441 17.7302 46.3026 17.2578 45.7904 16.4152C45.521 15.972 44.9562 15.0427 44.033 16.0144C44.0345 16.0861 44.038 16.1182 44.0443 16.1741C44.0457 16.1869 44.0473 16.2009 44.049 16.217C44.8579 15.3769 45.2797 15.9859 45.6368 16.6779C46.1535 17.6793 47.5184 18.3367 48.4768 17.2828Z" fill="#316BDA"/>
<path d="M122.652 44.6284H75.6571C75.4836 44.6284 75.3429 44.7691 75.3429 44.9427C75.3429 45.1163 75.4836 45.257 75.6571 45.257H122.317L122.652 44.6284Z" fill="#83B0F3"/>
<path d="M112.429 64.7427H56.4857C56.1386 64.7427 55.8572 65.0241 55.8572 65.3712C55.8572 65.7184 56.1386 65.9998 56.4857 65.9998H112.051L112.429 64.7427Z" fill="#83B0F3"/>
<path d="M141.238 52.7907C141.569 51.5235 140.613 50.2856 139.303 50.2856H71.8912C71.5805 50.2856 71.4071 50.6443 71.6001 50.8878C71.6705 50.9767 71.7777 51.0285 71.8912 51.0285H139.08C139.742 51.0285 140.221 51.6605 140.043 52.2982L132.277 80.0251C132.035 80.8887 131.248 81.4856 130.351 81.4856H41.5143C41.104 81.4856 40.7714 81.8182 40.7714 82.2285C40.7714 82.6388 41.104 82.9714 41.5143 82.9714H131.816C132.726 82.9714 133.522 82.357 133.751 81.4764L141.238 52.7907Z" fill="#83B0F3"/>
<path d="M143.798 42.7446C144.137 41.4748 143.18 40.2285 141.866 40.2285H78.7151C78.6995 40.2285 78.6841 40.2319 78.67 40.2385C78.5659 40.2867 78.6003 40.4428 78.7151 40.4428H142.718C143.384 40.4428 143.864 41.0809 143.679 41.7204L141.985 47.5836C141.738 48.4394 140.955 49.0285 140.064 49.0285H71.7016C71.6182 49.0285 71.5383 49.0616 71.4794 49.1206C71.2814 49.3186 71.4216 49.6571 71.7016 49.6571H140.416C141.322 49.6571 142.114 49.0483 142.348 48.1732L143.798 42.7446Z" fill="#83B0F3"/>
<path d="M33.2286 44.6284H-9.2C-9.37357 44.6284 -9.51428 44.7691 -9.51428 44.9427C-9.51428 45.1163 -9.37357 45.257 -9.2 45.257H32.9436L33.2286 44.6284Z" fill="#83B0F3"/>
<path d="M29.8999 26.9995C29.1224 26.399 28.1841 26.9027 28.1166 27.6744C28.0641 28.2755 28.3754 28.5698 28.7501 28.8491C28.8726 28.5081 29.8999 26.9995 29.8999 26.9995Z" fill="#071335"/>
<path d="M29.8999 26.9995C30.2834 27.3831 30.948 29.1031 29.6173 29.1031C29.6974 29.3588 30.0549 29.4443 30.0549 29.4443L32.3249 31.3437L32.9327 32.0903C32.9327 32.0903 35.047 31.3671 34.9955 30.8191C35.0561 30.5648 35.8776 30.1821 35.8776 30.1821C35.9666 30.3 35.8425 30.4236 35.742 30.5237C35.6489 30.6165 35.576 30.6891 35.7119 30.7182C36.4709 31.0946 36.0398 31.2281 35.6667 31.3437C35.524 31.3879 35.3899 31.4295 35.3339 31.481C35.2996 31.5091 35.2463 31.5546 35.1782 31.6126C34.6851 32.0331 33.414 33.1169 32.9372 33.1169C32.2783 33.1169 31.0878 31.8382 31.0878 31.8382C30.5279 32.5674 27.4616 35.7868 27.9789 36.519C28.6795 37.5106 29.784 39.0737 30.767 40.8338C30.9706 41.1984 31.0976 42.2565 31.2404 43.446C31.3514 44.3698 31.4718 45.3728 31.645 46.1915C31.6759 46.3375 32.0005 46.3454 32.3767 46.3545C32.8563 46.3662 33.4197 46.3799 33.5654 46.6842L30.982 47.1323L29.5589 41.4815C29.5589 41.4815 27.1525 39.4399 26.2475 38.2944C25.3399 37.1455 26.0628 35.1846 26.6692 33.5393C27.0352 32.5464 27.212 29.9831 28.2151 29.568C28.7134 29.3618 28.6712 29.0947 28.7528 28.7066C28.9504 27.7662 29.3879 27.1575 29.8999 26.9995Z" fill="#316BDA"/>
<path d="M25.1987 36.7416C24.6034 37.8716 23.34 41.3294 23.34 41.3294L18.5649 44.4521C18.6554 45.0144 18.9689 47.3366 18.9689 47.3366C19.6755 47.0403 19.351 45.0734 19.6874 44.8668C21.1348 43.9778 23.1085 43.3856 24.0658 42.5878C25.5114 41.3831 26.1671 40.1292 27.0964 38.3218C27.9238 36.4653 27.6807 35.8638 27.6807 35.8638L25.1987 36.7416Z" fill="#316BDA"/>
<path d="M28.1235 36.4342C28.1235 36.4342 30.0745 33.3922 31.1112 31.9215C31.2222 32.0224 31.4928 32.2469 31.4928 32.2469C31.7086 31.995 32.045 31.6184 32.3328 31.3466C31.3454 30.1034 31.0759 29.832 30.0547 29.4437C30.0547 29.4437 29.8151 29.7619 29.4249 29.832C29.0346 29.902 28.6045 29.7094 28.4733 29.4067C28.3222 29.4826 28.1793 29.5495 28.0435 29.6131C27.3409 29.9421 26.8293 30.1817 26.3587 31.1117C26.5309 31.2774 26.8531 31.8503 27.0689 32.0483C26.608 33.0249 25.9262 34.3918 25.4293 35.6659C24.8491 37.1536 24.4246 38.3569 24.239 38.9736C25.0062 39.5171 25.6861 39.9132 26.1114 40.1478C26.1114 40.1478 26.5992 39.3579 26.8176 39.0281L27.5752 39.6701C28.1031 39.4135 28.6488 38.8393 29.2786 38.4183C28.7171 37.5488 28.1235 36.4342 28.1235 36.4342Z" fill="#071335"/>
<path d="M26.5301 30.8296L27.2768 32.0605L26.495 32.8676L30.1613 34.6439C30.0077 34.8223 29.314 34.9932 28.6155 34.5275C28.0979 34.1824 24.9874 33.9551 25.034 33.3285C25.1206 32.6953 26.2738 31.1555 26.5301 30.8296Z" fill="#316BDA"/>
<path fill-rule="evenodd" clip-rule="evenodd" d="M37.7559 28.0244C37.9107 27.5698 38.2371 27.1071 38.7357 26.7688C39.664 26.139 40.7841 26.1704 41.2376 26.8388C41.6911 27.5072 41.3062 28.5597 40.378 29.1894C39.9208 29.4996 39.4171 29.6494 38.9694 29.6418C38.2773 29.658 37.2427 29.8857 36.6897 30.2719C36.4118 30.4727 36.1371 30.6813 35.8652 30.8879C35.6254 31.07 35.3878 31.2505 35.152 31.4225C35.1445 31.4291 35.1372 31.432 35.1302 31.4312C35.1237 31.4305 35.1175 31.4267 35.1115 31.4198L34.8951 31.1133C34.8826 31.0989 34.8835 31.0854 34.8979 31.0728C35.1654 30.8777 35.4392 30.6888 35.7152 30.4984C35.9644 30.3264 36.2154 30.1532 36.4652 29.9731C37.3066 29.3663 37.6012 28.479 37.7559 28.0244ZM38.8962 27.0055C38.104 27.543 37.7576 28.4146 38.1225 28.9524C38.4873 29.4901 39.4252 29.4904 40.2174 28.9529C41.0096 28.4155 41.356 27.5439 40.9911 27.0061C40.6263 26.4684 39.6884 26.4681 38.8962 27.0055Z" fill="#071335"/>
<path d="M36.4211 30.7185C36.433 30.468 36.3612 30.2767 36.1916 30.3276C35.8858 30.4193 35.6893 30.5059 35.5633 30.6999C35.4528 30.8698 35.5046 31.1749 35.6028 31.2426C35.8783 31.4325 36.4027 31.0172 36.4211 30.7185Z" fill="#316BDA"/>
<path d="M14.0689 26.1147C12.6598 25.759 11.3792 26.9155 11.8003 28.3477C12.4554 30.5754 14.5574 31.2846 14.5574 31.2846C14.5574 31.2846 13.1331 27.6969 14.5163 27.191C15.0816 26.9842 15.478 26.4705 14.0689 26.1147Z" fill="#071335"/>
<path d="M18.4436 26.2994C16.7093 24.9599 14.5736 25.6314 14.4232 27.3525C14.3059 28.6934 15.3447 29.5877 16.1607 30.4104C16.434 29.6498 18.4436 26.2994 18.4436 26.2994Z" fill="#071335"/>
<path fill-rule="evenodd" clip-rule="evenodd" d="M8.5469 53.4022C7.45517 53.0773 6.06543 53.1964 4.76604 53.7628C2.3971 54.7955 1.11874 57.0377 1.91075 58.7709C2.70276 60.5042 5.26522 61.0722 7.63416 60.0395C8.88792 59.493 9.6342 58.7766 10.4132 57.6002C11.2559 56.3274 12.7542 54.7603 14.212 54.1489C14.9453 53.8552 15.6908 53.5778 16.4287 53.3031C17.0796 53.0608 17.7247 52.8206 18.3505 52.5735C18.3929 52.561 18.4072 52.5333 18.3934 52.4904L18.0405 51.6792C18.0268 51.6363 17.9987 51.6211 17.9563 51.6337C17.2464 51.914 16.5412 52.2147 15.8304 52.5178C15.1887 52.7914 14.5425 53.0669 13.8841 53.3312C11.0879 54.4537 9.06864 53.4955 8.5469 53.4022ZM5.04651 54.3765C7.06809 53.4953 9.22343 53.9113 9.8606 55.3057C10.4978 56.7001 9.37547 58.5449 7.35389 59.4261C5.33231 60.3073 3.17697 59.8913 2.53981 58.4969C1.90264 57.1025 3.02493 55.2578 5.04651 54.3765Z" fill="#071335"/>
<path d="M14.8436 53.5088C15.0213 54.1972 15.2656 53.8641 15.5987 53.9752C15.9318 54.0862 15.9318 53.8641 16.1983 53.9307C16.487 53.9974 16.487 53.7531 16.6868 53.7531C16.8645 53.7753 16.9089 52.887 16.8423 52.5761C16.7757 52.2652 16.487 52.3318 16.3981 52.3984C16.3093 52.465 16.1983 52.1763 15.954 52.3318C15.7097 52.4872 15.6209 52.2207 15.3544 52.3984C15.1101 52.5539 14.9991 52.5539 14.9102 52.8204C14.8214 53.0868 14.8214 53.3755 14.8436 53.5088Z" fill="#316BDA"/>
<path d="M18.8871 30.9054C19.9107 29.665 19.7239 27.4024 18.4407 26.3042C16.5971 27.0009 16.1251 29.2273 16.1638 30.5129C16.1964 31.5968 16.2815 31.8677 15.2155 33.2223C14.1495 34.5548 13.8011 35.3202 13.8011 35.3202C13.8011 35.3202 15.7979 45.1142 15.2649 46.8241C14.6034 50.4141 13.196 58.4897 13.196 58.4897C13.196 58.4897 9.26678 70.0232 8.23563 72.3501C7.53383 73.645 5.43106 75.4288 7.4164 75.4288C8.61968 75.4288 9.35889 74.1888 9.72183 72.7212C10.0848 71.2537 16.3274 61.6303 17.3751 59.0014C18.2123 56.9004 19.1768 55.3486 19.7151 52.8095C20.6981 54.008 24.4684 58.4897 24.4684 58.4897C24.4684 58.4897 24.5031 71.6576 24.2506 73.6546L29.398 74.0423C29.2144 72.5273 26.0809 72.4683 26.0809 71.7021C26.0809 70.4483 27.7176 58.6525 27.4121 56.9909C26.7718 53.5075 22.0056 45.6717 22.0056 45.6717C21.9501 42.802 22.0068 37.4908 21.7558 34.9564C22.5974 35.0232 25.3706 35.7625 27.2043 36.5518C29.3418 37.472 31.6275 38.5705 31.9457 39.1002C32.7383 40.4194 34.8699 41.0075 35.1571 40.5453C35.1571 40.5453 31.292 37.0499 29.504 35.8614C26.2463 33.6959 25.164 33.061 22.2153 32.1933C20.8593 31.7943 18.7075 31.7806 18.7075 31.7806L18.2065 31.1535C18.2065 31.1535 18.734 31.091 18.8871 30.9054Z" fill="#316BDA"/>
<path d="M19.5108 31.7935C19.5775 32.0625 19.3222 33.5944 18.8184 34.0545C17.597 35.2201 15.8539 33.9298 15.5119 32.8358C13.4349 35.3573 12.5367 36.2859 13.3452 40.7572C13.3452 40.7572 15.8524 44.9413 15.4203 46.238C14.7428 48.8956 14.3669 51.5607 13.9312 54.2701C19.4545 55.6509 20.8021 53.7748 25.9165 51.6214C25.2633 50.1533 22.9545 46.7 22.1121 45.1127C21.969 43.3094 22.0466 37.3203 21.9035 35.0043L23.2092 35.2413C23.4024 34.4053 23.6965 33.63 23.9604 32.7507C21.8767 32.0263 21.2665 31.9089 19.5108 31.7935Z" fill="#071335"/>
<path d="M13.3674 40.7457C13.7398 42.2773 15.678 50.1192 15.274 51.3406C15.0919 51.8912 14.5376 53.0436 14.4266 53.7321C15.3966 53.7321 14.811 52.6202 15.8412 52.5687C16.2854 52.5243 16.7366 52.2791 16.892 52.1236C17.0475 51.9682 16.7331 50.3424 16.7331 49.2025C16.7331 45.6384 15.8613 40.7458 15.8613 40.7458C14.8513 40.3739 13.3674 40.7457 13.3674 40.7457Z" fill="#316BDA"/>
<path d="M16.6749 53.5322C16.919 53.1556 16.9714 52.8209 16.6451 52.8002C16.0566 52.7629 15.6537 52.7814 15.2712 53.0053C14.936 53.2014 14.7485 53.6988 14.8504 53.8595C15.1364 54.3104 16.3768 53.9792 16.6749 53.5322Z" fill="#316BDA"/>
<g filter="url(#filter0_f_2137_223688)">
<g filter="url(#filter1_f_2137_223688)">
<path d="M112.429 21.3714C112.429 26.5787 108.207 30.8 103 30.8C97.7928 30.8 93.5714 26.5787 93.5714 21.3714C93.5714 16.1642 97.7928 11.9429 103 11.9429C108.207 11.9429 112.429 16.1642 112.429 21.3714Z" fill="url(#paint4_linear_2137_223688)"/>
</g>
</g>
<path d="M63.4693 29.2717C64.8414 28.2119 66.4972 29.1008 66.6163 30.4626C66.709 31.5235 66.1596 32.0428 65.4984 32.5357C65.2822 31.9339 63.4693 29.2717 63.4693 29.2717Z" fill="#071335"/>
<path d="M63.4694 29.272C62.7925 29.9489 61.6198 32.9841 63.9681 32.9841C63.8267 33.4354 63.1958 33.5864 63.1958 33.5864L59.19 36.9382L58.1173 38.2556C58.1173 38.2556 54.3863 36.9795 54.4771 36.0124C54.3703 35.5636 52.9206 34.8884 52.9206 34.8884C52.7634 35.0963 52.9823 35.3144 53.1597 35.4911C53.3241 35.6548 53.4528 35.783 53.2129 35.8344C51.8734 36.4986 52.6342 36.7343 53.2926 36.9382C53.5444 37.0162 53.7812 37.0895 53.88 37.1804C53.9405 37.2301 54.0345 37.3103 54.1547 37.4128C55.0249 38.1548 57.2679 40.0674 58.1093 40.0674C59.2722 40.0674 61.3731 37.8108 61.3731 37.8108C62.3611 39.0977 67.7722 44.779 66.8593 46.0711C65.6229 47.821 63.6739 50.5794 61.9393 53.6853C61.5799 54.3288 61.3557 56.1961 61.1037 58.2951C60.908 59.9253 60.6954 61.6954 60.3898 63.1402C60.3353 63.3978 59.7624 63.4117 59.0985 63.4279C58.2522 63.4485 57.2579 63.4726 57.0008 64.0097L61.5598 64.8004L64.0712 54.8285C64.0712 54.8285 68.3178 51.2256 69.9148 49.2041C71.5164 47.1767 70.2408 43.7162 69.1705 40.8128C68.5246 39.0606 68.2127 34.5371 66.4425 33.8045C65.5632 33.4407 65.6376 32.9693 65.4937 32.2846C65.145 30.6249 64.3729 29.5508 63.4694 29.272Z" fill="#316BDA"/>
<path d="M71.7656 46.4641C72.8162 48.4583 75.0456 54.5603 75.0456 54.5603L83.4722 60.0709C83.3126 61.0632 82.7592 65.1612 82.7592 65.1612C81.5123 64.6383 82.0851 61.1674 81.4913 60.8027C78.9371 59.234 75.4542 58.1888 73.7648 56.781C71.2137 54.655 70.0565 52.4423 68.4167 49.2528C66.9566 45.9766 67.3855 44.915 67.3855 44.915L71.7656 46.4641Z" fill="#316BDA"/>
<path d="M66.604 45.9219C66.604 45.9219 63.1612 40.5537 61.3318 37.9583C61.1359 38.1363 60.6584 38.5325 60.6584 38.5325C60.2774 38.0881 59.6838 37.4234 59.1759 36.9437C60.9184 34.7499 61.394 34.2709 63.1962 33.5857C63.1962 33.5857 63.6188 34.1473 64.3076 34.2709C64.9963 34.3945 65.7553 34.0547 65.9868 33.5205C66.2535 33.6544 66.5056 33.7725 66.7452 33.8847C67.9852 34.4653 68.888 34.888 69.7185 36.5292C69.4147 36.8218 68.846 37.8326 68.4651 38.182C69.2786 39.9054 70.4817 42.3178 71.3586 44.5661C72.3825 47.1915 73.1315 49.3149 73.4591 50.4033C72.1052 51.3623 70.9053 52.0613 70.1549 52.4753C70.1549 52.4753 69.294 51.0814 68.9086 50.4993L67.5716 51.6324C66.64 51.1796 65.6772 50.1663 64.5657 49.4233C65.5566 47.8889 66.604 45.9219 66.604 45.9219Z" fill="#071335"/>
<path d="M69.416 36.0303L68.0984 38.2025L69.4779 39.6267L63.008 42.7614C63.2791 43.0762 64.5032 43.3778 65.736 42.5559C66.6493 41.947 72.1385 41.5458 72.0562 40.4401C71.9034 39.3226 69.8684 36.6054 69.416 36.0303Z" fill="#316BDA"/>
<path fill-rule="evenodd" clip-rule="evenodd" d="M49.6057 31.0807C49.3326 30.2785 48.7566 29.4619 47.8767 28.865C46.2386 27.7536 44.2618 27.8089 43.4615 28.9885C42.6612 30.1681 43.3405 32.0253 44.9786 33.1367C45.7854 33.684 46.6742 33.9484 47.4642 33.9349C48.6856 33.9636 50.5114 34.3653 51.4873 35.047C51.9776 35.4012 52.4624 35.7694 52.9422 36.1339C53.3655 36.4553 53.7849 36.7739 54.2009 37.0774C54.2142 37.089 54.227 37.0941 54.2394 37.0927C54.2508 37.0914 54.2618 37.0847 54.2724 37.0725L54.6542 36.5318C54.6763 36.5063 54.6747 36.4825 54.6493 36.4603C54.1773 36.116 53.694 35.7826 53.207 35.4466C52.7672 35.1431 52.3242 34.8374 51.8836 34.5197C50.3986 33.4488 49.8789 31.883 49.6057 31.0807ZM47.5935 29.2827C48.9914 30.2312 49.6027 31.7693 48.9589 32.7183C48.3151 33.6673 46.6599 33.6677 45.2619 32.7193C43.864 31.7708 43.2527 30.2327 43.8965 29.2837C44.5403 28.3347 46.1955 28.3343 47.5935 29.2827Z" fill="#071335"/>
<path d="M51.9613 35.8345C51.9403 35.3925 52.0671 35.055 52.3663 35.1447C52.906 35.3065 53.2527 35.4593 53.4752 35.8016C53.6701 36.1016 53.5787 36.64 53.4054 36.7594C52.9193 37.0945 51.9938 36.3617 51.9613 35.8345Z" fill="#316BDA"/>
<path d="M82.1184 33.1622C82.697 33.1543 83.0479 33.6796 82.9254 34.2043C82.6774 35.2658 81.7795 34.866 81.7795 34.866L81.8171 33.6299L82.1184 33.1622Z" fill="#071335"/>
<path d="M82.1478 33.1619C81.5935 33.162 80.3492 33.7829 80.9666 34.4867C80.9384 34.6211 80.7276 34.8902 80.4923 34.661C80.3689 34.54 80.2832 34.4779 80.2141 34.4279C80.0703 34.3238 79.9981 34.2715 79.8069 33.849C79.7023 33.6176 79.5955 33.4473 79.4962 33.2888C79.3269 33.0187 79.0308 32.4022 79.0308 32.4022L78.251 27.8438C77.5794 28.2657 78.1818 29.0876 78.1584 29.6573C78.1122 30.7851 78.1243 31.992 78.251 32.6178C78.43 33.5024 79.0149 35.4888 79.0149 35.4888C79.0149 35.4888 78.6449 36.9553 78.2873 37.7673C77.8085 38.8546 76.2255 42.9241 77.7822 44.5561C78.4087 45.2128 80.7223 47.193 81.075 47.6377C81.2207 47.8214 80.3385 48.8111 80.6347 49.2152L81.9683 47.8792L79 43.67C79 43.67 78.9746 41.5587 79.5149 40.3728C80.0056 39.2957 81.3932 38.1156 81.3932 38.1156C81.3932 38.1156 83.0753 39.056 83.4869 39.056C83.8984 39.056 84.3653 38.2384 84.7915 37.492C85.0552 37.0301 85.3034 36.5954 85.5133 36.3985C85.4835 36.1974 85.4013 35.9571 85.3119 35.9273C85.226 35.8987 85.2787 35.8582 85.3619 35.7944C85.4707 35.7109 85.6315 35.5875 85.6025 35.3984C85.6025 35.3984 85.1704 35.5996 85.0289 35.689C84.96 35.7349 84.9462 35.8809 84.9308 36.0423C84.9163 36.1954 84.9004 36.3624 84.8352 36.4711C84.4692 36.9103 83.2634 38.0057 83.2634 38.0057C82.6362 37.2419 82.1564 36.482 81.6585 35.632C81.5493 35.4455 81.783 34.8676 81.783 34.8676C81.783 34.8676 82.4391 33.5772 82.1478 33.1619Z" fill="#316BDA"/>
<path d="M77.6762 38.8398C76.231 40.0466 74.6686 42.0356 74.5494 42.7581C74.6917 43.7609 76.5506 45.5797 77.1243 46.377C77.3345 46.6692 76.3499 47.8441 76.7275 48.1395C76.7275 48.1395 77.9256 46.9331 78.1024 46.8253L76.013 43.0046C76.013 43.0046 78.1793 41.3157 78.5667 40.8315C78.9689 40.3398 77.6762 38.8398 77.6762 38.8398Z" fill="#316BDA"/>
<path d="M77.464 38.6726C78.2825 37.4757 78.5568 36.6302 78.965 35.4878L78.7029 34.3925L79.4571 33.2241L80.5251 34.6867C80.5251 34.6867 80.4289 35.0698 80.7627 35.4204C81.0302 35.7015 81.6676 35.6447 81.6676 35.6447C81.6676 35.6447 82.5006 37.0311 83.0164 37.6875C82.9046 37.8887 82.1877 38.5408 82.1877 38.5408L81.3936 38.1211C81.3936 38.1211 79.7432 39.7621 79.4571 40.67C79.171 41.578 79.0407 42.7127 79.0407 42.7127L77.1146 42.7422L77.0876 42.1903L76.7747 42.4022L75.6265 40.9661C76.3923 39.9127 76.8431 39.5805 77.464 38.6726Z" fill="#071335"/>
<path fill-rule="evenodd" clip-rule="evenodd" d="M85.323 35.2237C85.1382 34.6863 85.1206 34.0113 85.2723 33.4638C85.2723 33.4638 84.9855 33.8154 84.6945 33.9171C84.3964 34.0222 83.9223 33.9238 83.9223 33.9238C84.4111 34.1847 84.8504 34.8188 85.0362 35.3336C85.2172 35.8351 85.3727 36.3342 85.5511 36.8203C85.5578 36.8345 85.5683 36.8383 85.5825 36.8316L85.8735 36.7299C85.8877 36.7232 85.8915 36.7127 85.8848 36.6985C85.7085 36.2181 85.5034 35.7221 85.323 35.2237Z" fill="#071335"/>
<path d="M85.284 32.048C85.584 32.9136 85.3277 33.7911 84.7079 34.0049C84.0881 34.2186 83.3397 33.6959 83.0325 32.8336C82.7325 31.9679 82.9888 31.0904 83.6086 30.8767C84.2356 30.6597 84.984 31.1824 85.284 32.048ZM85.2021 32.0767C84.9243 31.2788 84.2273 30.7931 83.6537 30.9944C83.0801 31.1957 82.8367 32.0068 83.1249 32.8087C83.4026 33.6067 84.0996 34.0923 84.6732 33.891C85.2468 33.6898 85.4798 32.8747 85.2021 32.0767Z" fill="#071335"/>
<path d="M85.8999 36.2772C85.7658 36.4336 85.615 36.5075 85.5423 36.3815C85.4112 36.1542 85.3425 35.9917 85.3766 35.8046C85.4064 35.6407 85.6094 35.4876 85.7062 35.5025C85.9779 35.5443 86.0573 36.0882 85.8999 36.2772Z" fill="#316BDA"/>
<path fill-rule="evenodd" clip-rule="evenodd" d="M84.6805 34.0259C84.0499 34.2332 83.3053 33.6914 83.0174 32.8158C82.7294 31.9401 83.0072 31.0621 83.6377 30.8548C84.2683 30.6474 85.0129 31.1892 85.3008 32.0649C85.5888 32.9406 85.311 33.8186 84.6805 34.0259ZM84.604 33.7935C84.0967 33.9603 83.4863 33.4897 83.2406 32.7424C82.9949 31.9951 83.2069 31.2541 83.7142 31.0873C84.2215 30.9205 84.8319 31.3911 85.0776 32.1384C85.3233 32.8856 85.1113 33.6267 84.604 33.7935Z" fill="#071335"/>
</g>
</g>
<defs>
<filter id="filter0_f_2137_223688" x="85.3596" y="-4.15039" width="37.6118" height="47.4102" filterUnits="userSpaceOnUse" color-interpolation-filters="sRGB">
<feFlood flood-opacity="0" result="BackgroundImageFix"/>
<feBlend mode="normal" in="SourceGraphic" in2="BackgroundImageFix" result="shape"/>
<feGaussianBlur stdDeviation="1.5" result="effect1_foregroundBlur_2137_223688"/>
</filter>
<filter id="filter1_f_2137_223688" x="67.2643" y="-14.3643" width="71.4715" height="71.4713" filterUnits="userSpaceOnUse" color-interpolation-filters="sRGB">
<feFlood flood-opacity="0" result="BackgroundImageFix"/>
<feBlend mode="normal" in="SourceGraphic" in2="BackgroundImageFix" result="shape"/>
<feGaussianBlur stdDeviation="13.1536" result="effect1_foregroundBlur_2137_223688"/>
</filter>
<linearGradient id="paint0_linear_2137_223688" x1="86.1271" y1="33.8744" x2="91.7768" y2="115.051" gradientUnits="userSpaceOnUse">
<stop stop-color="#85BDFF"/>
<stop offset="0.317701" stop-color="#5DC5FF" stop-opacity="0"/>
<stop offset="0.630214" stop-color="#5DC5FF" stop-opacity="0"/>
<stop offset="1" stop-color="#85BDFF"/>
</linearGradient>
<linearGradient id="paint1_linear_2137_223688" x1="311.733" y1="9.33013" x2="321.302" y2="86.2079" gradientUnits="userSpaceOnUse">
<stop offset="0.451945" stop-color="#5DC5FF" stop-opacity="0"/>
<stop offset="1" stop-color="#85BDFF"/>
</linearGradient>
<radialGradient id="paint2_radial_2137_223688" cx="0" cy="0" r="1" gradientUnits="userSpaceOnUse" gradientTransform="translate(76.8878 17.2989) rotate(101.194) scale(2.77588 1.86204)">
<stop stop-color="#316BDA"/>
<stop offset="1" stop-color="#071335"/>
</radialGradient>
<radialGradient id="paint3_radial_2137_223688" cx="0" cy="0" r="1" gradientUnits="userSpaceOnUse" gradientTransform="translate(47.9242 16.6994) rotate(-112.751) scale(4.04249 2.71167)">
<stop stop-color="#316BDA"/>
<stop offset="1" stop-color="#071335"/>
</radialGradient>
<linearGradient id="paint4_linear_2137_223688" x1="108.883" y1="21.0074" x2="83.584" y2="6.82435" gradientUnits="userSpaceOnUse">
<stop stop-color="#1372E1" stop-opacity="0.51"/>
<stop offset="1" stop-color="#D1E7FB" stop-opacity="0.78"/>
</linearGradient>
<clipPath id="clip0_2137_223688">
<rect width="88" height="88" fill="white"/>
</clipPath>
<clipPath id="clip1_2137_223688">
<rect width="205.543" height="88" fill="white" transform="translate(-7)"/>
</clipPath>
</defs>
</svg>
