<svg viewBox="0 0 327 140" fill="none" xmlns="http://www.w3.org/2000/svg">
<g clip-path="url(#clip0_2114_198693)">
<rect width="327" height="140" fill="#D2ECFF"/>
<rect x="-65" y="63" width="392" height="77" fill="url(#paint0_linear_2114_198693)"/>
<rect x="327" y="63" width="341.556" height="63" transform="rotate(-180 327 63)" fill="url(#paint1_linear_2114_198693)"/>
<path d="M-22 103H61C61.5523 103 62 103.448 62 104C62 104.552 61.5523 105 61 105H-23L-22 103Z" fill="#83B0F3"/>
<path fill-rule="evenodd" clip-rule="evenodd" d="M68 78.6126V125.961L114.441 81.3716V65.5129L68 78.6126ZM117.133 82.9453C117.33 82.7567 117.441 82.4962 117.441 82.224V62.8707C117.441 62.2077 116.807 61.7283 116.169 61.9083L65.7285 76.1362C65.2976 76.2578 65 76.6509 65 77.0987V130.654C65 131.535 66.057 131.985 66.6926 131.375L117.133 82.9453Z" fill="#83B0F3"/>
<path d="M114.845 64.4424L67.6372 78.0048V127.284L114.845 82.6324V64.4424ZM113.883 78.6074L112.06 80.0856V77.4305L113.883 76.1877V78.6074ZM87.2053 87.354L91.1113 85.198V90.5881L87.2053 93.2526V87.354ZM86.2433 93.9117L81.7024 97.0092V90.3763L86.2433 87.8719V93.9117ZM92.0733 84.666L95.8878 82.557V87.3164L92.0877 89.9055L92.0733 84.666ZM96.8499 82.0251L100.164 80.1939V84.4307L96.8499 86.695V82.0251ZM101.126 79.6713L104.306 77.9154V81.5873L101.126 83.7575V79.6713ZM105.268 77.3834L107.836 75.9712V79.177L105.268 80.9329V77.3834ZM108.799 75.4345L111.098 74.1635V76.9503L108.799 78.518V75.4345ZM108.799 74.3518V71.2683L111.098 70.3033V73.0807L108.799 74.3518ZM107.836 74.8837L105.268 76.296V72.7512L107.836 71.6685V74.8837ZM104.306 76.8327L101.126 78.5886V74.4977L104.306 73.1608V76.8327ZM100.164 79.1205L96.8499 80.9518V76.296L100.164 74.8837V79.1205ZM95.8878 81.4743L92.0733 83.5833V78.2873L95.8878 76.682V81.4743ZM91.1113 84.1152L87.2053 86.2713V80.3351L91.1113 78.6921V84.1152ZM86.2433 86.8033L81.7024 89.3124V82.6465L86.2433 80.7399V86.8033ZM80.7404 89.8443L75.6848 92.6359V85.198L80.7404 83.0702V89.8443ZM80.7404 90.9224V97.6683L75.6848 101.124V93.7092L80.7404 90.9224ZM80.7404 98.8169V105.516L75.6848 109.621V102.263L80.7404 98.8169ZM81.7024 98.1579L86.2433 95.0603V101.048L81.7024 104.734V98.1579ZM87.2053 94.3918L91.1113 91.7274V97.0893L87.2198 100.262L87.2053 94.3918ZM92.0733 91.0683L95.8878 88.465V93.2008L92.0733 96.2984V91.0683ZM96.8499 87.8107L100.164 85.5416V89.7361L96.8499 92.4288V87.8107ZM101.126 84.8873L104.306 82.7171V86.3702L101.141 88.964L101.126 84.8873ZM105.268 82.0628L107.836 80.3068V83.508L105.268 85.5934V82.0628ZM108.799 79.6525L111.098 78.0802V80.8623L108.799 82.7453V79.6525ZM113.883 75.0297L112.074 76.2536V73.5939L113.897 72.5865L113.883 75.0297ZM113.883 71.5273L112.06 72.53V69.8796L113.883 69.1123V71.5273ZM113.883 65.6993V68.0907L112.06 68.8534V66.2218L113.883 65.6993ZM111.098 66.4996V69.2582L108.799 70.228V67.1586L111.098 66.4996ZM107.836 67.4411V70.6375L105.268 71.7156V68.1802L107.836 67.4411ZM104.306 68.4532V72.1204L101.126 73.4573V69.3712L104.306 68.4532ZM100.179 69.6631V73.8999L96.8643 75.3121V70.6046L100.179 69.6631ZM95.9023 70.8917V75.6793L92.0877 77.2846V71.9651L95.9023 70.8917ZM91.1257 72.2663V77.6659L87.2198 79.3088V73.3632L91.1257 72.2663ZM86.2577 73.6786V79.7513L81.7168 81.6579V74.9449L86.2577 73.6786ZM80.7548 75.2603V82.0628L75.6992 84.1906V76.6773L80.7548 75.2603ZM68.6137 78.7486L74.7372 76.988V84.5954L68.6137 87.1705V78.7486ZM68.6137 88.1967L74.7372 85.6217V93.1961L68.6137 96.5808V88.1967ZM68.6137 97.6589L74.7372 94.2789V101.811L68.6137 105.996V97.6589ZM68.6137 107.135L74.7372 102.955V110.43L68.6137 115.402V107.135ZM68.6137 124.826V116.588L74.7372 111.617V119.031L68.6137 124.826ZM75.6992 118.151V110.835L80.7548 106.73V113.373L75.6992 118.151ZM81.7168 112.502V105.949L86.2577 102.263V108.204L81.7168 112.502ZM87.2198 107.323V101.481L91.1257 98.3132V103.633L87.2198 107.323ZM92.0877 102.752V97.5741L95.9023 94.4766V99.1841L92.0877 102.752ZM96.8643 98.2614V93.6716L100.179 90.9789V95.1403L96.8643 98.2614ZM101.141 94.2412V90.2021L104.32 87.6177V91.2519L101.141 94.2412ZM105.282 90.3481V86.8362L107.851 84.7508V87.9378L105.282 90.3481ZM108.813 87.0528V83.9881L111.112 82.1051V84.8732L108.813 87.0528ZM112.074 83.9881V81.3425L113.897 79.8643V82.2746L112.074 83.9881Z" fill="#83B0F3"/>
<path d="M136.252 57.5706L122.408 61.6745V76.5862L136.252 63.0748V57.5706ZM135.97 61.8569L135.435 62.3042V61.5008L135.97 61.1247V61.8569ZM128.147 64.5036L129.292 63.8512V65.4822L128.147 66.2885V64.5036ZM127.864 66.4879L126.533 67.4253V65.4181L127.864 64.6603V66.4879ZM129.574 63.6902L130.693 63.052V64.4922L129.578 65.2757L129.574 63.6902ZM130.975 62.8911L131.947 62.3369V63.619L130.975 64.3042V62.8911ZM132.229 62.1788L133.161 61.6475V62.7586L132.229 63.4153V62.1788ZM133.444 61.4865L134.197 61.0592V62.0293L133.444 62.5606V61.4865ZM134.479 60.8968L135.153 60.5122V61.3555L134.479 61.8298V60.8968ZM134.479 60.5691V59.6361L135.153 59.3441V60.1845L134.479 60.5691ZM134.197 60.7301L133.444 61.1575V60.0848L134.197 59.7572V60.7301ZM133.161 61.3198L132.229 61.8512V60.6133L133.161 60.2087V61.3198ZM131.947 62.0122L130.975 62.5663V61.1575L131.947 60.7301V62.0122ZM130.693 62.7244L129.574 63.3626V61.76L130.693 61.2743V62.7244ZM129.292 63.5236L128.147 64.176V62.3797L129.292 61.8825V63.5236ZM127.864 64.3369L126.533 65.0962V63.0791L127.864 62.5022V64.3369ZM126.251 65.2572L124.768 66.1019V63.8512L126.251 63.2073V65.2572ZM126.251 65.5834V67.6247L124.768 68.6703V66.4267L126.251 65.5834ZM126.251 67.9723V69.9993L124.768 71.2415V69.015L126.251 67.9723ZM126.533 67.7728L127.864 66.8355V68.6475L126.533 69.7629V67.7728ZM128.147 66.6332L129.292 65.827V67.4495L128.151 68.4096L128.147 66.6332ZM129.574 65.6275L130.693 64.8398V66.2728L129.574 67.2102V65.6275ZM130.975 64.6418L131.947 63.9552V65.2244L130.975 66.0392V64.6418ZM132.229 63.7572L133.161 63.1005V64.2059L132.233 64.9908L132.229 63.7572ZM133.444 62.9025L134.197 62.3711V63.3398L133.444 63.9708V62.9025ZM134.479 62.1731L135.153 61.6973V62.5392L134.479 63.109V62.1731ZM135.97 60.7743L135.44 61.1446V60.3398L135.974 60.0349L135.97 60.7743ZM135.97 59.7144L135.435 60.0179V59.2159L135.97 58.9837V59.7144ZM135.97 57.9509V58.6745L135.435 58.9053V58.109L135.97 57.9509ZM135.153 58.1931V59.0278L134.479 59.3213V58.3925L135.153 58.1931ZM134.197 58.478V59.4452L133.444 59.7714V58.7016L134.197 58.478ZM133.161 58.7842V59.8939L132.229 60.2985V59.062L133.161 58.7842ZM131.951 59.1503V60.4324L130.979 60.8597V59.4352L131.951 59.1503ZM130.697 59.5221V60.9708L129.578 61.4566V59.8469L130.697 59.5221ZM129.296 59.9381V61.572L128.151 62.0691V60.27L129.296 59.9381ZM127.869 60.3654V62.203L126.537 62.78V60.7486L127.869 60.3654ZM126.255 60.8441V62.9025L124.772 63.5463V61.2728L126.255 60.8441ZM122.694 61.8996L124.49 61.3669V63.6689L122.694 64.4481V61.8996ZM122.694 64.7586L124.49 63.9794V66.2714L122.694 67.2956V64.7586ZM122.694 67.6218L124.49 66.5991V68.8783L122.694 70.1446V67.6218ZM122.694 70.4894L124.49 69.2244V71.4865L122.694 72.9908V70.4894ZM122.694 75.8427V73.3498L124.49 71.8455V74.0891L122.694 75.8427ZM124.772 73.8227V71.609L126.255 70.3669V72.3768L124.772 73.8227ZM126.537 72.1133V70.1304L127.869 69.015V70.8127L126.537 72.1133ZM128.151 70.5464V68.7785L129.296 67.8199V69.4295L128.151 70.5464ZM129.578 69.1632V67.5962L130.697 66.6589V68.0834L129.578 69.1632ZM130.979 67.8042V66.4153L131.951 65.6005V66.8597L130.979 67.8042ZM132.233 66.5877V65.3654L133.166 64.5834V65.6831L132.233 66.5877ZM133.448 65.4096V64.3469L134.201 63.7159V64.6803L133.448 65.4096ZM134.483 64.4124V63.4851L135.158 62.9153V63.7529L134.483 64.4124ZM135.44 63.4851V62.6845L135.974 62.2372V62.9666L135.44 63.4851Z" fill="#83B0F3"/>
<path fill-rule="evenodd" clip-rule="evenodd" d="M135.879 57.9738L122.835 61.7568V75.9165L135.879 63.1306L135.879 57.9738ZM122.556 60.7963C122.129 60.9203 121.835 61.3118 121.835 61.7568V75.9165C121.835 76.8026 122.902 77.2509 123.535 76.6307L136.579 63.8447C136.771 63.6566 136.879 63.3993 136.879 63.1306V57.9738C136.879 57.3077 136.24 56.8278 135.6 57.0133L122.556 60.7963Z" fill="#83B0F3"/>
<path d="M-50.5304 81.6757C-50.1508 81.246 -49.605 81 -49.0317 81H45.3982C45.7183 81 45.9778 81.2595 45.9778 81.5795C45.9778 81.8996 45.7183 82.1591 45.3982 82.1591H-47.8536C-48.4399 82.1591 -48.9967 82.4164 -49.3767 82.8629L-87.8196 128.034C-88.3722 128.683 -87.9107 129.682 -87.058 129.682H59.8409C60.4811 129.682 61 130.201 61 130.841C61 131.481 60.4811 132 59.8409 132H-90.5637C-92.2866 132 -93.2033 129.967 -92.0624 128.676L-50.5304 81.6757Z" fill="#83B0F3"/>
<circle cx="133.292" cy="28.7282" r="2.60994" transform="rotate(60.6537 133.292 28.7282)" fill="url(#paint2_radial_2114_198693)"/>
<path d="M131.63 28.2199C131.25 29.4489 132.499 30.195 133.341 30.0978C133.993 30.0227 134.679 30.1014 134.405 31.085C134.418 31.0792 134.429 31.0741 134.439 31.0695C134.484 31.0493 134.51 31.0377 134.565 31.0069C134.886 29.8782 133.934 29.8658 133.48 29.8599C132.614 29.8487 131.754 29.2001 132.019 28.3401C132.285 27.4802 133.363 27.4318 134.083 27.9096C134.461 28.1609 135.254 28.6879 135.625 27.5743C135.597 27.518 135.583 27.4939 135.557 27.4519C135.551 27.4423 135.545 27.4317 135.537 27.4196C135.208 28.3864 134.647 28.0602 134.107 27.6442C133.325 27.0421 131.999 27.0281 131.63 28.2199Z" fill="#316BDA"/>
<circle cx="312.269" cy="36.3429" r="2.60994" transform="rotate(60.6537 312.269 36.3429)" fill="url(#paint3_radial_2114_198693)"/>
<path d="M310.608 35.8346C310.228 37.0636 311.477 37.8097 312.319 37.7126C312.97 37.6374 313.657 37.7161 313.382 38.6998C313.395 38.6939 313.406 38.6889 313.417 38.6842C313.462 38.6641 313.487 38.6525 313.542 38.6217C313.864 37.493 312.912 37.4806 312.458 37.4747C311.592 37.4634 310.731 36.8148 310.997 35.9548C311.263 35.0949 312.341 35.0465 313.06 35.5243C313.439 35.7757 314.232 36.3026 314.603 35.1891C314.575 35.1328 314.56 35.1086 314.535 35.0666C314.529 35.057 314.522 35.0465 314.515 35.0344C314.186 36.0011 313.625 35.675 313.085 35.2589C312.303 34.6569 310.976 34.6428 310.608 35.8346Z" fill="#316BDA"/>
<circle cx="85.917" cy="25.3783" r="4.74164" transform="rotate(-94.2369 85.917 25.3783)" fill="url(#paint4_radial_2114_198693)"/>
<path d="M88.2585 27.4956C89.8308 25.7666 88.3521 23.5767 86.8919 23.0873C85.7618 22.7085 84.6932 22.0498 85.9033 20.6433C85.8776 20.643 85.8552 20.6426 85.8347 20.6423C85.7453 20.6409 85.6938 20.6401 85.58 20.6485C84.1803 22.2572 85.7372 23.0116 86.4798 23.3715C87.896 24.0578 88.8115 25.788 87.711 26.9978C86.6107 28.2074 84.7996 27.4559 83.9848 26.1154C83.5562 25.4102 82.6576 23.9318 81.1888 25.4777C81.1912 25.5918 81.1969 25.6429 81.2068 25.7318C81.2091 25.7521 81.2116 25.7745 81.2143 25.8C82.5012 24.4634 83.1723 25.4324 83.7403 26.5333C84.5624 28.1264 86.7338 29.1722 88.2585 27.4956Z" fill="#316BDA"/>
<circle cx="255.714" cy="17.1998" r="4.10348" transform="rotate(-94.2369 255.714 17.1998)" fill="url(#paint5_radial_2114_198693)"/>
<path d="M257.74 19.0321C259.101 17.5358 257.821 15.6406 256.557 15.2171C255.579 14.8893 254.655 14.3192 255.702 13.102C255.68 13.1018 255.66 13.1015 255.642 13.1012C255.565 13.0999 255.521 13.0992 255.422 13.1065C254.211 14.4987 255.558 15.1516 256.201 15.463C257.426 16.057 258.219 17.5544 257.266 18.6013C256.314 19.6481 254.747 18.9978 254.042 17.8376C253.671 17.2274 252.893 15.948 251.622 17.2858C251.624 17.3845 251.629 17.4288 251.637 17.5057C251.639 17.5233 251.641 17.5426 251.644 17.5647C252.758 16.408 253.338 17.2465 253.83 18.1993C254.541 19.578 256.421 20.4831 257.74 19.0321Z" fill="#316BDA"/>
<path d="M279.653 101H374C374.552 101 375 101.448 375 102C375 102.552 374.552 103 374 103H279.653V101Z" fill="#83B0F3"/>
<path d="M279.032 84.5519C279.014 84.242 278.758 84 278.447 84C278.117 84 277.851 84.2732 277.861 84.6036L278.971 122.36C278.987 122.9 279.43 123.33 279.971 123.33H280.253C280.828 123.33 281.285 122.846 281.251 122.271L279.032 84.5519Z" fill="#83B0F3"/>
<path d="M206.265 71H131.5C131.224 71 131 71.2239 131 71.5C131 71.7761 131.224 72 131.5 72H205.731L206.265 71Z" fill="#83B0F3"/>
<path d="M190 103H101C100.448 103 100 103.448 100 104C100 104.552 100.448 105 101 105H189.4L190 103Z" fill="#83B0F3"/>
<path d="M199.271 85.6377C199.446 85.2857 199.19 84.8728 198.797 84.8728C198.6 84.8728 198.419 84.9819 198.328 85.1561L178.166 123.535C177.816 124.201 178.299 125 179.051 125H179.124C179.504 125 179.851 124.785 180.02 124.445L199.271 85.6377Z" fill="#83B0F3"/>
<path d="M209.568 64.9616C209.623 64.8409 209.535 64.7039 209.402 64.7039C209.336 64.7039 209.274 64.7403 209.242 64.7988L203.236 75.7924C203.002 76.2214 203.312 76.7449 203.801 76.7449C204.054 76.7449 204.283 76.5972 204.387 76.3673L209.568 64.9616Z" fill="#83B0F3"/>
<path d="M277.974 65.242C277.964 65.1056 277.851 65 277.714 65C277.571 65 277.455 65.1148 277.453 65.2574L277.322 76.2723C277.317 76.6728 277.641 77 278.041 77C278.459 77 278.788 76.6459 278.759 76.2297L277.974 65.242Z" fill="#83B0F3"/>
<path d="M236.22 82.5051C236.55 81.2378 235.594 80 234.284 80H125.509C125.014 80 124.739 80.5706 125.046 80.9579C125.158 81.0993 125.328 81.1818 125.509 81.1818H233.179C233.841 81.1818 234.321 81.8139 234.142 82.4515L221.335 128.176C221.093 129.039 220.306 129.636 219.409 129.636H77.1818C76.5291 129.636 76 130.165 76 130.818C76 131.471 76.5291 132 77.1818 132H221.757C222.667 132 223.462 131.386 223.692 130.505L236.22 82.5051Z" fill="#83B0F3"/>
<path d="M240.303 66.5161C240.642 65.2462 239.685 64 238.371 64H136.365C136.34 64 136.316 64.0054 136.293 64.0158C136.128 64.0926 136.182 64.3409 136.365 64.3409H238.974C239.64 64.3409 240.12 64.979 239.935 65.6185L236.775 76.5551C236.528 77.4109 235.745 78 234.854 78H125.207C125.075 78 124.947 78.0527 124.854 78.1464C124.539 78.4614 124.762 79 125.207 79H235.433C236.339 79 237.131 78.3912 237.365 77.5161L240.303 66.5161Z" fill="#83B0F3"/>
<path d="M238.38 81.5128C238.603 80.6235 239.403 80 240.32 80H329.139C329.633 80 329.909 80.5706 329.602 80.9579C329.49 81.0993 329.32 81.1818 329.139 81.1818H241.763C240.815 81.1818 239.998 81.8471 239.805 82.7752L230.324 128.433C230.195 129.054 230.669 129.636 231.303 129.636H372.818C373.471 129.636 374 130.165 374 130.818C374 131.471 373.471 132 372.818 132H228.263C226.96 132 226.006 130.776 226.323 129.513L238.38 81.5128Z" fill="#83B0F3"/>
<path d="M241.8 65.5437C242.012 64.6394 242.819 64 243.748 64H327.293C327.435 64 327.514 64.1632 327.427 64.2751C327.395 64.3166 327.345 64.3409 327.293 64.3409H244.284C243.29 64.3409 242.446 65.0713 242.304 66.0553L240.746 76.8572C240.659 77.4601 241.127 78 241.736 78H327.5C327.776 78 328 78.2239 328 78.5C328 78.7761 327.776 79 327.5 79H241.17C239.881 79 238.928 77.7986 239.222 76.5437L241.8 65.5437Z" fill="#83B0F3"/>
<path d="M327.13 71H278.343C278.067 71 277.843 71.2239 277.843 71.5C277.843 71.7761 278.067 72 278.343 72H327.377L327.13 71Z" fill="#83B0F3"/>
<path d="M64 71H-3.49999C-3.77613 71 -3.99999 71.2239 -4 71.5C-4 71.7761 -3.77614 72 -3.5 72H63.5467L64 71Z" fill="#83B0F3"/>
<path d="M58.7044 42.9535C57.4674 41.9981 55.9747 42.7994 55.8674 44.0271C55.7838 44.9835 56.279 45.4517 56.8751 45.896C57.0701 45.3535 58.7044 42.9535 58.7044 42.9535Z" fill="#071335"/>
<path d="M58.7043 42.9534C59.3146 43.5636 60.3718 46.2999 58.2548 46.2999C58.3822 46.7067 58.951 46.8429 58.951 46.8429L62.5623 49.8646L63.5293 51.0523C63.5293 51.0523 66.8929 49.9018 66.811 49.03C66.9074 48.6253 68.2143 48.0166 68.2143 48.0166C68.356 48.2041 68.1586 48.4007 67.9987 48.56C67.8505 48.7076 67.7345 48.8231 67.9507 48.8695C69.1583 49.4683 68.4725 49.6807 67.8789 49.8646C67.6519 49.9349 67.4384 50.001 67.3494 50.083C67.2949 50.1278 67.2101 50.2 67.1017 50.2924C66.3172 50.9614 64.2951 52.6856 63.5365 52.6856C62.4882 52.6856 60.5942 50.6512 60.5942 50.6512C59.7035 51.8114 54.8253 56.9332 55.6483 58.098C56.7629 59.6756 58.52 62.1623 60.0838 64.9624C60.4078 65.5425 60.6099 67.2259 60.8371 69.1182C61.0135 70.5879 61.2051 72.1835 61.4807 73.4861C61.5298 73.7183 62.0462 73.7309 62.6448 73.7454C63.4078 73.764 64.3041 73.7858 64.5359 74.27L60.4259 74.9827L58.1619 65.993C58.1619 65.993 54.3335 62.7449 52.8938 60.9224C51.4499 59.0948 52.5999 55.9751 53.5647 53.3576C54.147 51.778 54.4282 47.6999 56.0241 47.0395C56.8167 46.7116 56.7497 46.2866 56.8794 45.6693C57.1938 44.173 57.8899 43.2048 58.7043 42.9534Z" fill="#316BDA"/>
<path d="M51.2252 58.4524C50.2781 60.2503 48.2683 65.7513 48.2683 65.7513L40.6715 70.7191C40.8154 71.6137 41.3143 75.3081 41.3143 75.3081C42.4384 74.8367 41.922 71.7076 42.4573 71.3789C44.7599 69.9647 47.8998 69.0224 49.4228 67.7532C51.7227 65.8366 52.7659 63.8419 54.2443 60.9665C55.5606 58.0129 55.1739 57.0559 55.1739 57.0559L51.2252 58.4524Z" fill="#316BDA"/>
<path d="M55.8784 57.9635C55.8784 57.9635 58.9821 53.1239 60.6314 50.7842C60.808 50.9447 61.2385 51.3018 61.2385 51.3018C61.582 50.9012 62.1171 50.302 62.575 49.8695C61.0041 47.8918 60.5753 47.4599 58.9507 46.8422C58.9507 46.8422 58.5696 47.3485 57.9487 47.4599C57.3278 47.5714 56.6435 47.265 56.4349 46.7834C56.1944 46.9042 55.9671 47.0106 55.7511 47.1118C54.6333 47.6352 53.8194 48.0163 53.0707 49.4958C53.3446 49.7596 53.8572 50.6709 54.2006 50.9859C53.4673 52.5396 52.3826 54.7143 51.5921 56.7412C50.669 59.1081 49.9937 61.0223 49.6985 62.0035C50.9191 62.8681 52.0007 63.4983 52.6772 63.8715C52.6772 63.8715 53.4534 62.6149 53.8008 62.0901L55.0061 63.1116C55.8459 62.7034 56.714 61.7899 57.716 61.12C56.8226 59.7368 55.8784 57.9635 55.8784 57.9635Z" fill="#071335"/>
<path d="M53.3434 49.0464L54.5313 51.0047L53.2876 52.2886L59.1203 55.1146C58.8759 55.3984 57.7723 55.6703 56.661 54.9294C55.8376 54.3804 50.889 54.0187 50.9632 53.0219C51.101 52.0145 52.9356 49.5649 53.3434 49.0464Z" fill="#316BDA"/>
<path fill-rule="evenodd" clip-rule="evenodd" d="M71.2026 44.5844C71.4488 43.8611 71.9681 43.125 72.7614 42.5868C74.2382 41.5849 76.0202 41.6347 76.7417 42.6982C77.4632 43.7616 76.8508 45.4359 75.374 46.4378C74.6467 46.9312 73.8454 47.1696 73.1332 47.1574C72.0322 47.1833 70.3861 47.5454 69.5063 48.16C69.0643 48.4793 68.6273 48.8113 68.1947 49.1398C67.8132 49.4297 67.4351 49.7168 67.06 49.9905C67.048 50.0009 67.0364 50.0055 67.0253 50.0042C67.015 50.0031 67.0051 49.997 66.9956 49.9861L66.6514 49.4986C66.6314 49.4756 66.6329 49.4541 66.6558 49.4341C67.0813 49.1237 67.517 48.8232 67.956 48.5202C68.3525 48.2466 68.7518 47.9711 69.1491 47.6846C70.4878 46.7192 70.9564 45.3076 71.2026 44.5844ZM73.0167 42.9634C71.7564 43.8185 71.2053 45.2051 71.7858 46.0606C72.3662 46.9161 73.8583 46.9165 75.1186 46.0615C76.3789 45.2065 76.93 43.8198 76.3496 42.9643C75.7691 42.1088 74.277 42.1084 73.0167 42.9634Z" fill="#071335"/>
<path d="M69.079 48.8698C69.098 48.4713 68.9837 48.167 68.714 48.2479C68.2274 48.3938 67.9149 48.5315 67.7143 48.8402C67.5385 49.1106 67.621 49.5959 67.7772 49.7036C68.2154 50.0057 69.0498 49.345 69.079 48.8698Z" fill="#316BDA"/>
<path d="M33.5187 41.5458C31.2769 40.9798 29.2397 42.8198 29.9096 45.0983C30.9517 48.6423 34.2959 49.7706 34.2959 49.7706C34.2959 49.7706 32.03 44.0628 34.2305 43.2581C35.1299 42.9291 35.7605 42.1117 33.5187 41.5458Z" fill="#071335"/>
<path d="M40.4784 41.8398C37.7194 39.7088 34.3217 40.7771 34.0823 43.5153C33.8958 45.6485 35.5483 47.0713 36.8465 48.38C37.2813 47.17 40.4784 41.8398 40.4784 41.8398Z" fill="#071335"/>
<path fill-rule="evenodd" clip-rule="evenodd" d="M24.7337 84.958C22.9969 84.4412 20.7859 84.6307 18.7187 85.5318C14.9499 87.1747 12.9162 90.7418 14.1762 93.4993C15.4362 96.2567 19.5129 97.1603 23.2816 95.5175C25.2763 94.648 26.4635 93.5083 27.7028 91.6366C29.0434 89.6118 31.4271 87.1187 33.7464 86.146C34.9131 85.6788 36.099 85.2374 37.2729 84.8004C38.3085 84.4149 39.3348 84.0329 40.3304 83.6397C40.3978 83.6197 40.4206 83.5757 40.3987 83.5074L39.8372 82.2169C39.8153 82.1487 39.7707 82.1245 39.7032 82.1445C38.5738 82.5905 37.4519 83.0689 36.3211 83.551C35.3003 83.9863 34.2721 84.4247 33.2247 84.8452C28.7762 86.631 25.5638 85.1064 24.7337 84.958ZM19.1649 86.5082C22.3811 85.1062 25.81 85.768 26.8237 87.9864C27.8374 90.2047 26.0519 93.1396 22.8358 94.5415C19.6196 95.9435 16.1907 95.2816 15.177 93.0633C14.1633 90.8449 15.9488 87.9101 19.1649 86.5082Z" fill="#071335"/>
<path d="M34.7512 85.1271C35.0339 86.2224 35.4225 85.6924 35.9524 85.8691C36.4824 86.0457 36.4824 85.6924 36.9064 85.7984C37.3657 85.9044 37.3657 85.5158 37.6836 85.5158C37.9663 85.5511 38.0369 84.1379 37.9309 83.6432C37.825 83.1486 37.3657 83.2546 37.2243 83.3606C37.083 83.4666 36.9064 83.0073 36.5177 83.2546C36.1291 83.5019 35.9878 83.078 35.5638 83.3606C35.1752 83.6079 34.9985 83.6079 34.8572 84.0319C34.7159 84.4558 34.7159 84.9151 34.7512 85.1271Z" fill="#316BDA"/>
<path d="M41.1841 49.1673C42.8125 47.1938 42.5152 43.5942 40.4738 41.8472C37.5408 42.9555 36.7899 46.4976 36.8514 48.5428C36.9033 50.2672 37.0387 50.6981 35.3429 52.8533C33.647 54.9731 33.0927 56.1908 33.0927 56.1908C33.0927 56.1908 36.2694 71.7721 35.4215 74.4925C34.369 80.2038 32.13 93.0514 32.13 93.0514C32.13 93.0514 25.879 111.4 24.2385 115.102C23.122 117.162 19.7767 120 22.9352 120C24.8495 120 26.0255 118.027 26.6029 115.692C27.1803 113.358 37.1118 98.0477 38.7786 93.8654C40.1106 90.523 41.6449 88.0542 42.5013 84.0146C44.0651 85.9213 50.0633 93.0514 50.0633 93.0514C50.0633 93.0514 50.1185 114 49.7168 117.177L57.9059 117.794C57.6138 115.384 52.6288 115.29 52.6288 114.071C52.6288 112.076 55.2325 93.3104 54.7466 90.6669C53.7279 85.1252 46.1452 72.6591 46.1452 72.6591C46.0569 68.0937 46.1471 59.6441 45.7479 55.612C47.0868 55.7184 51.4987 56.8945 54.4159 58.1502C57.8164 59.614 61.4528 61.3617 61.9591 62.2044C63.22 64.3031 66.6112 65.2388 67.0682 64.5035C67.0682 64.5035 60.919 58.9426 58.0745 57.0518C52.8918 53.6067 51.1699 52.5965 46.479 51.2162C44.3216 50.5814 40.8983 50.5597 40.8983 50.5597L40.1012 49.562C40.1012 49.562 40.9404 49.4626 41.1841 49.1673Z" fill="#316BDA"/>
<path d="M42.1763 50.5798C42.2823 51.0078 41.8763 53.445 41.0747 54.1769C39.1316 56.0313 36.3585 53.9786 35.8144 52.238C32.5101 56.2495 31.0811 57.727 32.3674 64.8404C32.3674 64.8404 36.3561 71.4969 35.6686 73.5597C34.5909 77.7879 33.9928 82.0276 33.2996 86.3381C42.0867 88.5348 44.2307 85.5502 52.3672 82.1243C51.3281 79.7887 47.6549 74.2948 46.3147 71.7695C46.0871 68.9007 46.2105 59.3726 45.9829 55.688L48.06 56.065C48.3675 54.735 48.8354 53.5016 49.2551 52.1027C45.9402 50.9503 44.9694 50.7634 42.1763 50.5798Z" fill="#071335"/>
<path d="M32.4027 64.8226C32.9952 67.2591 36.0786 79.7348 35.436 81.678C35.1463 82.5541 34.2644 84.3874 34.0877 85.4827C35.6309 85.4827 34.6993 83.7138 36.3383 83.6318C37.0449 83.5612 37.7628 83.1711 38.0101 82.9238C38.2574 82.6765 37.7573 80.0901 37.7573 78.2765C37.7573 72.6064 36.3702 64.8226 36.3702 64.8226C34.7634 64.231 32.4027 64.8226 32.4027 64.8226Z" fill="#316BDA"/>
<path d="M37.6646 85.1646C38.053 84.5653 38.1364 84.0328 37.6173 84C36.681 83.9407 36.0401 83.97 35.4315 84.3262C34.8983 84.6382 34.5999 85.4295 34.7621 85.6852C35.2171 86.4026 37.1904 85.8755 37.6646 85.1646Z" fill="#316BDA"/>
<path d="M247.392 53.7866C244.28 53.9542 242.775 55.8287 243.544 57.9822C245.065 62.2408 248.511 61.0917 248.511 61.0917L248.351 55.845L247.392 53.7866Z" fill="#071335"/>
<path d="M242.476 56.7463C240.264 56.9958 239.051 59.3444 240.427 61.171C242.567 64.012 245.963 63.8958 245.963 63.8958C245.963 63.8958 241.987 59.5193 243.698 58.0484C244.397 57.4471 244.688 56.4967 242.476 56.7463Z" fill="#071335"/>
<path d="M247.404 53.7959C250.496 53.4159 254.171 57.0848 251.551 60.0724C251.67 60.6427 252.978 61.1959 253.977 60.2228C257.633 56.4351 259.025 53.9971 260.841 50.7262L263.49 32C266.341 33.7912 263.784 36.566 263.883 38.9841C264.079 43.771 263.594 48.4244 263.057 51.0805C262.297 54.8354 258.67 62.9292 258.67 62.9292C258.67 62.9292 261.818 69.9615 263.336 73.408C265.368 78.0232 270.567 95.1505 263.959 102.078C261.3 104.865 253 113.417 251.503 115.304C250.885 116.084 254.629 120.285 253.372 122L247.712 116.329L260.338 97.9229C260.338 97.9229 259.279 89.0316 258.205 83.4114C257.261 78.4772 250.234 73.2422 250.234 73.2422C250.234 73.2422 243.443 78.164 241.999 78.164C240.556 78.164 237.764 74.6893 235.854 71.7161C234.734 69.7556 233.555 68.4339 232.664 67.5982C232.791 66.7445 233.14 65.7245 233.519 65.5981C233.884 65.4765 233.66 65.3046 233.307 65.0337C232.845 64.6794 232.163 64.1557 232.286 63.3531C232.286 63.3531 233.708 64.1751 234.309 64.5545C235.148 65.1143 234.64 66.6281 235.105 67.4034C236.659 69.2673 242.604 74.1908 242.604 74.1908C245.266 70.9489 247.127 68.6418 249.24 65.0337C249.704 64.242 248.498 61.0998 248.498 61.0998C248.498 61.0998 246.168 55.5587 247.404 53.7959Z" fill="#316BDA"/>
<path d="M265.929 77.9617C272.063 83.084 278.695 91.5263 279.201 94.5934C278.597 98.8499 270.707 106.57 268.272 109.954C267.38 111.194 271.559 116.182 269.956 117.435C269.956 117.435 264.871 112.315 264.12 111.857L274.032 95.168C274.032 95.168 263.794 88.4706 262.15 86.4153C260.442 84.3285 265.929 77.9617 265.929 77.9617Z" fill="#316BDA"/>
<path d="M266.091 76.701C262.617 71.6208 260.186 66.0966 258.826 62.9028L260.237 59.2512L257.291 56.3625L253.837 60.332C253.837 60.332 254.382 62.6632 252.965 64.1515C251.83 65.3445 249.241 64.94 249.241 64.94C249.241 64.94 246.866 68.4583 244.872 71.3317C245.347 72.1854 248.182 74.6918 248.182 74.6918L250.275 73.2832C250.275 73.2832 256.671 79.0858 257.45 81.5567C258.229 84.0276 258.699 94.6857 258.699 94.6857C258.699 94.6857 261.253 95.9896 266.091 93.1548C269.072 91.4079 274.133 85.4208 274.133 85.4208C272.931 84.404 268.726 80.5549 266.091 76.701Z" fill="#071335"/>
<path fill-rule="evenodd" clip-rule="evenodd" d="M239.501 56.6554C240.832 55.6383 241.999 54.0447 242.563 52.0203C243.614 48.2511 242.265 44.5826 239.551 43.8263C236.837 43.07 233.785 45.5125 232.735 49.2816C232.217 51.1378 232.282 52.9697 232.805 54.4412C233.521 56.7474 233.918 60.4213 233.256 62.679C232.901 63.8207 232.517 64.9608 232.136 66.0894C231.8 67.0848 231.468 68.0712 231.161 69.0419C231.148 69.0741 231.146 69.1014 231.157 69.1237C231.166 69.1442 231.186 69.1605 231.215 69.1727L232.469 69.5474C232.531 69.5729 232.574 69.5548 232.6 69.4932C232.948 68.392 233.268 67.2766 233.591 66.1525C233.882 65.1373 234.176 64.1149 234.493 63.0891C235.564 59.6326 238.17 57.6724 239.501 56.6554ZM241.602 51.7527C240.706 54.9692 238.209 57.0835 236.026 56.4751C233.842 55.8666 232.799 52.766 233.695 49.5495C234.591 46.333 237.088 44.2187 239.271 44.8272C241.455 45.4356 242.498 48.5363 241.602 51.7527Z" fill="#071335"/>
<path d="M231.462 66.7995C231.943 67.3608 232.484 67.6258 232.745 67.1737C233.215 66.3583 233.462 65.7751 233.34 65.1039C233.233 64.5159 232.504 63.9663 232.157 64.0197C231.182 64.1697 230.897 66.1215 231.462 66.7995Z" fill="#316BDA"/>
<path d="M291.7 49.4566C290.745 48.5517 289.203 48.9555 289.108 50.0386C289.035 50.8825 289.56 51.6609 290.086 52.0529C290.258 51.5742 291.7 49.4566 291.7 49.4566Z" fill="#071335"/>
<path d="M291.699 49.4519C292.238 49.9904 292.697 52.3857 291.232 52.2888C291.345 52.6477 291.917 52.8838 291.917 52.8838L294.686 55.454L295.957 56.67C295.957 56.67 298.924 55.5829 298.852 54.8136C298.937 54.4566 300.09 53.9195 300.09 53.9195C300.215 54.0849 300.041 54.2584 299.9 54.3989C299.769 54.5292 299.667 54.6311 299.858 54.672C300.923 55.2004 300.318 55.3878 299.794 55.55C299.594 55.612 299.406 55.6704 299.327 55.7427C299.279 55.7822 299.204 55.846 299.109 55.9275C298.416 56.5178 296.592 57.8372 295.896 57.6966C295.101 57.495 293.109 56.0162 293.109 56.0162C292.323 57.0398 288.277 61.787 289.003 62.8148C289.986 64.2067 291.537 66.4009 292.916 68.8716C293.202 69.3834 293.381 70.8687 293.581 72.5384C293.737 73.8352 293.906 75.2431 294.149 76.3924C294.192 76.5973 294.648 76.6084 295.176 76.6213C295.849 76.6376 296.64 76.6569 296.845 77.0841L293.417 77.4834L291.447 69.7126C291.447 69.7126 287.658 67.125 286.388 65.5169C285.114 63.9043 286.313 60.9416 287.164 58.6321C287.678 57.2383 288.366 54.1677 289.569 52.99C289.923 52.7884 289.974 52.393 290.089 51.8483C290.366 50.5281 290.981 49.6737 291.699 49.4519Z" fill="#316BDA"/>
<path d="M285.1 63.1275C284.264 64.7138 282.476 69.9284 282.476 69.9284L276 74.2186C276.127 75.0078 276.355 78.0001 276.355 78.0001C277.347 77.5841 276.891 74.8232 277.364 74.5331C279.395 73.2853 282.278 72.1249 283.622 71.1426C285.755 69.5841 286.459 67.8829 287.764 65.3457C288.925 62.7397 288.584 61.8953 288.584 61.8953L285.1 63.1275Z" fill="#316BDA"/>
<path d="M289.262 62.1171C289.262 62.1171 291.684 58.1356 293.14 56.0711C293.295 56.2128 293.775 56.4928 293.775 56.4928C294.078 56.1392 294.288 55.8417 294.692 55.4601C294.148 54.8795 292.901 53.4283 291.916 52.8833C291.916 52.8833 291.503 53.7358 290.955 53.8341C290.407 53.9324 289.764 53.4121 289.58 52.9872C288.476 53.6616 287.816 54.2208 287.097 54.9828C287.155 55.3365 287.422 56.2615 287.725 56.5394C287.078 57.9103 286.435 60.2336 285.862 61.2807C285.471 61.9957 283.492 64.6524 283.128 65.219C286.261 67.4384 287.805 67.3703 290.84 65.3415C290.052 64.1209 289.262 62.1171 289.262 62.1171Z" fill="#071335"/>
<path d="M287.126 54.9546L287.85 56.4182L286.616 57.6349L291.383 60.794C291.136 61.0133 290.184 61.0137 289.299 60.2348C288.644 59.6577 284.767 58.7085 284.95 57.8456C285.189 56.9809 286.708 55.3598 287.126 54.9546Z" fill="#316BDA"/>
<path fill-rule="evenodd" clip-rule="evenodd" d="M302.727 50.8908C302.944 50.2527 303.402 49.6032 304.102 49.1283C305.405 48.2443 306.978 48.2882 307.614 49.2265C308.251 50.1649 307.711 51.6422 306.408 52.5262C305.766 52.9616 305.059 53.1719 304.43 53.1612C303.459 53.184 302.007 53.5035 301.23 54.0458C300.84 54.3275 300.455 54.6204 300.073 54.9104C299.736 55.1661 299.403 55.4195 299.072 55.6609C299.061 55.6701 299.051 55.6742 299.041 55.6731C299.032 55.672 299.023 55.6667 299.015 55.657L298.711 55.2269C298.694 55.2066 298.695 55.1877 298.715 55.17C299.091 54.8961 299.475 54.6309 299.862 54.3636C300.212 54.1222 300.565 53.8791 300.915 53.6263C302.096 52.7745 302.51 51.529 302.727 50.8908ZM304.328 49.4606C303.216 50.215 302.729 51.4386 303.241 52.1934C303.754 52.9483 305.07 52.9486 306.182 52.1942C307.294 51.4398 307.781 50.2163 307.268 49.4614C306.756 48.7065 305.44 48.7062 304.328 49.4606Z" fill="#071335"/>
<path d="M300.853 54.672C300.87 54.3204 300.769 54.0519 300.531 54.1233C300.102 54.252 299.826 54.3735 299.649 54.6459C299.494 54.8844 299.567 55.3127 299.704 55.4077C300.091 55.6742 300.827 55.0913 300.853 54.672Z" fill="#316BDA"/>
<path d="M289.035 48.985C288.224 48.6056 287.314 49.1567 287.402 50.0727C287.539 51.4976 288.729 52.1716 288.729 52.1716C288.729 52.1716 288.285 49.8339 289.181 49.6886C289.547 49.6293 289.847 49.3644 289.035 48.985Z" fill="#071335"/>
<g filter="url(#filter0_f_2114_198693)">
<circle cx="210.5" cy="32.8023" r="21.3443" fill="url(#paint6_radial_2114_198693)"/>
<circle cx="210.5" cy="32.8023" r="21.3443" fill="url(#paint7_radial_2114_198693)" fill-opacity="0.5"/>
</g>
<g filter="url(#filter1_f_2114_198693)">
<path d="M210.792 42.9671C210.851 42.7278 210.712 42.4845 210.476 42.413C210.227 42.3375 209.965 42.4811 209.895 42.7314L204.205 62.9616C204.056 63.4909 204.454 64.0161 205.004 64.0161C205.386 64.0161 205.719 63.7546 205.81 63.383L210.792 42.9671Z" fill="#83B0F3"/>
</g>
<g filter="url(#filter2_f_2114_198693)">
<path d="M177.779 35.8941C177.768 35.577 177.512 35.3233 177.194 35.3163C176.86 35.3088 176.584 35.5779 176.583 35.9128L176.536 63.069C176.535 63.7316 177.167 64.2121 177.805 64.0338L177.944 63.9949C178.388 63.8709 178.69 63.4594 178.675 62.9987L177.779 35.8941Z" fill="#83B0F3"/>
<g filter="url(#filter3_f_2114_198693)">
<path d="M190 34C190 42.2843 183.284 49 175 49C166.716 49 160 42.2843 160 34C160 25.7157 166.716 19 175 19C183.284 19 190 25.7157 190 34Z" fill="url(#paint8_linear_2114_198693)"/>
</g>
<circle cx="176.854" cy="23.3152" r="25.1458" fill="url(#paint9_radial_2114_198693)"/>
<circle cx="176.854" cy="23.3152" r="25.1458" fill="url(#paint10_radial_2114_198693)" fill-opacity="0.5"/>
</g>
<path d="M112.11 46.5688C114.293 44.8828 116.927 46.2969 117.117 48.4633C117.264 50.1511 116.39 50.9773 115.338 51.7614C114.994 50.804 112.11 46.5688 112.11 46.5688Z" fill="#071335"/>
<path d="M112.11 46.5686C111.034 47.6455 109.168 52.4743 112.904 52.4743C112.679 53.1922 111.675 53.4324 111.675 53.4324L105.302 58.7649L103.596 60.8608C103.596 60.8608 97.66 58.8306 97.8045 57.2921C97.6345 56.578 95.3282 55.5038 95.3282 55.5038C95.0781 55.8345 95.4264 56.1816 95.7086 56.4626C95.9702 56.7232 96.1748 56.927 95.7933 57.0088C93.6623 58.0656 94.8725 58.4404 95.9201 58.7649C96.3206 58.8889 96.6974 59.0056 96.8545 59.1502C96.9507 59.2293 97.1003 59.3568 97.2915 59.5199C98.676 60.7004 102.244 63.7431 103.583 63.7431C105.433 63.7431 108.775 60.1531 108.775 60.1531C110.347 62.2004 118.956 71.2389 117.503 73.2945C115.537 76.0784 112.436 80.4668 109.676 85.4081C109.104 86.4317 108.748 89.4024 108.347 92.7418C108.035 95.3353 107.697 98.1513 107.211 100.45C107.124 100.86 106.213 100.882 105.157 100.908C103.81 100.94 102.228 100.979 101.819 101.833L109.072 103.091L113.068 87.2267C113.068 87.2267 119.824 81.4949 122.364 78.2787C124.912 75.0534 122.883 69.5481 121.18 64.929C120.153 62.1415 119.657 54.9449 116.84 53.7795C115.442 53.2007 115.56 52.4508 115.331 51.3613C114.776 48.721 113.548 47.0122 112.11 46.5686Z" fill="#316BDA"/>
<path d="M125.309 73.9198C126.98 77.0924 130.527 86.8001 130.527 86.8001L143.933 95.5669C143.679 97.1455 142.799 103.665 142.799 103.665C140.815 102.833 141.726 97.3113 140.782 96.7311C136.718 94.2355 131.177 92.5726 128.49 90.3329C124.431 86.9507 122.59 83.4306 119.981 78.3563C117.658 73.1441 118.341 71.4553 118.341 71.4553L125.309 73.9198Z" fill="#316BDA"/>
<path d="M117.097 73.0569C117.097 73.0569 111.62 64.5165 108.71 60.3875C108.398 60.6707 107.638 61.301 107.638 61.301C107.032 60.594 106.088 59.5366 105.28 58.7734C108.052 55.2833 108.809 54.5212 111.676 53.4311C111.676 53.4311 112.348 54.3245 113.444 54.5212C114.54 54.7179 115.747 54.1772 116.115 53.3274C116.54 53.5404 116.941 53.7283 117.322 53.9068C119.295 54.8304 120.731 55.503 122.052 58.1139C121.569 58.5794 120.664 60.1876 120.058 60.7434C121.352 63.4852 123.266 67.323 124.661 70.8999C126.29 75.0767 127.482 78.4549 128.003 80.1863C125.849 81.7121 123.94 82.8241 122.746 83.4828C122.746 83.4828 121.377 81.2653 120.764 80.3391L118.637 82.1418C117.155 81.4214 115.623 79.8093 113.855 78.6273C115.431 76.1862 117.097 73.0569 117.097 73.0569Z" fill="#071335"/>
<path d="M121.571 57.3208L119.475 60.7767L121.669 63.0424L111.376 68.0294C111.808 68.5302 113.755 69.01 115.716 67.7025C117.169 66.7338 125.902 66.0956 125.771 64.3365C125.528 62.5586 122.291 58.2358 121.571 57.3208Z" fill="#316BDA"/>
<path fill-rule="evenodd" clip-rule="evenodd" d="M90.0546 49.4464C89.6201 48.1701 88.7037 46.8711 87.3039 45.9214C84.6978 44.1533 81.553 44.2412 80.2797 46.1179C79.0065 47.9945 80.0872 50.9491 82.6933 52.7173C83.9768 53.588 85.3909 54.0086 86.6477 53.9871C88.5907 54.0327 91.4955 54.6719 93.0481 55.7564C93.8281 56.3199 94.5993 56.9057 95.3627 57.4855C96.036 57.997 96.7032 58.5038 97.3651 58.9866C97.3863 59.0051 97.4067 59.0132 97.4264 59.0109C97.4445 59.0089 97.462 58.9982 97.4788 58.9789L98.0862 58.1186C98.1215 58.0781 98.1189 58.0402 98.0784 58.0049C97.3275 57.4571 96.5587 56.9267 95.7839 56.3921C95.0842 55.9093 94.3795 55.423 93.6784 54.9175C91.316 53.2138 90.4891 50.7228 90.0546 49.4464ZM86.8533 46.586C89.0773 48.0948 90.0498 50.5419 89.0255 52.0516C88.0013 53.5614 85.368 53.5621 83.144 52.0532C80.92 50.5443 79.9475 48.0973 80.9717 46.5876C81.996 45.0778 84.6293 45.0771 86.8533 46.586Z" fill="#071335"/>
<path d="M93.8021 57.0092C93.7687 56.3061 93.9703 55.7691 94.4463 55.9118C95.305 56.1693 95.8566 56.4123 96.2105 56.957C96.5206 57.4341 96.3752 58.2907 96.0996 58.4807C95.3261 59.0138 93.8537 57.848 93.8021 57.0092Z" fill="#316BDA"/>
<path d="M141.779 52.7582C142.7 52.7456 143.258 53.5814 143.063 54.416C142.669 56.1048 141.24 55.4687 141.24 55.4687L141.3 53.5022L141.779 52.7582Z" fill="#071335"/>
<path d="M141.826 52.7579C140.944 52.758 138.965 53.7457 139.947 54.8655C139.902 55.0793 139.567 55.5074 139.192 55.1427C138.996 54.9502 138.86 54.8515 138.75 54.7719C138.521 54.6063 138.406 54.5231 138.102 53.8509C137.935 53.4828 137.766 53.2119 137.608 52.9598C137.338 52.53 136.867 51.5492 136.867 51.5492L135.627 44.2971C134.558 44.9685 135.516 46.276 135.479 47.1823C135.406 48.9765 135.425 50.8967 135.627 51.8922C135.911 53.2995 136.842 56.4597 136.842 56.4597C136.842 56.4597 136.253 58.7928 135.684 60.0846C134.923 61.8144 132.404 68.2886 134.881 70.8849C135.877 71.9297 139.558 75.0801 140.119 75.7874C140.351 76.0798 138.948 77.6542 139.419 78.2971L141.54 76.1717L136.818 69.4752C136.818 69.4752 136.778 66.1164 137.637 64.2296C138.418 62.5162 140.625 60.6388 140.625 60.6388C140.625 60.6388 143.302 62.1348 143.956 62.1348C144.611 62.1348 145.354 60.8341 146.032 59.6466C146.451 58.9118 146.846 58.2203 147.18 57.907C147.133 57.5871 147.002 57.2048 146.86 57.1574C146.723 57.1118 146.807 57.0474 146.939 56.9458C147.112 56.8131 147.368 56.6168 147.322 56.3159C147.322 56.3159 146.635 56.6359 146.41 56.7781C146.3 56.8511 146.278 57.0834 146.254 57.3403C146.23 57.5838 146.205 57.8495 146.101 58.0225C145.519 58.7211 143.601 60.4638 143.601 60.4638C142.603 59.2487 141.84 58.0398 141.048 56.6875C140.874 56.3908 141.246 55.4714 141.246 55.4714C141.246 55.4714 142.289 53.4185 141.826 52.7579Z" fill="#316BDA"/>
<path d="M134.712 61.7913C132.413 63.7111 129.927 66.8754 129.738 68.0249C129.964 69.6203 132.921 72.5138 133.834 73.7822C134.169 74.2471 132.602 76.1163 133.203 76.5862C133.203 76.5862 135.109 74.6669 135.39 74.4954L132.066 68.4169C132.066 68.4169 135.513 65.7301 136.129 64.9597C136.769 64.1776 134.712 61.7913 134.712 61.7913Z" fill="#316BDA"/>
<path d="M134.375 61.5247C135.677 59.6206 136.113 58.2755 136.763 56.458L136.346 54.7154L137.545 52.8567L139.245 55.1836C139.245 55.1836 139.092 55.793 139.622 56.3508C140.048 56.7979 141.062 56.7077 141.062 56.7077C141.062 56.7077 142.387 58.9133 143.208 59.9576C143.03 60.2776 141.89 61.3151 141.89 61.3151L140.626 60.6474C140.626 60.6474 138.001 63.258 137.545 64.7025C137.09 66.1469 136.883 67.9521 136.883 67.9521L133.819 67.999L133.776 67.1211L133.278 67.4582L131.451 65.1735C132.67 63.4977 133.387 62.9692 134.375 61.5247Z" fill="#071335"/>
<path fill-rule="evenodd" clip-rule="evenodd" d="M146.878 56.038C146.583 55.183 146.556 54.1092 146.797 53.2382C146.797 53.2382 146.341 53.7975 145.878 53.9594C145.403 54.1266 144.649 53.9701 144.649 53.9701C145.427 54.3851 146.126 55.3939 146.421 56.2129C146.709 57.0107 146.957 57.8048 147.24 58.578C147.251 58.6007 147.268 58.6067 147.29 58.5961L147.753 58.4342C147.776 58.4236 147.782 58.4069 147.771 58.3843C147.491 57.6201 147.164 56.831 146.878 56.038Z" fill="#071335"/>
<path d="M146.816 50.9856C147.293 52.3627 146.885 53.7588 145.899 54.0988C144.913 54.4388 143.722 53.6073 143.234 52.2354C142.756 50.8583 143.164 49.4622 144.15 49.1222C145.148 48.777 146.338 49.6085 146.816 50.9856ZM146.685 51.0314C146.243 49.7618 145.134 48.9892 144.222 49.3094C143.309 49.6297 142.922 50.9201 143.38 52.1958C143.822 53.4654 144.931 54.238 145.844 53.9178C146.756 53.5975 147.127 52.3009 146.685 51.0314Z" fill="#071335"/>
<path d="M147.795 57.7143C147.582 57.9632 147.342 58.0807 147.226 57.8802C147.018 57.5187 146.909 57.2601 146.963 56.9625C147.01 56.7018 147.333 56.4581 147.487 56.4818C147.919 56.5483 148.046 57.4137 147.795 57.7143Z" fill="#316BDA"/>
<path fill-rule="evenodd" clip-rule="evenodd" d="M145.855 54.1324C144.852 54.4623 143.667 53.6003 143.209 52.2072C142.751 50.814 143.193 49.4173 144.196 49.0874C145.199 48.7576 146.384 49.6195 146.842 51.0127C147.3 52.4058 146.858 53.8026 145.855 54.1324ZM145.733 53.7626C144.926 54.028 143.955 53.2794 143.564 52.0905C143.173 50.9016 143.511 49.7228 144.318 49.4574C145.125 49.192 146.096 49.9407 146.487 51.1295C146.878 52.3184 146.541 53.4973 145.733 53.7626Z" fill="#071335"/>
</g>
<defs>
<filter id="filter0_f_2114_198693" x="185.156" y="7.45801" width="50.6886" height="50.6887" filterUnits="userSpaceOnUse" color-interpolation-filters="sRGB">
<feFlood flood-opacity="0" result="BackgroundImageFix"/>
<feBlend mode="normal" in="SourceGraphic" in2="BackgroundImageFix" result="shape"/>
<feGaussianBlur stdDeviation="2" result="effect1_foregroundBlur_2114_198693"/>
</filter>
<filter id="filter1_f_2114_198693" x="201.173" y="39.3928" width="12.6322" height="27.6233" filterUnits="userSpaceOnUse" color-interpolation-filters="sRGB">
<feFlood flood-opacity="0" result="BackgroundImageFix"/>
<feBlend mode="normal" in="SourceGraphic" in2="BackgroundImageFix" result="shape"/>
<feGaussianBlur stdDeviation="1.5" result="effect1_foregroundBlur_2114_198693"/>
</filter>
<filter id="filter2_f_2114_198693" x="148.708" y="-4.83057" width="56.2915" height="71.9019" filterUnits="userSpaceOnUse" color-interpolation-filters="sRGB">
<feFlood flood-opacity="0" result="BackgroundImageFix"/>
<feBlend mode="normal" in="SourceGraphic" in2="BackgroundImageFix" result="shape"/>
<feGaussianBlur stdDeviation="1.5" result="effect1_foregroundBlur_2114_198693"/>
</filter>
<filter id="filter3_f_2114_198693" x="133.693" y="-7.30718" width="82.6144" height="82.6144" filterUnits="userSpaceOnUse" color-interpolation-filters="sRGB">
<feFlood flood-opacity="0" result="BackgroundImageFix"/>
<feBlend mode="normal" in="SourceGraphic" in2="BackgroundImageFix" result="shape"/>
<feGaussianBlur stdDeviation="13.1536" result="effect1_foregroundBlur_2114_198693"/>
</filter>
<linearGradient id="paint0_linear_2114_198693" x1="148.157" y1="53.8909" x2="157.145" y2="183.035" gradientUnits="userSpaceOnUse">
<stop stop-color="#85BDFF"/>
<stop offset="0.317701" stop-color="#5DC5FF" stop-opacity="0"/>
<stop offset="0.630214" stop-color="#5DC5FF" stop-opacity="0"/>
<stop offset="1" stop-color="#85BDFF"/>
</linearGradient>
<linearGradient id="paint1_linear_2114_198693" x1="507.075" y1="14.8432" x2="522.298" y2="137.149" gradientUnits="userSpaceOnUse">
<stop offset="0.451945" stop-color="#5DC5FF" stop-opacity="0"/>
<stop offset="1" stop-color="#85BDFF"/>
</linearGradient>
<radialGradient id="paint2_radial_2114_198693" cx="0" cy="0" r="1" gradientUnits="userSpaceOnUse" gradientTransform="translate(133.458 27.5209) rotate(101.194) scale(4.41617 2.96234)">
<stop stop-color="#316BDA"/>
<stop offset="1" stop-color="#071335"/>
</radialGradient>
<radialGradient id="paint3_radial_2114_198693" cx="0" cy="0" r="1" gradientUnits="userSpaceOnUse" gradientTransform="translate(312.436 35.1356) rotate(101.194) scale(4.41617 2.96234)">
<stop stop-color="#316BDA"/>
<stop offset="1" stop-color="#071335"/>
</radialGradient>
<radialGradient id="paint4_radial_2114_198693" cx="0" cy="0" r="1" gradientUnits="userSpaceOnUse" gradientTransform="translate(87.3794 26.5673) rotate(-112.751) scale(6.43123 4.31402)">
<stop stop-color="#316BDA"/>
<stop offset="1" stop-color="#071335"/>
</radialGradient>
<radialGradient id="paint5_radial_2114_198693" cx="0" cy="0" r="1" gradientUnits="userSpaceOnUse" gradientTransform="translate(256.979 18.2287) rotate(-112.751) scale(5.56568 3.73342)">
<stop stop-color="#316BDA"/>
<stop offset="1" stop-color="#071335"/>
</radialGradient>
<radialGradient id="paint6_radial_2114_198693" cx="0" cy="0" r="1" gradientUnits="userSpaceOnUse" gradientTransform="translate(228.715 42.196) rotate(-151.29) scale(38.3364 37.1909)">
<stop stop-color="#2496FF"/>
<stop offset="1" stop-color="#1467B3" stop-opacity="0"/>
</radialGradient>
<radialGradient id="paint7_radial_2114_198693" cx="0" cy="0" r="1" gradientUnits="userSpaceOnUse" gradientTransform="translate(223.368 35.4237) rotate(-162.719) scale(27.9963)">
<stop stop-color="#27CAFE"/>
<stop offset="1" stop-color="#1A8EFA" stop-opacity="0"/>
</radialGradient>
<linearGradient id="paint8_linear_2114_198693" x1="184.36" y1="33.4208" x2="144.111" y2="10.8569" gradientUnits="userSpaceOnUse">
<stop stop-color="#1372E1" stop-opacity="0.51"/>
<stop offset="1" stop-color="#D1E7FB" stop-opacity="0.78"/>
</linearGradient>
<radialGradient id="paint9_radial_2114_198693" cx="0" cy="0" r="1" gradientUnits="userSpaceOnUse" gradientTransform="translate(198.313 34.3818) rotate(-151.29) scale(45.1641 43.8146)">
<stop stop-color="#2496FF"/>
<stop offset="1" stop-color="#DEECFB" stop-opacity="0.17"/>
</radialGradient>
<radialGradient id="paint10_radial_2114_198693" cx="0" cy="0" r="1" gradientUnits="userSpaceOnUse" gradientTransform="translate(192.014 26.4035) rotate(-155.799) scale(26.2654)">
<stop stop-color="#2797FE"/>
<stop offset="1" stop-color="#1AD2FA" stop-opacity="0"/>
</radialGradient>
<clipPath id="clip0_2114_198693">
<rect width="327" height="140" fill="white"/>
</clipPath>
</defs>
</svg>
