<svg viewBox="0 0 327 140" fill="none" xmlns="http://www.w3.org/2000/svg">
<g clip-path="url(#clip0_1980_197926)">
<rect width="327" height="140" fill="#FBF5BD"/>
<rect y="85.0002" width="327" height="55" fill="url(#paint0_linear_1980_197926)"/>
<path d="M81.9798 108H147.402L147.402 109H81.4798L81.9798 108Z" fill="#FFC15D"/>
<path d="M254.18 108L184.402 108L184.402 109L253.68 109L254.18 108Z" fill="#FFC15D"/>
<path d="M100.449 92.0002H99.4492L61.6658 126H63.6658L100.449 92.0002Z" fill="#FFC15D"/>
<path d="M260 92.0005H259L247.402 126H249.402L260 92.0005Z" fill="#FFC15D"/>
<g opacity="0.7">
<g filter="url(#filter0_f_1980_197926)">
<path d="M243.156 37.0778C243.156 52.0325 231.033 64.1557 216.078 64.1557C201.123 64.1557 189 52.0325 189 37.0778C189 22.1232 201.123 10 216.078 10C231.033 10 243.156 22.1232 243.156 37.0778Z" fill="url(#paint1_linear_1980_197926)"/>
</g>
<circle cx="222.078" cy="42.0778" r="27.0778" fill="url(#paint2_radial_1980_197926)"/>
<g filter="url(#filter1_f_1980_197926)">
<circle cx="90.069" cy="41.1302" r="30.3003" fill="url(#paint3_radial_1980_197926)"/>
</g>
</g>
<g opacity="0.7">
<g filter="url(#filter2_f_1980_197926)">
<path d="M201.735 32.7877C201.735 50.2523 187.577 64.4102 170.113 64.4102C152.648 64.4102 138.49 50.2523 138.49 32.7877C138.49 15.3231 152.648 1.16528 170.113 1.16528C187.577 1.16528 201.735 15.3231 201.735 32.7877Z" fill="url(#paint4_linear_1980_197926)"/>
</g>
<circle cx="172.267" cy="37.0956" r="31.6224" fill="url(#paint5_radial_1980_197926)"/>
</g>
<g opacity="0.7" filter="url(#filter3_f_1980_197926)">
<g filter="url(#filter4_f_1980_197926)">
<path d="M327.686 42.7153C327.686 58.5742 314.829 71.4305 298.97 71.4305C283.111 71.4305 270.255 58.5742 270.255 42.7153C270.255 26.8563 283.111 14 298.97 14C314.829 14 327.686 26.8563 327.686 42.7153Z" fill="url(#paint6_linear_1980_197926)"/>
</g>
<circle cx="300.926" cy="46.6269" r="28.7153" fill="url(#paint7_radial_1980_197926)"/>
<circle cx="264.164" cy="58.159" r="22.8409" fill="url(#paint8_radial_1980_197926)"/>
</g>
<g opacity="0.7" filter="url(#filter5_f_1980_197926)">
<g filter="url(#filter6_f_1980_197926)">
<path d="M68.3593 47.8854C68.3593 61.1885 57.575 71.9728 44.272 71.9728C30.9689 71.9728 20.1846 61.1885 20.1846 47.8854C20.1846 34.5824 30.9689 23.7981 44.272 23.7981C57.575 23.7981 68.3593 34.5824 68.3593 47.8854Z" fill="url(#paint9_linear_1980_197926)"/>
</g>
<circle cx="45.9127" cy="51.1667" r="24.0873" fill="url(#paint10_radial_1980_197926)"/>
<circle cx="15.0754" cy="60.8402" r="19.1597" fill="url(#paint11_radial_1980_197926)"/>
</g>
<g opacity="0.7" filter="url(#filter7_f_1980_197926)">
<g filter="url(#filter8_f_1980_197926)">
<path d="M84.4982 52.8729C84.4982 65.1608 74.537 75.122 62.2491 75.122C49.9613 75.122 40 65.1608 40 52.8729C40 40.585 49.9613 30.6238 62.2491 30.6238C74.537 30.6238 84.4982 40.585 84.4982 52.8729Z" fill="url(#paint12_linear_1980_197926)"/>
</g>
<circle cx="63.7646" cy="55.9039" r="22.2491" fill="url(#paint13_radial_1980_197926)"/>
</g>
<circle cx="140.896" cy="17.3046" r="3.79122" fill="url(#paint14_radial_1980_197926)"/>
<path d="M139.069 19.0467C140.355 20.4026 142.189 19.3529 142.665 18.2175C143.034 17.3387 143.622 16.5256 144.672 17.5735C144.674 17.5531 144.676 17.5352 144.677 17.5189C144.684 17.4477 144.687 17.4067 144.687 17.3154C143.487 16.1043 142.794 17.3012 142.463 17.8721C141.832 18.9608 140.398 19.5885 139.499 18.6396C138.599 17.6908 139.305 16.2911 140.422 15.7206C141.01 15.4205 142.242 14.7913 141.096 13.5288C141.005 13.524 140.964 13.5255 140.892 13.5281C140.876 13.5287 140.858 13.5294 140.838 13.53C141.827 14.6351 141.015 15.113 140.104 15.5009C138.785 16.0623 137.823 17.7319 139.069 19.0467Z" fill="#9B1D3B"/>
<g filter="url(#filter9_f_1980_197926)">
<path d="M59 68.3222C59 67.9444 59.3975 67.6988 59.7354 67.8677C59.8989 67.9495 60.0059 68.1128 60.0156 68.2955L60.9461 85.9751C60.9754 86.5322 60.5316 87 59.9737 87C59.4359 87 59 86.5641 59 86.0263V68.3222Z" fill="#E1A711"/>
</g>
<g filter="url(#filter10_f_1980_197926)">
<path d="M300.012 61.6264C300.005 61.2824 300.282 61 300.627 61C300.949 61 301.217 61.25 301.24 61.5721L302.926 85.9309C302.966 86.509 302.508 87 301.928 87H301.481C300.936 87 300.492 86.5639 300.481 86.0192L300.012 61.6264Z" fill="#E1A711"/>
</g>
<g filter="url(#filter11_f_1980_197926)">
<path d="M41.988 62.6264C41.9946 62.2824 41.7175 62 41.3735 62C41.0505 62 40.7827 62.25 40.7604 62.5721L39.074 86.9309C39.034 87.509 39.4921 88 40.0716 88H40.519C41.0638 88 41.5084 87.5639 41.5189 87.0192L41.988 62.6264Z" fill="#E1A711"/>
</g>
<g filter="url(#filter12_f_1980_197926)">
<path d="M275 67.412C275 67.1845 275.184 67 275.412 67C275.63 67 275.81 67.1698 275.823 67.3873L276.938 85.9719C276.972 86.5294 276.529 87 275.97 87C275.434 87 275 86.5657 275 86.03V67.412Z" fill="#E1A711"/>
</g>
<g filter="url(#filter13_f_1980_197926)">
<path d="M278.042 42.8101C243.263 56.917 220.009 74.6006 196.55 69.5665C197.451 83.346 207.658 95.4596 207.658 95.4596C207.658 95.4596 217.861 101.318 226.316 107.098L284.877 103.219L278.042 42.8101Z" fill="url(#paint15_linear_1980_197926)"/>
</g>
<g filter="url(#filter14_f_1980_197926)">
<path d="M18 68.412C18 68.1845 18.1845 68 18.412 68C18.6299 68 18.8102 68.1698 18.8232 68.3873L19.9383 86.9719C19.9718 87.5294 19.5286 88 18.97 88C18.4343 88 18 87.5657 18 87.03V68.412Z" fill="#E1A711"/>
</g>
<path fill-rule="evenodd" clip-rule="evenodd" d="M181.775 89.4776V93.6216H182.775V88.1802L185.449 84.7119L184.657 84.1014L182.775 86.5422V80.8323L185.449 77.459L184.665 76.8378L182.775 79.2224L182.775 73.5254L185.448 70.2058L184.669 69.5786L182.775 71.9309V66.1642L185.449 62.953L184.68 62.3132L182.775 64.6012V58.6785H181.775V65.8024L180.534 67.2934V60.9734H179.534V68.4946L178.138 70.1721V63.6033H177.138V71.3733L175.469 73.3781V66.8855H174.469V74.5793L172.295 77.1905V70.6472H171.295V78.3917L169.131 80.9912V74.2976H168.131V82.1925L165.462 85.3984V78.3777H164.462V86.5997L161.793 89.8057L161.793 83.3025H160.793L160.793 91.0069L156.373 96.3162L157.142 96.956L160.793 92.5699L160.793 99.2328L156.362 104.736L157.141 105.363L160.793 100.827V106.957L156.358 112.552L157.142 113.173L160.793 108.567V115.062L156.35 120.827L157.142 121.437L160.793 116.7L160.793 123.64H161.793L161.793 115.403L164.462 111.94V118.715H165.462V110.643L168.131 107.18V113.79H169.131V105.883L171.295 103.075V109.49H172.295V101.778L174.469 98.9572V104.253H175.469V97.6598L177.138 95.4946V100.399H178.138V94.1972L179.534 92.3854V96.9558H180.534V91.088L181.775 89.4776ZM181.775 87.8396V82.094L180.534 83.66V89.4499L181.775 87.8396ZM181.775 80.4841L181.775 74.7674L180.534 76.309L180.534 82.0501L181.775 80.4841ZM181.775 73.1729V67.3654L180.534 68.8564V74.7144L181.775 73.1729ZM179.534 84.9216V90.7473L178.138 92.5591V86.6835L179.534 84.9216ZM179.534 77.551L179.534 83.3117L178.138 85.0736L178.138 79.2854L179.534 77.551ZM179.534 70.0576V75.9564L178.138 77.6909V71.7351L179.534 70.0576ZM177.138 72.9363L175.469 74.941V81.0056L177.138 78.9328V72.9363ZM177.138 80.5274L175.469 82.6002L175.469 88.4409L177.138 86.3352L177.138 80.5274ZM177.138 87.9451L175.469 90.0508V96.0218L177.138 93.8565V87.9451ZM174.469 91.3124V97.3192L172.295 100.139L172.295 94.055L174.469 91.3124ZM174.469 83.8422L174.469 89.7025L172.295 92.4451V86.542L174.469 83.8422ZM174.469 76.1423V82.2476L172.295 84.9475L172.295 78.7535L174.469 76.1423ZM171.295 79.9547L169.131 82.5542L169.131 88.8772L171.295 86.1895L171.295 79.9547ZM171.295 87.784L169.131 90.4718V96.4371L171.295 93.7068V87.784ZM171.295 95.3167L169.131 98.047L169.131 104.245L171.295 101.437L171.295 95.3167ZM168.131 99.3086L168.131 105.542L165.462 109.005L165.462 102.676L168.131 99.3086ZM168.131 91.7137V97.6987L165.462 101.066V95.0285L168.131 91.7137ZM168.131 83.7554L168.131 90.1192L165.462 93.434L165.462 86.9614L168.131 83.7554ZM164.462 88.1627L161.793 91.3686V97.9908L164.462 94.676L164.462 88.1627ZM164.462 96.2705L161.793 99.5853V105.695L164.462 102.328V96.2705ZM164.462 103.938L161.793 107.305L161.793 113.765L164.462 110.302L164.462 103.938Z" fill="#FFC15D"/>
<path fill-rule="evenodd" clip-rule="evenodd" d="M158 87.8585V126.804L183.932 89.664V58.1921L158 87.8585ZM156.247 86.8249C156.088 87.0072 156 87.241 156 87.4831V129.983C156 130.961 157.26 131.358 157.82 130.555L185.752 90.551C185.87 90.3831 185.932 90.1833 185.932 89.9785V55.5286C185.932 54.605 184.787 54.1751 184.18 54.8705L156.247 86.8249Z" fill="#FFC15D"/>
<g filter="url(#filter15_f_1980_197926)">
<path d="M87.8474 52.0968C87.9336 51.7252 87.7202 51.3497 87.3568 51.2337C86.9584 51.1065 86.5346 51.3381 86.4266 51.7421L77.3364 85.7417C77.1666 86.3767 77.6452 87 78.3025 87H78.9554C79.4207 87 79.8244 86.6792 79.9296 86.226L87.8474 52.0968Z" fill="#E1A711"/>
</g>
<g filter="url(#filter16_f_1980_197926)">
<path d="M170 50.332C170 49.9928 169.725 49.7178 169.386 49.7178C169.058 49.7178 168.788 49.9754 168.772 50.3029L167.05 86.6705C167.023 87.2407 167.478 87.7178 168.048 87.7178H169C169.552 87.7178 170 87.2701 170 86.7178V50.332Z" fill="#E1A711" fill-opacity="0.6"/>
</g>
<g filter="url(#filter17_f_1980_197926)">
<path d="M224.587 57.7658C224.518 57.4566 224.695 57.1455 224.995 57.0453C225.335 56.9319 225.7 57.1309 225.789 57.4784L233.414 87.2519C233.576 87.8845 233.098 88.5 232.446 88.5H232.219C231.75 88.5 231.345 88.1745 231.243 87.717L224.587 57.7658Z" fill="#E1A711"/>
</g>
<g filter="url(#filter18_f_1980_197926)">
<path d="M38.9084 59.5878C73.6298 67.5227 115.344 58.701 136.555 50.4241C137.803 63.4687 141.23 93.6986 141.23 93.6986C141.23 93.6986 133.863 102.1 126.82 108.798L61.7617 110.168L38.9084 59.5878Z" fill="url(#paint16_linear_1980_197926)"/>
</g>
<path d="M294.293 87.2163H237V88.2163H292.293L286 129.216H164V131.216H288L294.293 87.2163Z" fill="#FFC15D"/>
<path d="M70.2347 87.2163L137 87.2163V88.2163H71.2348L19 129.216H150V131.216H13L70.2347 87.2163Z" fill="#FFC15D"/>
<path d="M125.565 54.2217C123.457 54.1937 122.179 56.0519 122.626 57.9074C123.529 61.6618 126.8 60.2477 126.8 60.2477L126.663 55.8759L125.565 54.2217Z" fill="#8F0C2C"/>
<path d="M125.459 54.222C127.478 54.2224 132.011 56.4182 129.762 58.9077C129.864 59.3829 130.633 60.3347 131.49 59.5239C131.939 59.096 132.251 58.8766 132.503 58.6995C133.027 58.3314 133.29 58.1464 133.986 56.6521C134.368 55.8337 134.756 55.2315 135.118 54.6709C135.735 53.7155 136.814 51.535 136.814 51.535L139.655 35.4124C142.101 36.9049 139.907 39.8117 139.992 41.8267C140.16 45.8154 140.116 50.0843 139.655 52.2974C139.003 55.4262 136.872 62.4518 136.872 62.4518C136.872 62.4518 138.22 67.6387 139.522 70.5105C141.267 74.3562 147.033 88.7494 141.362 94.5215C139.08 96.8444 130.652 103.848 129.367 105.421C128.836 106.071 132.05 109.571 130.971 111L126.113 106.275L136.926 91.3874C136.926 91.3874 137.018 83.9203 135.05 79.7257C133.263 75.9164 128.208 71.7426 128.208 71.7426C128.208 71.7426 122.08 75.0686 120.581 75.0686C119.081 75.0686 117.381 72.1769 115.828 69.5368C114.867 67.9032 113.963 66.3658 113.198 65.6695C113.307 64.9581 113.606 64.1082 113.932 64.0029C114.245 63.9015 114.053 63.7584 113.75 63.5326C113.354 63.2374 112.768 62.801 112.874 62.1322C112.874 62.1322 114.447 62.8436 114.963 63.1597C115.214 63.3221 115.264 63.8385 115.32 64.4096C115.373 64.951 115.431 65.5415 115.669 65.9262C117.002 67.4793 121.395 71.3536 121.395 71.3536C123.679 68.6523 125.427 65.9647 127.241 62.9582C127.639 62.2986 126.788 60.2547 126.788 60.2547C126.788 60.2547 124.398 55.6908 125.459 54.222Z" fill="#FF702E"/>
<path d="M141.748 74.3042C147.013 78.5724 152.705 85.607 153.139 88.1627C152.621 91.7094 145.849 98.1422 143.759 100.962C142.993 101.996 146.58 106.151 145.204 107.196C145.204 107.196 140.84 102.929 140.196 102.548L147.807 89.0342C147.807 89.0342 139.915 83.0608 138.504 81.3483C137.039 79.6094 141.748 74.3042 141.748 74.3042Z" fill="#FF702E"/>
<path d="M142.521 73.7123C139.539 69.4792 138.54 66.4888 137.053 62.4483L138.007 58.5742L135.26 54.4419L131.369 59.615C131.369 59.615 131.72 60.9698 130.504 62.2098C129.529 63.204 127.207 63.0033 127.207 63.0033C127.207 63.0033 124.173 67.9068 122.294 70.2284C122.701 70.9398 125.313 73.2463 125.313 73.2463L128.205 71.762C128.205 71.762 134.218 77.5658 135.26 80.7771C136.302 83.9883 136.777 88.0015 136.777 88.0015L143.793 88.1059L143.892 86.1542L145.032 86.9035L149.215 81.8242C146.425 78.0986 144.783 76.9236 142.521 73.7123Z" fill="#8F0C2C"/>
<path fill-rule="evenodd" clip-rule="evenodd" d="M113.891 61.5145C114.564 59.6137 114.628 57.2263 114.076 55.29C114.076 55.29 115.121 56.5336 116.181 56.8934C117.267 57.265 118.994 56.9171 118.994 56.9171C117.213 57.8398 115.613 60.0824 114.936 61.9032C114.276 63.6769 113.71 65.4423 113.06 67.1613C113.036 67.2117 112.998 67.2251 112.946 67.2015L111.886 66.8416C111.834 66.818 111.82 66.781 111.844 66.7307C112.487 65.0317 113.234 63.2774 113.891 61.5145Z" fill="#8F0C2C"/>
<path d="M114.033 50.2816C112.94 53.3432 113.874 56.4469 116.132 57.2028C118.39 57.9587 121.116 56.1101 122.235 53.0601C123.328 49.9985 122.394 46.8948 120.136 46.1388C117.852 45.3714 115.126 47.22 114.033 50.2816ZM114.331 50.3833C115.343 47.5609 117.882 45.8432 119.972 46.5552C122.062 47.2671 122.948 50.136 121.899 52.9721C120.887 55.7945 118.348 57.5122 116.258 56.8002C114.168 56.0883 113.319 53.2056 114.331 50.3833Z" fill="#8F0C2C"/>
<path d="M111.79 65.2407C112.278 65.794 112.828 66.0552 113.093 65.6096C113.57 64.8058 113.82 64.2309 113.696 63.5693C113.588 62.9897 112.848 62.4479 112.496 62.5006C111.506 62.6485 111.216 64.5724 111.79 65.2407Z" fill="#FF702E"/>
<path fill-rule="evenodd" clip-rule="evenodd" d="M116.232 57.2778C118.53 58.0111 121.242 56.0948 122.291 52.9976C123.34 49.9005 122.328 46.7952 120.031 46.0619C117.734 45.3285 115.021 47.2448 113.972 50.342C112.923 53.4392 113.935 56.5444 116.232 57.2778ZM116.511 56.4558C118.359 57.0457 120.583 55.3814 121.478 52.7383C122.373 50.0953 121.601 47.4744 119.753 46.8845C117.905 46.2945 115.681 47.9589 114.786 50.6019C113.891 53.2449 114.663 55.8658 116.511 56.4558Z" fill="#8F0C2C"/>
<circle cx="63.6678" cy="121.834" r="4.15313" fill="url(#paint17_linear_1980_197926)"/>
<path d="M61.667 123.743C63.0755 125.228 65.084 124.078 65.606 122.834C66.01 121.871 66.6545 120.981 67.8048 122.129C67.8067 122.106 67.8084 122.087 67.8101 122.069C67.8171 121.991 67.8211 121.946 67.8211 121.846C66.5066 120.519 65.7468 121.83 65.3844 122.456C64.6933 123.648 63.1227 124.336 62.1371 123.296C61.1518 122.257 61.9254 120.724 63.1491 120.099C63.7928 119.77 65.1423 119.081 63.8871 117.698C63.7872 117.692 63.7422 117.694 63.6639 117.697C63.646 117.698 63.6263 117.698 63.6038 117.699C64.688 118.91 63.7983 119.433 62.7999 119.858C61.3551 120.473 60.3011 122.302 61.667 123.743Z" fill="#9B1D3B"/>
<circle cx="80.6758" cy="117.681" r="4.15313" transform="rotate(-50.4374 80.6758 117.681)" fill="url(#paint18_radial_1980_197926)"/>
<path d="M80.8725 120.439C82.9146 120.299 83.3074 118.018 82.681 116.824C82.1962 115.899 81.92 114.835 83.5376 114.679C83.5216 114.664 83.5076 114.65 83.4948 114.637C83.4392 114.582 83.4072 114.55 83.3301 114.487C81.47 114.655 81.9969 116.076 82.2482 116.754C82.7274 118.046 82.2572 119.695 80.8281 119.793C79.3992 119.89 78.7099 118.317 79.0075 116.976C79.164 116.27 79.4921 114.791 77.6265 114.878C77.5588 114.951 77.5314 114.987 77.4838 115.049C77.4729 115.063 77.4609 115.079 77.4471 115.097C79.071 115.032 78.9078 116.051 78.5995 117.092C78.1534 118.597 78.8922 120.575 80.8725 120.439Z" fill="#9B1D3B"/>
<circle cx="75.2929" cy="121.834" r="4.15313" fill="url(#paint19_linear_1980_197926)"/>
<path d="M73.292 123.743C74.7005 125.228 76.7091 124.078 77.2311 122.834C77.6351 121.871 78.2796 120.981 79.4298 122.129C79.4317 122.106 79.4335 122.087 79.4351 122.069C79.4421 121.991 79.4462 121.946 79.4462 121.846C78.1316 120.519 77.3719 121.83 77.0095 122.456C76.3183 123.648 74.7477 124.336 73.7622 123.296C72.7768 122.257 73.5505 120.724 74.7742 120.099C75.4178 119.77 76.7673 119.081 75.5121 117.698C75.4123 117.692 75.3673 117.694 75.289 117.697C75.2711 117.698 75.2514 117.698 75.2289 117.699C76.3131 118.91 75.4233 119.433 74.4249 119.858C72.9801 120.473 71.9262 122.302 73.292 123.743Z" fill="#9B1D3B"/>
<circle cx="68.646" cy="111.998" r="4.15313" transform="rotate(67.9817 68.646 111.998)" fill="url(#paint20_radial_1980_197926)"/>
<path d="M66.1268 110.858C65.2779 112.721 67.0969 114.152 68.4457 114.169C69.4896 114.183 70.557 114.446 69.924 115.943C69.9455 115.936 69.9643 115.931 69.9815 115.926C70.0564 115.903 70.0995 115.89 70.1922 115.852C70.9293 114.136 69.429 113.923 68.7134 113.822C67.3486 113.628 66.1223 112.43 66.7165 111.127C67.3107 109.824 69.0222 109.966 70.0604 110.866C70.6065 111.339 71.7514 112.332 72.5629 110.65C72.5304 110.555 72.512 110.514 72.48 110.443C72.4726 110.426 72.4646 110.409 72.4555 110.388C71.7396 111.847 70.9208 111.218 70.1525 110.452C69.0408 109.343 66.95 109.052 66.1268 110.858Z" fill="#9B1D3B"/>
<circle cx="84.8299" cy="102.874" r="4.15313" fill="url(#paint21_linear_1980_197926)"/>
<path d="M82.829 104.782C84.2375 106.267 86.2461 105.117 86.768 103.874C87.172 102.911 87.8166 102.02 88.9668 103.168C88.9687 103.146 88.9705 103.126 88.9721 103.108C88.9791 103.03 88.9832 102.985 88.9832 102.885C87.6686 101.559 86.9088 102.87 86.5464 103.495C85.8553 104.688 84.2847 105.376 83.2992 104.336C82.3138 103.297 83.0875 101.763 84.3111 101.138C84.9548 100.81 86.3043 100.12 85.0491 98.7373C84.9492 98.732 84.9042 98.7337 84.826 98.7366C84.808 98.7373 84.7884 98.738 84.7659 98.7387C85.8501 99.9493 84.9603 100.473 83.9619 100.898C82.5171 101.513 81.4631 103.342 82.829 104.782Z" fill="#9B1D3B"/>
<circle cx="50.993" cy="121.834" r="4.15313" transform="rotate(129.952 50.993 121.834)" fill="url(#paint22_radial_1980_197926)"/>
<path d="M50.815 119.075C48.772 119.201 48.3637 121.479 48.982 122.678C49.4605 123.605 49.7295 124.671 48.1108 124.816C48.1268 124.832 48.1406 124.846 48.1533 124.859C48.2086 124.914 48.2404 124.946 48.317 125.01C50.1782 124.854 49.661 123.43 49.4143 122.751C48.9439 121.455 49.4253 119.809 50.855 119.721C52.2845 119.634 52.9632 121.211 52.6565 122.551C52.4952 123.255 52.157 124.732 54.0232 124.658C54.0914 124.585 54.119 124.549 54.167 124.488C54.178 124.473 54.1901 124.458 54.204 124.44C52.5798 124.494 52.7498 123.476 53.0652 122.437C53.5216 120.935 52.7962 118.952 50.815 119.075Z" fill="#9B1D3B"/>
<circle cx="58.2224" cy="114.307" r="4.15313" fill="url(#paint23_linear_1980_197926)"/>
<path d="M56.2215 116.216C57.63 117.701 59.6386 116.551 60.1606 115.307C60.5646 114.345 61.2091 113.454 62.3593 114.602C62.3612 114.58 62.363 114.56 62.3646 114.542C62.3716 114.464 62.3757 114.419 62.3757 114.319C61.0611 112.993 60.3014 114.304 59.939 114.929C59.2479 116.122 57.6772 116.809 56.6917 115.77C55.7063 114.73 56.48 113.197 57.7037 112.572C58.3473 112.243 59.6968 111.554 58.4416 110.171C58.3418 110.166 58.2968 110.168 58.2185 110.17C58.2006 110.171 58.1809 110.172 58.1584 110.173C59.2426 111.383 58.3529 111.907 57.3544 112.332C55.9096 112.947 54.8557 114.776 56.2215 116.216Z" fill="#9B1D3B"/>
<circle cx="92.7045" cy="123.02" r="4.15313" fill="url(#paint24_linear_1980_197926)"/>
<path d="M90.7036 124.928C92.1121 126.413 94.1207 125.263 94.6427 124.02C95.0467 123.057 95.6912 122.166 96.8414 123.314C96.8433 123.292 96.8451 123.272 96.8467 123.254C96.8537 123.176 96.8578 123.131 96.8578 123.031C95.5432 121.705 94.7835 123.016 94.4211 123.641C93.73 124.834 92.1593 125.522 91.1738 124.482C90.1884 123.443 90.9621 121.909 92.1858 121.284C92.8294 120.956 94.179 120.266 92.9237 118.883C92.8239 118.878 92.7789 118.88 92.7006 118.883C92.6827 118.883 92.663 118.884 92.6405 118.885C93.7247 120.095 92.835 120.619 91.8365 121.044C90.3917 121.659 89.3378 123.488 90.7036 124.928Z" fill="#9B1D3B"/>
<path d="M196.225 69.2977C197.564 67.0877 201.012 67.9213 201.719 70.1402C202.269 71.8689 201.218 72.7565 200.398 74.0827C199.817 73.164 196.225 69.2977 196.225 69.2977Z" fill="#8F0C2C"/>
<path d="M196.846 75.0975C194.327 73.7577 195.695 70.0705 196.233 69.3032C198.269 69.722 200.229 72.2167 200.422 74.0697C200.423 74.0723 200.424 74.0749 200.425 74.0775L200.423 74.0781C200.539 75.1721 200.893 75.4843 201.862 75.6825C210.914 77.8143 222.345 84.7406 226.34 87.6513C225.621 88.5604 221.55 87.2988 220.809 86.1545C220.261 85.3075 210.444 82.6808 207.374 82.1198C207.374 82.1198 211.573 89.2007 212.094 89.6947C212.153 89.7501 212.23 89.8155 212.32 89.8921C213.035 90.499 214.582 91.8109 214.29 94.4427C214.02 96.8739 212.605 97.6433 211.544 98.22C211.312 98.3464 211.097 98.4636 210.914 98.587C210.56 98.833 209.632 99.5902 208.492 100.521C206.452 102.186 203.731 104.408 202.393 105.253C201.922 106.284 199.718 110.776 197.67 114.949C196.113 118.124 194.646 121.114 194.102 122.255L186.676 120.088C186.801 119.007 188.893 119.054 190.587 119.092C191.679 119.116 192.605 119.137 192.733 118.85C193.306 117.563 194.215 114.462 195.169 111.208C195.938 108.584 196.737 105.861 197.411 103.911C198.349 101.199 201.397 98.2599 203.561 96.173C203.832 95.9115 204.09 95.6634 204.327 95.4308C206.962 92.8235 206.66 93.0156 206.66 93.0156C206.66 93.0156 202.873 90.0515 200.457 87.7735C198.042 85.4681 195.893 83.5344 195.893 83.5344C195.893 83.5344 192.214 84.5237 191.089 85.0451C188.052 86.69 184.761 87.793 181.972 89.2285C181.736 89.5833 181.321 89.7794 180.994 89.7405C180.569 89.6901 179.706 89.4701 179.651 90.2982C179.623 90.7099 179.055 91.4777 178.553 91.2948C178.863 89.9325 179.222 89.139 180.45 88.295C185.605 84.7509 190.328 81.3835 195.259 77.6849C195.578 77.4461 195.944 77.2064 196.305 76.9701C197.314 76.3102 198.283 75.6764 198.056 75.16C198.042 75.1268 198.027 75.0924 198.013 75.0571C197.557 75.1745 197.134 75.2161 196.846 75.0975Z" fill="#FF702E"/>
<path fill-rule="evenodd" clip-rule="evenodd" d="M170.727 86.8236C169.581 85.8741 167.85 85.3059 165.998 85.3216C162.621 85.3502 159.936 87.3913 160.001 89.8805C160.066 92.3696 162.856 94.3642 166.232 94.3356C168.019 94.3205 169.283 93.8413 170.822 92.8258C172.487 91.7271 175.09 90.6103 177.156 90.6216C178.188 90.644 179.226 90.692 180.253 90.7396C181.16 90.7815 182.059 90.8231 182.937 90.8464C182.995 90.853 183.026 90.827 183.032 90.7684L183.023 89.6125C183.028 89.5539 183.002 89.5213 182.945 89.5147C181.948 89.4883 180.946 89.4888 179.936 89.4892C179.025 89.4896 178.107 89.49 177.18 89.4707C173.244 89.3886 171.307 87.2029 170.727 86.8236ZM166.021 86.203C168.902 86.1785 171.28 87.7821 171.332 89.7846C171.384 91.7871 169.091 93.4302 166.209 93.4546C163.328 93.4791 160.95 91.8756 160.898 89.8731C160.846 87.8706 163.139 86.2274 166.021 86.203Z" fill="#8F0C2C"/>
<path d="M213.807 90.377C217.433 94.555 221.056 99.4683 225.318 103.775C225.318 103.775 237.115 99.2396 239.828 97.8767L243.254 103.775C241.677 104.631 239.52 100.994 238.731 101.157C237.524 101.407 227.95 109.754 223.093 107.365C218.348 105.03 213.133 101.348 209.459 97.5396L213.807 90.377Z" fill="#FF702E"/>
<path d="M208.27 82.3141L209.24 82.5163C209.459 81.7651 209.819 79.8489 210.341 78.6397C207.572 77.4253 204.329 76.1152 201.856 75.6753C201.334 76.7613 198.569 78.5026 197.034 76.4629C194.852 77.875 192.792 79.458 190.987 80.8349C191.316 81.3634 192.118 83.2069 192.732 84.4638C192.732 84.4638 195.319 83.6681 195.759 83.6406C197.336 85.0879 200.896 89.4717 205.528 93.8924C204.686 94.8046 203.514 96.1454 202.462 97.2331C203.501 98.0584 205.83 100.055 207.572 101.298C207.572 101.298 208.952 100.187 210.687 98.7899C212.232 100.198 213.553 101.298 214.228 101.789C215.321 100.578 217.821 97.8041 219.034 96.6579C215.276 91.9391 211.944 87.4484 208.27 82.3141Z" fill="#8F0C2C"/>
<path d="M181.512 90.8715C181.826 90.4872 181.923 90.1259 181.568 90.064C180.926 89.9522 180.481 89.9241 180.034 90.1239C179.642 90.2991 179.376 90.8228 179.469 91.0116C179.729 91.5413 181.131 91.3266 181.512 90.8715Z" fill="#FF702E"/>
</g>
<defs>
<filter id="filter0_f_1980_197926" x="162.693" y="-16.3072" width="106.77" height="106.77" filterUnits="userSpaceOnUse" color-interpolation-filters="sRGB">
<feFlood flood-opacity="0" result="BackgroundImageFix"/>
<feBlend mode="normal" in="SourceGraphic" in2="BackgroundImageFix" result="shape"/>
<feGaussianBlur stdDeviation="13.1536" result="effect1_foregroundBlur_1980_197926"/>
</filter>
<filter id="filter1_f_1980_197926" x="55.7687" y="6.82983" width="68.6007" height="68.6006" filterUnits="userSpaceOnUse" color-interpolation-filters="sRGB">
<feFlood flood-opacity="0" result="BackgroundImageFix"/>
<feBlend mode="normal" in="SourceGraphic" in2="BackgroundImageFix" result="shape"/>
<feGaussianBlur stdDeviation="2" result="effect1_foregroundBlur_1980_197926"/>
</filter>
<filter id="filter2_f_1980_197926" x="112.183" y="-25.1419" width="115.859" height="115.859" filterUnits="userSpaceOnUse" color-interpolation-filters="sRGB">
<feFlood flood-opacity="0" result="BackgroundImageFix"/>
<feBlend mode="normal" in="SourceGraphic" in2="BackgroundImageFix" result="shape"/>
<feGaussianBlur stdDeviation="13.1536" result="effect1_foregroundBlur_1980_197926"/>
</filter>
<filter id="filter3_f_1980_197926" x="234.323" y="7" width="102.318" height="81" filterUnits="userSpaceOnUse" color-interpolation-filters="sRGB">
<feFlood flood-opacity="0" result="BackgroundImageFix"/>
<feBlend mode="normal" in="SourceGraphic" in2="BackgroundImageFix" result="shape"/>
<feGaussianBlur stdDeviation="3.5" result="effect1_foregroundBlur_1980_197926"/>
</filter>
<filter id="filter4_f_1980_197926" x="243.948" y="-12.3072" width="110.045" height="110.045" filterUnits="userSpaceOnUse" color-interpolation-filters="sRGB">
<feFlood flood-opacity="0" result="BackgroundImageFix"/>
<feBlend mode="normal" in="SourceGraphic" in2="BackgroundImageFix" result="shape"/>
<feGaussianBlur stdDeviation="13.1536" result="effect1_foregroundBlur_1980_197926"/>
</filter>
<filter id="filter5_f_1980_197926" x="-11.0844" y="16.7981" width="88.0844" height="70.2019" filterUnits="userSpaceOnUse" color-interpolation-filters="sRGB">
<feFlood flood-opacity="0" result="BackgroundImageFix"/>
<feBlend mode="normal" in="SourceGraphic" in2="BackgroundImageFix" result="shape"/>
<feGaussianBlur stdDeviation="3.5" result="effect1_foregroundBlur_1980_197926"/>
</filter>
<filter id="filter6_f_1980_197926" x="-6.12255" y="-2.50908" width="100.789" height="100.789" filterUnits="userSpaceOnUse" color-interpolation-filters="sRGB">
<feFlood flood-opacity="0" result="BackgroundImageFix"/>
<feBlend mode="normal" in="SourceGraphic" in2="BackgroundImageFix" result="shape"/>
<feGaussianBlur stdDeviation="13.1536" result="effect1_foregroundBlur_1980_197926"/>
</filter>
<filter id="filter7_f_1980_197926" x="33" y="23.6238" width="60.0137" height="61.5293" filterUnits="userSpaceOnUse" color-interpolation-filters="sRGB">
<feFlood flood-opacity="0" result="BackgroundImageFix"/>
<feBlend mode="normal" in="SourceGraphic" in2="BackgroundImageFix" result="shape"/>
<feGaussianBlur stdDeviation="3.5" result="effect1_foregroundBlur_1980_197926"/>
</filter>
<filter id="filter8_f_1980_197926" x="13.6928" y="4.3166" width="97.1126" height="97.1126" filterUnits="userSpaceOnUse" color-interpolation-filters="sRGB">
<feFlood flood-opacity="0" result="BackgroundImageFix"/>
<feBlend mode="normal" in="SourceGraphic" in2="BackgroundImageFix" result="shape"/>
<feGaussianBlur stdDeviation="13.1536" result="effect1_foregroundBlur_1980_197926"/>
</filter>
<filter id="filter9_f_1980_197926" x="55" y="63.8135" width="9.94743" height="27.1865" filterUnits="userSpaceOnUse" color-interpolation-filters="sRGB">
<feFlood flood-opacity="0" result="BackgroundImageFix"/>
<feBlend mode="normal" in="SourceGraphic" in2="BackgroundImageFix" result="shape"/>
<feGaussianBlur stdDeviation="2" result="effect1_foregroundBlur_1980_197926"/>
</filter>
<filter id="filter10_f_1980_197926" x="296.012" y="57" width="10.9165" height="34" filterUnits="userSpaceOnUse" color-interpolation-filters="sRGB">
<feFlood flood-opacity="0" result="BackgroundImageFix"/>
<feBlend mode="normal" in="SourceGraphic" in2="BackgroundImageFix" result="shape"/>
<feGaussianBlur stdDeviation="2" result="effect1_foregroundBlur_1980_197926"/>
</filter>
<filter id="filter11_f_1980_197926" x="35.0716" y="58" width="10.9165" height="34" filterUnits="userSpaceOnUse" color-interpolation-filters="sRGB">
<feFlood flood-opacity="0" result="BackgroundImageFix"/>
<feBlend mode="normal" in="SourceGraphic" in2="BackgroundImageFix" result="shape"/>
<feGaussianBlur stdDeviation="2" result="effect1_foregroundBlur_1980_197926"/>
</filter>
<filter id="filter12_f_1980_197926" x="271" y="63" width="9.94009" height="28" filterUnits="userSpaceOnUse" color-interpolation-filters="sRGB">
<feFlood flood-opacity="0" result="BackgroundImageFix"/>
<feBlend mode="normal" in="SourceGraphic" in2="BackgroundImageFix" result="shape"/>
<feGaussianBlur stdDeviation="2" result="effect1_foregroundBlur_1980_197926"/>
</filter>
<filter id="filter13_f_1980_197926" x="184.55" y="30.8101" width="112.327" height="88.2878" filterUnits="userSpaceOnUse" color-interpolation-filters="sRGB">
<feFlood flood-opacity="0" result="BackgroundImageFix"/>
<feBlend mode="normal" in="SourceGraphic" in2="BackgroundImageFix" result="shape"/>
<feGaussianBlur stdDeviation="6" result="effect1_foregroundBlur_1980_197926"/>
</filter>
<filter id="filter14_f_1980_197926" x="14" y="64" width="9.94009" height="28" filterUnits="userSpaceOnUse" color-interpolation-filters="sRGB">
<feFlood flood-opacity="0" result="BackgroundImageFix"/>
<feBlend mode="normal" in="SourceGraphic" in2="BackgroundImageFix" result="shape"/>
<feGaussianBlur stdDeviation="2" result="effect1_foregroundBlur_1980_197926"/>
</filter>
<filter id="filter15_f_1980_197926" x="73.3019" y="47.1987" width="18.5645" height="43.8013" filterUnits="userSpaceOnUse" color-interpolation-filters="sRGB">
<feFlood flood-opacity="0" result="BackgroundImageFix"/>
<feBlend mode="normal" in="SourceGraphic" in2="BackgroundImageFix" result="shape"/>
<feGaussianBlur stdDeviation="2" result="effect1_foregroundBlur_1980_197926"/>
</filter>
<filter id="filter16_f_1980_197926" x="164.048" y="46.7178" width="8.95154" height="44" filterUnits="userSpaceOnUse" color-interpolation-filters="sRGB">
<feFlood flood-opacity="0" result="BackgroundImageFix"/>
<feBlend mode="normal" in="SourceGraphic" in2="BackgroundImageFix" result="shape"/>
<feGaussianBlur stdDeviation="1.5" result="effect1_foregroundBlur_1980_197926"/>
</filter>
<filter id="filter17_f_1980_197926" x="221.572" y="54.0134" width="14.8737" height="37.4866" filterUnits="userSpaceOnUse" color-interpolation-filters="sRGB">
<feFlood flood-opacity="0" result="BackgroundImageFix"/>
<feBlend mode="normal" in="SourceGraphic" in2="BackgroundImageFix" result="shape"/>
<feGaussianBlur stdDeviation="1.5" result="effect1_foregroundBlur_1980_197926"/>
</filter>
<filter id="filter18_f_1980_197926" x="26.9084" y="38.4241" width="126.321" height="83.7439" filterUnits="userSpaceOnUse" color-interpolation-filters="sRGB">
<feFlood flood-opacity="0" result="BackgroundImageFix"/>
<feBlend mode="normal" in="SourceGraphic" in2="BackgroundImageFix" result="shape"/>
<feGaussianBlur stdDeviation="6" result="effect1_foregroundBlur_1980_197926"/>
</filter>
<linearGradient id="paint0_linear_1980_197926" x1="147.782" y1="54.4683" x2="166.982" y2="170.613" gradientUnits="userSpaceOnUse">
<stop stop-color="#F7CE65"/>
<stop offset="0.346335" stop-color="#FFC15D" stop-opacity="0"/>
<stop offset="1" stop-color="#F7CE65"/>
</linearGradient>
<linearGradient id="paint1_linear_1980_197926" x1="232.974" y1="36.0323" x2="160.317" y2="-4.69986" gradientUnits="userSpaceOnUse">
<stop stop-color="#E19B13" stop-opacity="0.51"/>
<stop offset="1" stop-color="#FFCA43"/>
</linearGradient>
<radialGradient id="paint2_radial_1980_197926" cx="0" cy="0" r="1" gradientUnits="userSpaceOnUse" gradientTransform="translate(245.186 53.9948) rotate(-151.29) scale(48.6343 47.1811)">
<stop stop-color="#FFC224"/>
<stop offset="1" stop-color="#FCCD26" stop-opacity="0"/>
</radialGradient>
<radialGradient id="paint3_radial_1980_197926" cx="0" cy="0" r="1" gradientUnits="userSpaceOnUse" gradientTransform="translate(115.927 54.4654) rotate(-151.29) scale(54.4222 52.7961)">
<stop stop-color="#FFCF24"/>
<stop offset="1" stop-color="#FFC42E" stop-opacity="0"/>
</radialGradient>
<linearGradient id="paint4_linear_1980_197926" x1="189.845" y1="31.5667" x2="104.993" y2="-16.0017" gradientUnits="userSpaceOnUse">
<stop stop-color="#E1A713" stop-opacity="0.51"/>
<stop offset="1" stop-color="#FFE249"/>
</linearGradient>
<radialGradient id="paint5_radial_1980_197926" cx="0" cy="0" r="1" gradientUnits="userSpaceOnUse" gradientTransform="translate(199.253 51.0126) rotate(-151.29) scale(56.7968 55.0998)">
<stop stop-color="#FFC224"/>
<stop offset="1" stop-color="#FFEC3F" stop-opacity="0"/>
</radialGradient>
<linearGradient id="paint6_linear_1980_197926" x1="316.888" y1="41.6065" x2="239.838" y2="-1.58877" gradientUnits="userSpaceOnUse">
<stop stop-color="#E18F13" stop-opacity="0.51"/>
<stop offset="1" stop-color="#FFDB5B"/>
</linearGradient>
<radialGradient id="paint7_radial_1980_197926" cx="0" cy="0" r="1" gradientUnits="userSpaceOnUse" gradientTransform="translate(325.431 59.2644) rotate(-151.29) scale(51.5752 50.0342)">
<stop stop-color="#FFC224"/>
<stop offset="1" stop-color="#FFD952" stop-opacity="0"/>
</radialGradient>
<radialGradient id="paint8_radial_1980_197926" cx="0" cy="0" r="1" gradientUnits="userSpaceOnUse" gradientTransform="translate(283.656 68.2113) rotate(-151.29) scale(41.0244 39.7986)">
<stop stop-color="#FFC224"/>
<stop offset="1" stop-color="#FFD952" stop-opacity="0"/>
</radialGradient>
<linearGradient id="paint9_linear_1980_197926" x1="59.3023" y1="46.9553" x2="-5.3304" y2="10.7217" gradientUnits="userSpaceOnUse">
<stop stop-color="#E1A713" stop-opacity="0.51"/>
<stop offset="1" stop-color="#FFB11A"/>
</linearGradient>
<radialGradient id="paint10_radial_1980_197926" cx="0" cy="0" r="1" gradientUnits="userSpaceOnUse" gradientTransform="translate(66.4684 61.7675) rotate(-151.29) scale(43.2631 41.9704)">
<stop stop-color="#FFB424"/>
<stop offset="1" stop-color="#FDD33F" stop-opacity="0"/>
</radialGradient>
<radialGradient id="paint11_radial_1980_197926" cx="0" cy="0" r="1" gradientUnits="userSpaceOnUse" gradientTransform="translate(31.426 69.2724) rotate(-151.29) scale(34.4127 33.3844)">
<stop stop-color="#FFB424"/>
<stop offset="1" stop-color="#FFCE20" stop-opacity="0"/>
</radialGradient>
<linearGradient id="paint12_linear_1980_197926" x1="76.1325" y1="52.0138" x2="16.4321" y2="18.5453" gradientUnits="userSpaceOnUse">
<stop stop-color="#FFB648" stop-opacity="0.51"/>
<stop offset="1" stop-color="#FFC42B"/>
</linearGradient>
<radialGradient id="paint13_radial_1980_197926" cx="0" cy="0" r="1" gradientUnits="userSpaceOnUse" gradientTransform="translate(82.7516 65.6957) rotate(-151.29) scale(39.9615 38.7675)">
<stop stop-color="#FFC224"/>
<stop offset="1" stop-color="#FFD465" stop-opacity="0"/>
</radialGradient>
<radialGradient id="paint14_radial_1980_197926" cx="0" cy="0" r="1" gradientUnits="userSpaceOnUse" gradientTransform="translate(142.616 16.1064) rotate(159.222) scale(6.12558 4.109)">
<stop stop-color="#FF702E"/>
<stop offset="1" stop-color="#9B1D3B"/>
</radialGradient>
<linearGradient id="paint15_linear_1980_197926" x1="204.455" y1="101.002" x2="303.154" y2="84.1616" gradientUnits="userSpaceOnUse">
<stop stop-color="#FFA928" stop-opacity="0.62"/>
<stop offset="0.784138" stop-color="#FFDA57" stop-opacity="0"/>
</linearGradient>
<linearGradient id="paint16_linear_1980_197926" x1="133.922" y1="81.0716" x2="38.9084" y2="80.2798" gradientUnits="userSpaceOnUse">
<stop stop-color="#FFA928" stop-opacity="0.62"/>
<stop offset="0.784138" stop-color="#FFDA57" stop-opacity="0"/>
</linearGradient>
<linearGradient id="paint17_linear_1980_197926" x1="66.2594" y1="121.674" x2="58.5328" y2="119.581" gradientUnits="userSpaceOnUse">
<stop stop-color="#FF702E"/>
<stop offset="1" stop-color="#9B1D3B"/>
</linearGradient>
<radialGradient id="paint18_radial_1980_197926" cx="0" cy="0" r="1" gradientUnits="userSpaceOnUse" gradientTransform="translate(82.9442 117.604) rotate(-168.833) scale(7.73348 5.18757)">
<stop stop-color="#FF702E"/>
<stop offset="1" stop-color="#9B1D3B"/>
</radialGradient>
<linearGradient id="paint19_linear_1980_197926" x1="77.8845" y1="121.674" x2="70.1578" y2="119.581" gradientUnits="userSpaceOnUse">
<stop stop-color="#FF702E"/>
<stop offset="1" stop-color="#9B1D3B"/>
</linearGradient>
<radialGradient id="paint20_radial_1980_197926" cx="0" cy="0" r="1" gradientUnits="userSpaceOnUse" gradientTransform="translate(68.7929 110.422) rotate(90.1207) scale(7.46108 5.00484)">
<stop stop-color="#FF702E"/>
<stop offset="1" stop-color="#9B1D3B"/>
</radialGradient>
<linearGradient id="paint21_linear_1980_197926" x1="87.4214" y1="102.713" x2="79.6948" y2="100.621" gradientUnits="userSpaceOnUse">
<stop stop-color="#FF702E"/>
<stop offset="1" stop-color="#9B1D3B"/>
</linearGradient>
<radialGradient id="paint22_radial_1980_197926" cx="0" cy="0" r="1" gradientUnits="userSpaceOnUse" gradientTransform="translate(48.9808 121.907) rotate(14.7242) scale(9.05205 6.07205)">
<stop stop-color="#FF702E"/>
<stop offset="1" stop-color="#9B1D3B"/>
</radialGradient>
<linearGradient id="paint23_linear_1980_197926" x1="60.8139" y1="114.147" x2="53.0873" y2="112.055" gradientUnits="userSpaceOnUse">
<stop stop-color="#FF702E"/>
<stop offset="1" stop-color="#9B1D3B"/>
</linearGradient>
<linearGradient id="paint24_linear_1980_197926" x1="95.2961" y1="122.859" x2="87.5694" y2="120.767" gradientUnits="userSpaceOnUse">
<stop stop-color="#FF702E"/>
<stop offset="1" stop-color="#9B1D3B"/>
</linearGradient>
<clipPath id="clip0_1980_197926">
<rect width="327" height="140" fill="white"/>
</clipPath>
</defs>
</svg>
