<svg viewBox="0 0 89 88" fill="none" xmlns="http://www.w3.org/2000/svg">
<g clip-path="url(#clip0_2137_223687)">
<g clip-path="url(#clip1_2137_223687)">
<rect width="205.543" height="88" transform="translate(-66)" fill="#FBF5BD"/>
<rect x="-66" y="53.4287" width="205.543" height="34.5714" fill="url(#paint0_linear_2137_223687)"/>
<path d="M-14.4698 67.8857H26.6525L26.6525 68.5143H-14.7841L-14.4698 67.8857Z" fill="#FFC15D"/>
<path d="M93.7706 67.8857L49.9097 67.8858L49.9097 68.5144L93.4563 68.5143L93.7706 67.8857Z" fill="#FFC15D"/>
<g opacity="0.7">
<g filter="url(#filter0_f_2137_223687)">
<path d="M86.8407 23.306C86.8407 32.7061 79.2204 40.3264 69.8203 40.3264C60.4203 40.3264 52.8 32.7061 52.8 23.306C52.8 13.9059 60.4203 6.28564 69.8203 6.28564C79.2204 6.28564 86.8407 13.9059 86.8407 23.306Z" fill="url(#paint1_linear_2137_223687)"/>
</g>
<ellipse cx="73.5918" cy="26.4491" rx="17.0204" ry="17.0204" fill="url(#paint2_radial_2137_223687)"/>
<g filter="url(#filter1_f_2137_223687)">
<circle cx="-9.38519" cy="25.8531" r="19.0459" fill="url(#paint3_radial_2137_223687)"/>
</g>
</g>
<g opacity="0.7">
<g filter="url(#filter2_f_2137_223687)">
<path d="M60.8049 20.6094C60.8049 31.5871 51.9057 40.4864 40.9279 40.4864C29.9502 40.4864 21.051 31.5871 21.051 20.6094C21.051 9.63164 29.9502 0.732422 40.9279 0.732422C51.9057 0.732422 60.8049 9.63164 60.8049 20.6094Z" fill="url(#paint4_linear_2137_223687)"/>
</g>
<ellipse cx="42.2818" cy="23.3169" rx="19.877" ry="19.877" fill="url(#paint5_radial_2137_223687)"/>
</g>
<g opacity="0.7" filter="url(#filter3_f_2137_223687)">
<g filter="url(#filter4_f_2137_223687)">
<path d="M139.974 26.8494C139.974 36.8179 131.893 44.899 121.924 44.899C111.956 44.899 103.875 36.8179 103.875 26.8494C103.875 16.8809 111.956 8.7998 121.924 8.7998C131.893 8.7998 139.974 16.8809 139.974 26.8494Z" fill="url(#paint6_linear_2137_223687)"/>
</g>
<ellipse cx="100.046" cy="36.5569" rx="14.3571" ry="14.3571" fill="url(#paint7_radial_2137_223687)"/>
</g>
<g opacity="0.7">
<g filter="url(#filter6_f_2137_223687)">
<path d="M-23.0313 30.0996C-23.0313 38.4615 -29.81 45.2402 -38.1719 45.2402C-46.5338 45.2402 -53.3125 38.4615 -53.3125 30.0996C-53.3125 21.7377 -46.5338 14.959 -38.1719 14.959C-29.81 14.959 -23.0313 21.7377 -23.0313 30.0996Z" fill="url(#paint8_linear_2137_223687)"/>
</g>
</g>
<g opacity="0.7">
<g filter="url(#filter8_f_2137_223687)">
<path d="M-12.8868 33.2342C-12.8868 40.958 -19.1482 47.2193 -26.872 47.2193C-34.5958 47.2193 -40.8571 40.958 -40.8571 33.2342C-40.8571 25.5104 -34.5958 19.249 -26.872 19.249C-19.1482 19.249 -12.8868 25.5104 -12.8868 33.2342Z" fill="url(#paint9_linear_2137_223687)"/>
</g>
</g>
<ellipse cx="22.5632" cy="10.8772" rx="2.38305" ry="2.38305" fill="url(#paint10_radial_2137_223687)"/>
<path d="M21.4151 11.9724C22.2233 12.8246 23.3758 12.1648 23.6753 11.4511C23.9071 10.8987 24.2769 10.3876 24.9369 11.0464C24.938 11.0335 24.9391 11.0222 24.94 11.012C24.944 10.9672 24.9463 10.9415 24.9463 10.8841C24.192 10.1229 23.7561 10.8752 23.5482 11.234C23.1516 11.9183 22.2504 12.3129 21.6849 11.7164C21.1195 11.1201 21.5634 10.2402 22.2655 9.88162C22.6349 9.69298 23.4092 9.29749 22.689 8.50393C22.6317 8.5009 22.6059 8.50185 22.5609 8.5035C22.5507 8.50388 22.5394 8.5043 22.5265 8.50471C23.1486 9.19935 22.638 9.49972 22.0652 9.74356C21.2361 10.0964 20.6314 11.1459 21.4151 11.9724Z" fill="#9B1D3B"/>
<g filter="url(#filter9_f_2137_223687)">
<path d="M108.769 26.9092C86.9081 35.7764 72.2913 46.8918 57.546 43.7275C58.1118 52.3889 64.5278 60.0032 64.5278 60.0032C64.5278 60.0032 70.941 63.6857 76.2559 67.3187L113.066 64.8803L108.769 26.9092Z" fill="url(#paint11_linear_2137_223687)"/>
</g>
<path fill-rule="evenodd" clip-rule="evenodd" d="M48.2588 56.2433V58.848H48.8874V55.4278L50.5678 53.2477L50.0699 52.8639L48.8874 54.3981V50.8091L50.568 48.6887L50.0754 48.2983L48.8874 49.7971L48.8874 46.2162L50.5675 44.1295L50.0779 43.7353L48.8874 45.2139V41.5891L50.5677 39.5707L50.0846 39.1685L48.8874 40.6066V36.8838H48.2588V41.3617L47.4786 42.2989V38.3263H46.8501V43.0539L45.9723 44.1083V39.9794H45.3437V44.8634L44.2947 46.1235V42.0425H43.6661V46.8786L42.2997 48.5199V44.407H41.6711V49.275L40.3108 50.909V46.7015H39.6823V51.664L38.0047 53.6792V49.2662H37.3761V54.4343L35.6985 56.4494L35.6985 52.3617H35.0699L35.0699 57.2045L32.2916 60.5418L32.7747 60.9439L35.0699 58.187L35.0699 62.3751L32.2849 65.834L32.7745 66.2282L35.0699 63.3773V67.2301L32.2824 70.7468L32.775 71.1373L35.0699 68.242V72.3249L32.2769 75.9485L32.7748 76.3323L35.0699 73.3546L35.0699 77.7165H35.6985L35.6985 72.5391L37.3761 70.3625V74.6209H38.0047V69.547L39.6823 67.3705V71.5253H40.3108V66.555L41.6711 64.7902V68.8226H42.2997V63.9746L43.6661 62.2019V65.5304H44.2947V61.3864L45.3437 60.0253V63.108H45.9723V59.2098L46.8501 58.071V60.9438H47.4786V57.2555L48.2588 56.2433ZM48.2588 55.2136V51.6021L47.4786 52.5864V56.2258L48.2588 55.2136ZM48.2588 50.5902L48.2588 46.9968L47.4786 47.9658L47.4786 51.5745L48.2588 50.5902ZM48.2588 45.9946V42.3441L47.4786 43.2813V46.9635L48.2588 45.9946ZM46.8501 53.3795V57.0413L45.9723 58.1802V54.4869L46.8501 53.3795ZM46.8501 48.7465L46.8501 52.3675L45.9723 53.475L45.9723 49.8367L46.8501 48.7465ZM46.8501 44.0364V47.7442L45.9723 48.8344V45.0908L46.8501 44.0364ZM45.3437 45.8458L44.2947 47.106V50.918L45.3437 49.6151V45.8458ZM45.3437 50.6174L44.2947 51.9203L44.2947 55.5916L45.3437 54.268L45.3437 50.6174ZM45.3437 55.28L44.2947 56.6035V60.3567L45.3437 58.9957V55.28ZM43.6661 57.3966V61.1722L42.2997 62.945V59.1205L43.6661 57.3966ZM43.6661 52.701L43.6661 56.3846L42.2997 58.1086V54.398L43.6661 52.701ZM43.6661 47.861V51.6987L42.2997 53.3958L42.2997 49.5024L43.6661 47.861ZM41.6711 50.2574L40.3108 51.8914V55.8659L41.6711 54.1764L41.6711 50.2574ZM41.6711 55.1787L40.3108 56.8681V60.6178L41.6711 58.9016V55.1787ZM41.6711 59.9135L40.3108 61.6297L40.3108 65.5253L41.6711 63.7605V59.9135ZM39.6823 62.4228L39.6823 66.3408L38.0047 68.5174L38.0047 64.5393L39.6823 62.4228ZM39.6823 57.6488V61.4108L38.0047 63.5274V59.7324L39.6823 57.6488ZM39.6823 52.6465L39.6823 56.6465L38.0047 58.7301L38.0047 54.6617L39.6823 52.6465ZM37.3761 55.4167L35.6985 57.4319V61.5944L37.3761 59.5108L37.3761 55.4167ZM37.3761 60.5131L35.6985 62.5967V66.437L37.3761 64.3204V60.5131ZM37.3761 65.3324L35.6985 67.449L35.6985 71.5094L37.3761 69.3329L37.3761 65.3324Z" fill="#FFC15D"/>
<path fill-rule="evenodd" clip-rule="evenodd" d="M33.3143 55.2254V79.7054L49.6147 56.3603V36.5779L33.3143 55.2254ZM32.2125 54.5757C32.1123 54.6903 32.0572 54.8373 32.0572 54.9894V81.7036C32.0572 82.3185 32.8491 82.5677 33.2011 82.0635L50.7587 56.9178C50.8323 56.8123 50.8718 56.6867 50.8718 56.558V34.9038C50.8718 34.3232 50.1521 34.053 49.77 34.4901L32.2125 54.5757Z" fill="#FFC15D"/>
<g filter="url(#filter10_f_2137_223687)">
<path d="M40.8571 31.637C40.8571 31.4238 40.6843 31.251 40.4711 31.251C40.265 31.251 40.0952 31.4129 40.0854 31.6188L39.0171 54.1726C38.9922 54.6975 39.4111 55.1367 39.9366 55.1367C40.445 55.1367 40.8571 54.7246 40.8571 54.2162V31.637Z" fill="#E1A711" fill-opacity="0.6"/>
</g>
<g filter="url(#filter11_f_2137_223687)">
<path d="M75.1691 36.3099C75.1259 36.1155 75.2366 35.92 75.4255 35.857C75.6394 35.7857 75.8688 35.9108 75.9247 36.1292L80.6958 54.7591C80.8087 55.1997 80.4758 55.6285 80.0209 55.6285C79.6944 55.6285 79.4117 55.4018 79.3409 55.083L75.1691 36.3099Z" fill="#E1A711"/>
</g>
<g filter="url(#filter12_f_2137_223687)">
<path d="M-41.5433 37.4549C-19.7184 42.4425 6.50196 36.8975 19.8344 31.6948C20.6193 39.8943 22.7729 58.8959 22.7729 58.8959C22.7729 58.8959 18.1427 64.1769 13.7155 68.387L-27.1783 69.2481L-41.5433 37.4549Z" fill="url(#paint12_linear_2137_223687)"/>
</g>
<path d="M118.984 54.8218H82.9714V55.4503H117.727L113.771 81.2218H37.0857V82.4789H115.029L118.984 54.8218Z" fill="#FFC15D"/>
<path d="M-21.8525 54.8218L20.1143 54.8218V55.4503H-21.2239L-54.0572 81.2218H28.2857V82.4789H-57.8286L-21.8525 54.8218Z" fill="#FFC15D"/>
<path d="M12.9268 34.0822C11.6018 34.0646 10.7983 35.2326 11.0789 36.3989C11.6467 38.7589 13.7027 37.87 13.7027 37.87L13.6166 35.122L12.9268 34.0822Z" fill="#8F0C2C"/>
<path d="M12.8596 34.0825C14.1289 34.0827 16.9783 35.463 15.5646 37.0278C15.629 37.3265 16.1119 37.9248 16.6507 37.4151C16.9332 37.1461 17.1294 37.0082 17.2877 36.8969C17.6168 36.6656 17.7823 36.5492 18.22 35.61C18.4597 35.0956 18.704 34.717 18.9315 34.3646C19.3191 33.7641 19.9973 32.3935 19.9973 32.3935L21.783 22.2593C23.3208 23.1974 21.9414 25.0246 21.9949 26.2911C22.1007 28.7983 22.073 31.4816 21.783 32.8727C21.373 34.8394 20.0337 39.2555 20.0337 39.2555C20.0337 39.2555 20.881 42.5159 21.6997 44.321C22.7962 46.7383 26.421 55.7854 22.8564 59.4136C21.4218 60.8737 16.1239 65.276 15.3164 66.2645C14.9827 66.673 17.0027 68.8732 16.3245 69.7716L13.2708 66.8015L20.0678 57.4436C20.0678 57.4436 20.1258 52.75 18.8886 50.1134C17.7651 47.719 14.5877 45.0954 14.5877 45.0954C14.5877 45.0954 10.7359 47.186 9.79345 47.186C8.85099 47.186 7.78206 45.3684 6.80609 43.7089C6.20221 42.6821 5.6339 41.7158 5.15322 41.2781C5.22144 40.8309 5.40961 40.2967 5.61429 40.2305C5.81108 40.1668 5.69031 40.0768 5.49981 39.9349C5.25077 39.7493 4.88259 39.475 4.94905 39.0546C4.94905 39.0546 5.93841 39.5018 6.2625 39.7005C6.42013 39.8025 6.45188 40.1272 6.48701 40.4861C6.52028 40.8264 6.55659 41.1976 6.70599 41.4394C7.5441 42.4157 10.3052 44.8509 10.3052 44.8509C11.7413 43.153 12.84 41.4636 13.9801 39.5738C14.2303 39.1592 13.6952 37.8745 13.6952 37.8745C13.6952 37.8745 12.1928 35.0057 12.8596 34.0825Z" fill="#FF702E"/>
<path d="M23.0989 46.7056C26.4081 49.3884 29.9859 53.8102 30.2588 55.4166C29.933 57.646 25.6763 61.6895 24.3627 63.4619C23.8812 64.1116 26.1358 66.7237 25.2712 67.3803C25.2712 67.3803 22.5279 64.6983 22.123 64.4586L26.9073 55.9644C26.9073 55.9644 21.9468 52.2097 21.0598 51.1333C20.1387 50.0402 23.0989 46.7056 23.0989 46.7056Z" fill="#FF702E"/>
<path d="M23.5844 46.3335C21.7103 43.6727 21.0821 41.793 20.1473 39.2533L20.7475 36.8182L19.0205 34.2207L16.5748 37.4723C16.5748 37.4723 16.7951 38.3239 16.031 39.1034C15.4184 39.7283 13.9587 39.6022 13.9587 39.6022C13.9587 39.6022 12.0513 42.6844 10.8703 44.1436C11.1262 44.5908 12.7679 46.0406 12.7679 46.0406L14.5861 45.1076C14.5861 45.1076 18.3653 48.7557 19.0205 50.7742C19.6757 52.7927 19.9739 55.3153 19.9739 55.3153L24.3844 55.3809L24.4465 54.1541L25.1629 54.6251L27.7921 51.4324C26.0385 49.0906 25.0061 48.3521 23.5844 46.3335Z" fill="#8F0C2C"/>
<path fill-rule="evenodd" clip-rule="evenodd" d="M5.58862 38.6662C6.01194 37.4714 6.05214 35.9708 5.70489 34.7536C5.70489 34.7536 6.36151 35.5353 7.0278 35.7615C7.71038 35.9951 8.79616 35.7764 8.79616 35.7764C7.67685 36.3564 6.67077 37.766 6.24535 38.9105C5.83093 40.0254 5.47482 41.1351 5.06626 42.2156C5.05097 42.2473 5.02703 42.2557 4.99443 42.2408L4.32815 42.0147C4.29555 41.9998 4.28689 41.9766 4.30218 41.9449C4.70598 40.877 5.17563 39.7743 5.58862 38.6662Z" fill="#8F0C2C"/>
<path d="M5.67776 31.6055C4.99081 33.5299 5.57778 35.4809 6.99702 35.956C8.41625 36.4311 10.1301 35.2692 10.8334 33.352C11.5204 31.4276 10.9334 29.4767 9.51417 29.0015C8.07855 28.5191 6.3647 29.6811 5.67776 31.6055ZM5.8654 31.6694C6.50144 29.8954 8.09746 28.8157 9.41095 29.2632C10.7244 29.7107 11.2818 31.514 10.6219 33.2967C9.98589 35.0708 8.38988 36.1505 7.07639 35.703C5.7629 35.2555 5.22935 33.4435 5.8654 31.6694Z" fill="#8F0C2C"/>
<path d="M4.26794 41.0088C4.57498 41.3565 4.92025 41.5207 5.08671 41.2406C5.387 40.7354 5.54415 40.374 5.46627 39.9582C5.39804 39.5938 4.93319 39.2533 4.71144 39.2864C4.08917 39.3794 3.90737 40.5887 4.26794 41.0088Z" fill="#FF702E"/>
<path fill-rule="evenodd" clip-rule="evenodd" d="M7.06037 36.0033C8.50427 36.4642 10.2093 35.2597 10.8686 33.3129C11.528 31.3661 10.892 29.4142 9.44809 28.9533C8.00419 28.4923 6.29916 29.6968 5.63981 31.6436C4.98046 33.5904 5.61647 35.5423 7.06037 36.0033ZM7.23547 35.4866C8.39707 35.8574 9.79488 34.8112 10.3575 33.1499C10.9202 31.4886 10.4347 29.8412 9.27307 29.4703C8.11147 29.0995 6.71366 30.1456 6.15099 31.807C5.58833 33.4683 6.07386 35.1157 7.23547 35.4866Z" fill="#8F0C2C"/>
<path d="M57.3415 43.5584C58.1832 42.1692 60.3506 42.6932 60.7947 44.088C61.1407 45.1746 60.4801 45.7325 59.9647 46.5661C59.599 45.9886 57.3415 43.5584 57.3415 43.5584Z" fill="#8F0C2C"/>
<path d="M57.7319 47.2041C56.1483 46.362 57.0082 44.0443 57.3462 43.562C58.6261 43.8253 59.858 45.3933 59.9797 46.5581C59.9803 46.5597 59.9808 46.5613 59.9814 46.563L59.9803 46.5634C60.0532 47.251 60.2753 47.4473 60.8844 47.5719C66.5745 48.9118 73.7596 53.2655 76.2708 55.0951C75.8188 55.6665 73.2598 54.8735 72.7943 54.1542C72.4499 53.6219 66.2793 51.9708 64.3491 51.6182C64.3491 51.6182 66.9885 56.069 67.3163 56.3795C67.3531 56.4143 67.4015 56.4554 67.4583 56.5036C67.908 56.885 68.8802 57.7097 68.6964 59.364C68.5266 60.8921 67.6373 61.3758 66.9708 61.7383C66.8247 61.8177 66.6893 61.8914 66.5745 61.9689C66.3518 62.1236 65.7687 62.5996 65.0519 63.1847C63.7696 64.2315 62.0594 65.6276 61.2184 66.1588C60.9221 66.8068 59.5369 69.6305 58.25 72.2536C57.2709 74.2493 56.3488 76.1289 56.0067 76.8457L51.3393 75.4836C51.4177 74.8047 52.7327 74.834 53.7975 74.8578C54.4838 74.8731 55.0662 74.8861 55.1465 74.7057C55.5063 73.8969 56.078 71.9474 56.6776 69.9023C57.1613 68.2528 57.6631 66.5412 58.0869 65.3157C58.6764 63.6105 60.5921 61.7634 61.9526 60.4516C62.1231 60.2872 62.2849 60.1313 62.4342 59.985C64.0903 58.3462 63.9006 58.4669 63.9006 58.4669C63.9006 58.4669 61.5199 56.6038 60.0017 55.1719C58.4836 53.7228 57.133 52.5073 57.133 52.5073C57.133 52.5073 54.8203 53.1292 54.113 53.4569C52.2044 54.4909 50.1354 55.1842 48.3825 56.0865C48.2338 56.3095 47.9734 56.4327 47.7676 56.4083C47.5007 56.3766 46.9579 56.2383 46.9232 56.7589C46.906 57.0176 46.549 57.5002 46.2331 57.3853C46.4284 56.529 46.6539 56.0302 47.4256 55.4997C50.6658 53.272 53.6346 51.1553 56.7344 48.8305C56.9346 48.6804 57.1648 48.5297 57.3919 48.3812C58.026 47.9664 58.6351 47.568 58.4926 47.2434C58.4834 47.2225 58.4742 47.2009 58.4651 47.1787C58.1786 47.2525 57.9129 47.2787 57.7319 47.2041Z" fill="#FF702E"/>
<path fill-rule="evenodd" clip-rule="evenodd" d="M41.3144 54.5747C40.594 53.9779 39.5055 53.6207 38.3414 53.6306C36.219 53.6486 34.5314 54.9315 34.5722 56.4961C34.6129 58.0607 36.3664 59.3145 38.4888 59.2965C39.6121 59.287 40.4066 58.9858 41.3738 58.3475C42.4201 57.6569 44.0566 56.9549 45.355 56.962C46.0036 56.9761 46.6562 57.0063 47.3022 57.0362C47.8721 57.0625 48.4368 57.0887 48.9892 57.1033C49.0253 57.1074 49.045 57.0911 49.0484 57.0543L49.0428 56.3277C49.0462 56.2909 49.0298 56.2704 48.9938 56.2662C48.3671 56.2497 47.7374 56.2499 47.1028 56.2502C46.5299 56.2505 45.9529 56.2507 45.3703 56.2386C42.8961 56.187 41.6787 54.8131 41.3144 54.5747ZM38.3558 54.1846C40.167 54.1692 41.6618 55.1771 41.6946 56.4359C41.7273 57.6946 40.2856 58.7274 38.4745 58.7428C36.6633 58.7581 35.1685 57.7502 35.1357 56.4915C35.1029 55.2328 36.5446 54.1999 38.3558 54.1846Z" fill="#8F0C2C"/>
<path d="M68.3932 56.8081C70.6725 59.4343 72.9492 62.5227 75.6284 65.2299C75.6284 65.2299 83.0437 62.3789 84.7492 61.5222L86.9026 65.2299C85.911 65.7675 84.5553 63.4816 84.0594 63.5842C83.301 63.7412 77.2826 68.9883 74.2301 67.4862C71.2474 66.0185 67.9695 63.7044 65.6602 61.3104L68.3932 56.8081Z" fill="#FF702E"/>
<path d="M64.9126 51.7398L65.522 51.8669C65.6602 51.3948 65.886 50.1903 66.2144 49.4302C64.4738 48.6669 62.4354 47.8434 60.8808 47.5669C60.5527 48.2495 58.815 49.344 57.8497 48.062C56.4782 48.9496 55.1837 49.9446 54.0491 50.8101C54.2556 51.1423 54.7596 52.301 55.1457 53.0911C55.1457 53.0911 56.7723 52.591 57.0483 52.5737C58.0399 53.4834 60.2778 56.2389 63.1888 59.0177C62.6596 59.591 61.9233 60.4338 61.2617 61.1175C61.9147 61.6363 63.379 62.891 64.4738 63.6727C64.4738 63.6727 65.3413 62.9744 66.4316 62.0961C67.4029 62.9809 68.2336 63.6727 68.6576 63.9813C69.3445 63.2197 70.9158 61.4764 71.6785 60.7559C69.3163 57.7898 67.2218 54.9672 64.9126 51.7398Z" fill="#8F0C2C"/>
<path d="M48.0934 57.1191C48.2904 56.8775 48.3519 56.6504 48.1282 56.6114C47.7247 56.5412 47.4452 56.5235 47.1641 56.6492C46.9179 56.7592 46.7509 57.0885 46.8091 57.2071C46.9724 57.54 47.8538 57.4051 48.0934 57.1191Z" fill="#FF702E"/>
</g>
</g>
<defs>
<filter id="filter0_f_2137_223687" x="26.4928" y="-20.0215" width="86.6551" height="86.6549" filterUnits="userSpaceOnUse" color-interpolation-filters="sRGB">
<feFlood flood-opacity="0" result="BackgroundImageFix"/>
<feBlend mode="normal" in="SourceGraphic" in2="BackgroundImageFix" result="shape"/>
<feGaussianBlur stdDeviation="13.1536" result="effect1_foregroundBlur_2137_223687"/>
</filter>
<filter id="filter1_f_2137_223687" x="-32.4311" y="2.80713" width="46.0919" height="46.0918" filterUnits="userSpaceOnUse" color-interpolation-filters="sRGB">
<feFlood flood-opacity="0" result="BackgroundImageFix"/>
<feBlend mode="normal" in="SourceGraphic" in2="BackgroundImageFix" result="shape"/>
<feGaussianBlur stdDeviation="2" result="effect1_foregroundBlur_2137_223687"/>
</filter>
<filter id="filter2_f_2137_223687" x="-5.25621" y="-25.5748" width="92.3683" height="92.3683" filterUnits="userSpaceOnUse" color-interpolation-filters="sRGB">
<feFlood flood-opacity="0" result="BackgroundImageFix"/>
<feBlend mode="normal" in="SourceGraphic" in2="BackgroundImageFix" result="shape"/>
<feGaussianBlur stdDeviation="13.1536" result="effect1_foregroundBlur_2137_223687"/>
</filter>
<filter id="filter3_f_2137_223687" x="78.6889" y="1.7998" width="69.5143" height="56.1143" filterUnits="userSpaceOnUse" color-interpolation-filters="sRGB">
<feFlood flood-opacity="0" result="BackgroundImageFix"/>
<feBlend mode="normal" in="SourceGraphic" in2="BackgroundImageFix" result="shape"/>
<feGaussianBlur stdDeviation="3.5" result="effect1_foregroundBlur_2137_223687"/>
</filter>
<filter id="filter4_f_2137_223687" x="77.5675" y="-17.5074" width="88.7135" height="88.7135" filterUnits="userSpaceOnUse" color-interpolation-filters="sRGB">
<feFlood flood-opacity="0" result="BackgroundImageFix"/>
<feBlend mode="normal" in="SourceGraphic" in2="BackgroundImageFix" result="shape"/>
<feGaussianBlur stdDeviation="13.1536" result="effect1_foregroundBlur_2137_223687"/>
</filter>
<filter id="filter6_f_2137_223687" x="-79.6197" y="-11.3482" width="82.8956" height="82.8956" filterUnits="userSpaceOnUse" color-interpolation-filters="sRGB">
<feFlood flood-opacity="0" result="BackgroundImageFix"/>
<feBlend mode="normal" in="SourceGraphic" in2="BackgroundImageFix" result="shape"/>
<feGaussianBlur stdDeviation="13.1536" result="effect1_foregroundBlur_2137_223687"/>
</filter>
<filter id="filter8_f_2137_223687" x="-67.1643" y="-7.05816" width="80.5847" height="80.5846" filterUnits="userSpaceOnUse" color-interpolation-filters="sRGB">
<feFlood flood-opacity="0" result="BackgroundImageFix"/>
<feBlend mode="normal" in="SourceGraphic" in2="BackgroundImageFix" result="shape"/>
<feGaussianBlur stdDeviation="13.1536" result="effect1_foregroundBlur_2137_223687"/>
</filter>
<filter id="filter9_f_2137_223687" x="45.546" y="14.9092" width="79.5197" height="64.4097" filterUnits="userSpaceOnUse" color-interpolation-filters="sRGB">
<feFlood flood-opacity="0" result="BackgroundImageFix"/>
<feBlend mode="normal" in="SourceGraphic" in2="BackgroundImageFix" result="shape"/>
<feGaussianBlur stdDeviation="6" result="effect1_foregroundBlur_2137_223687"/>
</filter>
<filter id="filter10_f_2137_223687" x="36.0161" y="28.251" width="7.84109" height="29.8857" filterUnits="userSpaceOnUse" color-interpolation-filters="sRGB">
<feFlood flood-opacity="0" result="BackgroundImageFix"/>
<feBlend mode="normal" in="SourceGraphic" in2="BackgroundImageFix" result="shape"/>
<feGaussianBlur stdDeviation="1.5" result="effect1_foregroundBlur_2137_223687"/>
</filter>
<filter id="filter11_f_2137_223687" x="72.1598" y="32.8369" width="11.5581" height="25.7915" filterUnits="userSpaceOnUse" color-interpolation-filters="sRGB">
<feFlood flood-opacity="0" result="BackgroundImageFix"/>
<feBlend mode="normal" in="SourceGraphic" in2="BackgroundImageFix" result="shape"/>
<feGaussianBlur stdDeviation="1.5" result="effect1_foregroundBlur_2137_223687"/>
</filter>
<filter id="filter12_f_2137_223687" x="-53.5433" y="19.6948" width="88.3163" height="61.5532" filterUnits="userSpaceOnUse" color-interpolation-filters="sRGB">
<feFlood flood-opacity="0" result="BackgroundImageFix"/>
<feBlend mode="normal" in="SourceGraphic" in2="BackgroundImageFix" result="shape"/>
<feGaussianBlur stdDeviation="6" result="effect1_foregroundBlur_2137_223687"/>
</filter>
<linearGradient id="paint0_linear_2137_223687" x1="26.8913" y1="34.2372" x2="38.96" y2="107.242" gradientUnits="userSpaceOnUse">
<stop stop-color="#F7CE65"/>
<stop offset="0.346335" stop-color="#FFC15D" stop-opacity="0"/>
<stop offset="1" stop-color="#F7CE65"/>
</linearGradient>
<linearGradient id="paint1_linear_2137_223687" x1="80.441" y1="22.6488" x2="34.7708" y2="-2.95427" gradientUnits="userSpaceOnUse">
<stop stop-color="#E19B13" stop-opacity="0.51"/>
<stop offset="1" stop-color="#FFCA43"/>
</linearGradient>
<radialGradient id="paint2_radial_2137_223687" cx="0" cy="0" r="1" gradientUnits="userSpaceOnUse" gradientTransform="translate(88.1167 33.9397) rotate(-151.29) scale(30.5701 29.6567)">
<stop stop-color="#FFC224"/>
<stop offset="1" stop-color="#FCCD26" stop-opacity="0"/>
</radialGradient>
<radialGradient id="paint3_radial_2137_223687" cx="0" cy="0" r="1" gradientUnits="userSpaceOnUse" gradientTransform="translate(6.86829 34.2352) rotate(-151.29) scale(34.2082 33.1861)">
<stop stop-color="#FFCF24"/>
<stop offset="1" stop-color="#FFC42E" stop-opacity="0"/>
</radialGradient>
<linearGradient id="paint4_linear_2137_223687" x1="53.3311" y1="19.8419" x2="-0.00414029" y2="-10.0583" gradientUnits="userSpaceOnUse">
<stop stop-color="#E1A713" stop-opacity="0.51"/>
<stop offset="1" stop-color="#FFE249"/>
</linearGradient>
<radialGradient id="paint5_radial_2137_223687" cx="0" cy="0" r="1" gradientUnits="userSpaceOnUse" gradientTransform="translate(59.2445 32.0648) rotate(-151.29) scale(35.7009 34.6342)">
<stop stop-color="#FFC224"/>
<stop offset="1" stop-color="#FFEC3F" stop-opacity="0"/>
</radialGradient>
<linearGradient id="paint6_linear_2137_223687" x1="133.187" y1="26.1524" x2="84.7552" y2="-0.998863" gradientUnits="userSpaceOnUse">
<stop stop-color="#E18F13" stop-opacity="0.51"/>
<stop offset="1" stop-color="#FFDB5B"/>
</linearGradient>
<radialGradient id="paint7_radial_2137_223687" cx="0" cy="0" r="1" gradientUnits="userSpaceOnUse" gradientTransform="translate(112.298 42.8754) rotate(-151.29) scale(25.7868 25.0163)">
<stop stop-color="#FFC224"/>
<stop offset="1" stop-color="#FFD952" stop-opacity="0"/>
</radialGradient>
<linearGradient id="paint8_linear_2137_223687" x1="-28.7243" y1="29.515" x2="-69.3506" y2="6.73953" gradientUnits="userSpaceOnUse">
<stop stop-color="#E1A713" stop-opacity="0.51"/>
<stop offset="1" stop-color="#FFB11A"/>
</linearGradient>
<linearGradient id="paint9_linear_2137_223687" x1="-18.1453" y1="32.6942" x2="-55.6712" y2="11.6568" gradientUnits="userSpaceOnUse">
<stop stop-color="#FFB648" stop-opacity="0.51"/>
<stop offset="1" stop-color="#FFC42B"/>
</linearGradient>
<radialGradient id="paint10_radial_2137_223687" cx="0" cy="0" r="1" gradientUnits="userSpaceOnUse" gradientTransform="translate(23.6445 10.124) rotate(159.222) scale(3.85036 2.5828)">
<stop stop-color="#FF702E"/>
<stop offset="1" stop-color="#9B1D3B"/>
</radialGradient>
<linearGradient id="paint11_linear_2137_223687" x1="62.5146" y1="63.4871" x2="124.554" y2="52.9016" gradientUnits="userSpaceOnUse">
<stop stop-color="#FFA928" stop-opacity="0.62"/>
<stop offset="0.784138" stop-color="#FFDA57" stop-opacity="0"/>
</linearGradient>
<linearGradient id="paint12_linear_2137_223687" x1="18.1798" y1="50.959" x2="-41.5433" y2="50.4613" gradientUnits="userSpaceOnUse">
<stop stop-color="#FFA928" stop-opacity="0.62"/>
<stop offset="0.784138" stop-color="#FFDA57" stop-opacity="0"/>
</linearGradient>
<clipPath id="clip0_2137_223687">
<rect width="88" height="88" fill="white" transform="translate(0.715546)"/>
</clipPath>
<clipPath id="clip1_2137_223687">
<rect width="205.543" height="88" fill="white" transform="translate(-66)"/>
</clipPath>
</defs>
</svg>
