<svg width="20" height="20" viewBox="0 0 20 20" fill="none" xmlns="http://www.w3.org/2000/svg">
<path fill-rule="evenodd" clip-rule="evenodd" d="M10 19.5999C15.302 19.5999 19.6 15.3018 19.6 9.9999C19.6 4.69797 15.302 0.399902 10 0.399902C4.69809 0.399902 0.400024 4.69797 0.400024 9.9999C0.400024 15.3018 4.69809 19.5999 10 19.5999ZM11.2 6.3999C11.2 5.73716 10.6628 5.1999 10 5.1999C9.33728 5.1999 8.80002 5.73716 8.80002 6.3999L8.80002 10.7028L7.24855 9.15137C6.77992 8.68275 6.02012 8.68275 5.5515 9.15138C5.08287 9.62 5.08287 10.3798 5.5515 10.8484L9.1515 14.4484C9.62012 14.9171 10.3799 14.9171 10.8486 14.4484L14.4486 10.8484C14.9172 10.3798 14.9172 9.62 14.4486 9.15137C13.9799 8.68274 13.2201 8.68274 12.7515 9.15137L11.2 10.7028V6.3999Z" fill="#B6B4B8"/>
</svg>
