<svg width="80" height="80" viewBox="0 0 80 80" fill="none" xmlns="http://www.w3.org/2000/svg">
<g filter="url(#filter0_f_1238_72469)">
<circle cx="10.4382" cy="10.4382" r="10.4382" transform="matrix(0.957527 -0.288345 -0.288345 -0.957527 33.3562 53.2134)" fill="url(#paint0_radial_1238_72469)"/>
</g>
<circle cx="10.4382" cy="10.4382" r="10.4382" transform="matrix(0.957527 -0.288345 -0.288345 -0.957527 34.6555 52.8223)" fill="url(#paint1_linear_1238_72469)"/>
<path fill-rule="evenodd" clip-rule="evenodd" d="M45.3679 47.9826C45.3901 48.5724 45.3324 49.2254 45.0811 49.6571C44.8558 49.7417 44.6262 49.8194 44.3924 49.8898C44.1165 49.9729 43.8399 50.0443 43.5631 50.1044C43.8172 49.6817 43.9145 49.0167 43.9468 48.5358C44.0817 46.5326 42.6413 45.9348 40.1981 45.1117L40.1972 45.1115C37.7386 44.2832 34.6795 43.2527 34.5902 39.3328C34.5569 37.8646 35.2902 36.481 35.3214 36.4228C35.3527 36.3647 36.1014 34.9893 37.3438 34.2063C37.7696 33.9259 38.2821 33.682 38.8371 33.5099L38.8398 33.5091C41.4412 32.7257 43.5262 34.3452 45.2551 35.688L45.2584 35.6905C47.2937 37.2731 48.5875 38.1438 50.1832 36.9252C50.6906 36.5037 50.9488 36.2479 51.2545 35.677C51.367 35.9606 51.4684 36.2514 51.558 36.549C51.6261 36.7751 51.6864 37.0017 51.739 37.2286C51.4066 37.7347 51.0106 38.1082 50.5072 38.4142C49.6932 38.8822 48.8563 39.0298 47.9819 38.8614C46.6918 38.6146 45.5182 37.702 44.3837 36.8199L44.3813 36.8181C43.4123 36.0644 42.4096 35.2851 41.3665 34.9327C40.258 34.5583 39.2217 34.7111 38.1055 35.4143C37.1873 35.9923 36.5854 37.0887 36.5803 37.0982C36.5745 37.1089 35.9942 38.2207 36.0186 39.2996C36.0487 40.6185 36.4935 41.5669 37.4178 42.2843C38.2876 42.9594 39.491 43.365 40.6545 43.7567L40.6573 43.7577C42.0192 44.2164 43.4281 44.691 44.3462 45.6303C44.9685 46.2665 45.3076 47.0458 45.3679 47.9826Z" fill="url(#paint2_linear_1238_72469)"/>
<defs>
<filter id="filter0_f_1238_72469" x="0.986294" y="0.853603" width="78.71" height="78.71" filterUnits="userSpaceOnUse" color-interpolation-filters="sRGB">
<feFlood flood-opacity="0" result="BackgroundImageFix"/>
<feBlend mode="normal" in="SourceGraphic" in2="BackgroundImageFix" result="shape"/>
<feGaussianBlur stdDeviation="14.457" result="effect1_foregroundBlur_1238_72469"/>
</filter>
<radialGradient id="paint0_radial_1238_72469" cx="0" cy="0" r="1" gradientUnits="userSpaceOnUse" gradientTransform="translate(19.1582 13.1477) rotate(-165.15) scale(19.8202)">
<stop stop-color="#FF8719"/>
<stop offset="0.510908" stop-color="#CA380A"/>
<stop offset="1" stop-color="#2B0F47"/>
</radialGradient>
<linearGradient id="paint1_linear_1238_72469" x1="20.8765" y1="12.5372" x2="-3.56981e-06" y2="8.06798" gradientUnits="userSpaceOnUse">
<stop stop-color="#FF8719"/>
<stop offset="0.555588" stop-color="#CA380A" stop-opacity="0.49"/>
<stop offset="0.926794" stop-color="#2B0F47" stop-opacity="0"/>
</linearGradient>
<linearGradient id="paint2_linear_1238_72469" x1="34.1977" y1="46.9508" x2="46.5536" y2="41.0002" gradientUnits="userSpaceOnUse">
<stop offset="0.0693598" stop-color="#822626"/>
<stop offset="1" stop-color="#EF7A19"/>
</linearGradient>
</defs>
</svg>
