<svg width="16" height="16" viewBox="0 0 16 16" fill="none" xmlns="http://www.w3.org/2000/svg">
<path d="M8.80039 2.40002C8.35856 2.40002 8.00039 2.7582 8.00039 3.20002C8.00039 3.64185 8.35856 4.00002 8.80039 4.00002H10.869L5.83471 9.03434C5.52229 9.34676 5.52229 9.85329 5.83471 10.1657C6.14712 10.4781 6.65366 10.4781 6.96608 10.1657L12.0004 5.1314V7.20002C12.0004 7.64185 12.3586 8.00002 12.8004 8.00002C13.2422 8.00002 13.6004 7.64185 13.6004 7.20002V3.20002C13.6004 2.7582 13.2422 2.40002 12.8004 2.40002H8.80039Z" fill="#1E1836"/>
<path d="M4.00039 4.00002C3.11674 4.00002 2.40039 4.71637 2.40039 5.60002V12C2.40039 12.8837 3.11673 13.6 4.00039 13.6H10.4004C11.284 13.6 12.0004 12.8837 12.0004 12V9.60003C12.0004 9.1582 11.6422 8.80002 11.2004 8.80002C10.7586 8.80002 10.4004 9.1582 10.4004 9.60003V12H4.00039V5.60002L6.40039 5.60002C6.84222 5.60002 7.20039 5.24185 7.20039 4.80002C7.20039 4.3582 6.84222 4.00002 6.40039 4.00002H4.00039Z" fill="#1E1836"/>
</svg>
