<svg width="40" height="40" viewBox="0 0 40 40" fill="none" xmlns="http://www.w3.org/2000/svg">
<path fill-rule="evenodd" clip-rule="evenodd" d="M25.2158 21.7095C28.9361 15.1204 27.7077 7.27317 22.4721 4.18223C17.2365 1.09129 9.9762 3.92713 6.25585 10.5163C2.87341 16.507 3.58157 23.5377 7.67287 27.0882L3.58964 34.1606C3.05434 35.0878 3.37202 36.2733 4.29911 36.8086C5.22626 37.3439 6.4118 37.0262 6.94704 36.0991L11.081 28.9389C16.0223 30.3536 21.9679 27.4618 25.2158 21.7095ZM9.62399 12.3619V14.0839H11.3081V12.3619H9.62399ZM11.3081 17.528V15.806H12.9922V17.528H11.3081ZM16.3603 14.0839V15.806H18.0444V14.0839H16.3603ZM12.9922 10.6398V8.91778H14.6762V10.6398H12.9922ZM19.7285 7.19574V8.91778H21.4126V7.19574H19.7285ZM21.4126 19.25V17.528H23.0967V19.25H21.4126ZM18.0444 20.9721V22.6941H19.7285V20.9721H18.0444ZM14.6762 22.6941V24.4162H16.3603V22.6941H14.6762ZM14.6762 19.25V20.9721H16.3603V19.25H14.6762ZM11.3081 22.6941V24.4162H12.9922V22.6941H11.3081ZM11.3081 20.9721V19.25H12.9922V20.9721H11.3081ZM7.93995 19.25V20.9721H9.62399V19.25H7.93995ZM7.93995 17.528V15.806H9.62399V17.528H7.93995Z" fill="url(#paint0_radial_600_65709)"/>
<path d="M36.6707 30.8449C36.6707 34.2707 33.8936 37.0478 30.4678 37.0478C27.042 37.0478 24.2649 34.2707 24.2649 30.8449C24.2649 27.4191 27.042 24.6419 30.4678 24.6419C33.8936 24.6419 36.6707 27.4191 36.6707 30.8449Z" fill="url(#paint1_radial_600_65709)"/>
<defs>
<radialGradient id="paint0_radial_600_65709" cx="0" cy="0" r="1" gradientUnits="userSpaceOnUse" gradientTransform="translate(15.1121 8.92723) rotate(57.7826) scale(35.651 38.82)">
<stop stop-color="#7962D9"/>
<stop offset="0.493968" stop-color="#5D38AB"/>
<stop offset="1" stop-color="#3851AB" stop-opacity="0.76"/>
</radialGradient>
<radialGradient id="paint1_radial_600_65709" cx="0" cy="0" r="1" gradientUnits="userSpaceOnUse" gradientTransform="translate(15.1121 8.92723) rotate(57.7826) scale(35.651 38.82)">
<stop stop-color="#7962D9"/>
<stop offset="0.493968" stop-color="#5D38AB"/>
<stop offset="1" stop-color="#3851AB" stop-opacity="0.76"/>
</radialGradient>
</defs>
</svg>
