<svg width="16" height="16" viewBox="0 0 16 16" fill="none" xmlns="http://www.w3.org/2000/svg">
<path fill-rule="evenodd" clip-rule="evenodd" d="M9.15982 9.33434C10.6129 6.76073 10.1332 3.69573 8.0882 2.48846C6.04325 1.28119 3.20751 2.38882 1.75441 4.96243C0.301294 7.53603 0.781075 10.601 2.82602 11.8083C4.87097 13.0156 7.70671 11.9079 9.15982 9.33434ZM3.06995 5.68329V6.35589H3.72772V5.68329H3.06995ZM3.72772 7.7011V7.02849H4.38549V7.7011H3.72772ZM5.70104 6.35589V7.02849H6.35881V6.35589H5.70104ZM4.38549 5.01069V4.33809H5.04327V5.01069H4.38549ZM7.01658 3.66549V4.33809H7.67435V3.66549H7.01658ZM7.67435 8.3737V7.7011H8.33213V8.3737H7.67435ZM6.35881 9.0463V9.7189H7.01658V9.0463H6.35881ZM5.04327 9.7189V10.3915H5.70104V9.7189H5.04327ZM5.04327 8.3737V9.0463H5.70104V8.3737H5.04327ZM3.72772 9.7189V10.3915H4.38549V9.7189H3.72772ZM3.72772 9.0463V8.3737H4.38549V9.0463H3.72772ZM2.41218 8.3737V9.0463H3.06995V8.3737H2.41218ZM2.41218 7.7011V7.02849H3.06995V7.7011H2.41218Z" fill="white"/>
<path fill-rule="evenodd" clip-rule="evenodd" d="M0.990141 15.2318C0.628019 15.0227 0.503946 14.5597 0.713018 14.1975L2.37867 11.3125C2.58774 10.9504 3.05078 10.8263 3.41291 11.0354C3.77503 11.2445 3.8991 11.7075 3.69003 12.0697L2.02438 14.9546C1.81531 15.3168 1.35226 15.4408 0.990141 15.2318Z" fill="white"/>
<path d="M5.70104 7.02849V6.35589H6.35881V7.02849H5.70104Z" fill="white"/>
<path d="M6.35881 9.7189V9.0463H7.01658V9.7189H6.35881Z" fill="white"/>
<path d="M7.01658 4.33809V3.66549H7.67435V4.33809H7.01658Z" fill="white"/>
<path d="M7.67435 8.3737V7.7011H8.33213V8.3737H7.67435Z" fill="white"/>
<path fill-rule="evenodd" clip-rule="evenodd" d="M12.5398 10.8989C13.9663 10.1082 14.6234 7.83422 13.392 5.61271C12.1606 3.3912 9.88391 2.74338 8.45744 3.53409C7.03096 4.3248 6.37391 6.5988 7.60531 8.82031C8.83671 11.0418 11.1134 11.6896 12.5398 10.8989ZM13.123 11.9511C15.302 10.7432 15.8935 7.64433 14.4441 5.02951C12.9947 2.41469 10.0532 1.27412 7.87424 2.48197C5.69523 3.68981 5.10378 6.78869 6.55319 9.40351C8.0026 12.0183 10.944 13.1589 13.123 11.9511Z" fill="white"/>
<path fill-rule="evenodd" clip-rule="evenodd" d="M13.9235 14.9459L12.3197 12.0525C12.1184 11.6894 12.2496 11.2318 12.6127 11.0304C12.9759 10.8291 13.4335 10.9604 13.6348 11.3235L15.2386 14.2169C15.4399 14.58 15.3087 15.0376 14.9455 15.2389C14.5824 15.4402 14.1248 15.309 13.9235 14.9459Z" fill="white"/>
<path d="M5.04327 9.0463V8.3737H5.70104V9.0463H5.04327Z" fill="white"/>
</svg>
