<svg width="117" height="29" viewBox="0 0 117 29" fill="none" xmlns="http://www.w3.org/2000/svg">
<path d="M58.7192 15.8856C56.3672 15.8856 54.4502 17.6746 54.4502 20.1386C54.4502 22.5876 56.3672 24.3916 58.7192 24.3916C61.0722 24.3916 62.9892 22.5876 62.9892 20.1386C62.9882 17.6746 61.0712 15.8856 58.7192 15.8856ZM58.7192 22.7176C57.4302 22.7176 56.3192 21.6546 56.3192 20.1396C56.3192 18.6086 57.4312 17.5616 58.7192 17.5616C60.0082 17.5616 61.1192 18.6086 61.1192 20.1396C61.1192 21.6536 60.0082 22.7176 58.7192 22.7176ZM49.4052 15.8856C47.0532 15.8856 45.1362 17.6746 45.1362 20.1386C45.1362 22.5876 47.0532 24.3916 49.4052 24.3916C51.7582 24.3916 53.6752 22.5876 53.6752 20.1386C53.6752 17.6746 51.7582 15.8856 49.4052 15.8856ZM49.4052 22.7176C48.1162 22.7176 47.0052 21.6546 47.0052 20.1396C47.0052 18.6086 48.1172 17.5616 49.4052 17.5616C50.6942 17.5616 51.8052 18.6086 51.8052 20.1396C51.8062 21.6536 50.6942 22.7176 49.4052 22.7176ZM38.3272 17.1916V18.9956H42.6452C42.5162 20.0106 42.1782 20.7516 41.6622 21.2666C41.0342 21.8946 40.0512 22.5876 38.3272 22.5876C35.6692 22.5876 33.5912 20.4446 33.5912 17.7866C33.5912 15.1286 35.6692 12.9856 38.3272 12.9856C39.7612 12.9856 40.8082 13.5496 41.5812 14.2746L42.8542 13.0016C41.7742 11.9706 40.3412 11.1816 38.3272 11.1816C34.6862 11.1816 31.6252 14.1456 31.6252 17.7866C31.6252 21.4276 34.6862 24.3916 38.3272 24.3916C40.2922 24.3916 41.7752 23.7466 42.9342 22.5386C44.1262 21.3466 44.4972 19.6706 44.4972 18.3176C44.4972 17.8996 44.4652 17.5126 44.4002 17.1906H38.3272V17.1916ZM83.6352 18.5926C83.2812 17.6426 82.2012 15.8856 79.9942 15.8856C77.8032 15.8856 75.9822 17.6096 75.9822 20.1386C75.9822 22.5226 77.7872 24.3916 80.2032 24.3916C82.1522 24.3916 83.2802 23.1996 83.7482 22.5066L82.2982 21.5396C81.8152 22.2486 81.1542 22.7156 80.2032 22.7156C79.2532 22.7156 78.5762 22.2806 78.1412 21.4266L83.8282 19.0746L83.6352 18.5926ZM77.8352 20.0106C77.7872 18.3666 79.1082 17.5296 80.0592 17.5296C80.8002 17.5296 81.4282 17.9006 81.6382 18.4316L77.8352 20.0106ZM73.2122 24.1346H75.0802V11.6336H73.2122V24.1346ZM70.1502 16.8366H70.0862C69.6672 16.3366 68.8612 15.8856 67.8472 15.8856C65.7202 15.8856 63.7712 17.7546 63.7712 20.1556C63.7712 22.5396 65.7202 24.3926 67.8472 24.3926C68.8622 24.3926 69.6672 23.9416 70.0862 23.4266H70.1502V24.0386C70.1502 25.6656 69.2802 26.5356 67.8792 26.5356C66.7352 26.5356 66.0262 25.7146 65.7362 25.0216L64.1092 25.6986C64.5762 26.8256 65.8162 28.2116 67.8792 28.2116C70.0702 28.2116 71.9232 26.9226 71.9232 23.7806V16.1446H70.1512V16.8366H70.1502ZM68.0082 22.7176C66.7192 22.7176 65.6402 21.6376 65.6402 20.1556C65.6402 18.6566 66.7192 17.5616 68.0082 17.5616C69.2802 17.5616 70.2792 18.6566 70.2792 20.1556C70.2792 21.6376 69.2802 22.7176 68.0082 22.7176ZM92.3892 11.6336H87.9182V24.1346H89.7832V19.3986H92.3882C94.4562 19.3986 96.4902 17.9016 96.4902 15.5166C96.4902 13.1316 94.4572 11.6336 92.3892 11.6336ZM92.4372 17.6586H89.7832V13.3736H92.4372C93.8322 13.3736 94.6242 14.5286 94.6242 15.5166C94.6242 16.4846 93.8322 17.6586 92.4372 17.6586ZM103.969 15.8636C102.618 15.8636 101.219 16.4586 100.64 17.7776L102.296 18.4686C102.65 17.7776 103.31 17.5516 104.001 17.5516C104.966 17.5516 105.947 18.1306 105.963 19.1596V19.2886C105.625 19.0956 104.901 18.8066 104.017 18.8066C102.232 18.8066 100.414 19.7876 100.414 21.6206C100.414 23.2936 101.878 24.3706 103.518 24.3706C104.772 24.3706 105.464 23.8076 105.898 23.1476H105.962V24.1126H107.764V19.3196C107.765 17.1016 106.107 15.8636 103.969 15.8636ZM103.743 22.7146C103.133 22.7146 102.28 22.4086 102.28 21.6526C102.28 20.6876 103.342 20.3176 104.259 20.3176C105.078 20.3176 105.465 20.4946 105.963 20.7356C105.818 21.8946 104.821 22.7146 103.743 22.7146ZM114.326 16.1366L112.187 21.5566H112.123L109.903 16.1366H107.893L111.222 23.7116L109.324 27.9256H111.27L116.401 16.1366H114.326ZM97.5202 24.1346H99.3852V11.6336H97.5202V24.1346Z" fill="#303141"/>
<path d="M38.0018 4.37795C38.0018 5.21595 37.7538 5.88295 37.2568 6.38095C36.6928 6.97295 35.9568 7.26895 35.0528 7.26895C34.1868 7.26895 33.4498 6.96895 32.8448 6.36895C32.2388 5.76795 31.9358 5.02395 31.9358 4.13595C31.9358 3.24695 32.2388 2.50295 32.8448 1.90295C33.4498 1.30195 34.1868 1.00195 35.0528 1.00195C35.4828 1.00195 35.8938 1.08595 36.2838 1.25295C36.6748 1.42095 36.9878 1.64395 37.2218 1.92295L36.6948 2.45095C36.2978 1.97595 35.7508 1.73895 35.0518 1.73895C34.4198 1.73895 33.8738 1.96095 33.4128 2.40495C32.9518 2.84895 32.7218 3.42595 32.7218 4.13495C32.7218 4.84395 32.9518 5.42095 33.4128 5.86495C33.8738 6.30895 34.4198 6.53095 35.0518 6.53095C35.7218 6.53095 36.2808 6.30795 36.7278 5.86095C37.0178 5.56995 37.1858 5.16495 37.2308 4.64595H35.0518V3.92495H37.9588C37.9888 4.08195 38.0018 4.23295 38.0018 4.37795Z" fill="#303141"/>
<path d="M42.6119 1.87201H39.8799V3.77401H42.3439V4.49501H39.8799V6.39701H42.6119V7.13501H39.1089V1.13501H42.6119V1.87201Z" fill="#303141"/>
<path d="M45.8627 7.13501H45.0917V1.87201H43.4157V1.13501H47.5387V1.87201H45.8627V7.13501Z" fill="#303141"/>
<path d="M50.5217 7.13501V1.13501H51.2927V7.13501H50.5217Z" fill="#303141"/>
<path d="M54.7119 7.13501H53.9409V1.87201H52.2649V1.13501H56.3879V1.87201H54.7119V7.13501Z" fill="#303141"/>
<path d="M64.1926 6.36C63.6026 6.966 62.8696 7.269 61.9926 7.269C61.1156 7.269 60.3826 6.966 59.7936 6.36C59.2036 5.754 58.9096 5.012 58.9096 4.135C58.9096 3.258 59.2036 2.516 59.7936 1.91C60.3826 1.304 61.1156 1 61.9926 1C62.8646 1 63.5966 1.305 64.1886 1.914C64.7806 2.523 65.0766 3.263 65.0766 4.135C65.0766 5.012 64.7816 5.754 64.1926 6.36ZM60.3626 5.857C60.8066 6.307 61.3496 6.531 61.9926 6.531C62.6356 6.531 63.1796 6.306 63.6226 5.857C64.0666 5.407 64.2896 4.833 64.2896 4.135C64.2896 3.437 64.0666 2.863 63.6226 2.413C63.1796 1.963 62.6356 1.739 61.9926 1.739C61.3496 1.739 60.8066 1.964 60.3626 2.413C59.9196 2.863 59.6966 3.437 59.6966 4.135C59.6966 4.833 59.9196 5.407 60.3626 5.857Z" fill="#303141"/>
<path d="M66.1587 7.13501V1.13501H67.0967L70.0127 5.80201H70.0457L70.0127 4.64601V1.13501H70.7837V7.13501H69.9787L66.9277 2.24101H66.8947L66.9277 3.39701V7.13501H66.1587Z" fill="#303141"/>
<path d="M38.0018 4.37795C38.0018 5.21595 37.7538 5.88295 37.2568 6.38095C36.6928 6.97295 35.9568 7.26895 35.0528 7.26895C34.1868 7.26895 33.4498 6.96895 32.8448 6.36895C32.2388 5.76795 31.9358 5.02395 31.9358 4.13595C31.9358 3.24695 32.2388 2.50295 32.8448 1.90295C33.4498 1.30195 34.1868 1.00195 35.0528 1.00195C35.4828 1.00195 35.8938 1.08595 36.2838 1.25295C36.6748 1.42095 36.9878 1.64395 37.2218 1.92295L36.6948 2.45095C36.2978 1.97595 35.7508 1.73895 35.0518 1.73895C34.4198 1.73895 33.8738 1.96095 33.4128 2.40495C32.9518 2.84895 32.7218 3.42595 32.7218 4.13495C32.7218 4.84395 32.9518 5.42095 33.4128 5.86495C33.8738 6.30895 34.4198 6.53095 35.0518 6.53095C35.7218 6.53095 36.2808 6.30795 36.7278 5.86095C37.0178 5.56995 37.1858 5.16495 37.2308 4.64595H35.0518V3.92495H37.9588C37.9888 4.08195 38.0018 4.23295 38.0018 4.37795Z" stroke="#303141" stroke-width="0.2" stroke-miterlimit="10"/>
<path d="M42.6119 1.87201H39.8799V3.77401H42.3439V4.49501H39.8799V6.39701H42.6119V7.13501H39.1089V1.13501H42.6119V1.87201Z" stroke="#303141" stroke-width="0.2" stroke-miterlimit="10"/>
<path d="M45.8627 7.13501H45.0917V1.87201H43.4157V1.13501H47.5387V1.87201H45.8627V7.13501Z" stroke="#303141" stroke-width="0.2" stroke-miterlimit="10"/>
<path d="M50.5217 7.13501V1.13501H51.2927V7.13501H50.5217Z" stroke="#303141" stroke-width="0.2" stroke-miterlimit="10"/>
<path d="M54.7119 7.13501H53.9409V1.87201H52.2649V1.13501H56.3879V1.87201H54.7119V7.13501Z" stroke="#303141" stroke-width="0.2" stroke-miterlimit="10"/>
<path d="M64.1926 6.36C63.6026 6.966 62.8696 7.269 61.9926 7.269C61.1156 7.269 60.3826 6.966 59.7936 6.36C59.2036 5.754 58.9096 5.012 58.9096 4.135C58.9096 3.258 59.2036 2.516 59.7936 1.91C60.3826 1.304 61.1156 1 61.9926 1C62.8646 1 63.5966 1.305 64.1886 1.914C64.7806 2.523 65.0766 3.263 65.0766 4.135C65.0766 5.012 64.7816 5.754 64.1926 6.36ZM60.3626 5.857C60.8066 6.307 61.3496 6.531 61.9926 6.531C62.6356 6.531 63.1796 6.306 63.6226 5.857C64.0666 5.407 64.2896 4.833 64.2896 4.135C64.2896 3.437 64.0666 2.863 63.6226 2.413C63.1796 1.963 62.6356 1.739 61.9926 1.739C61.3496 1.739 60.8066 1.964 60.3626 2.413C59.9196 2.863 59.6966 3.437 59.6966 4.135C59.6966 4.833 59.9196 5.407 60.3626 5.857Z" stroke="#303141" stroke-width="0.2" stroke-miterlimit="10"/>
<path d="M66.1587 7.13501V1.13501H67.0967L70.0127 5.80201H70.0457L70.0127 4.64601V1.13501H70.7837V7.13501H69.9787L66.9277 2.24101H66.8947L66.9277 3.39701V7.13501H66.1587Z" stroke="#303141" stroke-width="0.2" stroke-miterlimit="10"/>
<path fill-rule="evenodd" clip-rule="evenodd" d="M0.740219 2.10143C0.622104 2.36893 0.556854 2.69669 0.556854 3.07795V25.1939C0.556854 25.576 0.622184 25.9038 0.740437 26.1712L12.7744 14.1356L0.740219 2.10143ZM1.43544 26.8904C1.88149 27.0813 2.46336 27.0208 3.09785 26.661L17.255 18.6162L13.4815 14.8427L1.43544 26.8904ZM18.1574 18.1044L22.5988 15.581C23.9958 14.786 23.9958 13.487 22.5988 12.693L18.1554 10.1681L14.1885 14.1355L18.1574 18.1044ZM17.2536 9.65566L3.09785 1.61195C2.46332 1.25138 1.88142 1.19121 1.43536 1.38235L13.4814 13.4284L17.2536 9.65566Z" fill="#303141"/>
</svg>
