<svg width="81" height="20" viewBox="0 0 81 20" fill="none" xmlns="http://www.w3.org/2000/svg">
<path d="M57.8657 8.60085V10.4279H56.7205V11.6261H57.8657V15.6972C57.8657 17.0874 58.4946 17.6434 60.0767 17.6434C60.3548 17.6434 60.6195 17.6103 60.8512 17.5706V16.3857C60.6526 16.4056 60.5269 16.4188 60.3084 16.4188C59.6001 16.4188 59.289 16.0878 59.289 15.3332V11.6261H60.8512V10.4279H59.289V8.60085H57.8657Z" fill="#D3DEFC"/>
<path d="M64.8816 17.7427C66.9867 17.7427 68.2776 16.3327 68.2776 13.996C68.2776 11.6724 66.9801 10.2558 64.8816 10.2558C62.7765 10.2558 61.4791 11.6724 61.4791 13.996C61.4791 16.3327 62.7699 17.7427 64.8816 17.7427ZM64.8816 16.4784C63.6437 16.4784 62.9486 15.5715 62.9486 13.996C62.9486 12.4337 63.6437 11.5202 64.8816 11.5202C66.1129 11.5202 66.8146 12.4337 66.8146 13.996C66.8146 15.5648 66.1129 16.4784 64.8816 16.4784Z" fill="#D3DEFC"/>
<path d="M69.382 17.6037H70.8052V13.3472C70.8052 12.3344 71.5665 11.6526 72.6455 11.6526C72.8971 11.6526 73.3208 11.6989 73.4399 11.7386V10.3352C73.2877 10.2955 73.0162 10.2757 72.8044 10.2757C71.8644 10.2757 71.0634 10.792 70.8582 11.5003H70.7523V10.3948H69.382V17.6037Z" fill="#D3DEFC"/>
<path d="M76.9738 11.4672C78.0263 11.4672 78.7148 12.202 78.7479 13.334H75.107C75.1865 12.2086 75.9213 11.4672 76.9738 11.4672ZM78.7413 15.6575C78.4765 16.2202 77.8873 16.5313 77.0268 16.5313C75.8882 16.5313 75.1534 15.7303 75.107 14.466V14.3865H80.1976V13.89C80.1976 11.6261 78.9862 10.2558 76.9804 10.2558C74.9482 10.2558 73.6573 11.7188 73.6573 14.0224C73.6573 16.3261 74.9217 17.7427 76.987 17.7427C78.6354 17.7427 79.7872 16.9484 80.1116 15.6575H78.7413Z" fill="#D3DEFC"/>
<path d="M48.5323 14.9416C48.6421 16.7118 50.1172 17.8439 52.3128 17.8439C54.6593 17.8439 56.1276 16.6569 56.1276 14.7632C56.1276 13.2743 55.2905 12.451 53.2596 11.9776L52.1687 11.71C50.8788 11.4081 50.3574 11.0033 50.3574 10.2966C50.3574 9.40461 51.167 8.82141 52.3814 8.82141C53.5341 8.82141 54.33 9.39088 54.4741 10.3034H55.9698C55.8806 8.63615 54.4123 7.46289 52.402 7.46289C50.2407 7.46289 48.7999 8.63615 48.7999 10.3995C48.7999 11.8541 49.6163 12.7186 51.4071 13.1371L52.6833 13.4458C53.9938 13.7546 54.5701 14.2074 54.5701 14.9622C54.5701 15.8404 53.6644 16.4785 52.4294 16.4785C51.1052 16.4785 50.1858 15.8816 50.0555 14.9416H48.5323Z" fill="#D3DEFC"/>
<path d="M33.7889 10.2757C32.8091 10.2757 31.9618 10.7655 31.5249 11.5864H31.419V10.3948H30.0487V20.0001H31.472V16.5115H31.5845C31.9618 17.2727 32.776 17.7229 33.8021 17.7229C35.6225 17.7229 36.781 16.2864 36.781 13.996C36.781 11.7055 35.6225 10.2757 33.7889 10.2757ZM33.3851 16.4453C32.1935 16.4453 31.4455 15.5053 31.4455 14.0026C31.4455 12.4933 32.1935 11.5533 33.3917 11.5533C34.5965 11.5533 35.318 12.4734 35.318 13.996C35.318 15.5251 34.5965 16.4453 33.3851 16.4453Z" fill="#D3DEFC"/>
<path d="M41.7612 10.2757C40.7815 10.2757 39.9341 10.7655 39.4972 11.5864H39.3913V10.3948H38.021V20.0001H39.4443V16.5115H39.5568C39.9341 17.2727 40.7484 17.7229 41.7744 17.7229C43.5949 17.7229 44.7533 16.2864 44.7533 13.996C44.7533 11.7055 43.5949 10.2757 41.7612 10.2757ZM41.3574 16.4453C40.1658 16.4453 39.4178 15.5053 39.4178 14.0026C39.4178 12.4933 40.1658 11.5533 41.364 11.5533C42.5688 11.5533 43.2903 12.4734 43.2903 13.996C43.2903 15.5251 42.5688 16.4453 41.3574 16.4453Z" fill="#D3DEFC"/>
<path d="M27.4952 17.6037H29.1281L25.5534 7.70303H23.8999L20.3252 17.6037H21.9033L22.8158 14.9759H26.5895L27.4952 17.6037ZM24.6478 9.50066H24.7644L26.1984 13.686H23.2069L24.6478 9.50066Z" fill="#D3DEFC"/>
<path d="M21.28 0.235002V5.01116H23.0045C24.4277 5.01116 25.2519 4.13404 25.2519 2.60819C25.2519 1.1055 24.4211 0.235002 23.0045 0.235002H21.28ZM22.0214 0.910217H22.9217C23.9114 0.910217 24.4972 1.53909 24.4972 2.61812C24.4972 3.71369 23.9213 4.33594 22.9217 4.33594H22.0214V0.910217Z" fill="#D3DEFC"/>
<path d="M27.776 5.08067C28.8285 5.08067 29.474 4.37566 29.474 3.20727C29.474 2.04551 28.8252 1.33719 27.776 1.33719C26.7234 1.33719 26.0747 2.04551 26.0747 3.20727C26.0747 4.37566 26.7201 5.08067 27.776 5.08067ZM27.776 4.44848C27.157 4.44848 26.8095 3.99503 26.8095 3.20727C26.8095 2.42614 27.157 1.96938 27.776 1.96938C28.3916 1.96938 28.7425 2.42614 28.7425 3.20727C28.7425 3.99172 28.3916 4.44848 27.776 4.44848Z" fill="#D3DEFC"/>
<path d="M34.9703 1.4067H34.2587L33.6166 4.15721H33.5603L32.8189 1.4067H32.1371L31.3957 4.15721H31.3427L30.6973 1.4067H29.9757L30.9687 5.01116H31.7002L32.4416 2.35664H32.4979L33.2426 5.01116H33.9807L34.9703 1.4067Z" fill="#D3DEFC"/>
<path d="M35.7899 5.01116H36.5015V2.90277C36.5015 2.34009 36.8358 1.98924 37.3621 1.98924C37.8883 1.98924 38.1399 2.2772 38.1399 2.85643V5.01116H38.8515V2.67769C38.8515 1.82043 38.408 1.33719 37.6037 1.33719C37.0609 1.33719 36.7034 1.57881 36.528 1.97931H36.475V1.4067H35.7899V5.01116Z" fill="#D3DEFC"/>
<path d="M39.9722 5.01116H40.6839V0H39.9722V5.01116Z" fill="#D3DEFC"/>
<path d="M43.3602 5.08067C44.4128 5.08067 45.0582 4.37566 45.0582 3.20727C45.0582 2.04551 44.4095 1.33719 43.3602 1.33719C42.3077 1.33719 41.659 2.04551 41.659 3.20727C41.659 4.37566 42.3044 5.08067 43.3602 5.08067ZM43.3602 4.44848C42.7413 4.44848 42.3937 3.99503 42.3937 3.20727C42.3937 2.42614 42.7413 1.96938 43.3602 1.96938C43.9759 1.96938 44.3267 2.42614 44.3267 3.20727C44.3267 3.99172 43.9759 4.44848 43.3602 4.44848Z" fill="#D3DEFC"/>
<path d="M47.1785 4.47165C46.7913 4.47165 46.5099 4.28299 46.5099 3.95862C46.5099 3.64087 46.735 3.47207 47.2315 3.43897L48.1119 3.3827V3.6839C48.1119 4.13073 47.7147 4.47165 47.1785 4.47165ZM46.9965 5.07074C47.4698 5.07074 47.8637 4.86553 48.0788 4.50475H48.1351V5.01116H48.8202V2.54861C48.8202 1.78734 48.3105 1.33719 47.4069 1.33719C46.5893 1.33719 46.0068 1.73438 45.934 2.35333H46.6224C46.7019 2.09846 46.9766 1.95283 47.3738 1.95283C47.8603 1.95283 48.1119 2.16797 48.1119 2.54861V2.85974L47.1355 2.91601C46.2782 2.96896 45.795 3.34298 45.795 3.99172C45.795 4.65038 46.3014 5.07074 46.9965 5.07074Z" fill="#D3DEFC"/>
<path d="M51.2351 5.07074C51.7316 5.07074 52.1519 4.83574 52.3671 4.44186H52.4233V5.01116H53.1052V0H52.3936V1.97931H52.3406C52.1453 1.58212 51.7283 1.34712 51.2351 1.34712C50.3249 1.34712 49.739 2.06868 49.739 3.20727C49.739 4.34918 50.3183 5.07074 51.2351 5.07074ZM51.437 1.98593C52.0328 1.98593 52.4068 2.45924 52.4068 3.21058C52.4068 3.96524 52.0361 4.43193 51.437 4.43193C50.8346 4.43193 50.4738 3.97186 50.4738 3.20727C50.4738 2.44931 50.8379 1.98593 51.437 1.98593Z" fill="#D3DEFC"/>
<path d="M57.7198 5.08067C58.7724 5.08067 59.4178 4.37566 59.4178 3.20727C59.4178 2.04551 58.7691 1.33719 57.7198 1.33719C56.6673 1.33719 56.0185 2.04551 56.0185 3.20727C56.0185 4.37566 56.664 5.08067 57.7198 5.08067ZM57.7198 4.44848C57.1009 4.44848 56.7533 3.99503 56.7533 3.20727C56.7533 2.42614 57.1009 1.96938 57.7198 1.96938C58.3355 1.96938 58.6863 2.42614 58.6863 3.20727C58.6863 3.99172 58.3355 4.44848 57.7198 4.44848Z" fill="#D3DEFC"/>
<path d="M60.3598 5.01116H61.0714V2.90277C61.0714 2.34009 61.4057 1.98924 61.932 1.98924C62.4582 1.98924 62.7098 2.2772 62.7098 2.85643V5.01116H63.4214V2.67769C63.4214 1.82043 62.9779 1.33719 62.1736 1.33719C61.6308 1.33719 61.2733 1.57881 61.0979 1.97931H61.0449V1.4067H60.3598V5.01116Z" fill="#D3DEFC"/>
<path d="M66.6989 0.509722V1.42325H66.1263V2.02234H66.6989V4.05791C66.6989 4.75299 67.0133 5.03102 67.8044 5.03102C67.9434 5.03102 68.0758 5.01447 68.1916 4.99461V4.40214C68.0923 4.41207 68.0294 4.41869 67.9202 4.41869C67.5661 4.41869 67.4105 4.2532 67.4105 3.87587V2.02234H68.1916V1.42325H67.4105V0.509722H66.6989Z" fill="#D3DEFC"/>
<path d="M69.1469 5.01116H69.8585V2.90608C69.8585 2.35995 70.1828 1.99255 70.7654 1.99255C71.2685 1.99255 71.5366 2.28382 71.5366 2.85974V5.01116H72.2482V2.68431C72.2482 1.82705 71.7749 1.3405 71.007 1.3405C70.4642 1.3405 70.0835 1.58212 69.9081 1.98593H69.8519V0H69.1469V5.01116Z" fill="#D3DEFC"/>
<path d="M74.8154 1.9429C75.3416 1.9429 75.6859 2.3103 75.7024 2.87629H73.882C73.9217 2.31361 74.2891 1.9429 74.8154 1.9429ZM75.6991 4.03805C75.5667 4.3194 75.2721 4.47496 74.8418 4.47496C74.2725 4.47496 73.9051 4.07446 73.882 3.44228V3.40256H76.4273V3.15432C76.4273 2.02234 75.8216 1.33719 74.8187 1.33719C73.8025 1.33719 73.1571 2.06868 73.1571 3.22051C73.1571 4.37235 73.7893 5.08067 74.822 5.08067C75.6461 5.08067 76.2221 4.68348 76.3842 4.03805H75.6991Z" fill="#D3DEFC"/>
<path d="M12.603 9.47835C12.6203 8.13777 13.3402 6.86929 14.4824 6.16713C13.7618 5.13812 12.555 4.4857 11.2995 4.44641C9.96028 4.30585 8.66202 5.24775 7.9796 5.24775C7.28398 5.24775 6.23329 4.46037 5.10187 4.48365C3.62711 4.53129 2.25227 5.36976 1.53477 6.65909C-0.00756508 9.32941 1.14288 13.2539 2.62031 15.4124C3.3595 16.4693 4.2234 17.65 5.3538 17.6081C6.45996 17.5622 6.87309 16.9027 8.20833 16.9027C9.53117 16.9027 9.91877 17.6081 11.0721 17.5815C12.2591 17.5622 13.0069 16.5198 13.7202 15.4529C14.2513 14.6997 14.66 13.8674 14.9311 12.9866C13.5362 12.3967 12.6047 10.9929 12.603 9.47835Z" fill="#D3DEFC"/>
<path d="M10.4246 3.02689C11.0717 2.24997 11.3906 1.25137 11.3134 0.243164C10.3246 0.347013 9.4113 0.819571 8.75537 1.56668C8.11397 2.29665 7.78018 3.27767 7.84328 4.24734C8.83239 4.25753 9.80476 3.79778 10.4246 3.02689Z" fill="#D3DEFC"/>
</svg>
