<svg width="100" height="26" viewBox="0 0 100 26" fill="none" xmlns="http://www.w3.org/2000/svg">
<path d="M71.554 10.7848V13.0759H70.118V14.5783H71.554V19.6833C71.554 21.4264 72.3426 22.1237 74.3265 22.1237C74.6751 22.1237 75.0071 22.0822 75.2977 22.0324V20.5466C75.0486 20.5715 74.8909 20.5881 74.617 20.5881C73.7288 20.5881 73.3387 20.173 73.3387 19.2267V14.5783H75.2977V13.0759H73.3387V10.7848H71.554Z" fill="#303141"/>
<path d="M80.3515 22.2482C82.9912 22.2482 84.6098 20.4802 84.6098 17.55C84.6098 14.6364 82.9829 12.86 80.3515 12.86C77.7119 12.86 76.0849 14.6364 76.0849 17.55C76.0849 20.4802 77.7036 22.2482 80.3515 22.2482ZM80.3515 20.6628C78.7993 20.6628 77.9277 19.5256 77.9277 17.55C77.9277 15.591 78.7993 14.4455 80.3515 14.4455C81.8955 14.4455 82.7753 15.591 82.7753 17.55C82.7753 19.5173 81.8955 20.6628 80.3515 20.6628Z" fill="#303141"/>
<path d="M85.9947 22.0739H87.7794V16.7365C87.7794 15.4665 88.734 14.6115 90.087 14.6115C90.4024 14.6115 90.9337 14.6696 91.0831 14.7194V12.9596C90.8922 12.9098 90.5518 12.8849 90.2862 12.8849C89.1075 12.8849 88.1031 13.5324 87.8458 14.4206H87.713V13.0344H85.9947V22.0739Z" fill="#303141"/>
<path d="M95.5144 14.3791C96.8342 14.3791 97.6975 15.3005 97.739 16.7199H93.1736C93.2732 15.3088 94.1945 14.3791 95.5144 14.3791ZM97.7307 19.6335C97.3987 20.339 96.6599 20.7292 95.5808 20.7292C94.153 20.7292 93.2317 19.7248 93.1736 18.1393V18.0397H99.5569V17.4172C99.5569 14.5783 98.0378 12.86 95.5227 12.86C92.9743 12.86 91.3557 14.6945 91.3557 17.5832C91.3557 20.4719 92.9411 22.2482 95.531 22.2482C97.5979 22.2482 99.0422 21.2521 99.4489 19.6335H97.7307Z" fill="#303141"/>
<path d="M59.8504 18.7357C59.9881 20.9555 61.8378 22.375 64.591 22.375C67.5334 22.375 69.3745 20.8866 69.3745 18.5121C69.3745 16.6451 68.3249 15.6127 65.7782 15.019L64.4103 14.6835C62.7928 14.3049 62.139 13.7973 62.139 12.9112C62.139 11.7927 63.1542 11.0614 64.677 11.0614C66.1224 11.0614 67.1204 11.7755 67.3011 12.9198H69.1766C69.0648 10.8291 67.2236 9.35791 64.7028 9.35791C61.9927 9.35791 60.186 10.8291 60.186 13.0402C60.186 14.8642 61.2098 15.9482 63.4553 16.473L65.0555 16.8602C66.6988 17.2473 67.4215 17.8152 67.4215 18.7616C67.4215 19.8628 66.2859 20.6629 64.7372 20.6629C63.0767 20.6629 61.9239 19.9144 61.7604 18.7357H59.8504Z" fill="#303141"/>
<path d="M41.3631 12.8849C40.1346 12.8849 39.0721 13.4992 38.5242 14.5285H38.3914V13.0344H36.6731V25.0788H38.4578V20.7043H38.5989C39.0721 21.6589 40.0931 22.2233 41.3797 22.2233C43.6624 22.2233 45.115 20.4221 45.115 17.55C45.115 14.6779 43.6624 12.8849 41.3631 12.8849ZM40.8567 20.6213C39.3626 20.6213 38.4246 19.4426 38.4246 17.5583C38.4246 15.6657 39.3626 14.487 40.865 14.487C42.3758 14.487 43.2806 15.6408 43.2806 17.55C43.2806 19.4675 42.3758 20.6213 40.8567 20.6213Z" fill="#303141"/>
<path d="M51.3599 12.8849C50.1314 12.8849 49.0689 13.4992 48.521 14.5285H48.3882V13.0344H46.6699V25.0788H48.4546V20.7043H48.5957C49.0689 21.6589 50.0899 22.2233 51.3765 22.2233C53.6592 22.2233 55.1118 20.4221 55.1118 17.55C55.1118 14.6779 53.6592 12.8849 51.3599 12.8849ZM50.8535 20.6213C49.3594 20.6213 48.4214 19.4426 48.4214 17.5583C48.4214 15.6657 49.3594 14.487 50.8618 14.487C52.3726 14.487 53.2774 15.6408 53.2774 17.55C53.2774 19.4675 52.3726 20.6213 50.8535 20.6213Z" fill="#303141"/>
<path d="M33.4711 22.0739H35.5188L31.0363 9.65903H28.9629L24.4805 22.0739H26.4593L27.6035 18.7788H32.3355L33.4711 22.0739ZM29.9007 11.9132H30.0469L31.8451 17.1613H28.0939L29.9007 11.9132Z" fill="#303141"/>
<path d="M25.6777 0.294678V6.28369H27.8401C29.6248 6.28369 30.6582 5.18384 30.6582 3.27051C30.6582 1.38623 29.6165 0.294678 27.8401 0.294678H25.6777ZM26.6074 1.14136H27.7363C28.9773 1.14136 29.7119 1.92993 29.7119 3.28296C29.7119 4.65674 28.9897 5.43701 27.7363 5.43701H26.6074V1.14136Z" fill="#303141"/>
<path d="M33.8233 6.37085C35.1431 6.37085 35.9524 5.48682 35.9524 4.02173C35.9524 2.56494 35.139 1.67676 33.8233 1.67676C32.5035 1.67676 31.69 2.56494 31.69 4.02173C31.69 5.48682 32.4993 6.37085 33.8233 6.37085ZM33.8233 5.57812C33.0472 5.57812 32.6114 5.00952 32.6114 4.02173C32.6114 3.04224 33.0472 2.46948 33.8233 2.46948C34.5953 2.46948 35.0352 3.04224 35.0352 4.02173C35.0352 5.00537 34.5953 5.57812 33.8233 5.57812Z" fill="#303141"/>
<path d="M42.8446 1.76392H41.9522L41.1471 5.21289H41.0765L40.1468 1.76392H39.2918L38.3622 5.21289H38.2958L37.4864 1.76392H36.5816L37.8268 6.28369H38.744L39.6737 2.95508H39.7442L40.6781 6.28369H41.6036L42.8446 1.76392Z" fill="#303141"/>
<path d="M43.8722 6.28369H44.7645V3.63989C44.7645 2.93433 45.1837 2.49438 45.8437 2.49438C46.5036 2.49438 46.819 2.85547 46.819 3.58179V6.28369H47.7113V3.35767C47.7113 2.28271 47.1552 1.67676 46.1466 1.67676C45.466 1.67676 45.0177 1.97974 44.7978 2.48193H44.7313V1.76392H43.8722V6.28369Z" fill="#303141"/>
<path d="M49.1166 6.28369H50.009V0H49.1166V6.28369Z" fill="#303141"/>
<path d="M53.365 6.37085C54.6848 6.37085 55.4941 5.48682 55.4941 4.02173C55.4941 2.56494 54.6807 1.67676 53.365 1.67676C52.0452 1.67676 51.2317 2.56494 51.2317 4.02173C51.2317 5.48682 52.041 6.37085 53.365 6.37085ZM53.365 5.57812C52.5889 5.57812 52.1531 5.00952 52.1531 4.02173C52.1531 3.04224 52.5889 2.46948 53.365 2.46948C54.137 2.46948 54.5769 3.04224 54.5769 4.02173C54.5769 5.00537 54.137 5.57812 53.365 5.57812Z" fill="#303141"/>
<path d="M58.1529 5.60718C57.6673 5.60718 57.3145 5.37061 57.3145 4.96387C57.3145 4.56543 57.5967 4.35376 58.2193 4.31226L59.3233 4.2417V4.61938C59.3233 5.17969 58.8252 5.60718 58.1529 5.60718ZM57.9246 6.3584C58.5181 6.3584 59.012 6.10107 59.2818 5.64868H59.3523V6.28369H60.2115V3.1958C60.2115 2.24121 59.5723 1.67676 58.4393 1.67676C57.4141 1.67676 56.6836 2.1748 56.5923 2.95093H57.4556C57.5552 2.63135 57.8997 2.44873 58.3978 2.44873C59.0079 2.44873 59.3233 2.71851 59.3233 3.1958V3.58594L58.0989 3.65649C57.024 3.7229 56.418 4.19189 56.418 5.00537C56.418 5.8313 57.053 6.3584 57.9246 6.3584Z" fill="#303141"/>
<path d="M63.2396 6.3584C63.8622 6.3584 64.3893 6.06372 64.659 5.56982H64.7296V6.28369H65.5846V0H64.6922V2.48193H64.6258C64.381 1.98389 63.858 1.68921 63.2396 1.68921C62.0982 1.68921 61.3636 2.59399 61.3636 4.02173C61.3636 5.45361 62.0899 6.3584 63.2396 6.3584ZM63.4928 2.49023C64.2398 2.49023 64.7088 3.08374 64.7088 4.02588C64.7088 4.97217 64.244 5.55737 63.4928 5.55737C62.7374 5.55737 62.285 4.98047 62.285 4.02173C62.285 3.07129 62.7416 2.49023 63.4928 2.49023Z" fill="#303141"/>
<path d="M71.371 6.37085C72.6909 6.37085 73.5002 5.48682 73.5002 4.02173C73.5002 2.56494 72.6867 1.67676 71.371 1.67676C70.0512 1.67676 69.2377 2.56494 69.2377 4.02173C69.2377 5.48682 70.0471 6.37085 71.371 6.37085ZM71.371 5.57812C70.5949 5.57812 70.1591 5.00952 70.1591 4.02173C70.1591 3.04224 70.5949 2.46948 71.371 2.46948C72.143 2.46948 72.583 3.04224 72.583 4.02173C72.583 5.00537 72.143 5.57812 71.371 5.57812Z" fill="#303141"/>
<path d="M74.6814 6.28369H75.5737V3.63989C75.5737 2.93433 75.9929 2.49438 76.6528 2.49438C77.3127 2.49438 77.6282 2.85547 77.6282 3.58179V6.28369H78.5205V3.35767C78.5205 2.28271 77.9644 1.67676 76.9558 1.67676C76.2751 1.67676 75.8269 1.97974 75.6069 2.48193H75.5405V1.76392H74.6814V6.28369Z" fill="#303141"/>
<path d="M82.6302 0.63916V1.78467H81.9122V2.53589H82.6302V5.08838C82.6302 5.95996 83.0245 6.30859 84.0165 6.30859C84.1908 6.30859 84.3568 6.28784 84.502 6.26294V5.52002C84.3775 5.53247 84.2987 5.54077 84.1617 5.54077C83.7176 5.54077 83.5226 5.33325 83.5226 4.86011V2.53589H84.502V1.78467H83.5226V0.63916H82.6302Z" fill="#303141"/>
<path d="M85.6999 6.28369H86.5922V3.64404C86.5922 2.95923 86.9989 2.49854 87.7294 2.49854C88.3603 2.49854 88.6964 2.86377 88.6964 3.58594V6.28369H89.5888V3.36597C89.5888 2.29102 88.9953 1.68091 88.0324 1.68091C87.3517 1.68091 86.8744 1.98389 86.6544 2.49023H86.5839V0H85.6999V6.28369Z" fill="#303141"/>
<path d="M92.8078 2.43628C93.4677 2.43628 93.8994 2.89697 93.9201 3.60669H91.6374C91.6872 2.90112 92.1479 2.43628 92.8078 2.43628ZM93.916 5.06348C93.7499 5.41626 93.3806 5.61133 92.841 5.61133C92.1271 5.61133 91.6665 5.10913 91.6374 4.31641V4.2666H94.829V3.95532C94.829 2.53589 94.0695 1.67676 92.812 1.67676C91.5378 1.67676 90.7285 2.59399 90.7285 4.03833C90.7285 5.48267 91.5212 6.37085 92.8161 6.37085C93.8496 6.37085 94.5717 5.8728 94.7751 5.06348H93.916Z" fill="#303141"/>
<path d="M14.7973 11.885C14.819 10.204 15.7217 8.61345 17.1539 7.73299C16.2504 6.44267 14.7371 5.62457 13.1627 5.57531C11.4835 5.39905 9.85552 6.58014 8.99981 6.58014C8.12754 6.58014 6.81004 5.59281 5.39131 5.622C3.54206 5.68174 1.81809 6.73313 0.918393 8.34986C-1.01561 11.6983 0.426982 16.6193 2.27959 19.3259C3.20649 20.6513 4.28977 22.1317 5.70722 22.0792C7.09428 22.0217 7.61232 21.1948 9.28662 21.1948C10.9454 21.1948 11.4314 22.0792 12.8776 22.0459C14.366 22.0217 15.3038 20.7146 16.1981 19.3767C16.8641 18.4324 17.3766 17.3886 17.7166 16.2842C15.9674 15.5444 14.7994 13.7842 14.7973 11.885Z" fill="#303141"/>
<path d="M12.0656 3.79531C12.8772 2.8211 13.277 1.56892 13.1802 0.304688C11.9403 0.434908 10.7951 1.02747 9.97259 1.9643C9.1683 2.87963 8.74975 4.10978 8.82888 5.32569C10.0692 5.33846 11.2885 4.76196 12.0656 3.79531Z" fill="#303141"/>
</svg>
