<svg width="20" height="20" viewBox="0 0 20 20" fill="none" xmlns="http://www.w3.org/2000/svg">
<path fill-rule="evenodd" clip-rule="evenodd" d="M10 19.5999C15.302 19.5999 19.6 15.3018 19.6 9.9999C19.6 4.69797 15.302 0.399902 10 0.399902C4.69809 0.399902 0.400024 4.69797 0.400024 9.9999C0.400024 15.3018 4.69809 19.5999 10 19.5999ZM14.4486 9.15137L10.8486 5.55137C10.3799 5.08275 9.62013 5.08275 9.1515 5.55137L5.5515 9.15137C5.08287 9.62 5.08287 10.3798 5.5515 10.8484C6.02013 11.3171 6.77992 11.3171 7.24855 10.8484L8.80002 9.29696L8.80002 13.5999C8.80002 14.2626 9.33728 14.7999 10 14.7999C10.6628 14.7999 11.2 14.2626 11.2 13.5999V9.29696L12.7515 10.8484C13.2201 11.3171 13.9799 11.3171 14.4486 10.8484C14.9172 10.3798 14.9172 9.62 14.4486 9.15137Z" fill="#4D38AB"/>
</svg>
