<svg width="40" height="40" viewBox="0 0 40 40" fill="none" xmlns="http://www.w3.org/2000/svg">
<path fill-rule="evenodd" clip-rule="evenodd" d="M20.0154 4.72738C25.3206 1.99698 32.3483 4.80045 35.8393 11.0985C39.0219 16.84 38.1839 23.535 34.1267 26.9859L37.7839 33.5835C38.2765 34.4723 37.9554 35.5923 37.0666 36.0849C36.1778 36.5776 35.0578 36.2565 34.5651 35.3677L30.908 28.7701C27.1771 29.9548 22.8815 28.7363 19.6031 25.7279C16.5544 28.3991 12.7348 29.5009 9.39507 28.5447L5.4434 35.3892C4.93172 36.2754 3.79848 36.5791 2.91223 36.0674C2.02598 35.5557 1.72232 34.4225 2.234 33.5362L6.13721 26.7756C2.22629 23.3816 1.54933 16.6609 4.78268 10.9343C8.27579 4.74761 15.0336 2.02235 20.0154 4.72738ZM21.6081 23.5915C24.6349 26.3659 28.5133 26.9408 31.1789 25.4633C34.67 23.5281 36.2781 17.9627 33.2644 12.5258C30.6315 7.77596 26.0461 5.96564 22.6015 6.87429C25.5577 10.4856 25.8253 16.4648 22.9067 21.6341C22.5129 22.3315 22.0776 22.9849 21.6081 23.5915ZM8.00234 12.6985V14.3447H9.61215V12.6985H8.00234ZM9.61215 17.6369V15.9908H11.222V17.6369H9.61215ZM11.222 11.0524V9.4063H12.8318V11.0524H11.222ZM12.8318 22.5753V24.2214H14.4417V22.5753H12.8318ZM9.61215 22.5753V24.2214H11.222V22.5753H9.61215ZM9.61215 20.9291V19.283H11.222V20.9291H9.61215ZM6.39249 19.283V20.9291H8.00234V19.283H6.39249ZM6.39249 17.6369V15.9908H8.00234V17.6369H6.39249Z" fill="url(#paint0_radial_600_65686)"/>
<defs>
<radialGradient id="paint0_radial_600_65686" cx="0" cy="0" r="1" gradientUnits="userSpaceOnUse" gradientTransform="translate(14.7179 9.41533) rotate(54.5349) scale(35.3999 40.385)">
<stop stop-color="#7962D9"/>
<stop offset="0.493968" stop-color="#5D38AB"/>
<stop offset="1" stop-color="#3851AB" stop-opacity="0.73"/>
</radialGradient>
</defs>
</svg>
