<svg width="86" height="21" viewBox="0 0 86 21" fill="none" xmlns="http://www.w3.org/2000/svg">
<path d="M42.748 11.9407C41.0193 11.9407 39.6104 13.2556 39.6104 15.0666C39.6104 16.8666 41.0193 18.1925 42.748 18.1925C44.4774 18.1925 45.8864 16.8666 45.8864 15.0666C45.8856 13.2556 44.4767 11.9407 42.748 11.9407ZM42.748 16.9621C41.8006 16.9621 40.9841 16.1808 40.9841 15.0673C40.9841 13.9421 41.8014 13.1726 42.748 13.1726C43.6954 13.1726 44.512 13.9421 44.512 15.0673C44.512 16.1801 43.6954 16.9621 42.748 16.9621ZM35.9024 11.9407C34.1737 11.9407 32.7648 13.2556 32.7648 15.0666C32.7648 16.8666 34.1737 18.1925 35.9024 18.1925C37.6318 18.1925 39.0408 16.8666 39.0408 15.0666C39.0408 13.2556 37.6318 11.9407 35.9024 11.9407ZM35.9024 16.9621C34.955 16.9621 34.1385 16.1808 34.1385 15.0673C34.1385 13.9421 34.9558 13.1726 35.9024 13.1726C36.8498 13.1726 37.6664 13.9421 37.6664 15.0673C37.6671 16.1801 36.8498 16.9621 35.9024 16.9621ZM27.7603 12.9006V14.2265H30.9339C30.8391 14.9725 30.5907 15.5172 30.2115 15.8957C29.7499 16.3572 29.0274 16.8666 27.7603 16.8666C25.8067 16.8666 24.2794 15.2915 24.2794 13.3379C24.2794 11.3844 25.8067 9.8093 27.7603 9.8093C28.8143 9.8093 29.5838 10.2238 30.1519 10.7567L31.0876 9.82106C30.2938 9.0633 29.2406 8.4834 27.7603 8.4834C25.0842 8.4834 22.8345 10.6619 22.8345 13.3379C22.8345 16.014 25.0842 18.1925 27.7603 18.1925C29.2045 18.1925 30.2945 17.7184 31.1464 16.8306C32.0225 15.9545 32.2951 14.7226 32.2951 13.7282C32.2951 13.421 32.2716 13.1366 32.2238 12.8999H27.7603V12.9006ZM61.0608 13.9303C60.8006 13.2321 60.0068 11.9407 58.3847 11.9407C56.7744 11.9407 55.436 13.2078 55.436 15.0666C55.436 16.8188 56.7626 18.1925 58.5383 18.1925C59.9708 18.1925 60.7998 17.3164 61.1438 16.807L60.0781 16.0963C59.7231 16.6174 59.2373 16.9607 58.5383 16.9607C57.8401 16.9607 57.3425 16.6409 57.0228 16.0133L61.2026 14.2846L61.0608 13.9303ZM56.7979 14.9725C56.7626 13.7642 57.7335 13.149 58.4325 13.149C58.9771 13.149 59.4387 13.4217 59.593 13.812L56.7979 14.9725ZM53.4001 18.0036H54.773V8.81561H53.4001V18.0036ZM51.1496 12.6397H51.1025C50.7946 12.2722 50.2022 11.9407 49.4569 11.9407C47.8936 11.9407 46.4611 13.3144 46.4611 15.0791C46.4611 16.8313 47.8936 18.1932 49.4569 18.1932C50.2029 18.1932 50.7946 17.8617 51.1025 17.4832H51.1496V17.933C51.1496 19.1288 50.5101 19.7683 49.4804 19.7683C48.6396 19.7683 48.1185 19.1649 47.9054 18.6555L46.7095 19.1531C47.0528 19.9814 47.9642 21.0001 49.4804 21.0001C51.0908 21.0001 52.4527 20.0527 52.4527 17.7434V12.1311H51.1503V12.6397H51.1496ZM49.5752 16.9621C48.6278 16.9621 47.8348 16.1683 47.8348 15.0791C47.8348 13.9774 48.6278 13.1726 49.5752 13.1726C50.5101 13.1726 51.2444 13.9774 51.2444 15.0791C51.2444 16.1683 50.5101 16.9621 49.5752 16.9621ZM67.4948 8.81561H64.2087V18.0036H65.5794V14.5227H67.494C69.014 14.5227 70.5089 13.4225 70.5089 11.6695C70.5089 9.91661 69.0147 8.81561 67.4948 8.81561ZM67.53 13.2439H65.5794V10.0945H67.53C68.5553 10.0945 69.1375 10.9434 69.1375 11.6695C69.1375 12.381 68.5553 13.2439 67.53 13.2439ZM76.0058 11.9246C75.0129 11.9246 73.9846 12.3619 73.5591 13.3313L74.7762 13.8392C75.0364 13.3313 75.5215 13.1652 76.0294 13.1652C76.7386 13.1652 77.4596 13.5908 77.4714 14.3471V14.4419C77.223 14.3 76.6908 14.0876 76.0411 14.0876C74.7292 14.0876 73.393 14.8086 73.393 16.1558C73.393 17.3855 74.469 18.177 75.6744 18.177C76.596 18.177 77.1046 17.7633 77.4236 17.2782H77.4706V17.9874H78.7951V14.4647C78.7958 12.8345 77.5772 11.9246 76.0058 11.9246ZM75.8397 16.9599C75.3914 16.9599 74.7645 16.735 74.7645 16.1794C74.7645 15.4701 75.545 15.1982 76.219 15.1982C76.8209 15.1982 77.1054 15.3283 77.4714 15.5054C77.3648 16.3572 76.632 16.9599 75.8397 16.9599ZM83.618 12.1252L82.0459 16.1088H81.9989L80.3672 12.1252H78.8899L81.3366 17.6927L79.9416 20.7899H81.3719L85.1431 12.1252H83.618ZM71.2659 18.0036H72.6367V8.81561H71.2659V18.0036Z" fill="#D3DEFC"/>
<path d="M27.5211 3.48273C27.5211 4.09864 27.3389 4.58887 26.9736 4.95489C26.559 5.39 26.0181 5.60755 25.3537 5.60755C24.7172 5.60755 24.1755 5.38706 23.7308 4.94607C23.2854 4.50435 23.0627 3.95752 23.0627 3.30486C23.0627 2.65146 23.2854 2.10464 23.7308 1.66365C24.1755 1.22193 24.7172 1.00144 25.3537 1.00144C25.6697 1.00144 25.9718 1.06317 26.2584 1.18592C26.5458 1.30939 26.7759 1.47329 26.9478 1.67835L26.5605 2.06642C26.2687 1.71731 25.8667 1.54312 25.3529 1.54312C24.8884 1.54312 24.4871 1.70628 24.1483 2.03261C23.8095 2.35894 23.6404 2.78303 23.6404 3.30413C23.6404 3.82523 23.8095 4.24931 24.1483 4.57564C24.4871 4.90197 24.8884 5.06514 25.3529 5.06514C25.8454 5.06514 26.2562 4.90124 26.5848 4.5727C26.7979 4.35882 26.9214 4.06116 26.9545 3.6797H25.3529V3.14978H27.4895C27.5116 3.26517 27.5211 3.37615 27.5211 3.48273Z" fill="#D3DEFC"/>
<path d="M30.9095 1.64091H28.9015V3.03884H30.7125V3.56876H28.9015V4.96669H30.9095V5.50911H28.3348V1.09923H30.9095V1.64091Z" fill="#D3DEFC"/>
<path d="M33.2988 5.50911H32.7321V1.64091H31.5003V1.09923H34.5306V1.64091H33.2988V5.50911Z" fill="#D3DEFC"/>
<path d="M36.723 5.50911V1.09923H37.2897V5.50911H36.723Z" fill="#D3DEFC"/>
<path d="M39.8027 5.50911H39.236V1.64091H38.0042V1.09923H41.0345V1.64091H39.8027V5.50911Z" fill="#D3DEFC"/>
<path d="M46.7709 4.93949C46.3372 5.38489 45.7985 5.60759 45.1539 5.60759C44.5094 5.60759 43.9706 5.38489 43.5377 4.93949C43.1041 4.49409 42.888 3.94874 42.888 3.30416C42.888 2.65958 43.1041 2.11423 43.5377 1.66883C43.9706 1.22343 44.5094 1 45.1539 1C45.7948 1 46.3328 1.22417 46.768 1.67177C47.2031 2.11937 47.4206 2.66326 47.4206 3.30416C47.4206 3.94874 47.2038 4.49409 46.7709 4.93949ZM43.9559 4.5698C44.2822 4.90054 44.6813 5.06517 45.1539 5.06517C45.6265 5.06517 46.0264 4.8998 46.3519 4.5698C46.6783 4.23906 46.8422 3.81718 46.8422 3.30416C46.8422 2.79115 46.6783 2.36927 46.3519 2.03853C46.0264 1.70779 45.6265 1.54315 45.1539 1.54315C44.6813 1.54315 44.2822 1.70852 43.9559 2.03853C43.6303 2.36927 43.4664 2.79115 43.4664 3.30416C43.4664 3.81718 43.6303 4.23906 43.9559 4.5698Z" fill="#D3DEFC"/>
<path d="M48.2159 5.50911V1.09923H48.9053L51.0485 4.52938H51.0727L51.0485 3.67974V1.09923H51.6152V5.50911H51.0235L48.7811 1.91212H48.7568L48.7811 2.76175V5.50911H48.2159Z" fill="#D3DEFC"/>
<path d="M27.5211 3.48273C27.5211 4.09864 27.3389 4.58887 26.9736 4.95489C26.559 5.39 26.0181 5.60755 25.3537 5.60755C24.7172 5.60755 24.1755 5.38706 23.7308 4.94607C23.2854 4.50435 23.0627 3.95752 23.0627 3.30486C23.0627 2.65146 23.2854 2.10464 23.7308 1.66365C24.1755 1.22193 24.7172 1.00144 25.3537 1.00144C25.6697 1.00144 25.9718 1.06317 26.2584 1.18592C26.5458 1.30939 26.7759 1.47329 26.9478 1.67835L26.5605 2.06642C26.2687 1.71731 25.8667 1.54312 25.3529 1.54312C24.8884 1.54312 24.4871 1.70628 24.1483 2.03261C23.8095 2.35894 23.6404 2.78303 23.6404 3.30413C23.6404 3.82523 23.8095 4.24931 24.1483 4.57564C24.4871 4.90197 24.8884 5.06514 25.3529 5.06514C25.8454 5.06514 26.2562 4.90124 26.5848 4.5727C26.7979 4.35882 26.9214 4.06116 26.9545 3.6797H25.3529V3.14978H27.4895C27.5116 3.26517 27.5211 3.37615 27.5211 3.48273Z" stroke="#D3DEFC" stroke-width="0.2" stroke-miterlimit="10"/>
<path d="M30.9095 1.64091H28.9015V3.03884H30.7125V3.56876H28.9015V4.96669H30.9095V5.50911H28.3348V1.09923H30.9095V1.64091Z" stroke="#D3DEFC" stroke-width="0.2" stroke-miterlimit="10"/>
<path d="M33.2988 5.50911H32.7321V1.64091H31.5003V1.09923H34.5306V1.64091H33.2988V5.50911Z" stroke="#D3DEFC" stroke-width="0.2" stroke-miterlimit="10"/>
<path d="M36.723 5.50911V1.09923H37.2897V5.50911H36.723Z" stroke="#D3DEFC" stroke-width="0.2" stroke-miterlimit="10"/>
<path d="M39.8027 5.50911H39.236V1.64091H38.0042V1.09923H41.0345V1.64091H39.8027V5.50911Z" stroke="#D3DEFC" stroke-width="0.2" stroke-miterlimit="10"/>
<path d="M46.7709 4.93949C46.3372 5.38489 45.7985 5.60759 45.1539 5.60759C44.5094 5.60759 43.9706 5.38489 43.5377 4.93949C43.1041 4.49409 42.888 3.94874 42.888 3.30416C42.888 2.65958 43.1041 2.11423 43.5377 1.66883C43.9706 1.22343 44.5094 1 45.1539 1C45.7948 1 46.3328 1.22417 46.768 1.67177C47.2031 2.11937 47.4206 2.66326 47.4206 3.30416C47.4206 3.94874 47.2038 4.49409 46.7709 4.93949ZM43.9559 4.5698C44.2822 4.90054 44.6813 5.06517 45.1539 5.06517C45.6265 5.06517 46.0264 4.8998 46.3519 4.5698C46.6783 4.23906 46.8422 3.81718 46.8422 3.30416C46.8422 2.79115 46.6783 2.36927 46.3519 2.03853C46.0264 1.70779 45.6265 1.54315 45.1539 1.54315C44.6813 1.54315 44.2822 1.70852 43.9559 2.03853C43.6303 2.36927 43.4664 2.79115 43.4664 3.30416C43.4664 3.81718 43.6303 4.23906 43.9559 4.5698Z" stroke="#D3DEFC" stroke-width="0.2" stroke-miterlimit="10"/>
<path d="M48.2159 5.50911V1.09923H48.9053L51.0485 4.52938H51.0727L51.0485 3.67974V1.09923H51.6152V5.50911H51.0235L48.7811 1.91212H48.7568L48.7811 2.76175V5.50911H48.2159Z" stroke="#D3DEFC" stroke-width="0.2" stroke-miterlimit="10"/>
<path fill-rule="evenodd" clip-rule="evenodd" d="M0.0833173 1.94521C0.029215 2.11365 0 2.30841 0 2.52712V18.7819C0 19.001 0.0292095 19.1957 0.083302 19.3641L8.79211 10.654L0.0833173 1.94521ZM0.785681 20.0759C1.09127 20.1528 1.46501 20.0884 1.86758 19.8602L12.1534 14.0153L9.49922 11.3611L0.785681 20.0759ZM13.0556 13.5033L16.2004 11.7166C17.2272 11.1323 17.2272 10.1775 16.2004 9.59396L13.0538 7.80599L10.2063 10.654L13.0556 13.5033ZM12.1521 7.29357L1.86758 1.44965C1.46513 1.22095 1.09149 1.15668 0.785953 1.23363L9.49917 9.94685L12.1521 7.29357Z" fill="#D3DEFC"/>
</svg>
