<svg width="148" height="75" viewBox="0 0 148 75" fill="none" xmlns="http://www.w3.org/2000/svg">
<g filter="url(#filter0_d_1207_987)">
<path d="M16.576 9.288C17.6 9.528 18.392 10.024 18.952 10.776C19.528 11.512 19.816 12.368 19.816 13.344C19.816 14.832 19.32 15.984 18.328 16.8C17.352 17.6 15.944 18 14.104 18H5.2V1.008H13.864C15.592 1.008 16.952 1.384 17.944 2.136C18.936 2.888 19.432 3.984 19.432 5.424C19.432 6.416 19.168 7.256 18.64 7.944C18.128 8.616 17.44 9.064 16.576 9.288ZM10.528 7.632H12.592C13.072 7.632 13.424 7.536 13.648 7.344C13.888 7.152 14.008 6.856 14.008 6.456C14.008 6.04 13.888 5.736 13.648 5.544C13.424 5.336 13.072 5.232 12.592 5.232H10.528V7.632ZM12.952 13.728C13.432 13.728 13.784 13.64 14.008 13.464C14.248 13.272 14.368 12.968 14.368 12.552C14.368 11.736 13.896 11.328 12.952 11.328H10.528V13.728H12.952ZM29.4063 18.168C27.8063 18.168 26.3343 17.792 24.9903 17.04C23.6623 16.288 22.6063 15.248 21.8223 13.92C21.0383 12.592 20.6463 11.096 20.6463 9.432C20.6463 7.768 21.0383 6.272 21.8223 4.944C22.6063 3.616 23.6623 2.584 24.9903 1.848C26.3343 1.096 27.8063 0.719999 29.4063 0.719999C31.0063 0.719999 32.4703 1.096 33.7983 1.848C35.1263 2.584 36.1743 3.616 36.9423 4.944C37.7263 6.272 38.1183 7.768 38.1183 9.432C38.1183 11.096 37.7263 12.592 36.9423 13.92C36.1743 15.248 35.1183 16.288 33.7743 17.04C32.4463 17.792 30.9903 18.168 29.4063 18.168ZM29.4063 13.2C30.4623 13.2 31.2783 12.864 31.8543 12.192C32.4303 11.504 32.7183 10.584 32.7183 9.432C32.7183 8.264 32.4303 7.344 31.8543 6.672C31.2783 5.984 30.4623 5.64 29.4063 5.64C28.3343 5.64 27.5103 5.984 26.9343 6.672C26.3583 7.344 26.0703 8.264 26.0703 9.432C26.0703 10.584 26.3583 11.504 26.9343 12.192C27.5103 12.864 28.3343 13.2 29.4063 13.2ZM44.7683 1.008V10.584C44.7683 11.368 44.9363 11.992 45.2723 12.456C45.6243 12.904 46.1843 13.128 46.9523 13.128C47.7203 13.128 48.2883 12.904 48.6563 12.456C49.0243 11.992 49.2083 11.368 49.2083 10.584V1.008H54.5123V10.584C54.5123 12.2 54.1763 13.584 53.5043 14.736C52.8323 15.872 51.9123 16.728 50.7443 17.304C49.5763 17.88 48.2723 18.168 46.8323 18.168C45.3923 18.168 44.1123 17.88 42.9923 17.304C41.8883 16.728 41.0243 15.872 40.4003 14.736C39.7763 13.6 39.4643 12.216 39.4643 10.584V1.008H44.7683ZM72.6263 18H67.2983L61.6583 9.456V18H56.3303V1.008H61.6583L67.2983 9.696V1.008H72.6263V18ZM74.0734 9.48C74.0734 7.8 74.4094 6.304 75.0814 4.992C75.7694 3.68 76.7454 2.664 78.0094 1.944C79.2734 1.208 80.7614 0.839999 82.4734 0.839999C83.9454 0.839999 85.2574 1.12 86.4094 1.68C87.5774 2.224 88.5214 3 89.2414 4.008C89.9774 5.016 90.4654 6.192 90.7054 7.536H85.0894C84.8334 6.976 84.4654 6.544 83.9854 6.24C83.5214 5.92 82.9854 5.76 82.3774 5.76C81.4814 5.76 80.7694 6.096 80.2414 6.768C79.7294 7.44 79.4734 8.344 79.4734 9.48C79.4734 10.616 79.7294 11.52 80.2414 12.192C80.7694 12.864 81.4814 13.2 82.3774 13.2C82.9854 13.2 83.5214 13.048 83.9854 12.744C84.4654 12.424 84.8334 11.984 85.0894 11.424H90.7054C90.4654 12.768 89.9774 13.944 89.2414 14.952C88.5214 15.96 87.5774 16.744 86.4094 17.304C85.2574 17.848 83.9454 18.12 82.4734 18.12C80.7614 18.12 79.2734 17.76 78.0094 17.04C76.7454 16.304 75.7694 15.28 75.0814 13.968C74.4094 12.656 74.0734 11.16 74.0734 9.48ZM97.4717 5.256V7.344H102.752V11.352H97.4717V13.752H103.472V18H92.1437V1.008H103.472V5.256H97.4717ZM19.096 30.84C19.096 31.912 18.848 32.888 18.352 33.768C17.856 34.632 17.12 35.32 16.144 35.832C15.184 36.344 14.016 36.6 12.64 36.6H10.528V42H5.2V25.008H12.64C14.72 25.008 16.312 25.536 17.416 26.592C18.536 27.648 19.096 29.064 19.096 30.84ZM12.04 32.4C13.144 32.4 13.696 31.88 13.696 30.84C13.696 29.8 13.144 29.28 12.04 29.28H10.528V32.4H12.04ZM25.6339 25.008V42H20.3059V25.008H25.6339ZM27.0803 33.48C27.0803 31.8 27.4163 30.304 28.0883 28.992C28.7763 27.68 29.7523 26.664 31.0163 25.944C32.2803 25.208 33.7683 24.84 35.4803 24.84C36.9523 24.84 38.2643 25.12 39.4163 25.68C40.5843 26.224 41.5283 27 42.2483 28.008C42.9843 29.016 43.4723 30.192 43.7123 31.536H38.0963C37.8403 30.976 37.4723 30.544 36.9923 30.24C36.5283 29.92 35.9923 29.76 35.3843 29.76C34.4883 29.76 33.7763 30.096 33.2483 30.768C32.7363 31.44 32.4803 32.344 32.4803 33.48C32.4803 34.616 32.7363 35.52 33.2483 36.192C33.7763 36.864 34.4883 37.2 35.3843 37.2C35.9923 37.2 36.5283 37.048 36.9923 36.744C37.4723 36.424 37.8403 35.984 38.0963 35.424H43.7123C43.4723 36.768 42.9843 37.944 42.2483 38.952C41.5283 39.96 40.5843 40.744 39.4163 41.304C38.2643 41.848 36.9523 42.12 35.4803 42.12C33.7683 42.12 32.2803 41.76 31.0163 41.04C29.7523 40.304 28.7763 39.28 28.0883 37.968C27.4163 36.656 27.0803 35.16 27.0803 33.48ZM55.4226 42L50.4786 34.632V42H45.1506V25.008H50.4786V32.16L55.3506 25.008H61.3746L55.5186 33.144L61.7586 42H55.4226ZM68.1158 37.968H73.2518V42H62.7878V25.008H68.1158V37.968ZM79.7764 29.256V31.344H85.0564V35.352H79.7764V37.752H85.7764V42H74.4484V25.008H85.7764V29.256H79.7764ZM98.6804 33.288C99.7044 33.528 100.496 34.024 101.056 34.776C101.632 35.512 101.92 36.368 101.92 37.344C101.92 38.832 101.424 39.984 100.432 40.8C99.4564 41.6 98.0484 42 96.2084 42H87.3044V25.008H95.9684C97.6964 25.008 99.0564 25.384 100.048 26.136C101.04 26.888 101.536 27.984 101.536 29.424C101.536 30.416 101.272 31.256 100.744 31.944C100.232 32.616 99.5444 33.064 98.6804 33.288ZM92.6324 31.632H94.6964C95.1764 31.632 95.5284 31.536 95.7524 31.344C95.9924 31.152 96.1124 30.856 96.1124 30.456C96.1124 30.04 95.9924 29.736 95.7524 29.544C95.5284 29.336 95.1764 29.232 94.6964 29.232H92.6324V31.632ZM95.0564 37.728C95.5364 37.728 95.8884 37.64 96.1124 37.464C96.3524 37.272 96.4724 36.968 96.4724 36.552C96.4724 35.736 96.0004 35.328 95.0564 35.328H92.6324V37.728H95.0564ZM114.127 39.432H108.463L107.623 42H102.031L108.247 25.008H114.391L120.583 42H114.967L114.127 39.432ZM112.831 35.424L111.295 30.696L109.759 35.424H112.831ZM126.641 37.968H131.777V42H121.313V25.008H126.641V37.968ZM138.302 37.968H143.438V42H132.974V25.008H138.302V37.968ZM18.544 49.008V53.232H14.032V66H8.704V53.232H4.24V49.008H18.544ZM27.7891 66.168C26.1891 66.168 24.7171 65.792 23.3731 65.04C22.0451 64.288 20.9891 63.248 20.2051 61.92C19.4211 60.592 19.0291 59.096 19.0291 57.432C19.0291 55.768 19.4211 54.272 20.2051 52.944C20.9891 51.616 22.0451 50.584 23.3731 49.848C24.7171 49.096 26.1891 48.72 27.7891 48.72C29.3891 48.72 30.8531 49.096 32.1811 49.848C33.5091 50.584 34.5571 51.616 35.3251 52.944C36.1091 54.272 36.5011 55.768 36.5011 57.432C36.5011 59.096 36.1091 60.592 35.3251 61.92C34.5571 63.248 33.5011 64.288 32.1571 65.04C30.8291 65.792 29.3731 66.168 27.7891 66.168ZM27.7891 61.2C28.8451 61.2 29.6611 60.864 30.2371 60.192C30.8131 59.504 31.1011 58.584 31.1011 57.432C31.1011 56.264 30.8131 55.344 30.2371 54.672C29.6611 53.984 28.8451 53.64 27.7891 53.64C26.7171 53.64 25.8931 53.984 25.3171 54.672C24.7411 55.344 24.4531 56.264 24.4531 57.432C24.4531 58.584 24.7411 59.504 25.3171 60.192C25.8931 60.864 26.7171 61.2 27.7891 61.2ZM43.1511 49.008V58.584C43.1511 59.368 43.3191 59.992 43.6551 60.456C44.0071 60.904 44.5671 61.128 45.3351 61.128C46.1031 61.128 46.6711 60.904 47.0391 60.456C47.4071 59.992 47.5911 59.368 47.5911 58.584V49.008H52.8951V58.584C52.8951 60.2 52.5591 61.584 51.8871 62.736C51.2151 63.872 50.2951 64.728 49.1271 65.304C47.9591 65.88 46.6551 66.168 45.2151 66.168C43.7751 66.168 42.4951 65.88 41.3751 65.304C40.2711 64.728 39.4071 63.872 38.7831 62.736C38.1591 61.6 37.8471 60.216 37.8471 58.584V49.008H43.1511ZM63.2571 66L60.0651 59.904H60.0411V66H54.7131V49.008H62.6331C64.0091 49.008 65.1851 49.256 66.1611 49.752C67.1371 50.232 67.8651 50.896 68.3451 51.744C68.8411 52.576 69.0891 53.52 69.0891 54.576C69.0891 55.712 68.7691 56.72 68.1291 57.6C67.5051 58.48 66.6011 59.112 65.4171 59.496L69.1131 66H63.2571ZM60.0411 56.352H62.1531C62.6651 56.352 63.0491 56.24 63.3051 56.016C63.5611 55.776 63.6891 55.408 63.6891 54.912C63.6891 54.464 63.5531 54.112 63.2811 53.856C63.0251 53.6 62.6491 53.472 62.1531 53.472H60.0411V56.352Z" fill="white"/>
</g>
<defs>
<filter id="filter0_d_1207_987" x="0.240234" y="0.720703" width="147.197" height="73.4473" filterUnits="userSpaceOnUse" color-interpolation-filters="sRGB">
<feFlood flood-opacity="0" result="BackgroundImageFix"/>
<feColorMatrix in="SourceAlpha" type="matrix" values="0 0 0 0 0 0 0 0 0 0 0 0 0 0 0 0 0 0 127 0" result="hardAlpha"/>
<feOffset dy="4"/>
<feGaussianBlur stdDeviation="2"/>
<feComposite in2="hardAlpha" operator="out"/>
<feColorMatrix type="matrix" values="0 0 0 0 0 0 0 0 0 0 0 0 0 0 0 0 0 0 0.25 0"/>
<feBlend mode="normal" in2="BackgroundImageFix" result="effect1_dropShadow_1207_987"/>
<feBlend mode="normal" in="SourceGraphic" in2="effect1_dropShadow_1207_987" result="shape"/>
</filter>
</defs>
</svg>
