<svg width="608" height="254" viewBox="0 0 608 254" fill="none" xmlns="http://www.w3.org/2000/svg">
<g clip-path="url(#clip0_4187_311503)">
<g filter="url(#filter0_f_4187_311503)">
<ellipse cx="281.747" cy="-118.682" rx="238.898" ry="243.561" transform="rotate(-5.7628 281.747 -118.682)" fill="url(#paint0_linear_4187_311503)"/>
</g>
<g filter="url(#filter1_f_4187_311503)">
<path d="M-161 154.28C-112.781 205.013 96.5261 131.231 208.434 107.34C244.352 157.096 270.332 182.549 217 237L-60.5482 245.344L-161 154.28Z" fill="url(#paint1_linear_4187_311503)" fill-opacity="0.4"/>
</g>
<g filter="url(#filter2_f_4187_311503)">
<path d="M625.2 73.543C583.609 124.276 490.746 129.353 394.22 105.462C381.077 148.647 399.418 164.137 445.42 218.588L625.2 235.017V73.543Z" fill="url(#paint2_linear_4187_311503)" fill-opacity="0.3"/>
</g>
<path d="M213.27 110.165C207.291 109.608 204.144 115.077 205.448 119.699C207.926 128.485 216.218 125.902 216.218 125.902L215.888 114.87L213.27 110.165Z" fill="url(#paint3_linear_4187_311503)"/>
<path d="M213.167 110.166C217.836 110.466 228.585 115.597 223.362 122.52C223.609 123.719 225.462 126.121 227.529 124.075C231.384 120.235 233.376 116.535 236.28 111.829C237.767 109.418 240.369 103.915 240.369 103.915L247.22 63.231C253.12 66.9972 247.828 74.3324 248.033 79.4171C248.439 89.4822 248.333 100.255 247.22 105.839C245.647 113.735 240.509 131.463 240.509 131.463C240.509 131.463 243.759 144.552 246.901 151.799C251.107 161.503 265.015 197.823 251.338 212.389C245.834 218.251 225.508 235.924 222.41 239.892C221.129 241.532 228.88 250.365 226.277 253.972L214.561 242.048L240.639 204.48C240.639 204.48 240.862 185.638 236.115 175.053C231.804 165.44 219.614 154.908 219.614 154.908C219.614 154.908 204.835 163.301 201.219 163.301C197.604 163.301 193.502 156.004 189.758 149.342C187.441 145.219 185.26 141.34 183.416 139.583C183.678 137.788 184.4 135.643 185.185 135.377C185.94 135.122 185.477 134.76 184.746 134.191C183.79 133.446 182.378 132.344 182.633 130.657C182.633 130.657 186.429 132.452 187.672 133.25C188.277 133.659 188.399 134.963 188.534 136.404C188.661 137.77 188.801 139.26 189.374 140.231C192.589 144.15 203.183 153.926 203.183 153.926C208.693 147.11 212.908 140.328 217.282 132.741C218.242 131.077 216.189 125.919 216.189 125.919C216.189 125.919 210.609 113.872 213.167 110.166Z" fill="#92A3F5"/>
<path d="M252.265 161.373C264.962 172.144 278.689 189.895 279.736 196.344C278.486 205.294 262.154 221.527 257.114 228.642C255.267 231.25 263.917 241.737 260.6 244.373C260.6 244.373 250.075 233.606 248.521 232.643L266.877 198.543C266.877 198.543 247.845 183.47 244.442 179.148C240.908 174.76 252.265 161.373 252.265 161.373Z" fill="#92A3F5"/>
<path d="M254.134 159.879C246.944 149.197 244.534 141.651 240.947 131.455L243.25 121.679L236.624 111.251L227.241 124.305C227.241 124.305 228.086 127.724 225.154 130.853C222.804 133.362 217.203 132.856 217.203 132.856C217.203 132.856 209.885 145.229 205.354 151.088C206.336 152.883 212.634 158.703 212.634 158.703L218.886 155.324C218.886 155.324 232.903 169.679 235.416 177.782C237.93 185.885 240.282 195.937 240.282 195.937L257.204 196.2L257.442 191.275L260.191 193.166L270.278 180.349C263.55 170.948 259.589 167.983 254.134 159.879Z" fill="#ED4F2F"/>
<path d="M254.134 159.879C246.944 149.197 244.534 141.651 240.947 131.455L243.25 121.679L236.624 111.251L227.241 124.305C227.241 124.305 228.086 127.724 225.154 130.853C222.804 133.362 217.203 132.856 217.203 132.856C217.203 132.856 209.885 145.229 205.354 151.088C206.336 152.883 212.634 158.703 212.634 158.703L218.886 155.324C218.886 155.324 232.903 169.679 235.416 177.782C237.93 185.885 240.282 195.937 240.282 195.937L257.204 196.2L257.442 191.275L260.191 193.166L270.278 180.349C263.55 170.948 259.589 167.983 254.134 159.879Z" fill="url(#paint4_linear_4187_311503)"/>
<path fill-rule="evenodd" clip-rule="evenodd" d="M198.571 112.437C201.42 110.461 203.984 107.276 205.343 103.144C207.873 95.4509 205.432 87.7374 199.892 85.9158C194.353 84.0941 187.811 88.8543 185.281 96.5476C184.035 100.336 183.995 104.13 184.936 107.222C186.197 112.059 186.67 119.693 185.086 124.298C184.244 126.625 183.34 128.946 182.446 131.243C181.657 133.269 180.876 135.277 180.15 137.255C180.119 137.32 180.114 137.377 180.133 137.424C180.151 137.467 180.19 137.503 180.249 137.531L182.806 138.424C182.931 138.483 183.023 138.45 183.081 138.325C183.905 136.081 184.673 133.805 185.447 131.512C186.147 129.44 186.851 127.354 187.605 125.264C190.148 118.218 195.723 114.413 198.571 112.437ZM203.381 102.5C201.222 109.065 195.859 113.199 191.402 111.734C186.946 110.268 185.083 103.758 187.242 97.1928C189.4 90.6274 194.763 86.4932 199.22 87.9587C203.677 89.4242 205.54 95.9344 203.381 102.5Z" fill="url(#paint5_linear_4187_311503)"/>
<path d="M180.02 138.502C181.198 139.898 182.523 140.557 183.161 139.433C184.313 137.404 184.916 135.954 184.617 134.284C184.356 132.822 182.572 131.455 181.721 131.588C179.334 131.961 178.636 136.816 180.02 138.502Z" fill="#92A3F5"/>
<path d="M387.12 109.307C391.006 105.567 397.279 107.236 397.665 111.712C397.965 115.2 395.826 118.417 393.686 120.037C392.987 118.059 387.12 109.307 387.12 109.307Z" fill="url(#paint6_linear_4187_311503)"/>
<path d="M387.127 109.286C384.936 111.511 383.99 121.34 389.947 120.94C389.427 122.758 378.338 131.146 374.977 134.091L369.806 139.117C369.806 139.117 357.734 134.624 358.028 131.445C357.682 129.969 352.991 127.749 352.991 127.749C352.482 128.433 353.19 129.15 353.764 129.731C354.296 130.269 354.713 130.69 353.937 130.859C349.602 133.043 352.064 133.817 354.195 134.488C355.009 134.744 355.776 134.985 356.095 135.284C356.291 135.448 356.595 135.711 356.984 136.048C359.8 138.487 367.221 143.94 370.055 143.359C373.287 142.526 383.112 135.284 383.112 135.284C386.309 139.515 400.232 157.349 397.278 161.597C393.677 168.107 387.789 179.332 382.175 189.542C381.012 191.657 380.287 197.796 379.471 204.696C378.838 210.055 378.15 215.874 377.161 220.624C376.985 221.471 375.131 221.516 372.982 221.569C370.244 221.637 367.026 221.717 366.194 223.482L380.138 225.133L388.151 193.018C388.151 193.018 403.73 178.672 408.898 172.027C414.08 165.362 409.039 156.77 405.576 147.225C403.485 141.465 400.688 128.775 395.792 123.908C394.353 123.075 394.143 121.441 393.677 119.19C392.549 113.734 390.05 110.203 387.127 109.286Z" fill="#92A3F5"/>
<path d="M413.973 165.804C417.373 172.359 424.998 192.607 424.998 192.607L450.993 211.64C450.476 214.902 449.549 227.268 449.549 227.268C445.514 225.549 447.367 214.139 445.446 212.94C437.18 207.783 426.477 201.426 421.008 197.367C412.332 190.926 408.325 181.742 403.018 171.257C398.294 160.487 399.799 160.711 399.799 160.711L413.973 165.804Z" fill="#92A3F5"/>
<path d="M396.788 161.316C396.788 161.316 387.321 143.546 383.203 135.586C382.57 136.171 378.68 138.385 378.68 138.385C377.447 136.924 376.594 135.694 374.951 134.117C377.163 131.718 382.284 127.671 386.232 124.732C386.232 124.732 387.925 126.991 390.153 127.397C392.382 127.804 394.996 125.653 395.745 123.897C400.235 126.684 402.922 128.995 405.847 132.144C405.61 133.606 404.524 137.429 403.291 138.578C405.924 144.243 407.408 151.754 409.738 156.082C411.329 159.037 420.512 172.106 421.995 174.448C409.248 183.62 402.136 182.832 389.788 174.448C391.98 169.758 396.788 161.316 396.788 161.316Z" fill="#ED4F2F"/>
<path d="M396.788 161.316C396.788 161.316 387.321 143.546 383.203 135.586C382.57 136.171 378.68 138.385 378.68 138.385C377.447 136.924 376.594 135.694 374.951 134.117C377.163 131.718 382.284 127.671 386.232 124.732C386.232 124.732 387.925 126.991 390.153 127.397C392.382 127.804 394.996 125.653 395.745 123.897C400.235 126.684 402.922 128.995 405.847 132.144C405.61 133.606 404.524 137.429 403.291 138.578C405.924 144.243 407.408 151.754 409.738 156.082C411.329 159.037 420.512 172.106 421.995 174.448C409.248 183.62 402.136 182.832 389.788 174.448C391.98 169.758 396.788 161.316 396.788 161.316Z" fill="url(#paint7_linear_4187_311503)"/>
<path d="M405.732 132.028L402.786 138.077L407.805 143.105L388.412 156.161C389.418 157.067 393.293 157.069 396.891 153.849C399.557 151.464 415.328 147.542 414.586 143.976C413.612 140.402 407.431 133.703 405.732 132.028Z" fill="#92A3F5"/>
<path fill-rule="evenodd" clip-rule="evenodd" d="M342.264 115.343C341.38 112.747 339.516 110.105 336.669 108.173C331.368 104.577 324.971 104.756 322.381 108.573C319.792 112.39 321.99 118.4 327.291 121.996C329.901 123.767 332.778 124.623 335.334 124.579C339.286 124.672 345.195 125.972 348.353 128.178C349.939 129.324 351.508 130.516 353.061 131.695C354.431 132.736 355.788 133.766 357.134 134.749C357.177 134.786 357.219 134.803 357.259 134.798C357.295 134.794 357.331 134.772 357.365 134.733L358.601 132.983C358.673 132.901 358.667 132.823 358.585 132.752C357.058 131.637 355.494 130.559 353.918 129.471C352.494 128.489 351.061 127.5 349.635 126.472C344.83 123.006 343.148 117.939 342.264 115.343ZM335.752 109.525C340.276 112.594 342.254 117.572 340.171 120.642C338.087 123.713 332.731 123.715 328.207 120.646C323.684 117.576 321.705 112.599 323.789 109.528C325.872 106.457 331.229 106.456 335.752 109.525Z" fill="url(#paint8_linear_4187_311503)"/>
<path d="M349.887 130.86C349.819 129.408 350.229 128.298 351.197 128.593C352.944 129.125 354.066 129.627 354.786 130.753C355.416 131.738 355.12 133.508 354.56 133.901C352.987 135.003 349.992 132.594 349.887 130.86Z" fill="#92A3F5"/>
<path d="M397.965 107.358C401.267 105.79 404.968 108.067 404.609 111.853C404.051 117.742 399.21 120.527 399.21 120.527C399.21 120.527 401.019 110.866 397.373 110.266C395.882 110.021 394.663 108.926 397.965 107.358Z" fill="url(#paint9_linear_4187_311503)"/>
<g filter="url(#filter3_f_4187_311503)">
<path d="M363.893 103.411C319.594 106.387 290.511 47.9446 223.405 19.0617L218.261 29.8732C269.165 51.7793 293.751 83.0922 338.97 132.366L363.893 103.411Z" fill="url(#paint10_linear_4187_311503)" fill-opacity="0.4"/>
</g>
<circle cx="222" cy="25" r="4" fill="url(#paint11_radial_4187_311503)"/>
</g>
<defs>
<filter id="filter0_f_4187_311503" x="7.83368" y="-397.163" width="547.826" height="556.962" filterUnits="userSpaceOnUse" color-interpolation-filters="sRGB">
<feFlood flood-opacity="0" result="BackgroundImageFix"/>
<feBlend mode="normal" in="SourceGraphic" in2="BackgroundImageFix" result="shape"/>
<feGaussianBlur stdDeviation="17.4744" result="effect1_foregroundBlur_4187_311503"/>
</filter>
<filter id="filter1_f_4187_311503" x="-181" y="87.3398" width="448.383" height="178.004" filterUnits="userSpaceOnUse" color-interpolation-filters="sRGB">
<feFlood flood-opacity="0" result="BackgroundImageFix"/>
<feBlend mode="normal" in="SourceGraphic" in2="BackgroundImageFix" result="shape"/>
<feGaussianBlur stdDeviation="10" result="effect1_foregroundBlur_4187_311503"/>
</filter>
<filter id="filter2_f_4187_311503" x="370.07" y="53.543" width="275.131" height="201.474" filterUnits="userSpaceOnUse" color-interpolation-filters="sRGB">
<feFlood flood-opacity="0" result="BackgroundImageFix"/>
<feBlend mode="normal" in="SourceGraphic" in2="BackgroundImageFix" result="shape"/>
<feGaussianBlur stdDeviation="10" result="effect1_foregroundBlur_4187_311503"/>
</filter>
<filter id="filter3_f_4187_311503" x="198.261" y="-0.938477" width="185.632" height="153.304" filterUnits="userSpaceOnUse" color-interpolation-filters="sRGB">
<feFlood flood-opacity="0" result="BackgroundImageFix"/>
<feBlend mode="normal" in="SourceGraphic" in2="BackgroundImageFix" result="shape"/>
<feGaussianBlur stdDeviation="10" result="effect1_foregroundBlur_4187_311503"/>
</filter>
<linearGradient id="paint0_linear_4187_311503" x1="275.599" y1="-158.82" x2="218.771" y2="124.361" gradientUnits="userSpaceOnUse">
<stop offset="0.586531" stop-color="#1E1836" stop-opacity="0"/>
<stop offset="1" stop-color="#1C264C"/>
</linearGradient>
<linearGradient id="paint1_linear_4187_311503" x1="222.073" y1="166.954" x2="23.6032" y2="177.875" gradientUnits="userSpaceOnUse">
<stop stop-color="#FD570C" stop-opacity="0.58"/>
<stop offset="1" stop-color="#CE3E1E" stop-opacity="0"/>
</linearGradient>
<linearGradient id="paint2_linear_4187_311503" x1="433.655" y1="148.178" x2="593.5" y2="148.178" gradientUnits="userSpaceOnUse">
<stop stop-color="#FD570C" stop-opacity="0.63"/>
<stop offset="1" stop-color="#CE3E1E" stop-opacity="0"/>
</linearGradient>
<linearGradient id="paint3_linear_4187_311503" x1="210.687" y1="110.125" x2="210.687" y2="126.256" gradientUnits="userSpaceOnUse">
<stop stop-color="#ED4F2F"/>
<stop offset="1" stop-color="#B6282D"/>
</linearGradient>
<linearGradient id="paint4_linear_4187_311503" x1="208.5" y1="204" x2="261" y2="138" gradientUnits="userSpaceOnUse">
<stop stop-color="#8F0C2C"/>
<stop offset="1" stop-color="#8F0C2C" stop-opacity="0"/>
</linearGradient>
<linearGradient id="paint5_linear_4187_311503" x1="193.232" y1="85.5273" x2="193.232" y2="138.452" gradientUnits="userSpaceOnUse">
<stop stop-color="#ED4F2F"/>
<stop offset="1" stop-color="#B5272D"/>
</linearGradient>
<linearGradient id="paint6_linear_4187_311503" x1="393.292" y1="107.333" x2="390.525" y2="119.306" gradientUnits="userSpaceOnUse">
<stop stop-color="#ED4F2F"/>
<stop offset="1" stop-color="#B1242D"/>
</linearGradient>
<linearGradient id="paint7_linear_4187_311503" x1="375" y1="186.5" x2="419" y2="147" gradientUnits="userSpaceOnUse">
<stop stop-color="#8F0C2C"/>
<stop offset="1" stop-color="#8F0C2C" stop-opacity="0"/>
</linearGradient>
<linearGradient id="paint8_linear_4187_311503" x1="338.5" y1="107" x2="330.5" y2="126.5" gradientUnits="userSpaceOnUse">
<stop stop-color="#ED4F2F"/>
<stop offset="1" stop-color="#B4262D"/>
</linearGradient>
<linearGradient id="paint9_linear_4187_311503" x1="399.809" y1="106.857" x2="401.602" y2="120.206" gradientUnits="userSpaceOnUse">
<stop stop-color="#ED4F2F"/>
<stop offset="1" stop-color="#B6282D"/>
</linearGradient>
<linearGradient id="paint10_linear_4187_311503" x1="209.576" y1="45.7285" x2="356.694" y2="139.251" gradientUnits="userSpaceOnUse">
<stop stop-color="#FD570C"/>
<stop offset="1" stop-color="#CE3E1E" stop-opacity="0"/>
</linearGradient>
<radialGradient id="paint11_radial_4187_311503" cx="0" cy="0" r="1" gradientUnits="userSpaceOnUse" gradientTransform="translate(223.5 24) rotate(123.69) scale(3.60555)">
<stop stop-color="#F0502A"/>
<stop offset="1" stop-color="#8F0C2C"/>
</radialGradient>
<clipPath id="clip0_4187_311503">
<rect width="608" height="253" fill="white" transform="translate(0 0.5)"/>
</clipPath>
</defs>
</svg>
