<svg width="608" height="254" viewBox="0 0 608 254" fill="none" xmlns="http://www.w3.org/2000/svg">
<g clip-path="url(#clip0_3296_254408)">
<g filter="url(#filter0_f_3296_254408)">
<path d="M31.6025 106.213C132.69 129.315 254.136 103.632 315.889 79.5342C319.524 117.512 329.5 205.523 329.5 205.523C329.5 205.523 308.054 229.983 287.548 249.483L98.1377 253.472L31.6025 106.213Z" fill="url(#paint0_radial_3296_254408)" fill-opacity="0.4"/>
</g>
<g filter="url(#filter1_f_3296_254408)">
<ellipse cx="282.147" cy="-118.682" rx="238.898" ry="243.561" transform="rotate(-5.7628 282.147 -118.682)" fill="url(#paint1_linear_3296_254408)"/>
</g>
<g filter="url(#filter2_f_3296_254408)">
<path d="M503.612 163.096C432.092 167.364 409.514 74.0445 315.033 24.5089L300.205 26.9562L304.524 36.458C376.194 74.0283 400.76 127.874 452.05 211.247L503.612 163.096Z" fill="url(#paint2_linear_3296_254408)" fill-opacity="0.3"/>
</g>
<path d="M282.3 101.418C275.877 100.828 272.497 106.611 273.898 111.499C276.559 120.788 285.466 118.057 285.466 118.057L285.112 106.392L282.3 101.418Z" fill="url(#paint3_linear_3296_254408)"/>
<path d="M282.184 101.418C287.199 101.736 298.745 107.16 293.135 114.481C293.4 115.748 295.39 118.288 297.61 116.125C301.752 112.064 303.892 108.152 307.01 103.176C308.608 100.627 311.403 94.8091 311.403 94.8091L318.762 51.7913C325.099 55.7735 319.414 63.5294 319.635 68.9057C320.071 79.5481 319.957 90.9383 318.762 96.8433C317.072 105.191 311.553 123.937 311.553 123.937C311.553 123.937 315.044 137.776 318.419 145.439C322.937 155.7 337.876 194.103 323.185 209.504C317.273 215.702 295.439 234.389 292.112 238.585C290.736 240.319 299.061 249.658 296.266 253.472L283.681 240.864L311.693 201.142C311.693 201.142 311.932 181.218 306.833 170.026C302.203 159.863 289.109 148.726 289.109 148.726C289.109 148.726 273.235 157.6 269.351 157.6C265.467 157.6 261.061 149.885 257.039 142.841C254.551 138.482 252.209 134.38 250.228 132.522C250.509 130.624 251.284 128.357 252.128 128.075C252.939 127.805 252.441 127.423 251.656 126.821C250.63 126.033 249.112 124.869 249.386 123.084C249.386 123.084 253.463 124.982 254.799 125.826C255.449 126.259 255.58 127.637 255.724 129.161C255.861 130.605 256.011 132.181 256.627 133.207C260.081 137.351 271.46 147.688 271.46 147.688C277.378 140.481 281.906 133.31 286.605 125.288C287.636 123.528 285.43 118.075 285.43 118.075C285.43 118.075 279.436 105.337 282.184 101.418Z" fill="#FF702E"/>
<path d="M324.185 155.562C337.823 166.95 352.567 185.719 353.692 192.538C352.349 202.002 334.807 219.165 329.393 226.689C327.409 229.447 336.701 240.534 333.138 243.322C333.138 243.322 321.832 231.937 320.163 230.92L339.88 194.864C339.88 194.864 319.437 178.926 315.782 174.356C311.986 169.717 324.185 155.562 324.185 155.562Z" fill="url(#paint4_linear_3296_254408)"/>
<path d="M326.188 153.982C318.465 142.688 315.876 134.709 312.024 123.928L314.497 113.591L307.38 102.566L297.301 116.368C297.301 116.368 298.209 119.983 295.06 123.292C292.535 125.944 286.52 125.409 286.52 125.409C286.52 125.409 278.659 138.492 273.792 144.687C274.846 146.585 281.612 152.739 281.612 152.739L288.327 149.166C288.327 149.166 303.383 164.344 306.083 172.912C308.783 181.48 311.309 192.108 311.309 192.108L329.486 192.387L329.741 187.179L332.694 189.178L343.529 175.626C336.302 165.686 332.048 162.551 326.188 153.982Z" fill="url(#paint5_linear_3296_254408)"/>
<path fill-rule="evenodd" clip-rule="evenodd" d="M266.508 108.695C269.568 106.572 272.322 103.152 273.782 98.7132C276.499 90.4495 273.878 82.1642 267.927 80.2075C261.977 78.2508 254.95 83.3638 252.233 91.6276C250.895 95.6973 250.851 99.7722 251.862 103.094C253.216 108.289 253.724 116.489 252.023 121.435C251.118 123.935 250.148 126.428 249.187 128.895C248.34 131.072 247.501 133.228 246.721 135.353C246.688 135.423 246.682 135.483 246.703 135.534C246.722 135.581 246.764 135.619 246.828 135.649L249.574 136.609C249.708 136.672 249.807 136.636 249.87 136.502C250.755 134.092 251.58 131.647 252.411 129.184C253.162 126.959 253.919 124.718 254.729 122.472C257.46 114.905 263.448 110.818 266.508 108.695ZM271.674 98.021C269.356 105.073 263.595 109.514 258.808 107.94C254.021 106.365 252.02 99.3726 254.339 92.3205C256.657 85.2685 262.418 80.8278 267.205 82.4019C271.992 83.9761 273.993 90.9689 271.674 98.021Z" fill="url(#paint6_linear_3296_254408)"/>
<path d="M246.581 131.379C247.847 132.855 249.27 133.552 249.956 132.363C251.193 130.219 251.841 128.685 251.52 126.92C251.239 125.373 249.323 123.927 248.409 124.068C245.845 124.463 245.095 129.596 246.581 131.379Z" fill="#FF702E"/>
<ellipse cx="306.328" cy="27.5895" rx="6.05041" ry="6.05041" fill="url(#paint7_radial_3296_254408)"/>
</g>
<defs>
<filter id="filter0_f_3296_254408" x="11.6025" y="59.5342" width="337.897" height="213.938" filterUnits="userSpaceOnUse" color-interpolation-filters="sRGB">
<feFlood flood-opacity="0" result="BackgroundImageFix"/>
<feBlend mode="normal" in="SourceGraphic" in2="BackgroundImageFix" result="shape"/>
<feGaussianBlur stdDeviation="10" result="effect1_foregroundBlur_3296_254408"/>
</filter>
<filter id="filter1_f_3296_254408" x="8.23371" y="-397.163" width="547.826" height="556.962" filterUnits="userSpaceOnUse" color-interpolation-filters="sRGB">
<feFlood flood-opacity="0" result="BackgroundImageFix"/>
<feBlend mode="normal" in="SourceGraphic" in2="BackgroundImageFix" result="shape"/>
<feGaussianBlur stdDeviation="17.4744" result="effect1_foregroundBlur_3296_254408"/>
</filter>
<filter id="filter2_f_3296_254408" x="290.205" y="14.5088" width="223.407" height="206.739" filterUnits="userSpaceOnUse" color-interpolation-filters="sRGB">
<feFlood flood-opacity="0" result="BackgroundImageFix"/>
<feBlend mode="normal" in="SourceGraphic" in2="BackgroundImageFix" result="shape"/>
<feGaussianBlur stdDeviation="5" result="effect1_foregroundBlur_3296_254408"/>
</filter>
<radialGradient id="paint0_radial_3296_254408" cx="0" cy="0" r="1" gradientUnits="userSpaceOnUse" gradientTransform="translate(293 129) rotate(153.318) scale(218.241 143.14)">
<stop stop-color="#FF6B00" stop-opacity="0.47"/>
<stop offset="1" stop-color="#FF7657" stop-opacity="0"/>
</radialGradient>
<linearGradient id="paint1_linear_3296_254408" x1="275.999" y1="-158.82" x2="219.171" y2="124.361" gradientUnits="userSpaceOnUse">
<stop offset="0.586531" stop-color="#1E1836" stop-opacity="0"/>
<stop offset="1" stop-color="#1C264C"/>
</linearGradient>
<linearGradient id="paint2_linear_3296_254408" x1="282.72" y1="61.3893" x2="410.787" y2="178.229" gradientUnits="userSpaceOnUse">
<stop stop-color="#FD570C"/>
<stop offset="1" stop-color="#CE3E1E" stop-opacity="0"/>
</linearGradient>
<linearGradient id="paint3_linear_3296_254408" x1="283.593" y1="106.594" x2="275.734" y2="115.062" gradientUnits="userSpaceOnUse">
<stop stop-color="#9B1D3B"/>
<stop offset="1" stop-color="#6A0730"/>
</linearGradient>
<linearGradient id="paint4_linear_3296_254408" x1="346.583" y1="184.812" x2="320.402" y2="182.173" gradientUnits="userSpaceOnUse">
<stop stop-color="#FF702E"/>
<stop offset="1" stop-color="#D14B0E"/>
</linearGradient>
<linearGradient id="paint5_linear_3296_254408" x1="332.535" y1="130.047" x2="288.308" y2="157.882" gradientUnits="userSpaceOnUse">
<stop stop-color="#9B1D3B"/>
<stop offset="1" stop-color="#6A0730"/>
</linearGradient>
<linearGradient id="paint6_linear_3296_254408" x1="270.415" y1="97.1835" x2="242.657" y2="103.341" gradientUnits="userSpaceOnUse">
<stop stop-color="#9B1D3B"/>
<stop offset="1" stop-color="#6A0730"/>
</linearGradient>
<radialGradient id="paint7_radial_3296_254408" cx="0" cy="0" r="1" gradientUnits="userSpaceOnUse" gradientTransform="translate(307.896 25.8852) rotate(144.462) scale(5.0577 6.32938)">
<stop stop-color="#9B1D3B"/>
<stop offset="1" stop-color="#6A0730"/>
</radialGradient>
<clipPath id="clip0_3296_254408">
<rect width="607.2" height="253" fill="white" transform="translate(0.399994 0.5)"/>
</clipPath>
</defs>
</svg>
