<svg width="608" height="254" viewBox="0 0 608 254" fill="none" xmlns="http://www.w3.org/2000/svg">
<g clip-path="url(#clip0_3294_254295)">
<g filter="url(#filter0_f_3294_254295)">
<ellipse cx="282.147" cy="-97.1821" rx="238.898" ry="243.561" transform="rotate(-5.7628 282.147 -97.1821)" fill="url(#paint0_linear_3294_254295)"/>
</g>
<g filter="url(#filter1_f_3294_254295)">
<path d="M28.5 90.1604C115.396 105.742 228.668 88.0756 309.248 74.0991C315.349 144.201 313.209 183.404 278.885 252.78H95.3054L28.5 90.1604Z" fill="url(#paint1_radial_3294_254295)" fill-opacity="0.4"/>
</g>
<path d="M295.684 75.1634C290.591 73.8792 285.963 78.054 287.485 83.2238C289.852 91.2648 297.45 93.8247 297.45 93.8247C297.45 93.8247 292.302 80.8743 297.301 79.0484C299.345 78.3021 300.778 76.4475 295.684 75.1634Z" fill="url(#paint2_linear_3294_254295)"/>
<path d="M311.492 75.8306C305.224 70.9956 297.505 73.4195 296.961 79.632C296.537 84.472 300.292 87.7003 303.241 90.6697C304.229 87.9242 311.492 75.8306 311.492 75.8306Z" fill="url(#paint3_linear_3294_254295)"/>
<path d="M298.48 174.045C299.122 176.53 300.005 175.328 301.209 175.729C302.413 176.129 302.413 175.328 303.376 175.568C304.419 175.809 304.419 174.927 305.142 174.927C305.784 175.007 305.944 171.801 305.704 170.678C305.463 169.556 304.419 169.797 304.098 170.037C303.777 170.278 303.376 169.235 302.493 169.797C301.61 170.358 301.289 169.396 300.326 170.037C299.443 170.598 299.041 170.598 298.72 171.56C298.399 172.522 298.399 173.564 298.48 174.045Z" fill="#FDD0A2"/>
<path d="M313.097 92.4561C316.796 87.9785 316.121 79.8113 311.483 75.8474C304.82 78.3621 303.114 86.3989 303.254 91.0392C303.371 94.9516 303.679 95.9294 299.826 100.819C295.973 105.629 294.714 108.392 294.714 108.392C294.714 108.392 301.931 143.744 300.005 149.917C297.614 162.875 292.527 192.025 292.527 192.025C292.527 192.025 278.325 233.657 274.598 242.056C272.062 246.73 264.462 253.169 271.637 253.169C275.986 253.169 278.658 248.693 279.97 243.395C281.282 238.098 303.845 203.361 307.632 193.872C310.658 186.288 314.144 180.687 316.089 171.521C319.642 175.847 333.269 192.025 333.269 192.025C333.269 192.025 333.395 239.556 332.482 246.764L351.087 248.164C350.423 242.695 339.098 242.482 339.098 239.716C339.098 235.191 345.013 192.613 343.909 186.615C341.595 174.041 324.368 145.757 324.368 145.757C324.167 135.398 324.372 116.227 323.465 107.079C326.507 107.32 336.53 109.988 343.158 112.837C350.884 116.159 359.145 120.124 360.295 122.036C363.16 126.798 370.865 128.921 371.903 127.252C371.903 127.252 357.932 114.635 351.47 110.345C339.696 102.529 335.784 100.237 325.126 97.1049C320.225 95.6646 312.448 95.6152 312.448 95.6152L310.637 93.3516C310.637 93.3516 312.543 93.126 313.097 92.4561Z" fill="url(#paint4_linear_3294_254295)"/>
<path d="M315.348 95.6609C315.589 96.6319 314.666 102.162 312.845 103.822C308.431 108.03 302.13 103.372 300.894 99.4232C293.387 108.525 290.141 111.877 293.063 128.017C293.063 128.017 302.125 143.12 300.563 147.8C298.115 157.393 296.756 167.013 295.181 176.793C315.144 181.777 320.015 175.005 338.5 167.232C336.14 161.933 327.795 149.468 324.75 143.738C324.233 137.229 324.513 115.611 323.996 107.251L328.715 108.106C329.413 105.089 330.476 102.29 331.43 99.1162C323.899 96.5015 321.693 96.0775 315.348 95.6609Z" fill="url(#paint5_linear_3294_254295)"/>
<path d="M305.1 174.13C305.982 172.77 306.171 171.562 304.992 171.488C302.865 171.353 301.409 171.42 300.026 172.228C298.815 172.936 298.137 174.731 298.505 175.311C299.539 176.939 304.022 175.743 305.1 174.13Z" fill="#FF702E"/>
<ellipse cx="392.194" cy="152.328" rx="6.05838" ry="6.05041" fill="url(#paint6_radial_3294_254295)"/>
<ellipse cx="378.058" cy="243.085" rx="6.05838" ry="6.05041" fill="url(#paint7_radial_3294_254295)"/>
<ellipse cx="394.213" cy="243.085" rx="6.05838" ry="6.05041" fill="url(#paint8_radial_3294_254295)"/>
<ellipse cx="386.136" cy="226.95" rx="6.05838" ry="6.05041" fill="url(#paint9_radial_3294_254295)"/>
<path fill-rule="evenodd" clip-rule="evenodd" d="M275.722 173.662C271.777 172.489 266.753 172.919 262.057 174.964C253.495 178.691 248.874 186.785 251.737 193.041C254.6 199.298 263.861 201.348 272.423 197.62C276.955 195.647 279.652 193.062 282.468 188.815C285.514 184.221 290.929 178.564 296.198 176.357C298.849 175.297 301.543 174.296 304.21 173.304C306.563 172.43 308.895 171.563 311.156 170.671C311.31 170.625 311.361 170.525 311.312 170.371L310.036 167.443C309.986 167.288 309.885 167.233 309.732 167.278C307.166 168.29 304.617 169.376 302.048 170.47C299.728 171.457 297.393 172.452 295.013 173.406C284.906 177.458 277.608 173.999 275.722 173.662ZM263.071 177.179C270.377 173.998 278.168 175.5 280.471 180.533C282.774 185.566 278.717 192.225 271.41 195.406C264.104 198.587 256.314 197.085 254.011 192.052C251.708 187.019 255.764 180.36 263.071 177.179Z" fill="url(#paint10_linear_3294_254295)"/>
<path d="M293.146 127.977C294.492 133.505 301.497 161.811 300.037 166.22C299.379 168.208 297.375 172.367 296.974 174.852C300.48 174.852 298.364 170.839 302.087 170.653C303.692 170.493 305.323 169.608 305.885 169.047C306.447 168.485 305.311 162.617 305.311 158.502C305.311 145.637 302.16 127.977 302.16 127.977C298.509 126.634 293.146 127.977 293.146 127.977Z" fill="#FF702E"/>
</g>
<defs>
<filter id="filter0_f_3294_254295" x="8.23371" y="-375.663" width="547.826" height="556.963" filterUnits="userSpaceOnUse" color-interpolation-filters="sRGB">
<feFlood flood-opacity="0" result="BackgroundImageFix"/>
<feBlend mode="normal" in="SourceGraphic" in2="BackgroundImageFix" result="shape"/>
<feGaussianBlur stdDeviation="17.4744" result="effect1_foregroundBlur_3294_254295"/>
</filter>
<filter id="filter1_f_3294_254295" x="8.5" y="54.0991" width="323.417" height="218.681" filterUnits="userSpaceOnUse" color-interpolation-filters="sRGB">
<feFlood flood-opacity="0" result="BackgroundImageFix"/>
<feBlend mode="normal" in="SourceGraphic" in2="BackgroundImageFix" result="shape"/>
<feGaussianBlur stdDeviation="10" result="effect1_foregroundBlur_3294_254295"/>
</filter>
<linearGradient id="paint0_linear_3294_254295" x1="261.061" y1="-14.1978" x2="220.292" y2="146.007" gradientUnits="userSpaceOnUse">
<stop stop-color="#1E1836" stop-opacity="0"/>
<stop offset="1" stop-color="#1C264C"/>
</linearGradient>
<radialGradient id="paint1_radial_3294_254295" cx="0" cy="0" r="1" gradientUnits="userSpaceOnUse" gradientTransform="translate(277.191 124.914) rotate(151.514) scale(211.076 144.645)">
<stop stop-color="#FF6B00" stop-opacity="0.47"/>
<stop offset="1" stop-color="#FF7657" stop-opacity="0"/>
</radialGradient>
<linearGradient id="paint2_linear_3294_254295" x1="283.943" y1="83.6123" x2="296.657" y2="75.5439" gradientUnits="userSpaceOnUse">
<stop stop-color="#9B1D3B"/>
<stop offset="1" stop-color="#6A0730"/>
</linearGradient>
<linearGradient id="paint3_linear_3294_254295" x1="307" y1="84.3658" x2="300.865" y2="90.2118" gradientUnits="userSpaceOnUse">
<stop stop-color="#9B1D3B"/>
<stop offset="1" stop-color="#6A0730"/>
</linearGradient>
<linearGradient id="paint4_linear_3294_254295" x1="283.987" y1="210.677" x2="269.366" y2="259.137" gradientUnits="userSpaceOnUse">
<stop stop-color="#FF702E"/>
<stop offset="1" stop-color="#D14B0E"/>
</linearGradient>
<linearGradient id="paint5_linear_3294_254295" x1="331.17" y1="121.006" x2="290.367" y2="130.573" gradientUnits="userSpaceOnUse">
<stop stop-color="#9B1D3B"/>
<stop offset="1" stop-color="#6A0730"/>
</linearGradient>
<radialGradient id="paint6_radial_3294_254295" cx="0" cy="0" r="1" gradientUnits="userSpaceOnUse" gradientTransform="translate(394.379 150.996) rotate(140.44) scale(7.90359 5.89852)">
<stop stop-color="#9B1D3B"/>
<stop offset="1" stop-color="#6A0730"/>
</radialGradient>
<radialGradient id="paint7_radial_3294_254295" cx="0" cy="0" r="1" gradientUnits="userSpaceOnUse" gradientTransform="translate(380.243 241.752) rotate(140.44) scale(7.90359 5.89852)">
<stop stop-color="#9B1D3B"/>
<stop offset="1" stop-color="#6A0730"/>
</radialGradient>
<radialGradient id="paint8_radial_3294_254295" cx="0" cy="0" r="1" gradientUnits="userSpaceOnUse" gradientTransform="translate(396.399 241.752) rotate(140.44) scale(7.90359 5.89852)">
<stop stop-color="#9B1D3B"/>
<stop offset="1" stop-color="#6A0730"/>
</radialGradient>
<radialGradient id="paint9_radial_3294_254295" cx="0" cy="0" r="1" gradientUnits="userSpaceOnUse" gradientTransform="translate(388.321 225.618) rotate(140.44) scale(7.90359 5.89852)">
<stop stop-color="#9B1D3B"/>
<stop offset="1" stop-color="#6A0730"/>
</radialGradient>
<linearGradient id="paint10_linear_3294_254295" x1="255.594" y1="179.592" x2="264.317" y2="155.653" gradientUnits="userSpaceOnUse">
<stop stop-color="#9B1D3B"/>
<stop offset="1" stop-color="#6A0730"/>
</linearGradient>
<clipPath id="clip0_3294_254295">
<rect width="608" height="253" fill="white" transform="translate(0 0.5)"/>
</clipPath>
</defs>
</svg>
